<svg xmlns="http://www.w3.org/2000/svg" width="1440" height="567" fill="none"><g filter="url(#a)"><circle cx="719.621" cy="20.127" r="142.749" fill="#719A3C" fill-opacity=".21" transform="rotate(-90 719.621 20.127)"/></g><mask id="c" width="1157" height="691" x="142" y="-325" maskUnits="userSpaceOnUse" style="mask-type:alpha"><path fill="url(#b)" d="M142-325h1156.45v690.254H142z"/></mask><g stroke="#fff" stroke-width="1.205" mask="url(#c)"><path d="M290.772-28.058h95.166v95.166h-95.166zm95.166 0h95.166v95.166h-95.166zm95.166 0h95.166v95.166h-95.166zm95.166 0h95.166v95.166H576.27z"/><path d="M671.435-28.058h95.166v95.166h-95.166zm95.166 0h95.166v95.166h-95.166zm95.166 0h95.166v95.166h-95.166zm95.166 0h95.166v95.166h-95.166zm95.167 0h95.166v95.166H1052.1zM290.772 67.107h95.166v95.166h-95.166zm95.166 0h95.166v95.166h-95.166zm95.166 0h95.166v95.166h-95.166z"/><path fill="#fff" fill-opacity=".25" d="M576.27 67.107h95.166v95.166H576.27z"/><path d="M671.435 67.107h95.166v95.166h-95.166zm95.166 0h95.166v95.166h-95.166zm95.166 0h95.166v95.166h-95.166zm95.166 0h95.166v95.166h-95.166zm95.167 0h95.166v95.166H1052.1zm-761.328 95.166h95.166v95.166h-95.166zm95.166 0h95.166v95.166h-95.166zm95.166 0h95.166v95.166h-95.166zm95.166 0h95.166v95.166H576.27z"/><path d="M671.435 162.273h95.166v95.166h-95.166zm95.166 0h95.166v95.166h-95.166zm95.166 0h95.166v95.166h-95.166zm95.166 0h95.166v95.166h-95.166zm95.167 0h95.166v95.166H1052.1zm-761.328 95.166h95.166v95.166h-95.166zm95.166 0h95.166v95.166h-95.166zm95.166 0h95.166v95.166h-95.166zm95.166 0h95.166v95.166H576.27z"/><path d="M671.435 257.439h95.166v95.166h-95.166zm95.166 0h95.166v95.166h-95.166zm95.166 0h95.166v95.166h-95.166zm95.166 0h95.166v95.166h-95.166zm95.167 0h95.166v95.166H1052.1z"/></g><g filter="url(#d)" opacity=".9"><ellipse cx="733.5" cy="-175.5" fill="url(#e)" rx="829.5" ry="367.5"/></g><defs><filter id="a" width="767.35" height="767.351" x="335.946" y="-363.548" color-interpolation-filters="sRGB" filterUnits="userSpaceOnUse"><feFlood flood-opacity="0" result="BackgroundImageFix"/><feBlend in="SourceGraphic" in2="BackgroundImageFix" result="shape"/><feGaussianBlur result="effect1_foregroundBlur_31_659" stdDeviation="120.463"/></filter><filter id="d" width="1859" height="935" x="-196" y="-643" color-interpolation-filters="sRGB" filterUnits="userSpaceOnUse"><feFlood flood-opacity="0" result="BackgroundImageFix"/><feBlend in="SourceGraphic" in2="BackgroundImageFix" result="shape"/><feGaussianBlur result="effect1_foregroundBlur_31_659" stdDeviation="50"/></filter><radialGradient id="b" cx="0" cy="0" r="1" gradientTransform="matrix(0 425.464 -712.819 0 720.66 19.997)" gradientUnits="userSpaceOnUse"><stop stop-color="#D9D9D9" stop-opacity=".2"/><stop offset=".802" stop-color="#D9D9D9" stop-opacity="0"/></radialGradient><linearGradient id="e" x1="733.5" x2="731.21" y1="-543" y2="191.994" gradientUnits="userSpaceOnUse"><stop stop-color="#CCF001" stop-opacity=".25"/><stop offset="1" stop-color="#D9D9D9" stop-opacity="0"/></linearGradient></defs></svg>