<svg width="20" height="20" viewBox="0 0 20 20" fill="none" xmlns="http://www.w3.org/2000/svg">
<path fill-rule="evenodd" clip-rule="evenodd" d="M10 20C5.28595 20 2.92893 20 1.46447 18.5355C-1.19209e-07 17.0711 0 14.714 0 10C0 5.28595 -1.19209e-07 2.92893 1.46447 1.46447C2.92893 -1.19209e-07 5.28595 0 10 0C14.714 0 17.0711 -1.19209e-07 18.5355 1.46447C20 2.92893 20 5.28595 20 10C20 14.714 20 17.0711 18.5355 18.5355C17.0711 20 14.714 20 10 20ZM14.0303 6.96967C14.3232 7.26256 14.3232 7.73744 14.0303 8.0303L9.0303 13.0303C8.7374 13.3232 8.2626 13.3232 7.96967 13.0303L5.96967 11.0303C5.67678 10.7374 5.67678 10.2626 5.96967 9.9697C6.26256 9.6768 6.73744 9.6768 7.03033 9.9697L8.5 11.4393L12.9697 6.96967C13.2626 6.67678 13.7374 6.67678 14.0303 6.96967Z" fill="#1D1D1D"/>
</svg>
