<svg width="469" height="440" viewBox="0 0 469 440" fill="none" xmlns="http://www.w3.org/2000/svg">
<path d="M69.1001 157.7C79.7591 157.7 88.4 149.059 88.4 138.4C88.4 127.741 79.7591 119.1 69.1001 119.1C58.441 119.1 49.8 127.741 49.8 138.4C49.8 149.059 58.441 157.7 69.1001 157.7Z" stroke="#1A2E35" stroke-miterlimit="10" stroke-linecap="round" stroke-linejoin="round"/>
<path d="M401.3 83.4001C409.6 82.2001 419.9 86.1 420.9 95.5C421.8 104 416 112.7 410.8 118.9C405.9 124.8 399.2 131.4 391.8 133.9C383.3 136.8 380.6 128 385.8 122.4C396.2 111.1 420.7 105.5 433.6 115.1C448.1 125.9 438.3 148.6 424.7 155.4C420.3 157.6 416.4 154.8 419.6 150.1C422 146.6 426.6 144.9 430.6 144.2C438.6 142.7 451.1 144.5 454.1 153.5M383.8 90.8C387.8 88.2 392.1 85.9 396.7 84.5M375.6 97.1001C377 95.9001 378.4 94.7001 379.8 93.6001M241.9 13.1L245.4 9.50005L203.3 13.5L227.3 23.8M229.3 24.6L245.4 31.5L236.2 19L240.6 14.5M320.4 14.9001V0.800049M320.4 25.3V19.2001M335.3 27.2001L345.5 6.00005M363.8 27.8C365.4 26.6 366.9 25.4001 368.5 24.2001M347.8 40.1C351.8 37 355.9 33.9 359.9 30.8M22.5 239.3L1 233.7L4.39999 263L38.4 243.4L24.4 239.8M444.2 228.5L468 236.8M431.3 346.6C433.2 348.6 435.9 349.9 438.9 349.9C444.6 349.9 449.3 345.2 449.3 339.5C449.3 336.3 447.8 333.4 445.6 331.5M443.7 330.3C442.3 329.5 440.6 329.1 438.9 329.1C433.2 329.1 428.5 333.8 428.5 339.5C428.5 341.5 429.1 343.4 430.1 345M38.8 307.1C35.7 315.1 32.6 323 29.6 331M41.8 299.3C41.4 300.5 40.9 301.6 40.5 302.8M113.7 163L139.2 177.7M85.5 74.6001C78.6 79.1001 71.7 83.5 64.8 88M92.8 69.8C91.7 70.5 90.7 71.2 89.6 71.8M449.3 83.2V92.2L456.1 90.4001L449.3 83.2Z" stroke="#1A2E35" stroke-miterlimit="10" stroke-linecap="round" stroke-linejoin="round"/>
<path d="M160.4 96C159.2 92.6 172.1 77.4 172.1 77.4L179.1 84.8C179.1 84.9 162.7 102.7 160.4 96Z" fill="#5AE4A7" stroke="#1A2E35" stroke-miterlimit="10" stroke-linecap="round" stroke-linejoin="round"/>
<path d="M142.7 74.1001C146.5 77.4001 149 74.9001 149 74.9001C149 74.9001 148.4 77.3001 150.9 78.0001C152.6 78.5001 159.4 75.3001 164 75.3001C164 75.3001 166.3 86.2001 166 97.9001C166 97.9001 181.7 99.5001 183.8 88.3001C183.8 88.3001 180.8 81.2001 178.8 74.7001C176 65.9001 175.7 63.5001 174.2 61.6001C171.9 58.7001 152.9 53.6001 147.8 53.4001C142.7 53.2001 139.9 72.6001 133.6 81.6001C133.6 81.6001 135.6 82.8001 138.2 81.1001C139.8 79.9001 142.7 74.1001 142.7 74.1001Z" fill="#BFBFBF" stroke="#1A2E35" stroke-miterlimit="10" stroke-linecap="round" stroke-linejoin="round"/>
<path d="M142.7 74.1C145.8 66.3 149.7 63.1 149.7 63.1C149.7 63.1 150.8 60.3 149.7 59.5M149 74.8C149.2 72.5 157.4 70 158.4 68.6C159.4 67.2 158.4 61.4 158.4 61.4M164 75.2C167 75.2 170.1 72.4 170.8 70.3" stroke="#1A2E35" stroke-miterlimit="10" stroke-linecap="round" stroke-linejoin="round"/>
<path d="M149.8 63C149.8 63 152.5 64.9 154.7 64.9C154.7 64.9 157.4 66.2 157.4 69.4M150.8 67.2C150.8 67.2 148.7 69.4 149 72.5M146.5 68.8C146.5 68.8 148.4 67.5 149.3 68.8" stroke="#1A2E35" stroke-miterlimit="10" stroke-linecap="round" stroke-linejoin="round"/>
<path d="M287.1 145.1C287.1 145.1 273.9 135.5 262.5 137.2C262.5 137.2 202.1 144 200.7 144C200.7 144 184.5 82.7001 181.4 77.5001C181.4 77.5001 180.8 73.2001 179.1 72.6001C179.1 72.6001 172 92.2001 160.3 96.1001C160.3 96.1001 161.4 99.8001 164 99.8001C164 99.8001 163.6 166.4 172.9 174.3C182.3 182.2 261.2 188.8 261.2 188.8L287.1 145.1Z" fill="#62CC9A"/>
<mask id="mask0_280_153" style="mask-type:luminance" maskUnits="userSpaceOnUse" x="160" y="72" width="128" height="117">
<path d="M287.1 145.1C287.1 145.1 273.9 135.5 262.5 137.2C262.5 137.2 202.1 144 200.7 144C200.7 144 184.5 82.7001 181.4 77.5001C181.4 77.5001 180.8 73.2001 179.1 72.6001C179.1 72.6001 172 92.2001 160.3 96.1001C160.3 96.1001 161.4 99.8001 164 99.8001C164 99.8001 163.6 166.4 172.9 174.3C182.3 182.2 261.2 188.8 261.2 188.8L287.1 145.1V145.1Z" fill="white"/>
</mask>
<g mask="url(#mask0_280_153)">
<path opacity="0.2" d="M243.9 182.4L240 186.7C215.9 184.2 179.3 179.5 173.1 174.3C163.8 166.4 164.2 99.8001 164.2 99.8001C162.5 99.8001 161.5 98.2001 161 97.1001C169.7 96.7001 180.3 88.0001 180.3 88.0001C182 97.3001 169.8 108 169.8 108C169.8 108 169.2 146.2 174.3 165.5C179.4 184.8 243.9 182.4 243.9 182.4Z" fill="black"/>
</g>
<path d="M287.1 145.1C287.1 145.1 273.9 135.5 262.5 137.2C262.5 137.2 202.1 144 200.7 144C200.7 144 184.5 82.7001 181.4 77.5001C181.4 77.5001 180.8 73.2001 179.1 72.6001C179.1 72.6001 172 92.2001 160.3 96.1001C160.3 96.1001 161.4 99.8001 164 99.8001C164 99.8001 163.6 166.4 172.9 174.3C182.3 182.2 261.2 188.8 261.2 188.8L287.1 145.1Z" stroke="#1A2E35" stroke-miterlimit="10" stroke-linecap="round" stroke-linejoin="round"/>
<path d="M267.2 148.5C267.2 148.5 269.6 140.3 280.5 142.2C291.3 144.1 318.3 144.8 331.9 140.6C331.9 140.6 297.1 185.7 276.6 177.6C256 169.5 267.2 148.5 267.2 148.5Z" fill="#BFBFBF" stroke="#1A2E35" stroke-miterlimit="10" stroke-linecap="round" stroke-linejoin="round"/>
<path d="M325.3 49.8C325.3 49.8 322.2 39.1 314.3 41.4C306.5 43.7 307.5 43.4 303.2 41.1C298.9 38.8 296.2 40.8 294.7 44.1C293.2 47.4 290.2 46.6 285.6 45C281 43.4 277 45.5 277.2 49.9C277.4 54.3 271.5 49.7 268.2 54.7C264.9 59.6 266.9 59.3 266.2 63.3C265.5 67.3 258.6 69.6 259.9 73.2C261.2 76.8 266.5 83.1 261.5 85.7C256.6 88.3 254.9 96.6 259.7 99.1C264.5 101.6 255.7 109 258.9 115.7C261.8 121.9 269.8 123.3 266.2 129.5C264.6 132.2 265.1 134.4 266.2 136C267.1 137.3 269.1 136.7 269.1 135.2C269.1 134.4 269.3 133.6 269.8 132.8C271.4 130.2 273.7 132.8 276.4 127.9C276.4 127.9 274.7 133.5 280.3 135.5C283.2 136.5 283.8 138.3 283.6 139.7C283.5 140.8 284.8 141.5 285.6 140.8C286.5 139.9 287.2 138.5 286.9 136.2C286.9 136.2 296.1 143.8 302.7 142.1C309.3 140.5 317.9 138.1 318.2 133.2C318.2 133.2 319.9 135.4 320.1 138C320.2 139.4 321.9 140 322.8 138.9C323.9 137.5 324.9 135.7 325 133.5C325 133.5 325.8 136.1 328.2 137.4C329.6 138.2 331.3 136.8 330.9 135.2C330.6 133.9 330.7 132.4 332.2 131.5C335.5 129.5 337.8 125.9 335.8 121.3C335.8 121.3 340.8 124.6 339.1 129.5C338.4 131.6 338.8 133.1 339.6 134.2C340.4 135.1 341.8 134.3 341.4 133.2C341 132.2 340.9 131 341.8 129.6C344.1 126 350.1 121.6 345.4 116.5C340.8 111.4 344.1 108.2 344.1 108.2C344.1 108.2 343.4 111.5 349 113.6C354.6 115.7 351.1 118.8 351.7 121.1C351.9 122 352.4 122.7 352.9 123.3C353.9 124.3 355.5 123.1 354.8 121.9C354.2 120.8 353.9 119.6 354.5 118.4C357.3 113.3 349.9 111 349.1 106.5C348.4 102.2 349.4 97 349.9 92.7C350.3 88.9 350.6 86.1 348.2 82.8C346.6 80.7 344.7 78.7 343.9 76.2C343.3 74.3 343.5 72.2 343.7 70.2C343.9 68.2 344 66.1 343.4 64.3C342 60.5 337.5 61.1 335.5 57.9C333.6 54.9 335.2 50.9 331.6 48.8C329.9 47.3 327.1 48.1 325.3 49.8Z" fill="#1A2E35"/>
<path d="M288.4 149.4C293.6 146.1 291.1 135.3 289 128.7C288 125.6 287.1 123.4 287.1 123.4H287.2L314.4 109.4C311 123.9 314.4 143.6 314.4 143.6" fill="#BFBFBF"/>
<path d="M288.4 149.4C293.6 146.1 291.1 135.3 289 128.7C288 125.6 287.1 123.4 287.1 123.4H287.2L314.4 109.4C311 123.9 314.4 143.6 314.4 143.6" stroke="#1A2E35" stroke-miterlimit="10" stroke-linecap="round" stroke-linejoin="round"/>
<path d="M298.6 123.4C298.6 123.4 295.2 128.5 289 128.7C288 125.6 287.1 123.4 287.1 123.4H298.6Z" fill="#1A2E35"/>
<path d="M311 117.7C319.4 112.4 326.5 104.4 328.2 92.8001C331.5 71.7001 331.2 52.4001 295 54.8001C279.1 55.8001 273 71.5001 273.1 76.4001C273.4 87.8001 264.3 107.9 275.6 124.5C277.3 127 288.2 127.1 299.8 123.1" fill="#BFBFBF"/>
<path d="M311 117.7C319.4 112.4 326.5 104.4 328.2 92.8001C331.5 71.7001 331.2 52.4001 295 54.8001C279.1 55.8001 273 71.5001 273.1 76.4001C273.4 87.8001 264.3 107.9 275.6 124.5C277.3 127 288.2 127.1 299.8 123.1" stroke="#1A2E35" stroke-miterlimit="10" stroke-linecap="round" stroke-linejoin="round"/>
<path d="M291.7 79.6C291.7 79.6 297.4 77.5 300.7 85.9M279.9 78.6C279.9 78.6 276.8 76 273.2 76.4M280.7 90.8C277.7 95.7 274.1 93.2 274.3 95.7C274.4 97.7 279.1 101.2 279.1 101.2" stroke="#1A2E35" stroke-miterlimit="10" stroke-linecap="round" stroke-linejoin="round"/>
<path d="M296.1 90.9001C295.8 92.2001 294.8 93.1001 293.9 92.9001C293 92.7001 292.5 91.4001 292.8 90.1001C293.1 88.8001 294.1 87.9001 295 88.1001C296 88.3001 296.5 89.6001 296.1 90.9001ZM278.7 87.7001C278.5 89.0001 277.6 90.0001 276.6 89.9001C275.7 89.8001 275.1 88.5001 275.3 87.2001C275.5 85.9001 276.4 84.9001 277.4 85.0001C278.3 85.1001 278.9 86.3001 278.7 87.7001Z" fill="#1A2E35"/>
<path d="M288.7 106C288.7 106 288.3 107 287.5 108.3C286.1 110.6 283.7 113.5 280.7 112.6C279.8 112.3 279.4 111 279.2 109.6C279 107.7 279.1 105.7 279.1 105.7C279.1 105.7 280.1 106 283.9 106.2C287.1 106.4 288.7 106 288.7 106Z" fill="white"/>
<mask id="mask1_280_153" style="mask-type:luminance" maskUnits="userSpaceOnUse" x="279" y="105" width="10" height="8">
<path d="M288.7 106C288.7 106 288.3 107 287.5 108.3C286.1 110.6 283.7 113.5 280.7 112.6C279.8 112.3 279.4 111 279.2 109.6C279 107.7 279.1 105.7 279.1 105.7C279.1 105.7 280.1 106 283.9 106.2C287.1 106.4 288.7 106 288.7 106V106Z" fill="white"/>
</mask>
<g mask="url(#mask1_280_153)">
<path opacity="0.4" d="M288.7 106C288.7 106 288.3 107 287.5 108.3C284.6 107.8 281.3 108.8 279.2 109.6C279 107.7 279.1 105.7 279.1 105.7L288.7 106Z" fill="black"/>
</g>
<path d="M288.7 106C288.7 106 288.3 107 287.5 108.3C286.1 110.6 283.7 113.5 280.7 112.6C279.8 112.3 279.4 111 279.2 109.6C279 107.7 279.1 105.7 279.1 105.7C279.1 105.7 280.1 106 283.9 106.2C287.1 106.4 288.7 106 288.7 106Z" stroke="#1A2E35" stroke-miterlimit="10" stroke-linecap="round" stroke-linejoin="round"/>
<path d="M294.8 63.5001C294.8 63.5001 295.7 61.5001 297.5 65.5001C299.3 69.5001 291.8 73.4001 297.5 76.4001C303.2 79.4001 303.5 86.4001 300.7 89.2001C297.9 91.9001 305.2 93.3001 306.2 95.9001C307.2 98.5001 304.2 100.7 304.9 103.9C305.6 107.1 309.7 110.3 309.6 112C309.5 113.7 305.9 116.5 308.4 119.4C310.9 122.3 317.8 120.5 318.4 126.4C318.4 126.4 339.2 103.3 339.5 81.8001C339.8 60.3001 324.3 51.4001 308.5 50.1001C292.7 48.8001 268.3 56.4001 266.3 83.9001C266.3 83.9001 267 82.2001 269.9 81.8001C272.8 81.4001 274.2 77.5001 273.9 73.2001C273.6 68.9001 276.5 71.6001 280.5 70.6001C284.5 69.6001 283.2 64.0001 285.8 63.0001C288.4 61.8001 290.4 67.1001 294.8 63.5001Z" fill="#1A2E35"/>
<path d="M280.5 54.2001C280.3 56.8001 272.3 54.5001 268.1 56.8001C264 59.1001 265 63.1001 265.3 65.4001C265.6 67.7001 261.9 70.7001 258.8 72.5001C255.7 74.3001 255.7 78.0001 259.7 81.5001C263.7 85.0001 260.3 86.0001 256.6 89.1001C252.9 92.2001 253.1 96.1001 256.6 98.3001M291.7 61.7001C291.7 61.7001 298.4 63.0001 296.5 66.8001C294.5 70.6001 291.7 75.3001 297.5 79.6001C303.3 83.8001 295 88.6001 298.6 92.4001C302.2 96.2001 305.9 96.0001 303.3 102.3C300.6 108.6 305.4 110.1 305.4 110.1M277.7 105.3C277.7 105.3 284.3 107 289.4 105.9" stroke="#1A2E35" stroke-miterlimit="10" stroke-linecap="round" stroke-linejoin="round"/>
<path d="M323.9 115.6C323.1 116.6 323.6 117.8 324.5 118.6M324.5 105.9C327.4 107.4 328.2 109.9 326.4 112.8M306.3 65.2C306.5 70.3 308.6 75.7 314 78.9C316.1 81 315.1 83.2 314 86.4C314 90.7 320.4 90.7 321.5 93.9C321.5 97.1 316.1 100.3 321.4 104.2M303.6 56.2C305 57.7 305.7 59.7 306 61.8M338.3 108C338.1 109.1 338.2 110.3 338.6 111.3M331.7 95.6C330.5 98.7 333.4 98.4 335.4 98.7C338.7 99.1 339.8 101.1 339 104.5M318.8 66.5C319.4 72.7 329.2 71.9 327.5 79.1C326.7 82.4 326.8 84.5 329.5 87.3C330.9 88.8 333.7 89.8 332.7 92.2M344 94.1C343.7 95.2 343.6 96.4 343.8 97.5M327.2 58.4C329.4 58.6 328.7 61.3 329.4 62.7C330.3 64.7 332 65.1 333.7 66.2C337.1 68.3 336.8 70.3 336.4 73.9C335.9 78.1 337.3 79.9 340.8 82C344.4 84.1 346.4 85.9 345.1 90.4M275.2 63.5C272.1 65 266.7 65.4 267.6 69.9C268.5 74.4 272.4 76.6 267.8 80.6C263.9 84 264.3 85.7 266.9 89.7C269 93 269.6 96 267 99.4M287.1 56.7C281.7 52 280.6 58.5 278.4 61.4" stroke="white" stroke-miterlimit="10" stroke-linecap="round" stroke-linejoin="round"/>
<path d="M272.2 141.3C272.2 141.3 262.4 152.1 273.5 160.5C284.6 168.9 324.9 140.6 324.9 140.6C324.9 140.6 339.4 136.9 347 141.8C354.6 146.7 347.5 205.3 331.9 230.7C327.3 238.2 321.8 249.5 321.8 249.5C321.8 249.5 323.4 259.3 314.4 262.3C297.4 268 253.9 267.7 241.3 260.6C226.4 252.3 241.4 254.9 242.2 209.7C242.2 209.7 235.7 193 238.2 181.1C239.1 176.7 241.8 170.2 245.6 163.7" fill="#62CC9A"/>
<mask id="mask2_280_153" style="mask-type:luminance" maskUnits="userSpaceOnUse" x="234" y="139" width="117" height="128">
<path d="M272.2 141.3C272.2 141.3 262.4 152.1 273.5 160.5C284.6 168.9 324.9 140.6 324.9 140.6C324.9 140.6 339.4 136.9 347 141.8C354.6 146.7 347.5 205.3 331.9 230.7C327.3 238.2 321.8 249.5 321.8 249.5C321.8 249.5 323.4 259.3 314.4 262.3C297.4 268 253.9 267.7 241.3 260.6C226.4 252.3 241.4 254.9 242.2 209.7C242.2 209.7 235.7 193 238.2 181.1C239.1 176.7 241.8 170.2 245.6 163.7" fill="white"/>
</mask>
<g mask="url(#mask2_280_153)">
<path opacity="0.2" d="M331.9 230.7C327.3 238.2 321.8 249.5 321.8 249.5C321.8 249.5 323.4 259.3 314.4 262.3C297.4 268 253.9 267.7 241.2 260.6C226.3 252.3 241.3 254.9 242.1 209.7C242.1 209.7 239.8 203.8 238.4 196.5C248.2 202.2 259.6 201.6 259.6 201.6C269.4 181.3 283.4 185.1 283.4 185.1C283.4 185.1 287.2 181.7 291.6 178.5C296 175.3 309.7 177.7 309.7 177.7L325.7 174.5C325.4 168.5 331.2 169.1 331.2 169.1L333.4 171.2C332.1 166.3 333.4 163.3 333.4 163.3L347.5 181C344.8 198.8 339.3 218.6 331.9 230.7Z" fill="black"/>
</g>
<path d="M272.2 141.3C272.2 141.3 262.4 152.1 273.5 160.5C284.6 168.9 324.9 140.6 324.9 140.6C324.9 140.6 339.4 136.9 347 141.8C354.6 146.7 347.5 205.3 331.9 230.7C327.3 238.2 321.8 249.5 321.8 249.5C321.8 249.5 323.4 259.3 314.4 262.3C297.4 268 253.9 267.7 241.3 260.6C226.4 252.3 241.4 254.9 242.2 209.7C242.2 209.7 235.7 193 238.2 181.1C239.1 176.7 241.8 170.2 245.6 163.7M236.8 171.9C237.2 173.9 237.8 176 239 177.8M236.2 163.3C236.1 165.1 236.2 166.8 236.3 168.6M200.7 144C200.7 144 192.8 151.9 194.3 157.8M195.6 145.6C197.3 144.6 198.9 143.5 200.3 142.2M189.3 148.4C190.4 148 191.4 147.6 192.5 147.1M164 99.8001C164 99.8001 175.4 97.5001 180.1 88.1001" stroke="#1A2E35" stroke-miterlimit="10" stroke-linecap="round" stroke-linejoin="round"/>
<path d="M288.2 164.5C289.6 164.2 291 163.8 292.4 163.3M268.3 140.4C265.4 145 263.5 151.2 265.3 156.6C268.1 164.7 277.3 166.3 284.8 165.2" stroke="#1A2E35" stroke-miterlimit="10" stroke-linecap="round" stroke-linejoin="round"/>
<path d="M268.3 149.4C268.3 149.4 276.6 155.9 281.5 157.8" stroke="#1A2E35" stroke-miterlimit="10" stroke-linecap="round" stroke-linejoin="round"/>
<path d="M327.3 187.9C327.3 187.9 302.4 189 292.6 188C286.3 187.3 284.3 190.5 275.7 192.1C272.5 192.7 265.7 202.7 265.7 202.7L266.8 215.8C266.8 215.8 274.3 221.2 275.3 219.7C276.3 218.2 272.7 214.7 272.7 214.7L279.3 215.8C279.3 215.8 279.7 213.2 277.3 211.2L281.2 206.9C281.2 206.9 286.1 208.4 291.6 203.6L328.8 205L327.3 187.9Z" fill="#BFBFBF"/>
<mask id="mask3_280_153" style="mask-type:luminance" maskUnits="userSpaceOnUse" x="265" y="187" width="64" height="33">
<path d="M327.3 187.9C327.3 187.9 302.4 189 292.6 188C286.3 187.3 284.3 190.5 275.7 192.1C272.5 192.7 265.7 202.7 265.7 202.7L266.8 215.8C266.8 215.8 274.3 221.2 275.3 219.7C276.3 218.2 272.7 214.7 272.7 214.7L279.3 215.8C279.3 215.8 279.7 213.2 277.3 211.2L281.2 206.9C281.2 206.9 286.1 208.4 291.6 203.6L328.8 205L327.3 187.9V187.9Z" fill="white"/>
</mask>
<g mask="url(#mask3_280_153)">
<path opacity="0.2" d="M328.7 205L291.5 203.6C286.1 208.4 281.1 206.9 281.1 206.9L277.2 211.2C279.7 213.1 279.2 215.8 279.2 215.8L272.6 214.7C272.6 214.7 276.2 218.2 275.2 219.7C274.2 221.2 266.7 215.8 266.7 215.8L265.6 202.7C265.6 202.7 268 199.1 270.7 196.1C277.7 200.4 296 197.1 296 197.1C296.1 193.9 298 190.6 299.6 188.3C311 188.6 327.3 187.8 327.3 187.8L328.7 205Z" fill="black"/>
</g>
<path d="M327.3 187.9C327.3 187.9 302.4 189 292.6 188C286.3 187.3 284.3 190.5 275.7 192.1C272.5 192.7 265.7 202.7 265.7 202.7L266.8 215.8C266.8 215.8 274.3 221.2 275.3 219.7C276.3 218.2 272.7 214.7 272.7 214.7L279.3 215.8C279.3 215.8 279.7 213.2 277.3 211.2L281.2 206.9C281.2 206.9 286.1 208.4 291.6 203.6L328.8 205L327.3 187.9Z" stroke="#1A2E35" stroke-miterlimit="10" stroke-linecap="round" stroke-linejoin="round"/>
<path d="M281.1 206.9C281.1 206.9 277.1 206.6 275.3 201.6" stroke="#1A2E35" stroke-miterlimit="10" stroke-linecap="round" stroke-linejoin="round"/>
<path d="M279.7 206.5C279.7 206.5 273.1 211.9 269.4 208.2" stroke="#1A2E35" stroke-miterlimit="10" stroke-linecap="round" stroke-linejoin="round"/>
<path d="M272.2 209.5C272.2 209.5 273.2 213.1 272.6 214.8M277.2 211.2C277.2 211.2 275.2 211.9 273.9 211.7" stroke="#1A2E35" stroke-miterlimit="10" stroke-linecap="round" stroke-linejoin="round"/>
<path d="M412.3 206.1V436.4C412.3 437.9 411.1 439.2 409.5 439.2H61.5C60 439.2 58.7 438 58.7 436.4V206.1C58.7 204.6 59.9 203.3 61.5 203.3H409.6C411.1 203.3 412.3 204.5 412.3 206.1Z" fill="white"/>
<mask id="mask4_280_153" style="mask-type:luminance" maskUnits="userSpaceOnUse" x="58" y="203" width="355" height="237">
<path d="M412.3 206.1V436.4C412.3 437.9 411.1 439.2 409.5 439.2H61.5C60 439.2 58.7 438 58.7 436.4V206.1C58.7 204.6 59.9 203.3 61.5 203.3H409.6C411.1 203.3 412.3 204.5 412.3 206.1V206.1Z" fill="white"/>
</mask>
<g mask="url(#mask4_280_153)">
<path opacity="0.2" d="M412.3 206.1V216.4C402.6 219.8 388.3 222.4 376.7 221.8C361.2 221 303.1 208 282.5 203.2H409.5C411.1 203.3 412.3 204.5 412.3 206.1Z" fill="black"/>
</g>
<path d="M412.3 206.1V436.4C412.3 437.9 411.1 439.2 409.5 439.2H61.5C60 439.2 58.7 438 58.7 436.4V206.1C58.7 204.6 59.9 203.3 61.5 203.3H409.6C411.1 203.3 412.3 204.5 412.3 206.1Z" stroke="#1A2E35" stroke-miterlimit="10"/>
<path d="M86.3 203.3V439.1H61.5C60 439.1 58.7 437.9 58.7 436.3V206.1C58.7 204.6 59.9 203.3 61.5 203.3H86.3Z" fill="#1A2E35"/>
<path d="M72.5 214.2L64.7 218.5L72.5 222.9L80.2 218.5L72.5 214.2Z" fill="#62CC9A"/>
<path d="M72.5 224.7L67.1 221.6L64.7 222.9L72.5 227.3L80.2 222.9L77.8999 221.6L72.5 224.7Z" fill="#62CC9A"/>
<path d="M72.5 229L67.1 226L64.7 227.3L72.5 231.6L80.2 227.3L77.8999 226L72.5 229Z" fill="#62CC9A"/>
<path d="M157.3 247.4C157.3 255.6 153.9 263 148.4 268.3C146.1 270.5 143.4 272.4 140.4 273.7C136.8 275.4 132.7 276.3 128.4 276.3C127.2 276.3 126.1 276.2 125 276.1C117.3 275.2 110.6 271.3 106 265.6C102 260.6 99.6 254.3 99.6 247.4C99.6 231.4 112.5 218.5 128.5 218.5C144.5 218.5 157.3 231.4 157.3 247.4Z" fill="#5AE4A7"/>
<mask id="mask5_280_153" style="mask-type:luminance" maskUnits="userSpaceOnUse" x="99" y="218" width="59" height="59">
<path d="M157.3 247.4C157.3 255.6 153.9 263 148.4 268.3C146.1 270.5 143.4 272.4 140.4 273.7C136.8 275.4 132.7 276.3 128.4 276.3C127.2 276.3 126.1 276.2 125 276.1C117.3 275.2 110.6 271.3 106 265.6C102 260.6 99.6 254.3 99.6 247.4C99.6 231.4 112.5 218.5 128.5 218.5C144.5 218.5 157.3 231.4 157.3 247.4V247.4Z" fill="white"/>
</mask>
<g mask="url(#mask5_280_153)">
<path opacity="0.6" d="M157.3 247.4C157.3 255.6 153.9 263 148.4 268.3C146.1 270.5 143.4 272.4 140.4 273.7C136.8 275.4 132.7 276.3 128.4 276.3C127.2 276.3 126.1 276.2 125 276.1C117.3 275.2 110.6 271.3 106 265.6C102 260.6 99.6 254.3 99.6 247.4C99.6 231.4 112.5 218.5 128.5 218.5C144.5 218.5 157.3 231.4 157.3 247.4Z" fill="white"/>
</g>
<path d="M157.3 247.4C157.3 255.6 153.9 263 148.4 268.3C146.1 270.5 143.4 272.4 140.4 273.7C136.8 275.4 132.7 276.3 128.4 276.3C127.2 276.3 126.1 276.2 125 276.1C117.3 275.2 110.6 271.3 106 265.6C102 260.6 99.6 254.3 99.6 247.4C99.6 231.4 112.5 218.5 128.5 218.5C144.5 218.5 157.3 231.4 157.3 247.4Z" stroke="#1A2E35" stroke-miterlimit="10" stroke-linecap="round" stroke-linejoin="round"/>
<path d="M140.4 273.7C136.8 275.4 132.7 276.3 128.4 276.3C127.2 276.3 126.1 276.2 125 276.1C118.6 271.5 112.9 264 112.9 264C114.1 264.4 115.5 264.6 117 264.8C118 264.9 119 265 120.1 265.1C123.3 265.3 126.7 265.3 129.5 265.1C131.3 265 132.8 264.8 134 264.6C136.1 264.2 137.5 264.8 138.3 265.5C139.2 266.3 139.5 267.2 139.5 267.2C139.5 267.2 140.9 270.5 140.4 273.7Z" fill="#BFBFBF" stroke="#1A2E35" stroke-miterlimit="10" stroke-linecap="round" stroke-linejoin="round"/>
<path d="M115.5 226.9C115.5 226.9 116.8 222.5 120 223.5C123.2 224.4 122.8 224.3 124.5 223.4C126.3 222.5 127.4 223.3 128 224.6C128.6 225.9 129.8 225.6 131.7 225C133.6 224.4 135.2 225.2 135.2 227C135.1 228.8 137.5 226.9 138.9 228.9C140.2 230.9 139.4 230.8 139.7 232.4C140 234 142.8 235 142.3 236.4C141.8 237.9 139.6 240.4 141.6 241.5C143.6 242.6 144.3 246 142.3 247C140.3 248 143.9 251 142.6 253.8C141.4 256.3 138.2 256.9 139.6 259.5C140.2 260.6 140 261.5 139.6 262.2C139.2 262.7 138.4 262.5 138.4 261.9C138.4 261.6 138.3 261.2 138.1 260.9C137.4 259.8 136.5 260.9 135.4 258.9C135.4 258.9 136.1 261.2 133.8 262C132.6 262.4 132.4 263.1 132.5 263.7C132.6 264.2 132 264.5 131.7 264.1C131.3 263.7 131 263.2 131.2 262.2C131.2 262.2 127.4 265.3 124.7 264.6C122 263.9 118.5 263 118.4 261C118.4 261 117.7 261.9 117.6 263C117.5 263.6 116.8 263.8 116.5 263.4C116 262.8 115.6 262.1 115.6 261.2C115.6 261.2 115.3 262.3 114.3 262.8C113.7 263.1 113 262.5 113.2 261.9C113.3 261.4 113.3 260.8 112.7 260.4C111.4 259.6 110.4 258.1 111.2 256.2C111.2 256.2 109.2 257.5 109.8 259.6C110.1 260.5 109.9 261.1 109.6 261.5C109.3 261.9 108.7 261.5 108.9 261.1C109.1 260.7 109.1 260.2 108.7 259.6C107.8 258.1 105.3 256.3 107.2 254.2C109.1 252.1 107.7 250.8 107.7 250.8C107.7 250.8 108 252.1 105.7 253C103.4 253.9 104.8 255.1 104.6 256.1C104.5 256.5 104.3 256.8 104.1 257C103.7 257.4 103 256.9 103.3 256.4C103.5 256 103.7 255.4 103.4 255C102.2 252.9 105.3 252 105.6 250.1C105.9 248.3 105.5 246.2 105.3 244.5C105.1 243 105 241.8 106 240.5C106.6 239.6 107.4 238.8 107.7 237.8C107.9 237 107.8 236.2 107.8 235.4C107.7 234.6 107.7 233.7 107.9 233C108.5 231.4 110.3 231.7 111.1 230.4C111.9 229.2 111.2 227.5 112.7 226.7C113.6 225.9 114.7 226.2 115.5 226.9Z" fill="#1A2E35"/>
<path d="M130.6 267.7C128.5 266.4 129.5 261.9 130.3 259.2C130.7 257.9 131.1 257 131.1 257L120 251.3C121.4 257.2 120 265.3 120 265.3" fill="#BFBFBF"/>
<path d="M130.6 267.7C128.5 266.4 129.5 261.9 130.3 259.2C130.7 257.9 131.1 257 131.1 257L120 251.3C121.4 257.2 120 265.3 120 265.3" stroke="#1A2E35" stroke-miterlimit="10" stroke-linecap="round" stroke-linejoin="round"/>
<path d="M126.4 257C126.4 257 127.8 259.1 130.3 259.2C130.7 257.9 131.1 257 131.1 257H126.4Z" fill="#1A2E35"/>
<path d="M121.3 254.7C117.9 252.5 115 249.3 114.2 244.5C112.9 235.9 113 228 127.8 228.9C134.3 229.3 136.8 235.7 136.8 237.7C136.7 242.4 140.4 250.6 135.8 257.4C135.1 258.4 130.6 258.4 125.9 256.8" fill="#BFBFBF"/>
<path d="M121.3 254.7C117.9 252.5 115 249.3 114.2 244.5C112.9 235.9 113 228 127.8 228.9C134.3 229.3 136.8 235.7 136.8 237.7C136.7 242.4 140.4 250.6 135.8 257.4C135.1 258.4 130.6 258.4 125.9 256.8" stroke="#1A2E35" stroke-miterlimit="10" stroke-linecap="round" stroke-linejoin="round"/>
<path d="M129.2 239.1C129.2 239.1 126.9 238.2 125.5 241.7M134 238.7C134 238.7 135.3 237.6 136.8 237.8M133.7 243.7C134.9 245.7 136.4 244.7 136.3 245.7C136.2 246.5 134.3 248 134.3 248" stroke="#1A2E35" stroke-miterlimit="10" stroke-linecap="round" stroke-linejoin="round"/>
<path d="M127.4 243.7C127.5 244.2 127.9 244.6 128.3 244.5C128.7 244.4 128.9 243.9 128.7 243.4C128.6 242.9 128.2 242.5 127.8 242.6C127.5 242.7 127.3 243.2 127.4 243.7ZM134.5 242.4C134.6 242.9 135 243.3 135.3 243.3C135.7 243.2 135.9 242.7 135.8 242.2C135.7 241.7 135.3 241.3 135 241.3C134.7 241.3 134.5 241.8 134.5 242.4Z" fill="#1A2E35"/>
<path d="M130.4 249.9C130.4 249.9 131.8 253.2 133.7 252.6C134.6 252.3 134.3 249.8 134.3 249.8" fill="white"/>
<path d="M130.4 249.9C130.4 249.9 131.8 253.2 133.7 252.6C134.6 252.3 134.3 249.8 134.3 249.8" stroke="#1A2E35" stroke-miterlimit="10" stroke-linecap="round" stroke-linejoin="round"/>
<path d="M127.9 232.5C127.9 232.5 127.5 231.7 126.8 233.3C126.1 234.9 129.1 236.5 126.8 237.7C124.5 238.9 124.4 241.8 125.5 242.9C126.6 244 123.7 244.6 123.3 245.6C122.9 246.7 124.1 247.6 123.8 248.9C123.5 250.2 121.8 251.5 121.9 252.2C121.9 252.9 123.4 254 122.4 255.2C121.4 256.4 118.6 255.7 118.3 258.1C118.3 258.1 109.8 248.7 109.7 239.9C109.6 231.1 115.9 227.5 122.4 226.9C128.9 226.3 138.9 229.5 139.7 240.7C139.7 240.7 139.4 240 138.2 239.8C137 239.6 136.4 238 136.6 236.3C136.7 234.5 135.6 235.6 133.9 235.2C132.3 234.8 132.8 232.5 131.7 232.1C130.6 231.8 129.8 234 127.9 232.5Z" fill="#1A2E35"/>
<path d="M133.8 228.7C133.9 229.8 137.2 228.8 138.9 229.8C140.6 230.7 140.2 232.4 140 233.3C139.9 234.2 141.4 235.5 142.7 236.2C144 236.9 144 238.5 142.3 239.9C140.7 241.3 142.1 241.7 143.6 243C145.1 244.3 145.1 245.8 143.6 246.8M129.2 231.8C129.2 231.8 126.4 232.3 127.3 233.9C128.2 235.5 129.2 237.4 126.9 239.1C124.5 240.8 127.9 242.8 126.4 244.3C124.9 245.9 123.4 245.8 124.5 248.3C125.6 250.9 123.6 251.5 123.6 251.5M135 249.6C135 249.6 132.3 250.3 130.2 249.8" stroke="#1A2E35" stroke-miterlimit="10" stroke-linecap="round" stroke-linejoin="round"/>
<path d="M148.4 268.3C146.1 270.5 143.4 272.4 140.4 273.7C136.8 275.4 132.7 276.3 128.4 276.3C127.2 276.3 126.1 276.2 125 276.1C117.3 275.2 110.6 271.3 106 265.6C106.2 265.1 106.4 264.7 106.7 264.5C109.8 262.5 115.8 264 115.8 264C115.8 264 116.2 264.3 117 264.8C120.9 267.4 133 275 136.8 272.1C139.8 269.8 139 267.1 138.2 265.5C137.8 264.7 137.3 264.2 137.3 264.2C137.3 264.2 142.4 262.2 148.4 268.3Z" fill="#62CC9A" stroke="#1A2E35" stroke-miterlimit="10" stroke-linecap="round" stroke-linejoin="round"/>
<path d="M153.4 276.3C158.923 276.3 163.4 271.823 163.4 266.3C163.4 260.777 158.923 256.3 153.4 256.3C147.877 256.3 143.4 260.777 143.4 266.3C143.4 271.823 147.877 276.3 153.4 276.3Z" fill="#1A2E35"/>
<path d="M155.2 271.5H151.6C149.7 271.5 148.1 269.9 148.1 268V264.4C148.1 262.5 149.7 260.9 151.6 260.9H155.2C157.1 260.9 158.7 262.5 158.7 264.4V268C158.7 270 157.1 271.5 155.2 271.5Z" stroke="white" stroke-miterlimit="10"/>
<path d="M155.4 266.3C155.4 267.4 154.5 268.2 153.5 268.2C152.4 268.2 151.6 267.3 151.6 266.3C151.6 265.2 152.5 264.4 153.5 264.4C154.5 264.3 155.4 265.2 155.4 266.3Z" stroke="white" stroke-miterlimit="10"/>
<path d="M157 263.7C157 264.1 156.7 264.3 156.4 264.3C156 264.3 155.8 264 155.8 263.7C155.8 263.3 156.1 263.1 156.4 263.1C156.7 263 157 263.3 157 263.7Z" fill="white"/>
<path d="M205.2 243.5H168.7C166.6 243.5 164.8 245.2 164.8 247.4C164.8 249.5 166.5 251.3 168.7 251.3H205.2C207.3 251.3 209.1 249.6 209.1 247.4C209 245.3 207.3 243.5 205.2 243.5Z" fill="#1A2E35"/>
<path opacity="0.6" d="M258.2 216.3H231.9C230.4 216.3 229.1 217.5 229.1 219.1C229.1 220.6 230.3 221.9 231.9 221.9H258.2C259.7 221.9 261 220.7 261 219.1C261 217.5 259.7 216.3 258.2 216.3Z" fill="#1A2E35"/>
<path d="M219 209.5V433.1" stroke="#1A2E35" stroke-miterlimit="10"/>
<path d="M116.3 326.7C123.59 326.7 129.5 320.79 129.5 313.5C129.5 306.21 123.59 300.3 116.3 300.3C109.01 300.3 103.1 306.21 103.1 313.5C103.1 320.79 109.01 326.7 116.3 326.7Z" fill="#BFBFBF" stroke="#1A2E35" stroke-miterlimit="10"/>
<path d="M134.2 322.1C134.2 324.7 132.1 326.8 129.5 326.8C126.9 326.8 124.8 324.7 124.8 322.1C124.8 319.5 126.9 317.4 129.5 317.4C132.1 317.4 134.2 319.5 134.2 322.1Z" fill="#62CC9A" stroke="#1A2E35" stroke-miterlimit="10" stroke-linecap="round" stroke-linejoin="round"/>
<path d="M116.3 370.2C123.59 370.2 129.5 364.29 129.5 357C129.5 349.71 123.59 343.8 116.3 343.8C109.01 343.8 103.1 349.71 103.1 357C103.1 364.29 109.01 370.2 116.3 370.2Z" fill="#BFBFBF" stroke="#1A2E35" stroke-miterlimit="10"/>
<path d="M134.2 365.6C134.2 368.2 132.1 370.3 129.5 370.3C126.9 370.3 124.8 368.2 124.8 365.6C124.8 363 126.9 360.9 129.5 360.9C132.1 360.9 134.2 363 134.2 365.6Z" fill="#5AE4A7" stroke="#1A2E35" stroke-miterlimit="10" stroke-linecap="round" stroke-linejoin="round"/>
<path d="M125.61 409.82C130.765 404.665 130.765 396.308 125.61 391.153C120.455 385.998 112.097 385.998 106.942 391.153C101.787 396.308 101.788 404.666 106.943 409.821C112.098 414.976 120.455 414.975 125.61 409.82Z" fill="#BFBFBF" stroke="#1A2E35" stroke-miterlimit="10"/>
<path d="M134.2 409.1C134.2 411.7 132.1 413.8 129.5 413.8C126.9 413.8 124.8 411.7 124.8 409.1C124.8 406.5 126.9 404.4 129.5 404.4C132.1 404.4 134.2 406.5 134.2 409.1Z" fill="#5AE4A7" stroke="#1A2E35" stroke-miterlimit="10" stroke-linecap="round" stroke-linejoin="round"/>
<g opacity="0.3">
<path opacity="0.4" d="M232.3 230.7H404V281.9H232.3V230.7ZM232.3 366H404V417.2H232.3V366ZM232.3 286.5H404V337.7H232.3V286.5Z" fill="black"/>
</g>
<path d="M229.1 228.5H400.8V279.7H229.1V228.5Z" fill="#5AE4A7"/>
<mask id="mask6_280_153" style="mask-type:luminance" maskUnits="userSpaceOnUse" x="229" y="228" width="172" height="52">
<path d="M229.1 228.5H400.8V279.7H229.1V228.5Z" fill="white"/>
</mask>
<g mask="url(#mask6_280_153)">
<path opacity="0.6" d="M229.1 228.5H400.8V279.7H229.1V228.5Z" fill="white"/>
</g>
<path d="M229.1 228.5H400.8V279.7H229.1V228.5Z" stroke="#1A2E35" stroke-miterlimit="10"/>
<path d="M235.1 233.7H280.2V268.1H235.1V233.7Z" fill="#1A2E35"/>
<path opacity="0.3" d="M280.2 259.8V268.1H235.1V260.4L249.3 249.8L264 260.4L272.3 255.1L280.2 259.8ZM268.8 243.4C268.8 245.9 266.8 247.9 264.3 247.9C261.8 247.9 259.8 245.9 259.8 243.4C259.8 240.9 261.8 238.9 264.3 238.9C266.8 238.9 268.8 240.9 268.8 243.4Z" fill="white"/>
<path opacity="0.4" d="M254.3 271.3H236.5C235.5 271.3 234.6 272.1 234.6 273.2C234.6 274.3 235.4 275.1 236.5 275.1H254.3C255.3 275.1 256.2 274.3 256.2 273.2C256.2 272.1 255.3 271.3 254.3 271.3ZM392.7 234.9H288.9C287.9 234.9 287 235.7 287 236.8C287 237.8 287.8 238.7 288.9 238.7H392.6C393.6 238.7 394.5 237.9 394.5 236.8C394.6 235.7 393.7 234.9 392.7 234.9ZM392.7 245.6H288.9C287.9 245.6 287 246.4 287 247.5C287 248.6 287.8 249.4 288.9 249.4H392.6C393.6 249.4 394.5 248.6 394.5 247.5C394.5 246.4 393.7 245.6 392.7 245.6ZM371.2 256.4H289C288 256.4 287.1 257.2 287.1 258.3C287.1 259.3 287.9 260.2 289 260.2H371.2C372.2 260.2 373.1 259.4 373.1 258.3C373.1 257.2 372.2 256.4 371.2 256.4Z" fill="#1A2E35"/>
<path opacity="0.6" d="M258.2 351.6H231.9C230.4 351.6 229.1 352.8 229.1 354.4C229.1 355.9 230.3 357.2 231.9 357.2H258.2C259.7 357.2 261 356 261 354.4C261 352.9 259.7 351.6 258.2 351.6Z" fill="#1A2E35"/>
<path d="M229.1 363.9H400.8V415.1H229.1V363.9Z" fill="#5AE4A7"/>
<mask id="mask7_280_153" style="mask-type:luminance" maskUnits="userSpaceOnUse" x="229" y="363" width="172" height="53">
<path d="M229.1 363.9H400.8V415.1H229.1V363.9Z" fill="white"/>
</mask>
<g mask="url(#mask7_280_153)">
<path opacity="0.6" d="M229.1 363.9H400.8V415.1H229.1V363.9Z" fill="white"/>
</g>
<path d="M229.1 363.9H400.8V415.1H229.1V363.9Z" stroke="#1A2E35" stroke-miterlimit="10"/>
<path d="M235.1 369.1H280.2V403.5H235.1V369.1Z" fill="#1A2E35"/>
<path opacity="0.3" d="M280.2 395.1V403.5H235.1V395.7L249.3 385.2L264 395.7L272.3 390.4L280.2 395.1ZM268.8 378.8C268.8 381.3 266.8 383.3 264.3 383.3C261.8 383.3 259.8 381.3 259.8 378.8C259.8 376.3 261.8 374.3 264.3 374.3C266.8 374.3 268.8 376.3 268.8 378.8Z" fill="white"/>
<path opacity="0.4" d="M254.3 406.7H236.5C235.5 406.7 234.6 407.5 234.6 408.6C234.6 409.7 235.4 410.5 236.5 410.5H254.3C255.3 410.5 256.2 409.7 256.2 408.6C256.2 407.5 255.3 406.7 254.3 406.7ZM392.7 370.2H288.9C287.9 370.2 287 371 287 372.1C287 373.2 287.8 374 288.9 374H392.6C393.6 374 394.5 373.2 394.5 372.1C394.5 371 393.7 370.2 392.7 370.2ZM392.7 381H288.9C287.9 381 287 381.8 287 382.9C287 384 287.8 384.8 288.9 384.8H392.6C393.6 384.8 394.5 384 394.5 382.9C394.5 381.8 393.7 381 392.7 381ZM371.2 391.7H289C288 391.7 287.1 392.5 287.1 393.6C287.1 394.6 287.9 395.5 289 395.5H371.2C372.2 395.5 373.1 394.7 373.1 393.6C373.1 392.6 372.2 391.7 371.2 391.7Z" fill="#1A2E35"/>
<path d="M229.1 284.4H400.8V335.6H229.1V284.4Z" fill="#5AE4A7"/>
<mask id="mask8_280_153" style="mask-type:luminance" maskUnits="userSpaceOnUse" x="229" y="284" width="172" height="52">
<path d="M229.1 284.4H400.8V335.6H229.1V284.4Z" fill="white"/>
</mask>
<g mask="url(#mask8_280_153)">
<path opacity="0.6" d="M229.1 284.4H400.8V335.6H229.1V284.4Z" fill="white"/>
</g>
<path d="M229.1 284.4H400.8V335.6H229.1V284.4Z" stroke="#1A2E35" stroke-miterlimit="10"/>
<path d="M235.1 289.6H280.2V324H235.1V289.6Z" fill="#1A2E35"/>
<path opacity="0.3" d="M280.2 315.6V324H235.1V316.2L249.3 305.7L264 316.2L272.3 310.9L280.2 315.6ZM268.8 299.3C268.8 301.8 266.8 303.8 264.3 303.8C261.8 303.8 259.8 301.8 259.8 299.3C259.8 296.8 261.8 294.8 264.3 294.8C266.8 294.8 268.8 296.8 268.8 299.3Z" fill="white"/>
<path opacity="0.4" d="M254.3 327.2H236.5C235.5 327.2 234.6 328 234.6 329.1C234.6 330.2 235.4 331 236.5 331H254.3C255.3 331 256.2 330.2 256.2 329.1C256.2 328 255.3 327.2 254.3 327.2ZM392.7 290.7H288.9C287.9 290.7 287 291.5 287 292.6C287 293.7 287.8 294.5 288.9 294.5H392.6C393.6 294.5 394.5 293.7 394.5 292.6C394.5 291.5 393.7 290.7 392.7 290.7ZM392.7 301.5H288.9C287.9 301.5 287 302.3 287 303.4C287 304.4 287.8 305.3 288.9 305.3H392.6C393.6 305.3 394.5 304.5 394.5 303.4C394.6 302.3 393.7 301.5 392.7 301.5ZM371.2 312.2H289C288 312.2 287.1 313 287.1 314.1C287.1 315.2 287.9 316 289 316H371.2C372.2 316 373.1 315.2 373.1 314.1C373.1 313 372.2 312.2 371.2 312.2ZM193.7 311.7H142.6C141.6 311.7 140.7 312.5 140.7 313.6C140.7 314.7 141.5 315.5 142.6 315.5H193.7C194.7 315.5 195.6 314.7 195.6 313.6C195.6 312.5 194.7 311.7 193.7 311.7ZM193.7 398.7H142.6C141.6 398.7 140.7 399.5 140.7 400.6C140.7 401.7 141.5 402.5 142.6 402.5H193.7C194.7 402.5 195.6 401.7 195.6 400.6C195.6 399.5 194.7 398.7 193.7 398.7ZM193.7 355.2H142.6C141.6 355.2 140.7 356 140.7 357.1C140.7 358.2 141.5 359 142.6 359H193.7C194.7 359 195.6 358.2 195.6 357.1C195.6 356 194.7 355.2 193.7 355.2Z" fill="#1A2E35"/>
<path d="M343.8 140.4C359.1 145.4 396.2 165.3 402.6 173.8C409 182.3 404.4 200 390.3 204.5C376.1 209 309.8 204.5 309.8 204.5C309.8 204.5 304.5 208 302.9 206.5C301.3 205 300.7 180.7 306.3 180.9C310.8 181.1 312.6 183.2 312.6 183.2L341.5 177.7C341.5 177.7 331.8 166.3 331.8 154.7" fill="#62CC9A"/>
<mask id="mask9_280_153" style="mask-type:luminance" maskUnits="userSpaceOnUse" x="301" y="140" width="105" height="67">
<path d="M343.8 140.4C359.1 145.4 396.2 165.3 402.6 173.8C409 182.3 404.4 200 390.3 204.5C376.1 209 309.8 204.5 309.8 204.5C309.8 204.5 304.5 208 302.9 206.5C301.3 205 300.7 180.7 306.3 180.9C310.8 181.1 312.6 183.2 312.6 183.2L341.5 177.7C341.5 177.7 331.8 166.3 331.8 154.7" fill="white"/>
</mask>
<g mask="url(#mask9_280_153)">
<path opacity="0.2" d="M390.3 204.4C376.1 208.9 309.8 204.4 309.8 204.4C309.8 204.4 304.5 207.9 302.9 206.4C302 205.6 301.4 197.4 302.1 190.5C302.9 194.1 304 198.1 304.7 199.3C306.1 201.6 311.5 199.3 311.5 199.3C310.6 191.7 312.6 185.1 312.6 185.1L318.2 197C318.2 197 371.4 200.1 390.9 191.9C399 188.5 402.5 182 403.8 175.6C408.3 184.6 403.5 200.2 390.3 204.4Z" fill="black"/>
</g>
<mask id="mask10_280_153" style="mask-type:luminance" maskUnits="userSpaceOnUse" x="301" y="140" width="105" height="67">
<path d="M343.8 140.4C359.1 145.4 396.2 165.3 402.6 173.8C409 182.3 404.4 200 390.3 204.5C376.1 209 309.8 204.5 309.8 204.5C309.8 204.5 304.5 208 302.9 206.5C301.3 205 300.7 180.7 306.3 180.9C310.8 181.1 312.6 183.2 312.6 183.2L341.5 177.7C341.5 177.7 331.8 166.3 331.8 154.7" fill="white"/>
</mask>
<g mask="url(#mask10_280_153)">
<path opacity="0.2" d="M357.4 174.3L341.5 177.5C341.3 177.2 339.9 175.5 338.2 172.9C338.4 168.7 339 163.1 340.8 160.9C343.9 157.2 343.3 166.8 346.1 172.2C346.1 172.2 357 163.4 361.3 165.4C365.7 167.5 360.1 167.9 357.4 174.3Z" fill="black"/>
</g>
<path d="M343.8 140.4C359.1 145.4 396.2 165.3 402.6 173.8C409 182.3 404.4 200 390.3 204.5C376.1 209 309.8 204.5 309.8 204.5C309.8 204.5 304.5 208 302.9 206.5C301.3 205 300.7 180.7 306.3 180.9C310.8 181.1 312.6 183.2 312.6 183.2L341.5 177.7C341.5 177.7 331.8 166.3 331.8 154.7" stroke="#1A2E35" stroke-miterlimit="10" stroke-linecap="round" stroke-linejoin="round"/>
<path d="M377.9 178C379.4 179.1 380.6 180.6 381.2 182.4M341.6 177.6C352.8 175.8 363.7 170.4 374.6 176M377.4 170.9C378.5 171.2 379.5 171.6 380.3 172.3" stroke="#1A2E35" stroke-miterlimit="10" stroke-linecap="round" stroke-linejoin="round"/>
<path d="M356.9 174.2C360.7 169.5 368.3 169.7 373.7 170.2M313.7 182.9C313.7 182.9 310.5 187.6 311.8 193.3M334 171.5C335.4 172.5 336.9 173.3 338.6 173.5M328.7 165.5C329.5 166.8 330.4 168 331.4 169.1" stroke="#1A2E35" stroke-miterlimit="10" stroke-linecap="round" stroke-linejoin="round"/>
</svg>
