<svg width="393" height="382" viewBox="0 0 393 382" fill="none" xmlns="http://www.w3.org/2000/svg">
<g filter="url(#filter0_d_133_20)">
<path opacity="0.7" d="M56.9262 103.018C56.9262 103.018 33.5652 163.344 66.393 224.112C99.2209 284.88 166.852 316.964 220.978 344.405C275.104 371.846 331.31 358.482 358.02 313.535C384.729 268.587 348.093 236.499 348.05 172.4C348.007 108.302 357.642 91.3305 322.941 37.1772C288.239 -16.9768 203.057 -28.9619 138.665 11.2026C74.2728 51.3671 56.9262 103.018 56.9262 103.018Z" fill="white" fill-opacity="0.2"/>
<path d="M92.1917 57.249C103.462 43.7756 118.702 33.3476 136.867 33.5713C167.865 33.9526 184.621 61.3946 202.417 82.5675C211.646 93.547 222.099 104.139 235.793 109.296C256.338 117.032 279.213 112.514 299.227 105.333C308.192 102.117 318.813 97.5937 328.909 99.9032C359.606 106.926 356.407 144.389 351.337 168.107C344.49 200.131 333.365 234.229 310.812 258.836C256.824 317.74 159.654 281.631 110.954 234.628C107.374 231.173 103.944 227.562 100.719 223.773C92.3786 213.971 85.2195 203.158 79.6343 191.556C63.9243 158.92 61.7639 119.243 75.3756 85.5147C79.3318 75.7118 85.0587 65.7765 92.1917 57.249Z" fill="#92E3A9" fill-opacity="0.5"/>
<path opacity="0.7" d="M92.1917 57.249C103.462 43.7756 118.702 33.3476 136.867 33.5713C167.865 33.9526 184.621 61.3946 202.417 82.5675C211.646 93.547 222.099 104.139 235.793 109.296C256.338 117.032 279.213 112.514 299.227 105.333C308.192 102.117 318.813 97.5937 328.909 99.9032C359.606 106.926 356.407 144.389 351.337 168.107C344.49 200.131 333.365 234.229 310.812 258.836C256.824 317.74 159.654 281.631 110.954 234.628C107.374 231.173 103.944 227.562 100.719 223.773C92.3786 213.971 85.2195 203.158 79.6343 191.556C63.9243 158.92 61.7639 119.243 75.3756 85.5147C79.3318 75.7118 85.0587 65.7765 92.1917 57.249Z" fill="white"/>
<path d="M45.2897 334.593H373.71" stroke="#263238" stroke-miterlimit="10" stroke-linecap="round" stroke-linejoin="round"/>
<path d="M244.673 164.789V41.4871H252.306" stroke="#263238" stroke-miterlimit="10" stroke-linecap="round" stroke-linejoin="round"/>
<path d="M244.673 179.467V176.192" stroke="#263238" stroke-miterlimit="10" stroke-linecap="round" stroke-linejoin="round"/>
<path d="M271.942 41.4871H350.718V190.959H244.673" stroke="#263238" stroke-miterlimit="10" stroke-linecap="round" stroke-linejoin="round"/>
<path d="M262.283 41.4871H269.205" stroke="#263238" stroke-miterlimit="10" stroke-linecap="round" stroke-linejoin="round"/>
<path d="M346.731 45.4667H248.661V186.98H346.731V45.4667Z" stroke="#263238" stroke-miterlimit="10" stroke-linecap="round" stroke-linejoin="round"/>
<path d="M342.17 53.0464V111.81H253.222V107.977" stroke="#263238" stroke-miterlimit="10" stroke-linecap="round" stroke-linejoin="round"/>
<path d="M253.222 98.9915V49.6392H342.17" stroke="#263238" stroke-miterlimit="10" stroke-linecap="round" stroke-linejoin="round"/>
<path d="M253.222 105.03V101.304" stroke="#263238" stroke-miterlimit="10" stroke-linecap="round" stroke-linejoin="round"/>
<path d="M327.15 116.223H346.731" stroke="#263238" stroke-miterlimit="10" stroke-linecap="round" stroke-linejoin="round"/>
<path d="M320.186 116.223H322.957" stroke="#263238" stroke-miterlimit="10" stroke-linecap="round" stroke-linejoin="round"/>
<path d="M248.661 116.223H316.878" stroke="#263238" stroke-miterlimit="10" stroke-linecap="round" stroke-linejoin="round"/>
<path d="M292.767 111.81V109.787H300.968V110.937H297.696V111.81" stroke="#263238" stroke-miterlimit="10" stroke-linecap="round" stroke-linejoin="round"/>
<path d="M248.831 169.177C248.831 169.177 250.19 170.206 251.146 176.437C251.146 176.437 252.793 166.487 254.789 166.332C256.785 166.176 256.378 172.806 256.378 172.806C256.378 172.806 256.71 169.539 258.275 169.69C259.84 169.841 258.275 176.437 258.275 176.437C258.275 176.437 260.15 171.296 261.929 171.383C263.708 171.47 260.748 180.701 260.748 180.701C260.748 180.701 265.307 177.4 267.154 179.016C269.001 180.633 266.128 184.705 266.128 184.705C266.128 184.705 272.666 183.288 273.684 187.123" stroke="#263238" stroke-miterlimit="10" stroke-linecap="round" stroke-linejoin="round"/>
<path d="M273.685 183.405C273.685 183.405 276.536 181.538 278.775 182.409C278.775 182.409 277.35 180.236 278.775 178.907C280.2 177.578 282.032 182.409 282.032 182.409C282.032 182.409 282.236 174.321 285.087 174.728C287.937 175.136 285.087 182.409 285.087 182.409C285.087 182.409 290.177 177.896 291.399 179.468C292.62 181.04 290.584 183.405 290.584 183.405C290.584 183.405 293.637 182.429 295.877 184.705C295.877 184.705 299.29 181.224 303.081 180.724C303.081 180.724 300.56 173.404 301.782 171.928C303.004 170.452 305.224 178.316 305.224 178.316C305.224 178.316 306.193 173.201 309.378 172.805C309.378 172.805 306.727 171.363 307.512 169.177C308.298 166.99 311.963 169.689 311.963 169.689C311.963 169.689 310.458 165.844 312.84 164.788C315.22 163.732 316.216 168.007 316.216 168.007C316.216 168.007 316.88 163.528 319.68 163.775C322.458 164.019 321.572 169.176 321.572 169.176C321.572 169.176 324.214 165.079 325.628 165.496C328.455 166.33 327.597 172.804 327.597 172.804C327.597 172.804 331.542 170.062 332.558 171.325C333.654 172.687 328.455 176.191 328.455 176.191C328.455 176.191 332.368 176.625 334.804 178.905" stroke="#263238" stroke-miterlimit="10" stroke-linecap="round" stroke-linejoin="round"/>
<path d="M346.731 170.656C346.731 170.656 346.28 166.548 342.17 166.332C338.059 166.115 343.299 175.34 343.299 175.34C343.299 175.34 339.912 172.537 338.694 173.399C337.477 174.261 342.17 179.015 342.17 179.015C342.17 179.015 339.918 176.933 337.542 177.577C335.166 178.223 338.898 184.835 338.898 184.835C338.898 184.835 333.951 183.54 328.454 186.055" stroke="#263238" stroke-miterlimit="10" stroke-linecap="round" stroke-linejoin="round"/>
<path d="M206.726 297.904V334.379" stroke="#263238" stroke-miterlimit="10" stroke-linecap="round" stroke-linejoin="round"/>
<path d="M206.726 285.969V293.785" stroke="#263238" stroke-miterlimit="10" stroke-linecap="round" stroke-linejoin="round"/>
<path d="M53.2046 334.593V266.631H206.726V281.55" stroke="#263238" stroke-miterlimit="10" stroke-linecap="round" stroke-linejoin="round"/>
<path d="M75.5709 274.062H62.25V328.363" stroke="#263238" stroke-miterlimit="10" stroke-linecap="round" stroke-linejoin="round"/>
<path d="M197.681 334.379V274.062H83.3064" stroke="#263238" stroke-miterlimit="10" stroke-linecap="round" stroke-linejoin="round"/>
<path d="M191.299 259.594H187.066" stroke="#263238" stroke-miterlimit="10" stroke-linecap="round" stroke-linejoin="round"/>
<path d="M180.993 259.594H49.3884V266.581H210.542V259.594H193.997" stroke="#263238" stroke-miterlimit="10" stroke-linecap="round" stroke-linejoin="round"/>
<path d="M58.4631 214.811C58.4631 214.811 71.0775 215.806 71.6038 225.113C71.6038 225.113 58.8301 230.994 58.4631 214.811Z" stroke="#263238" stroke-miterlimit="10" stroke-linecap="round" stroke-linejoin="round"/>
<path d="M83.4171 217.121C83.4171 217.121 90.4646 207.594 101.851 212.479C101.851 212.479 94.8977 223.998 83.4171 217.121Z" stroke="#263238" stroke-miterlimit="10" stroke-linecap="round" stroke-linejoin="round"/>
<path d="M100.886 187.04C100.886 187.04 102.912 205.371 86.2277 200.322C86.2277 200.322 91.5255 186.847 100.886 187.04Z" stroke="#263238" stroke-miterlimit="10" stroke-linecap="round" stroke-linejoin="round"/>
<path d="M80.4002 176.837C80.4002 176.837 93.5954 183.952 83.893 194.75C83.893 194.75 74.639 187.038 80.4002 176.837Z" stroke="#263238" stroke-miterlimit="10" stroke-linecap="round" stroke-linejoin="round"/>
<path d="M64.1648 193.215C64.1648 193.215 78.5114 191.768 78.5114 205.049C78.5114 205.049 64.1648 205.614 64.1648 193.215Z" stroke="#263238" stroke-miterlimit="10" stroke-linecap="round" stroke-linejoin="round"/>
<path d="M74.9164 232.611C74.7077 228.156 74.7094 222.423 77.4312 216.363C83.7095 202.383 85.833 190.611 82.5514 182.312" stroke="#263238" stroke-miterlimit="10" stroke-linecap="round" stroke-linejoin="round"/>
<path d="M68.8777 196.786C68.8777 196.786 77.4773 200.203 80.4002 209.061" stroke="#263238" stroke-miterlimit="10" stroke-linecap="round" stroke-linejoin="round"/>
<path d="M96.3507 194.373C96.3507 194.373 91.3814 201.143 82.962 200.412" stroke="#263238" stroke-miterlimit="10" stroke-linecap="round" stroke-linejoin="round"/>
<path d="M96.3507 214.427C96.3507 214.427 82.5874 218.392 77.1178 217.094" stroke="#263238" stroke-miterlimit="10" stroke-linecap="round" stroke-linejoin="round"/>
<path d="M62.5768 219.001C62.5768 219.001 68.7286 225.754 74.9164 225.648" stroke="#263238" stroke-miterlimit="10" stroke-linecap="round" stroke-linejoin="round"/>
<path d="M91.28 232.611H61.3709C60.9687 232.611 60.6427 232.937 60.6427 233.339V235.606C60.6427 236.009 60.9687 236.335 61.3709 236.335H62.2441L64.9098 259.594H87.7419L90.4068 236.335H91.28C91.6822 236.335 92.0082 236.009 92.0082 235.606V233.339C92.0082 232.937 91.6822 232.611 91.28 232.611Z" stroke="#263238" stroke-miterlimit="10"/>
<path d="M64.1648 236.335H81.56" stroke="#263238" stroke-miterlimit="10" stroke-linecap="round" stroke-linejoin="round"/>
<path d="M84.8408 236.335H87.4554" stroke="#263238" stroke-miterlimit="10" stroke-linecap="round" stroke-linejoin="round"/>
<path d="M111.794 334.593C111.794 334.593 110.362 329.124 112.036 327.098C115.044 323.459 111.669 320.408 114.688 319.143L115.952 320.611C116.198 319.121 115.494 314.594 121.093 314.003C127.86 313.289 127.989 318.215 128.354 319.836L128.242 317.57C131.128 317.57 129.633 320.451 134.008 325.163C137.347 328.758 137.354 333.37 137.17 334.593H111.794Z" fill="#263238"/>
<path d="M163.424 334.593C160.702 333.375 163.203 323.109 163.203 323.109C163.203 323.109 159.538 320.648 163.201 318.099C163.201 318.099 167.297 322.08 173.6 319.789C173.6 319.789 174.317 312.914 178.613 313.798C178.613 313.798 179.716 318.154 182.236 320.639C189.07 327.38 197.895 328.151 199.372 331.401C199.814 332.373 199.278 334.593 199.278 334.593H163.424Z" fill="#263238"/>
<path d="M151.772 170.75L155.131 177.851C155.131 177.851 168.988 206.499 177.481 239.299C177.682 240.075 182.075 255.615 178.553 294.302L180.561 301.09L178.368 312.303C178.368 312.303 181.666 317.073 181.549 318.629C181.549 318.629 173.406 320.15 170.692 321.608C168.576 322.745 162.234 329.008 162.234 329.008C160.436 328.637 160.278 321.36 160.278 321.36C160.278 321.36 156.51 256.779 155.435 253.994C154.36 251.208 147.744 239.213 137.44 211.754C137.44 211.754 137.207 250.111 134.454 259.811C132.004 268.443 134.905 292.603 134.905 292.603L133.251 319.496C133.251 319.496 139.047 325.52 134.345 327.134C134.345 327.134 131.205 321.091 122.255 319.717C117.706 319.019 112.035 327.098 112.035 327.098C110.048 326.461 112.882 316.313 112.882 316.313C106.538 268.443 111.222 277.108 109.954 253.711C109.14 238.697 104.878 174.452 109.878 169.232L151.772 170.75Z" fill="#BFBFBF"/>
<mask id="mask0_133_20" style="mask-type:luminance" maskUnits="userSpaceOnUse" x="107" y="169" width="75" height="161">
<path d="M151.772 170.75L155.131 177.851C155.131 177.851 168.988 206.499 177.481 239.299C177.682 240.075 182.075 255.615 178.553 294.302L180.561 301.09L178.368 312.303C178.368 312.303 181.666 317.073 181.549 318.629C181.549 318.629 173.406 320.15 170.692 321.608C168.576 322.745 162.234 329.008 162.234 329.008C160.436 328.637 160.278 321.36 160.278 321.36C160.278 321.36 156.51 256.779 155.435 253.994C154.36 251.208 147.744 239.213 137.44 211.754C137.44 211.754 137.207 250.111 134.454 259.811C132.004 268.443 134.905 292.603 134.905 292.603L133.251 319.496C133.251 319.496 139.047 325.52 134.345 327.134C134.345 327.134 131.205 321.091 122.255 319.717C117.706 319.019 112.035 327.098 112.035 327.098C110.048 326.461 112.882 316.313 112.882 316.313C106.538 268.443 111.222 277.108 109.954 253.711C109.14 238.697 104.878 174.452 109.878 169.232L151.772 170.75Z" fill="white"/>
</mask>
<g mask="url(#mask0_133_20)">
<path opacity="0.2" d="M107.484 192.868C129.887 194.633 149.293 187.302 157.707 183.471C156.113 179.879 155.13 177.851 155.13 177.851L151.77 170.753L109.876 169.235C108.073 171.116 107.476 180.692 107.484 192.868Z" fill="black"/>
</g>
<mask id="mask1_133_20" style="mask-type:luminance" maskUnits="userSpaceOnUse" x="107" y="169" width="75" height="161">
<path d="M151.772 170.75L155.131 177.851C155.131 177.851 168.988 206.499 177.481 239.299C177.682 240.075 182.075 255.615 178.553 294.302L180.561 301.09L178.368 312.303C178.368 312.303 181.666 317.073 181.549 318.629C181.549 318.629 173.406 320.15 170.692 321.608C168.576 322.745 162.234 329.008 162.234 329.008C160.436 328.637 160.278 321.36 160.278 321.36C160.278 321.36 156.51 256.779 155.435 253.994C154.36 251.208 147.744 239.213 137.44 211.754C137.44 211.754 137.207 250.111 134.454 259.811C132.004 268.443 134.905 292.603 134.905 292.603L133.251 319.496C133.251 319.496 139.047 325.52 134.345 327.134C134.345 327.134 131.205 321.091 122.255 319.717C117.706 319.019 112.035 327.098 112.035 327.098C110.048 326.461 112.882 316.313 112.882 316.313C106.538 268.443 111.222 277.108 109.954 253.711C109.14 238.697 104.878 174.452 109.878 169.232L151.772 170.75Z" fill="white"/>
</mask>
<g mask="url(#mask1_133_20)">
<path opacity="0.2" d="M137.627 212.245C147.822 239.353 154.371 251.22 155.439 253.991C156.051 255.594 157.552 277.524 158.721 295.932C160.068 279.188 161.446 261.515 161.57 258.047C161.818 251.15 156.833 241.683 156.082 239.237C155.331 236.798 157.026 234.143 157.026 234.143L148.054 222.834C148.356 218.994 143.611 202.242 143.611 202.242C140.786 204.914 138.301 210.603 137.627 212.245Z" fill="black"/>
</g>
<path d="M151.772 170.75L155.131 177.851C155.131 177.851 168.988 206.499 177.481 239.299C177.682 240.075 182.075 255.615 178.553 294.302L180.561 301.09L178.368 312.303C178.368 312.303 181.666 317.073 181.549 318.629C181.549 318.629 173.406 320.15 170.692 321.608C168.576 322.745 162.234 329.008 162.234 329.008C160.436 328.637 160.278 321.36 160.278 321.36C160.278 321.36 156.51 256.779 155.435 253.994C154.36 251.208 147.744 239.213 137.44 211.754C137.44 211.754 137.207 250.111 134.454 259.811C132.004 268.443 134.905 292.603 134.905 292.603L133.251 319.496C133.251 319.496 139.047 325.52 134.345 327.134C134.345 327.134 131.205 321.091 122.255 319.717C117.706 319.019 112.035 327.098 112.035 327.098C110.048 326.461 112.882 316.313 112.882 316.313C106.538 268.443 111.222 277.108 109.954 253.711C109.14 238.697 104.878 174.452 109.878 169.232L151.772 170.75Z" stroke="#263238" stroke-miterlimit="10" stroke-linecap="round" stroke-linejoin="round"/>
<path d="M137.44 211.754C137.44 211.754 142.561 201.869 146.929 199.113" stroke="#263238" stroke-miterlimit="10" stroke-linecap="round" stroke-linejoin="round"/>
<path d="M148.848 195.914C148.848 195.914 133.293 200.644 127.902 201.564" stroke="#263238" stroke-miterlimit="10" stroke-linecap="round" stroke-linejoin="round"/>
<path d="M140.886 180.039C141.557 192.988 146.125 195.194 141.708 198.019C141.708 198.019 141.83 204.076 139.635 207.915" stroke="#263238" stroke-miterlimit="10" stroke-linecap="round" stroke-linejoin="round"/>
<path d="M113.631 175.093C113.631 175.093 115.469 194.995 109.344 198.739" stroke="#263238" stroke-miterlimit="10" stroke-linecap="round" stroke-linejoin="round"/>
<path d="M109.344 181.505C109.344 181.505 108.885 194.758 109.344 205.434C109.344 205.434 110.875 250.561 112.406 256.227C113.937 261.893 110.047 270.444 110.385 294.954" stroke="#263238" stroke-miterlimit="10" stroke-linecap="round" stroke-linejoin="round"/>
<path d="M124.042 314.144C122.592 313.87 121.063 313.994 119.755 314.717" stroke="#263238" stroke-miterlimit="10" stroke-linecap="round" stroke-linejoin="round"/>
<path d="M133.253 319.496C131.332 317.664 129.093 316.052 126.662 314.975" stroke="#263238" stroke-miterlimit="10" stroke-linecap="round" stroke-linejoin="round"/>
<path d="M130.69 214.88C127.254 218.728 121.814 225.995 116.234 226.609" stroke="#263238" stroke-miterlimit="10" stroke-linecap="round" stroke-linejoin="round"/>
<path d="M135.986 208.607C134.93 209.942 133.839 211.251 132.732 212.544" stroke="#263238" stroke-miterlimit="10" stroke-linecap="round" stroke-linejoin="round"/>
<path d="M131.087 253.711C131.087 253.711 123.277 264.341 118.99 264.954" stroke="#263238" stroke-miterlimit="10" stroke-linecap="round" stroke-linejoin="round"/>
<path d="M140.274 209.832C140.274 209.832 154.181 248.571 159.017 252.399C159.017 252.399 159.566 280.879 159.719 290.831C159.873 300.784 162.17 314.008 162.17 314.008" stroke="#263238" stroke-miterlimit="10" stroke-linecap="round" stroke-linejoin="round"/>
<path d="M177.022 313.72C177.022 313.72 171.663 315.571 169.06 316.752C166.457 317.933 165.538 320.537 165.538 320.537" stroke="#263238" stroke-miterlimit="10" stroke-linecap="round" stroke-linejoin="round"/>
<path d="M163.47 238.429C156 233.739 146.154 227.885 142.186 219.631" stroke="#263238" stroke-miterlimit="10" stroke-linecap="round" stroke-linejoin="round"/>
<path d="M169.978 242.293C168.566 241.512 167.174 240.694 165.793 239.86" stroke="#263238" stroke-miterlimit="10" stroke-linecap="round" stroke-linejoin="round"/>
<path d="M146.45 185.276C142.432 185.217 138.035 184.69 134.608 182.424" stroke="#263238" stroke-miterlimit="10" stroke-linecap="round" stroke-linejoin="round"/>
<path d="M152.829 184.902C151.681 185.064 150.522 185.161 149.363 185.221" stroke="#263238" stroke-miterlimit="10" stroke-linecap="round" stroke-linejoin="round"/>
<path d="M160.276 95.9386C157.208 91.2995 141.578 90.1129 131.549 90.1129C121.521 90.1129 109.344 88.4209 103.842 99.7507C99.6449 108.392 109.31 154.081 109.31 154.081L106.942 173.806C125.113 179.507 156.238 178.245 156.238 178.245L152.048 160.414C152.048 160.414 163.343 100.579 160.276 95.9386Z" fill="#263238"/>
<path d="M125.594 78.6423C125.594 78.6423 126.94 89.3947 122.85 91.7143C122.85 91.7143 124.896 99.6007 132.053 100.089C139.211 100.578 142.41 92.8624 142.41 92.8624L125.594 78.6423Z" fill="white" stroke="#263238" stroke-miterlimit="10" stroke-linecap="round" stroke-linejoin="round"/>
<path d="M184.89 63.8491L163.433 65.8293L162.223 52.728C162.143 51.8607 162.782 51.0931 163.649 51.0126L181.966 49.3224C182.833 49.2419 183.601 49.8805 183.681 50.7478L184.89 63.8491Z" fill="#92E3A9"/>
<mask id="mask2_133_20" style="mask-type:luminance" maskUnits="userSpaceOnUse" x="162" y="49" width="23" height="17">
<path d="M184.89 63.8491L163.433 65.8293L162.223 52.728C162.143 51.8607 162.782 51.0931 163.649 51.0126L181.966 49.3224C182.833 49.2419 183.601 49.8805 183.681 50.7478L184.89 63.8491Z" fill="white"/>
</mask>
<g mask="url(#mask2_133_20)">
<path opacity="0.3" d="M184.89 63.8491L163.433 65.8293L162.223 52.728C162.143 51.8607 162.782 51.0931 163.649 51.0126L181.966 49.3224C182.833 49.2419 183.601 49.8805 183.681 50.7478L184.89 63.8491Z" fill="black" fill-opacity="0.7"/>
</g>
<mask id="mask3_133_20" style="mask-type:luminance" maskUnits="userSpaceOnUse" x="161" y="49" width="25" height="19">
<path d="M185.581 63.4002L164.397 67.3439L161.988 54.4088C161.829 53.5525 162.394 52.7294 163.25 52.5696L181.335 49.2031C182.191 49.0433 183.014 49.6087 183.174 50.4649L185.581 63.4002Z" fill="white"/>
</mask>
<g mask="url(#mask3_133_20)">
<path opacity="0.3" d="M182.514 50.6639L177.232 51.1514L178.207 61.7151L183.489 61.2276L182.514 50.6639Z" fill="white" fill-opacity="0.7"/>
</g>
<path d="M184.89 63.8491L163.433 65.8293L162.223 52.728C162.143 51.8607 162.782 51.0931 163.649 51.0126L181.966 49.3224C182.833 49.2419 183.601 49.8805 183.681 50.7478L184.89 63.8491Z" stroke="#263238" stroke-miterlimit="10" stroke-linecap="round" stroke-linejoin="round"/>
<path d="M216.599 60.9228L195.141 62.903L193.932 49.8017C193.852 48.9344 194.49 48.1668 195.357 48.0872L213.674 46.3969C214.541 46.3165 215.309 46.955 215.389 47.8224L216.599 60.9228Z" fill="#92E3A9"/>
<mask id="mask4_133_20" style="mask-type:luminance" maskUnits="userSpaceOnUse" x="193" y="46" width="24" height="17">
<path d="M216.599 60.9228L195.141 62.903L193.932 49.8017C193.852 48.9344 194.49 48.1668 195.357 48.0872L213.674 46.3969C214.541 46.3165 215.309 46.955 215.389 47.8224L216.599 60.9228Z" fill="white"/>
</mask>
<g mask="url(#mask4_133_20)">
<path opacity="0.3" d="M216.599 60.9228L195.141 62.903L193.932 49.8017C193.852 48.9344 194.49 48.1668 195.357 48.0872L213.674 46.3969C214.541 46.3165 215.309 46.955 215.389 47.8224L216.599 60.9228Z" fill="black" fill-opacity="0.7"/>
</g>
<mask id="mask5_133_20" style="mask-type:luminance" maskUnits="userSpaceOnUse" x="193" y="46" width="25" height="19">
<path d="M217.3 60.538L196.114 64.4819L193.706 51.5467C193.547 50.6904 194.112 49.8674 194.968 49.7084L213.053 46.3419C213.909 46.1821 214.732 46.7474 214.891 47.6038L217.3 60.538Z" fill="white"/>
</mask>
<g mask="url(#mask5_133_20)">
<path opacity="0.3" d="M213.875 47.7699L210.684 48.0644L211.659 58.6281L214.85 58.3336L213.875 47.7699Z" fill="white" fill-opacity="0.7"/>
</g>
<path d="M216.599 60.9228L195.141 62.903L193.932 49.8017C193.852 48.9344 194.49 48.1668 195.357 48.0872L213.674 46.3969C214.541 46.3165 215.309 46.955 215.389 47.8224L216.599 60.9228Z" stroke="#263238" stroke-miterlimit="10" stroke-linecap="round" stroke-linejoin="round"/>
<path d="M209.923 61.5387L188.466 63.5189L187.257 50.4176C187.177 49.5503 187.815 48.7827 188.682 48.7031L206.999 47.0129C207.867 46.9324 208.634 47.571 208.714 48.4383L209.923 61.5387Z" fill="#92E3A9" stroke="#263238" stroke-miterlimit="10" stroke-linecap="round" stroke-linejoin="round"/>
<path d="M241.632 58.6125L220.175 60.5926L218.966 47.4914C218.886 46.624 219.524 45.8564 220.392 45.776L238.709 44.0857C239.576 44.0061 240.343 44.6438 240.424 45.5112L241.632 58.6125Z" fill="#92E3A9" stroke="#263238" stroke-miterlimit="10" stroke-linecap="round" stroke-linejoin="round"/>
<path opacity="0.3" d="M207.548 48.3563L202.266 48.8438L203.241 59.4075L208.523 58.92L207.548 48.3563Z" fill="white" fill-opacity="0.7"/>
<path opacity="0.3" d="M238.911 45.4588L233.628 45.9463L234.603 56.51L239.886 56.0225L238.911 45.4588Z" fill="white" fill-opacity="0.7"/>
<path d="M250.742 54.6898L256.301 114.929L159.245 123.886L153.687 63.6463C153.492 61.5438 155.038 59.6926 157.133 59.4991L246.596 51.2439C248.689 51.0504 250.548 52.5872 250.742 54.6898Z" fill="#92E3A9"/>
<mask id="mask6_133_20" style="mask-type:luminance" maskUnits="userSpaceOnUse" x="153" y="51" width="104" height="73">
<path d="M250.742 54.6898L256.301 114.929L159.245 123.886L153.687 63.6463C153.492 61.5438 155.038 59.6926 157.133 59.4991L246.596 51.2439C248.689 51.0504 250.548 52.5872 250.742 54.6898Z" fill="white"/>
</mask>
<g mask="url(#mask6_133_20)">
<path opacity="0.3" d="M250.742 54.6898L256.301 114.929L159.245 123.886L153.687 63.6463C153.492 61.5438 155.038 59.6926 157.133 59.4991L246.596 51.2439C248.689 51.0504 250.548 52.5872 250.742 54.6898Z" fill="black" fill-opacity="0.7"/>
</g>
<path d="M250.742 54.6898L256.301 114.929L159.245 123.886L153.687 63.6463C153.492 61.5438 155.038 59.6926 157.133 59.4991L246.596 51.2439C248.689 51.0504 250.548 52.5872 250.742 54.6898Z" stroke="#263238" stroke-miterlimit="10" stroke-linecap="round" stroke-linejoin="round"/>
<path d="M250.742 54.6898L256.301 114.929L184.28 121.576L178.721 61.336C178.527 59.2334 180.073 57.3823 182.168 57.1887L246.596 51.2431C248.689 51.0504 250.548 52.5872 250.742 54.6898Z" fill="#EBFF00" stroke="#263238" stroke-miterlimit="10" stroke-linecap="round" stroke-linejoin="round"/>
<path opacity="0.3" d="M246.069 57.2825L184.502 62.9642C183.637 63.0438 182.869 62.4069 182.79 61.5404C182.71 60.6748 183.347 59.9072 184.213 59.8275L245.78 54.1459C246.645 54.0663 247.412 54.7032 247.492 55.5697C247.572 56.4362 246.934 57.2029 246.069 57.2825Z" fill="white" fill-opacity="0.7"/>
<path d="M137.881 57.3236C137.881 57.3236 123.68 54.4769 122.089 63.6203C120.498 72.7637 125.713 76.6479 125.713 76.6479L137.881 57.3236Z" fill="#263238"/>
<path d="M125.734 81.6692C124.28 77.5931 123.748 72.8031 125.004 67.512C126.399 61.641 133.391 53.5777 143.983 60.9119C149.444 64.693 149.777 72.8911 148.076 80.4055C147.671 82.198 147.975 83.9511 147.38 85.596C145.287 91.3816 141.456 95.8314 139.363 95.9328C135.862 96.1037 128.873 91.8735 129.163 88.1871" fill="white"/>
<path d="M125.734 81.6692C124.28 77.5931 123.748 72.8031 125.004 67.512C126.399 61.641 133.391 53.5777 143.983 60.9119C149.444 64.693 149.777 72.8911 148.076 80.4055C147.671 82.198 147.975 83.9511 147.38 85.596C145.287 91.3816 141.456 95.8314 139.363 95.9328C135.862 96.1037 128.873 91.8735 129.163 88.1871" stroke="#263238" stroke-miterlimit="10" stroke-linecap="round" stroke-linejoin="round"/>
<path d="M139.852 79.0135C139.852 79.0135 137.029 76.9688 134.31 78.6415" stroke="#263238" stroke-miterlimit="10" stroke-linecap="round" stroke-linejoin="round"/>
<path d="M145.184 78.6423C145.184 78.6423 147.319 76.6847 148.709 76.9604" stroke="#263238" stroke-miterlimit="10" stroke-linecap="round" stroke-linejoin="round"/>
<path d="M135.863 82.1502C135.863 82.6697 136.128 83.0913 136.454 83.0913C136.78 83.0913 137.045 82.6697 137.045 82.1502C137.045 81.6306 136.78 81.2091 136.454 81.2091C136.127 81.2091 135.863 81.6306 135.863 82.1502Z" fill="#263238"/>
<path d="M145.184 82.5692C145.511 82.5692 145.775 82.1479 145.775 81.6281C145.775 81.1084 145.511 80.687 145.184 80.687C144.858 80.687 144.594 81.1084 144.594 81.6281C144.594 82.1479 144.858 82.5692 145.184 82.5692Z" fill="#263238"/>
<path d="M143.989 80.6183C142.943 81.9776 144.407 87.153 143.989 87.5192C143.57 87.8855 140.904 86.8396 140.904 86.8396C140.904 86.8396 140.276 86.0553 141.583 85.6371" stroke="#263238" stroke-miterlimit="10" stroke-linecap="round" stroke-linejoin="round"/>
<path d="M141.578 90.1137C141.578 90.1137 138.003 90.1137 137.046 88.8131" stroke="#263238" stroke-miterlimit="10" stroke-linecap="round" stroke-linejoin="round"/>
<path d="M133.056 70.7534L132.777 75.075C132.777 75.075 129.71 76.6546 128.943 78.2694C128.176 79.8842 128.455 81.6273 128.455 81.6273C128.455 81.6273 126.593 78.375 125.594 78.6415C125.232 78.7378 125.232 80.0979 125.232 80.0979C125.232 80.0979 121.066 70.7526 124.83 65.8042C128.594 60.8558 133.056 70.7534 133.056 70.7534Z" fill="#757575" stroke="#263238" stroke-miterlimit="10" stroke-linecap="round" stroke-linejoin="round"/>
<path d="M127.148 80.687C127.148 80.687 126.312 77.5504 123.489 76.7141C120.665 75.8778 122.599 83.3988 125.004 84.3994C127.41 85.4 128.013 86.072 128.155 85.1838" fill="white"/>
<path d="M127.148 80.687C127.148 80.687 126.312 77.5504 123.489 76.7141C120.665 75.8778 122.599 83.3988 125.004 84.3994C127.41 85.4 128.013 86.072 128.155 85.1838" stroke="#263238" stroke-miterlimit="10" stroke-linecap="round" stroke-linejoin="round"/>
<path d="M123.3 70.2037C123.07 69.8877 122.031 61.8421 127.348 58.2027C132.665 54.5624 141.664 54.9722 147.391 59.9826C153.117 64.993 151.481 73.6814 147.391 76.6487V73.0235C147.391 73.0235 145.504 76.6621 139.851 76.963L141.577 74.299C141.577 74.299 138.801 75.9347 133.893 75.8325C133.893 75.8325 136.196 73.9923 135.862 72.3556C135.862 72.3556 128.08 76.7409 123.3 70.2037Z" fill="#263238"/>
<path d="M124.3 99.268C120.378 99.739 114.802 104.858 118.462 113.949C120.783 119.712 139.852 116.286 139.852 116.286C146.926 113.375 157.258 102.876 164.84 98.0093C164.84 98.0093 163.241 87.9642 161.396 89.3771C152.829 95.9395 145.776 96.3954 133.823 102.142C133.823 102.142 126.768 98.9714 124.3 99.268Z" fill="white" stroke="#263238" stroke-miterlimit="10" stroke-linecap="round" stroke-linejoin="round"/>
<path d="M133.056 110.429C132.939 114.186 134.484 114.85 137.082 115.734L133.056 110.429Z" fill="white"/>
<path d="M133.056 110.429C132.939 114.186 134.484 114.85 137.082 115.734" stroke="#263238" stroke-miterlimit="10" stroke-linecap="round" stroke-linejoin="round"/>
<path d="M160.804 90.1137C160.976 89.5715 164.125 83.993 165.052 82.5692C165.978 81.1455 169.957 79.8667 171.504 79.0144C173.051 78.1622 173.162 76.8624 174.046 77.7884C174.93 78.7144 174.046 80.8396 169.405 83.0921C169.405 83.0921 173.111 83.2706 174.352 83.0921C175.593 82.9136 176.698 81.7832 177.25 82.5692C177.803 83.3553 177.913 84.7447 175.151 85.5977C172.388 86.45 171.063 86.4022 171.063 86.4022C171.063 86.4022 174.599 87.2277 175.041 87.557C175.483 87.8863 176.146 88.6506 176.809 88.7654C177.472 88.881 178.19 89.6168 176.975 90.4833C175.759 91.3498 174.157 90.5386 174.157 90.5386C174.157 90.5386 177.361 92.0855 176.366 93.0803C175.372 94.075 172.167 93.8537 172.167 93.8537C172.167 93.8537 167.416 99.5999 163.438 98.3839" fill="white"/>
<path d="M160.804 90.1137C160.976 89.5715 164.125 83.993 165.052 82.5692C165.978 81.1455 169.957 79.8667 171.504 79.0144C173.051 78.1622 173.162 76.8624 174.046 77.7884C174.93 78.7144 174.046 80.8396 169.405 83.0921C169.405 83.0921 173.111 83.2706 174.352 83.0921C175.593 82.9136 176.698 81.7832 177.25 82.5692C177.803 83.3553 177.913 84.7447 175.151 85.5977C172.388 86.45 171.063 86.4022 171.063 86.4022C171.063 86.4022 174.599 87.2277 175.041 87.557C175.483 87.8863 176.146 88.6506 176.809 88.7654C177.472 88.881 178.19 89.6168 176.975 90.4833C175.759 91.3498 174.157 90.5386 174.157 90.5386C174.157 90.5386 177.361 92.0855 176.366 93.0803C175.372 94.075 172.167 93.8537 172.167 93.8537C172.167 93.8537 167.416 99.5999 163.438 98.3839" stroke="#263238" stroke-miterlimit="10" stroke-linecap="round" stroke-linejoin="round"/>
<path d="M166.476 82.5684C166.476 82.5684 167.36 82.6915 167.637 83.6863C167.913 84.681 168.72 84.7363 169.218 85.8407C169.715 86.9461 169.571 88.6606 170.068 89.2397C170.565 89.8187 170.068 92.3051 170.068 92.3051" stroke="#263238" stroke-miterlimit="10" stroke-linecap="round" stroke-linejoin="round"/>
<path d="M125.123 98.5524C123.065 95.9386 118.462 97.1202 118.462 97.1202" stroke="white" stroke-miterlimit="10" stroke-linecap="round" stroke-linejoin="round"/>
<path d="M115.948 92.3059C115.948 92.3059 120.689 92.9981 122.089 96.9476" stroke="white" stroke-miterlimit="10" stroke-linecap="round" stroke-linejoin="round"/>
<path d="M124.3 117.296C124.3 117.296 119.678 120.872 112.633 115.733" stroke="white" stroke-miterlimit="10" stroke-linecap="round" stroke-linejoin="round"/>
<path d="M118.462 118.373C118.462 118.373 116.114 121.616 110.396 121.576" stroke="white" stroke-miterlimit="10" stroke-linecap="round" stroke-linejoin="round"/>
<path d="M147.857 159.178C147.857 159.178 135.756 168.818 123.463 167.582" stroke="white" stroke-miterlimit="10" stroke-linecap="round" stroke-linejoin="round"/>
<path d="M115.147 137.983C115.147 137.983 133.933 151.758 147.857 152.642" stroke="white" stroke-miterlimit="10" stroke-linecap="round" stroke-linejoin="round"/>
<path d="M275.462 139.892L272.073 158.115L244.742 174.722L248.517 181.663C248.517 181.663 280.122 172.021 280.887 169.77C281.651 167.518 288.944 143.643 288.944 143.643L275.462 139.892Z" fill="#263238"/>
<path d="M287.4 109.089L285.574 131.178L284.61 142.768C279.339 145.332 274.185 141.477 273.867 141.226C273.858 141.217 273.85 141.217 273.85 141.217C275.333 137.019 277.001 113.279 287.4 109.089Z" fill="#999999" stroke="#263238" stroke-miterlimit="10" stroke-linecap="round" stroke-linejoin="round"/>
<path d="M285.574 131.178L284.61 142.768C279.339 145.332 274.185 141.477 273.867 141.226C274.093 141.326 276.867 142.5 278.669 141.217C278.669 141.217 277.118 139.449 277.009 139.005C276.9 138.569 278.669 138.452 278.669 138.452C278.669 138.452 277.495 129.058 280.621 125.086C281.845 123.527 283.755 126.712 285.574 131.178Z" fill="#263238"/>
<path d="M306.366 313.655L307.238 316.112C307.238 316.112 305.219 319.503 302.982 322.102C302.982 322.102 302.121 321.828 300.767 323.044C299.412 324.26 299.289 326.195 299.289 326.195C299.289 326.195 292.892 333.874 284.766 333.984C276.639 334.095 279.096 330.006 279.096 330.006L306.366 313.655Z" fill="#92E3A9" stroke="#263238" stroke-miterlimit="10" stroke-linecap="round" stroke-linejoin="round"/>
<path d="M298.734 294.119C298.734 294.119 287.845 290.104 285.707 298.134C285.707 298.134 287.651 306.976 286.485 311.807C285.318 316.636 279.459 325.875 279.096 327.634C278.388 331.065 278.922 331.298 278.922 331.298C278.922 331.298 283.189 333.763 288.915 331.123C294.641 328.483 304.567 317.124 306.123 314.786C307.678 312.447 301.262 303.196 301.262 303.196L298.734 294.119Z" fill="white"/>
<mask id="mask7_133_20" style="mask-type:luminance" maskUnits="userSpaceOnUse" x="278" y="293" width="29" height="40">
<path d="M298.734 294.119C298.734 294.119 287.845 290.104 285.707 298.134C285.707 298.134 287.651 306.976 286.485 311.807C285.318 316.636 279.459 325.875 279.096 327.634C278.388 331.065 278.922 331.298 278.922 331.298C278.922 331.298 283.189 333.763 288.915 331.123C294.641 328.483 304.567 317.124 306.123 314.786C307.678 312.447 301.262 303.196 301.262 303.196L298.734 294.119Z" fill="white"/>
</mask>
<g mask="url(#mask7_133_20)">
<path opacity="0.4" d="M298.734 294.119C298.734 294.119 287.845 290.104 285.707 298.134C285.707 298.134 287.651 306.976 286.485 311.807C285.318 316.636 279.459 325.875 279.096 327.634C278.388 331.065 278.922 331.298 278.922 331.298C278.922 331.298 283.189 333.763 288.915 331.123C294.641 328.483 304.567 317.124 306.123 314.786C307.678 312.447 301.262 303.196 301.262 303.196L298.734 294.119Z" fill="#92E3A9"/>
</g>
<path d="M298.734 294.119C298.734 294.119 287.845 290.104 285.707 298.134C285.707 298.134 287.651 306.976 286.485 311.807C285.318 316.636 279.459 325.875 279.096 327.634C278.388 331.065 278.922 331.298 278.922 331.298C278.922 331.298 283.189 333.763 288.915 331.123C294.641 328.483 304.567 317.124 306.123 314.786C307.678 312.447 301.262 303.196 301.262 303.196L298.734 294.119Z" stroke="#263238" stroke-miterlimit="10" stroke-linecap="round" stroke-linejoin="round"/>
<path d="M293.16 305.472C293.16 305.472 294.969 313.493 290.435 321.232" stroke="#263238" stroke-miterlimit="10" stroke-linecap="round" stroke-linejoin="round"/>
<path d="M290.435 323.324C290.435 323.324 289.271 326.647 285.771 327.634C282.271 328.621 279.096 327.634 279.096 327.634L281.711 322.332C281.711 322.332 285.507 324.077 290.435 323.324Z" fill="#92E3A9" stroke="#263238" stroke-miterlimit="10" stroke-linecap="round" stroke-linejoin="round"/>
<path d="M291.976 320.131C291.976 320.131 286.278 320.472 283.303 319.31" stroke="#263238" stroke-miterlimit="10" stroke-linecap="round" stroke-linejoin="round"/>
<path d="M293.03 316.985C293.03 316.985 287.705 317.8 284.729 316.112" stroke="#263238" stroke-miterlimit="10" stroke-linecap="round" stroke-linejoin="round"/>
<path d="M293.938 313.494C293.938 313.494 289.267 314.176 286.222 312.73" stroke="#263238" stroke-miterlimit="10" stroke-linecap="round" stroke-linejoin="round"/>
<path d="M294.456 309.537C294.456 309.537 289.263 311.166 286.805 309.537" stroke="#263238" stroke-miterlimit="10" stroke-linecap="round" stroke-linejoin="round"/>
<path d="M295.234 299.763L296.142 305.472C296.142 305.472 289.272 310.003 284.729 304.346L284.75 298.389C284.75 298.389 286.435 302.405 295.234 299.763Z" fill="#92E3A9" stroke="#263238" stroke-miterlimit="10" stroke-linecap="round" stroke-linejoin="round"/>
<path d="M289.267 171.655C282.305 193.717 260.692 229.111 262.883 238.163C264.081 243.109 271.213 271.127 276.789 283.445C278.916 288.144 283.492 291.29 283.492 291.29L286.805 298.389C294.871 301.897 297.764 294.757 297.764 294.757L296.142 286.713C300.469 278.854 298.621 278.854 293.031 238.109C292.372 233.308 303.503 218.466 303.503 218.466L309.227 255.793L310.157 286.38L313.13 295.829C313.13 295.829 313.861 304.706 313.799 305.24H327.06L328.524 295.482C328.524 295.482 334.685 289.675 334.685 282.97C334.685 276.265 333.359 242.119 334.685 232.174C336.01 222.229 331.579 175.855 331.579 175.855L289.267 171.655Z" fill="#263238"/>
<path d="M217.806 166.846L196.337 165L197.464 151.891C197.538 151.024 198.303 150.381 199.17 150.455L217.497 152.031C218.364 152.106 219.007 152.87 218.933 153.737L217.806 166.846Z" fill="#92E3A9"/>
<mask id="mask8_133_20" style="mask-type:luminance" maskUnits="userSpaceOnUse" x="196" y="150" width="23" height="17">
<path d="M217.806 166.846L196.337 165L197.464 151.891C197.538 151.024 198.303 150.381 199.17 150.455L217.497 152.031C218.364 152.106 219.007 152.87 218.933 153.737L217.806 166.846Z" fill="white"/>
</mask>
<g mask="url(#mask8_133_20)">
<path opacity="0.3" d="M217.806 166.846L196.337 165L197.464 151.891C197.538 151.024 198.303 150.381 199.17 150.455L217.497 152.031C218.364 152.106 219.007 152.87 218.933 153.737L217.806 166.846Z" fill="black" fill-opacity="0.7"/>
</g>
<mask id="mask9_133_20" style="mask-type:luminance" maskUnits="userSpaceOnUse" x="195" y="149" width="25" height="19">
<path d="M217.07 167.082L195.838 163.403L198.085 150.439C198.233 149.582 199.05 149.007 199.908 149.154L218.032 152.296C218.89 152.444 219.464 153.261 219.316 154.118L217.07 167.082Z" fill="white"/>
</mask>
<g mask="url(#mask9_133_20)">
<path opacity="0.3" d="M217.785 153.448L212.5 152.994L211.591 163.563L216.876 164.017L217.785 153.448Z" fill="white" fill-opacity="0.7"/>
</g>
<path d="M217.806 166.846L196.337 165L197.464 151.891C197.538 151.024 198.303 150.381 199.17 150.455L217.497 152.031C218.364 152.106 219.007 152.87 218.933 153.737L217.806 166.846Z" stroke="#263238" stroke-miterlimit="10" stroke-linecap="round" stroke-linejoin="round"/>
<path d="M249.533 169.574L228.063 167.728L229.19 154.619C229.265 153.751 230.028 153.109 230.897 153.183L249.224 154.759C250.091 154.833 250.735 155.598 250.659 156.465L249.533 169.574Z" fill="#92E3A9"/>
<mask id="mask10_133_20" style="mask-type:luminance" maskUnits="userSpaceOnUse" x="228" y="153" width="23" height="17">
<path d="M249.533 169.574L228.063 167.728L229.19 154.619C229.265 153.751 230.028 153.109 230.897 153.183L249.224 154.759C250.091 154.833 250.735 155.598 250.659 156.465L249.533 169.574Z" fill="white"/>
</mask>
<g mask="url(#mask10_133_20)">
<path opacity="0.3" d="M249.533 169.574L228.063 167.728L229.19 154.619C229.265 153.751 230.028 153.109 230.897 153.183L249.224 154.759C250.091 154.833 250.735 155.598 250.659 156.465L249.533 169.574Z" fill="black" fill-opacity="0.7"/>
</g>
<mask id="mask11_133_20" style="mask-type:luminance" maskUnits="userSpaceOnUse" x="227" y="151" width="25" height="19">
<path d="M248.802 169.753L227.57 166.074L229.816 153.11C229.965 152.253 230.78 151.678 231.639 151.826L249.763 154.967C250.621 155.115 251.197 155.932 251.047 156.79L248.802 169.753Z" fill="white"/>
</mask>
<g mask="url(#mask11_133_20)">
<path opacity="0.3" d="M249.159 156.15L245.967 155.875L245.057 166.444L248.25 166.718L249.159 156.15Z" fill="white" fill-opacity="0.7"/>
</g>
<path d="M249.533 169.574L228.063 167.728L229.19 154.619C229.265 153.751 230.028 153.109 230.897 153.183L249.224 154.759C250.091 154.833 250.735 155.598 250.659 156.465L249.533 169.574Z" stroke="#263238" stroke-miterlimit="10" stroke-linecap="round" stroke-linejoin="round"/>
<path d="M242.854 169L221.385 167.154L222.512 154.045C222.586 153.177 223.35 152.535 224.218 152.609L242.546 154.185C243.413 154.259 244.056 155.023 243.982 155.891L242.854 169Z" fill="#92E3A9" stroke="#263238" stroke-miterlimit="10" stroke-linecap="round" stroke-linejoin="round"/>
<path d="M274.581 171.728L253.111 169.882L254.238 156.773C254.313 155.906 255.077 155.263 255.944 155.337L274.272 156.913C275.14 156.988 275.782 157.751 275.709 158.619L274.581 171.728Z" fill="#92E3A9" stroke="#263238" stroke-miterlimit="10" stroke-linecap="round" stroke-linejoin="round"/>
<path opacity="0.3" d="M242.828 155.606L237.543 155.152L236.634 165.721L241.919 166.175L242.828 155.606Z" fill="white" fill-opacity="0.7"/>
<path opacity="0.3" d="M274.209 158.301L268.924 157.846L268.015 168.415L273.3 168.87L274.209 158.301Z" fill="white" fill-opacity="0.7"/>
<path d="M284.241 169.478L279.059 229.751L181.95 221.401L187.132 161.128C187.313 159.024 189.162 157.476 191.258 157.656L280.769 165.353C282.864 165.533 284.422 167.374 284.241 169.478Z" fill="#92E3A9"/>
<mask id="mask12_133_20" style="mask-type:luminance" maskUnits="userSpaceOnUse" x="181" y="157" width="104" height="73">
<path d="M284.241 169.478L279.059 229.751L181.95 221.401L187.132 161.128C187.313 159.024 189.162 157.476 191.258 157.656L280.769 165.353C282.864 165.533 284.422 167.374 284.241 169.478Z" fill="white"/>
</mask>
<g mask="url(#mask12_133_20)">
<path opacity="0.3" d="M284.241 169.478L279.059 229.751L181.95 221.401L187.132 161.128C187.313 159.024 189.162 157.476 191.258 157.656L280.769 165.353C282.864 165.533 284.422 167.374 284.241 169.478Z" fill="black" fill-opacity="0.7"/>
</g>
<path d="M284.241 169.478L279.059 229.751L181.95 221.401L187.132 161.128C187.313 159.024 189.162 157.476 191.258 157.656L280.769 165.353C282.864 165.533 284.422 167.374 284.241 169.478Z" stroke="#263238" stroke-miterlimit="10" stroke-linecap="round" stroke-linejoin="round"/>
<path d="M284.241 169.478L279.059 229.751L206.997 223.555L212.179 163.282C212.36 161.178 214.209 159.63 216.305 159.81L280.769 165.353C282.864 165.533 284.422 167.374 284.241 169.478Z" fill="#92E3A9" stroke="#263238" stroke-miterlimit="10" stroke-linecap="round" stroke-linejoin="round"/>
<path opacity="0.3" d="M279.183 171.204L217.583 165.907C216.716 165.832 216.074 165.069 216.149 164.203C216.223 163.336 216.986 162.694 217.852 162.769L279.453 168.066C280.319 168.141 280.961 168.903 280.887 169.77C280.812 170.636 280.05 171.278 279.183 171.204Z" fill="white" fill-opacity="0.7"/>
<path d="M327.487 305.585C327.487 305.585 322.846 302.27 313.232 302.933C313.232 302.933 312.535 314.457 311.226 317.812C309.917 321.166 303.027 326.968 301.748 327.962C300.468 328.957 300.468 332.438 300.468 332.438H329.642C329.642 332.438 329.145 324.725 327.321 317.642L327.487 305.585Z" fill="white"/>
<mask id="mask13_133_20" style="mask-type:luminance" maskUnits="userSpaceOnUse" x="300" y="302" width="30" height="31">
<path d="M327.487 305.585C327.487 305.585 322.846 302.27 313.232 302.933C313.232 302.933 312.535 314.457 311.226 317.812C309.917 321.166 303.027 326.968 301.748 327.962C300.468 328.957 300.468 332.438 300.468 332.438H329.642C329.642 332.438 329.145 324.725 327.321 317.642L327.487 305.585Z" fill="white"/>
</mask>
<g mask="url(#mask13_133_20)">
<path opacity="0.4" d="M327.487 305.585C327.487 305.585 322.846 302.27 313.232 302.933C313.232 302.933 312.535 314.457 311.226 317.812C309.917 321.166 303.027 326.968 301.748 327.962C300.468 328.957 300.468 332.438 300.468 332.438H329.642C329.642 332.438 329.145 324.725 327.321 317.642L327.487 305.585Z" fill="#92E3A9"/>
</g>
<path d="M327.487 305.585C327.487 305.585 322.846 302.27 313.232 302.933C313.232 302.933 312.535 314.457 311.226 317.812C309.917 321.166 303.027 326.968 301.748 327.962C300.468 328.957 300.468 332.438 300.468 332.438H329.642C329.642 332.438 329.145 324.725 327.321 317.642L327.487 305.585Z" stroke="#263238" stroke-miterlimit="10" stroke-linecap="round" stroke-linejoin="round"/>
<path d="M321.464 307.077C321.464 307.077 320.775 317.685 319.131 320.448C317.486 323.211 315.897 324.647 315.897 324.647" stroke="#263238" stroke-miterlimit="10" stroke-linecap="round" stroke-linejoin="round"/>
<path d="M315.055 326.139C315.055 326.139 313.591 327.962 311.961 328.211C310.332 328.46 301.748 327.962 301.748 327.962L305.248 324.936C305.248 324.936 312.403 323.736 315.055 326.139Z" fill="#92E3A9" stroke="#263238" stroke-miterlimit="10" stroke-linecap="round" stroke-linejoin="round"/>
<path d="M318.122 323.653C318.122 323.653 311.901 320.078 307.47 322.777" stroke="#263238" stroke-miterlimit="10" stroke-linecap="round" stroke-linejoin="round"/>
<path d="M319.622 321.226C319.622 321.226 315.28 317.832 310.158 319.695" stroke="#263238" stroke-miterlimit="10" stroke-linecap="round" stroke-linejoin="round"/>
<path d="M321.464 317.528C321.464 317.528 316.792 313.897 311.862 316.21" stroke="#263238" stroke-miterlimit="10" stroke-linecap="round" stroke-linejoin="round"/>
<path d="M322.1 312.912C322.1 312.912 316.432 309.863 312.304 312.175" stroke="#263238" stroke-miterlimit="10" stroke-linecap="round" stroke-linejoin="round"/>
<path d="M329.642 332.438V334.593H326.3C326.3 334.593 323.427 332.935 320.692 334.593C320.692 334.593 307.68 334.593 304.945 334.593C302.21 334.593 300.138 333.515 300.138 333.515L300.47 332.437H329.642V332.438Z" fill="#92E3A9" stroke="#263238" stroke-miterlimit="10" stroke-linecap="round" stroke-linejoin="round"/>
<path d="M325.462 304.923L324.716 309.619C324.716 309.619 315.96 306.779 311.123 308.624V302.845C311.123 302.845 320.131 299.676 325.462 304.923Z" fill="#92E3A9" stroke="#263238" stroke-miterlimit="10" stroke-linecap="round" stroke-linejoin="round"/>
<path d="M334.932 187.777C334.932 187.777 316.32 191.422 298.068 185.506C294.037 184.198 290.015 182.422 286.219 180.034C286.219 180.034 286.269 178.86 286.303 176.941C286.454 169.45 286.412 150.603 282.465 145.902C279.984 142.96 277.981 124.776 282.833 115.583L297.674 103.65C318.222 107.664 322.563 113.103 325.957 124.835C326.585 126.98 327.172 129.335 327.826 131.932C328.538 134.765 329.208 138.226 329.845 142.03C332.929 160.785 334.932 187.777 334.932 187.777Z" fill="#999999"/>
<mask id="mask14_133_20" style="mask-type:luminance" maskUnits="userSpaceOnUse" x="279" y="103" width="56" height="86">
<path d="M334.932 187.777C334.932 187.777 316.32 191.422 298.068 185.506C294.037 184.198 290.015 182.422 286.219 180.034C286.219 180.034 286.269 178.86 286.303 176.941C286.454 169.45 286.412 150.603 282.465 145.902C279.984 142.96 277.981 124.776 282.833 115.583L297.674 103.65C318.222 107.664 322.563 113.103 325.957 124.835C326.585 126.98 327.172 129.335 327.826 131.932C328.538 134.765 329.208 138.226 329.845 142.03C332.929 160.785 334.932 187.777 334.932 187.777Z" fill="white"/>
</mask>
<g mask="url(#mask14_133_20)">
<path opacity="0.2" d="M329.845 142.03L321.465 179.464C321.465 179.464 309.356 182.849 298.068 185.506C294.037 184.198 290.015 182.422 286.219 180.034C286.219 180.034 286.269 178.86 286.303 176.941C296.442 171.754 311.242 164.128 311.124 163.768C310.931 163.207 311.124 143.648 311.124 143.648C311.124 143.648 324.49 140.539 325.957 124.835C326.585 126.98 327.172 129.335 327.826 131.932C328.538 134.765 329.208 138.226 329.845 142.03Z" fill="black"/>
</g>
<path d="M334.932 187.777C334.932 187.777 316.32 191.422 298.068 185.506C294.037 184.198 290.015 182.422 286.219 180.034C286.219 180.034 286.269 178.86 286.303 176.941C286.454 169.45 286.412 150.603 282.465 145.902C279.984 142.96 277.981 124.776 282.833 115.583L297.674 103.65C318.222 107.664 322.563 113.103 325.957 124.835C326.585 126.98 327.172 129.335 327.826 131.932C328.538 134.765 329.208 138.226 329.845 142.03C332.929 160.785 334.932 187.777 334.932 187.777Z" stroke="#263238" stroke-miterlimit="10" stroke-linecap="round" stroke-linejoin="round"/>
<path d="M298.337 88.0304C298.337 88.0304 291.785 97.4177 300.5 104.736C300.5 104.736 289.922 116.609 286.443 114.972C284.979 114.283 286.443 109.999 286.443 109.999L280.312 98.6579L298.337 88.0304Z" fill="white" stroke="#263238" stroke-miterlimit="10" stroke-linecap="round" stroke-linejoin="round"/>
<path d="M296.188 92.8472C298.239 83.9041 297.253 70.5874 284.727 71.7757C275.948 72.6087 269.683 77.4674 272.124 89.2497C273.155 94.2257 274.002 101.264 278.558 107.61C279.823 109.373 293.062 103.146 292.264 98.1107" fill="white"/>
<path d="M296.188 92.8472C298.239 83.9041 297.253 70.5874 284.727 71.7757C275.948 72.6087 269.683 77.4674 272.124 89.2497C273.155 94.2257 274.002 101.264 278.558 107.61C279.823 109.373 293.062 103.146 292.264 98.1107" stroke="#263238" stroke-miterlimit="10" stroke-linecap="round" stroke-linejoin="round"/>
<path d="M278.264 87.3005C278.264 87.3005 280.896 86.0955 283.7 87.8268" stroke="#263238" stroke-miterlimit="10" stroke-linecap="round" stroke-linejoin="round"/>
<path d="M271.964 88.4025C271.964 88.4025 272.383 87.2645 273.848 87.5394" stroke="#263238" stroke-miterlimit="10" stroke-linecap="round" stroke-linejoin="round"/>
<path d="M275.095 90.2603C275.095 90.2603 272.517 94.9607 272.51 95.6336C272.502 96.3073 275.685 96.5252 275.685 96.5252" fill="white"/>
<path d="M275.095 90.2603C275.095 90.2603 272.517 94.9607 272.51 95.6336C272.502 96.3073 275.685 96.5252 275.685 96.5252" stroke="#263238" stroke-miterlimit="10" stroke-linecap="round" stroke-linejoin="round"/>
<path d="M280.646 91.2307C280.662 91.7419 280.418 92.1651 280.101 92.1743C279.785 92.1844 279.515 91.7779 279.499 91.2659C279.483 90.7547 279.727 90.3316 280.044 90.3215C280.36 90.3123 280.63 90.7187 280.646 91.2307Z" fill="#263238"/>
<path d="M276.997 99.9468C276.997 99.9468 281.954 99.0166 282.832 97.2744" stroke="#263238" stroke-miterlimit="10" stroke-linecap="round" stroke-linejoin="round"/>
<path d="M271.931 81.1798L275.784 80.0577C275.784 80.0577 281.187 77.5831 282.335 77.8956C283.483 78.2074 285.813 81.8326 285.744 83.8756C285.744 83.8756 289.376 87.0718 289.835 91.7218L290.948 91.2123C290.948 91.2123 290.886 87.0516 293.269 87.1329C295.652 87.2142 296.722 90.0936 296.557 90.9894C296.394 91.8852 293.798 95.6051 293.798 95.6051C293.798 95.6051 299.759 94.7177 299.953 83.0669C300.146 71.4154 287.342 69.4042 281.115 69.9095C274.887 70.4157 271.632 70.259 271.632 70.259L271.984 73.5892L269.439 74.252L271.339 76.5724L269.262 77.5244L271.931 81.1798Z" fill="#263238"/>
<path d="M293.516 208.541C293.516 208.541 308.689 212.557 312.795 223.852" stroke="white" stroke-miterlimit="10" stroke-linecap="round" stroke-linejoin="round"/>
<path d="M300.469 214.613C300.469 214.613 292.266 228.264 279.72 235.353" stroke="white" stroke-miterlimit="10" stroke-linecap="round" stroke-linejoin="round"/>
<path d="M288.944 291.377C288.944 291.377 293.601 290.332 294.871 288.522" stroke="white" stroke-miterlimit="10" stroke-linecap="round" stroke-linejoin="round"/>
<path d="M314.889 293.116C314.889 293.116 319.447 290.75 323.985 293.116" stroke="white" stroke-miterlimit="10" stroke-linecap="round" stroke-linejoin="round"/>
<path d="M329.642 229.56C329.642 229.56 321.994 249.376 318.122 251.213" stroke="white" stroke-miterlimit="10" stroke-linecap="round" stroke-linejoin="round"/>
<path d="M296.142 198.519C296.348 200.67 305.375 210.654 312.796 214.613" stroke="white" stroke-miterlimit="10" stroke-linecap="round" stroke-linejoin="round"/>
<path d="M303.829 190.1C303.829 190.1 305.627 194.047 304.468 198.519C303.309 202.991 304.468 205.945 304.468 205.945" stroke="white" stroke-miterlimit="10" stroke-linecap="round" stroke-linejoin="round"/>
<path d="M287.4 148.882C287.4 148.882 301.507 167.138 316.663 173.13" stroke="#263238" stroke-miterlimit="10" stroke-linecap="round" stroke-linejoin="round"/>
<path d="M302.032 119.38C302.032 119.38 301.983 131.792 310.935 137.389" stroke="#263238" stroke-miterlimit="10" stroke-linecap="round" stroke-linejoin="round"/>
<path d="M307.065 137.486C305.174 139.353 307.239 162.693 307.239 162.693C307.239 162.693 296.23 167.004 292.79 169.78C289.35 172.555 273.025 178.921 273.025 178.921C273.025 178.921 270.515 187.488 273.652 187.78C276.79 188.073 309.243 177.011 316.664 173.13C316.664 173.13 321.497 144.61 321.465 137.389" fill="white"/>
<path d="M307.065 137.486C305.174 139.353 307.239 162.693 307.239 162.693C307.239 162.693 296.23 167.004 292.79 169.78C289.35 172.555 273.025 178.921 273.025 178.921C273.025 178.921 270.515 187.488 273.652 187.78C276.79 188.073 309.243 177.011 316.664 173.13C316.664 173.13 321.497 144.61 321.465 137.389" stroke="#263238" stroke-miterlimit="10" stroke-linecap="round" stroke-linejoin="round"/>
<path d="M274.316 178.41C272.81 178.126 270.159 177.132 268.721 177.463C267.284 177.795 264.743 179.342 262.091 180.005C259.439 180.668 260.544 181.663 262.091 181.995C263.638 182.326 265.517 181.995 265.517 181.995L263.368 184.094C263.368 184.094 259.967 185.862 259.55 185.862C258.776 185.862 256.013 186.614 256.234 187.785C256.456 188.956 258.003 188.822 259.771 188.889C259.771 188.889 256.953 189.453 257.229 191.056C257.418 192.15 260.544 191.166 262.202 191.166C262.202 191.166 260.876 192.603 261.87 193.045C262.865 193.487 265.048 192.382 265.048 192.382C265.048 192.382 264.964 193.575 265.959 193.697C266.953 193.82 269.435 192.825 271.122 191.83C272.81 190.835 274.313 189.544 275.904 188.294C277.495 187.043 278.072 186.89 278.072 186.89" fill="white"/>
<path d="M274.316 178.41C272.81 178.126 270.159 177.132 268.721 177.463C267.284 177.795 264.743 179.342 262.091 180.005C259.439 180.668 260.544 181.663 262.091 181.995C263.638 182.326 265.517 181.995 265.517 181.995L263.368 184.094C263.368 184.094 259.967 185.862 259.55 185.862C258.776 185.862 256.013 186.614 256.234 187.785C256.456 188.956 258.003 188.822 259.771 188.889C259.771 188.889 256.953 189.453 257.229 191.056C257.418 192.15 260.544 191.166 262.202 191.166C262.202 191.166 260.876 192.603 261.87 193.045C262.865 193.487 265.048 192.382 265.048 192.382C265.048 192.382 264.964 193.575 265.959 193.697C266.953 193.82 269.435 192.825 271.122 191.83C272.81 190.835 274.313 189.544 275.904 188.294C277.495 187.043 278.072 186.89 278.072 186.89" stroke="#263238" stroke-miterlimit="10" stroke-linecap="round" stroke-linejoin="round"/>
<path d="M259.771 188.889C259.771 188.889 261.428 188.79 262.091 188.624C262.754 188.458 263.418 188.237 263.418 188.237" stroke="#263238" stroke-miterlimit="10" stroke-linecap="round" stroke-linejoin="round"/>
<path d="M262.202 191.166C262.202 191.166 264.081 190.89 265.075 190.172" stroke="#263238" stroke-miterlimit="10" stroke-linecap="round" stroke-linejoin="round"/>
<path d="M265.048 192.382C265.048 192.382 266.401 192.216 267.147 191.608" stroke="#263238" stroke-miterlimit="10" stroke-linecap="round" stroke-linejoin="round"/>
<path d="M263.638 184.701C263.638 184.701 263.031 186.082 263.638 186.857C264.246 187.63 264.964 187.674 265.074 188.564C265.185 189.454 266.621 189.398 267.147 189.95C267.671 190.503 268.062 191.538 269.716 191.608" stroke="#263238" stroke-miterlimit="10" stroke-linecap="round" stroke-linejoin="round"/>
<path d="M306.366 113.278C300.658 126.189 306.366 144.109 306.366 144.109C306.366 144.109 320.17 148.805 321.465 146.779C322.759 144.754 325.072 134.859 325.462 130.282" fill="#999999"/>
<path d="M306.366 113.278C300.658 126.189 306.366 144.109 306.366 144.109C306.366 144.109 320.17 148.805 321.465 146.779C322.759 144.754 325.072 134.859 325.462 130.282" stroke="#263238" stroke-miterlimit="10" stroke-linecap="round" stroke-linejoin="round"/>
<path d="M321.465 131.715C321.465 131.715 315.577 139.781 310.935 139.892" stroke="#263238" stroke-miterlimit="10" stroke-linecap="round" stroke-linejoin="round"/>
<path d="M115.663 239.968C115.663 239.968 120.13 237.095 126.261 238.642C132.391 240.189 148.304 262.954 150.514 265.163C152.724 267.373 156.868 268.553 160.681 272.532C166.714 278.828 175.488 284.391 176.372 284.391C177.256 284.391 177.974 283.839 179.08 283.618C180.185 283.397 188.749 282.623 188.749 282.623C188.749 282.623 191.623 283.262 188.749 284.489C185.876 285.717 186.097 286.822 186.097 286.822C186.097 286.822 185.52 287.753 186.675 288.637C187.828 289.521 188.511 289.041 190.159 291.38C191.807 293.72 187.829 292.393 187.829 292.393C187.829 292.393 188.713 294.922 186.945 294.652C185.177 294.382 186.724 297.109 183.851 296.74C180.979 296.371 174.827 292.494 173.28 288.424C173.28 288.424 148.195 276.434 144.439 273.34C140.681 270.246 124.898 253.669 123.783 253.449" fill="#263238"/>
<path d="M201.258 277.162H179.71V264.005C179.71 263.134 180.416 262.427 181.287 262.427H199.682C200.553 262.427 201.259 263.133 201.259 264.005V277.162H201.258Z" fill="#92E3A9"/>
<mask id="mask15_133_20" style="mask-type:luminance" maskUnits="userSpaceOnUse" x="179" y="262" width="23" height="16">
<path d="M201.258 277.162H179.71V264.005C179.71 263.134 180.416 262.427 181.287 262.427H199.682C200.553 262.427 201.259 263.133 201.259 264.005V277.162H201.258Z" fill="white"/>
</mask>
<g mask="url(#mask15_133_20)">
<path opacity="0.3" d="M201.258 277.162H179.71V264.005C179.71 263.134 180.416 262.427 181.287 262.427H199.682C200.553 262.427 201.259 263.133 201.259 264.005V277.162H201.258Z" fill="black" fill-opacity="0.7"/>
</g>
<mask id="mask16_133_20" style="mask-type:luminance" maskUnits="userSpaceOnUse" x="179" y="262" width="23" height="16">
<path d="M201.258 277.162H179.71V264.005C179.71 263.134 180.416 262.427 181.287 262.427H199.682C200.553 262.427 201.259 263.133 201.259 264.005V277.162H201.258Z" fill="white"/>
</mask>
<g mask="url(#mask16_133_20)">
<path opacity="0.3" d="M200.098 263.813H194.794V274.422H200.098V263.813Z" fill="white" fill-opacity="0.7"/>
</g>
<path d="M201.258 277.162H179.71V264.005C179.71 263.134 180.416 262.427 181.287 262.427H199.682C200.553 262.427 201.259 263.133 201.259 264.005V277.162H201.258Z" stroke="#263238" stroke-miterlimit="10" stroke-linecap="round" stroke-linejoin="round"/>
<path d="M233.102 277.162H211.554V264.005C211.554 263.134 212.26 262.427 213.131 262.427H231.526C232.397 262.427 233.103 263.133 233.103 264.005V277.162H233.102Z" fill="#92E3A9"/>
<mask id="mask17_133_20" style="mask-type:luminance" maskUnits="userSpaceOnUse" x="211" y="262" width="23" height="16">
<path d="M233.102 277.162H211.554V264.005C211.554 263.134 212.26 262.427 213.131 262.427H231.526C232.397 262.427 233.103 263.133 233.103 264.005V277.162H233.102Z" fill="white"/>
</mask>
<g mask="url(#mask17_133_20)">
<path opacity="0.3" d="M233.102 277.162H211.554V264.005C211.554 263.134 212.26 262.427 213.131 262.427H231.526C232.397 262.427 233.103 263.133 233.103 264.005L233.102 277.162Z" fill="black" fill-opacity="0.7"/>
</g>
<mask id="mask18_133_20" style="mask-type:luminance" maskUnits="userSpaceOnUse" x="211" y="262" width="23" height="16">
<path d="M233.102 277.162H211.554V264.005C211.554 263.134 212.26 262.427 213.131 262.427H231.526C232.397 262.427 233.103 263.133 233.103 264.005V277.162H233.102Z" fill="white"/>
</mask>
<g mask="url(#mask18_133_20)">
<path opacity="0.3" d="M231.591 263.813H228.387V274.422H231.591V263.813Z" fill="white" fill-opacity="0.7"/>
</g>
<path d="M233.102 277.162H211.554V264.005C211.554 263.134 212.26 262.427 213.131 262.427H231.526C232.397 262.427 233.103 263.133 233.103 264.005V277.162H233.102Z" stroke="#263238" stroke-miterlimit="10" stroke-linecap="round" stroke-linejoin="round"/>
<path d="M226.398 277.162H204.85V264.005C204.85 263.134 205.556 262.427 206.427 262.427H224.822C225.693 262.427 226.399 263.133 226.399 264.005L226.398 277.162Z" fill="#92E3A9" stroke="#263238" stroke-miterlimit="10" stroke-linecap="round" stroke-linejoin="round"/>
<path d="M258.242 277.162H236.694V264.005C236.694 263.134 237.4 262.427 238.271 262.427H256.666C257.537 262.427 258.243 263.133 258.243 264.005L258.242 277.162Z" fill="#92E3A9" stroke="#263238" stroke-miterlimit="10" stroke-linecap="round" stroke-linejoin="round"/>
<path opacity="0.3" d="M225.238 263.813H219.934V274.422H225.238V263.813Z" fill="white" fill-opacity="0.7"/>
<path opacity="0.3" d="M256.732 263.813H251.428V274.422H256.732V263.813Z" fill="white" fill-opacity="0.7"/>
<path d="M267.674 274.093V334.588H170.206V274.093C170.206 271.981 171.916 270.28 174.019 270.28H263.861C265.964 270.28 267.674 271.981 267.674 274.093Z" fill="#92E3A9"/>
<mask id="mask19_133_20" style="mask-type:luminance" maskUnits="userSpaceOnUse" x="170" y="270" width="98" height="65">
<path d="M267.674 274.093V334.588H170.206V274.093C170.206 271.981 171.916 270.28 174.019 270.28H263.861C265.964 270.28 267.674 271.981 267.674 274.093Z" fill="white"/>
</mask>
<g mask="url(#mask19_133_20)">
<path opacity="0.3" d="M267.674 274.093V334.588H170.206V274.093C170.206 271.981 171.916 270.28 174.019 270.28H263.861C265.964 270.28 267.674 271.981 267.674 274.093Z" fill="black" fill-opacity="0.7"/>
</g>
<path d="M267.674 274.093V334.588H170.206V274.093C170.206 271.981 171.916 270.28 174.019 270.28H263.861C265.964 270.28 267.674 271.981 267.674 274.093Z" stroke="#263238" stroke-miterlimit="10" stroke-linecap="round" stroke-linejoin="round"/>
<path d="M267.674 274.093V334.588H195.346V274.093C195.346 271.981 197.056 270.28 199.159 270.28H263.861C265.964 270.28 267.674 271.981 267.674 274.093Z" fill="#92E3A9" stroke="#263238" stroke-miterlimit="10" stroke-linecap="round" stroke-linejoin="round"/>
<path opacity="0.3" d="M262.782 276.246H200.954C200.084 276.246 199.379 275.541 199.379 274.671C199.379 273.802 200.084 273.097 200.954 273.097H262.782C263.652 273.097 264.356 273.802 264.356 274.671C264.356 275.54 263.652 276.246 262.782 276.246Z" fill="white" fill-opacity="0.7"/>
<path d="M148.309 334.588C143.273 334.588 136.217 331.354 128.08 327.935C119.641 324.382 110.029 320.627 100.275 320.066C96.6382 319.856 98.8421 334.588 98.8421 334.588H90.8811C90.8811 334.588 83.0374 324.097 82.1491 314.703C82.1491 314.703 88.5682 310.739 90.1101 310.504C90.4286 310.454 91.0236 310.437 91.7107 310.429C93.437 310.412 95.7415 310.504 95.7415 310.504C95.7415 310.504 95.7331 310.504 95.7247 310.496C95.356 310.278 89.4816 306.742 86.2386 303.147C83.5654 300.18 82.3377 295.492 82.2497 292.697C82.2061 291.307 82.8648 287.167 82.8648 287.167L124.694 287.862C124.694 287.862 125.147 288.18 125.951 288.775C130.803 292.311 148.535 305.485 157.402 315.415C160.268 318.625 162.203 321.49 162.488 323.585C163.812 333.264 155.91 334.588 148.309 334.588Z" fill="#757575" stroke="#263238" stroke-miterlimit="10" stroke-linecap="round" stroke-linejoin="round"/>
<path d="M157.402 315.415L137.055 320.066C137.055 320.066 131.75 322.898 128.08 327.935C119.641 324.382 110.029 320.627 100.275 320.066C96.6382 319.856 98.8421 334.588 98.8421 334.588H90.8811C90.8811 334.588 83.0374 324.097 82.1491 314.703C82.1491 314.703 89.5571 325.262 91.3252 330.591C91.3252 330.591 94.1996 320.669 98.8421 316.689C98.8421 316.689 95.7164 313.043 91.7107 310.429C93.437 310.412 95.7415 310.504 95.7415 310.504C95.7415 310.504 95.7331 310.504 95.7247 310.496C95.356 310.278 89.4816 306.742 86.2386 303.147C83.5654 300.18 82.481 295.483 82.2497 292.697C82.1357 291.319 82.2975 287.167 82.2975 287.167C82.2975 287.167 113.499 291.616 125.951 288.775C130.803 292.311 148.535 305.485 157.402 315.415Z" fill="#263238"/>
<path d="M124.696 314.702C124.696 314.702 141.272 323.007 145.692 326.259C150.113 329.51 151.433 328.626 151.433 328.626" stroke="#263238" stroke-miterlimit="10" stroke-linecap="round" stroke-linejoin="round"/>
<path d="M86.2403 313.818C86.2403 313.818 90.2182 319.895 90.4395 321.718" stroke="#263238" stroke-miterlimit="10" stroke-linecap="round" stroke-linejoin="round"/>
<path d="M152.907 197.205C152.907 197.205 161.752 193.362 160.924 209.692C160.095 226.021 163.078 226.85 163.078 226.85C163.078 226.85 140.866 235.967 135.231 228.176C129.595 220.385 134.944 199.054 152.907 197.205Z" fill="#263238"/>
<path d="M151.659 226.85C151.659 226.85 142.525 231.16 141.696 235.138C140.867 239.116 129.43 233.133 129.43 233.133L137.718 221.213L151.659 226.85Z" fill="white" stroke="#263238" stroke-miterlimit="10" stroke-linecap="round" stroke-linejoin="round"/>
<path d="M91.787 270.564C70.806 297.241 87.84 310.117 111.591 307.989L106.831 315.503L118.774 317.575C118.774 317.575 127.94 311.594 140.424 305.199C161.677 294.312 170.26 294.958 168.05 284.055C165.84 273.153 139.817 266.08 113.71 277.573C113.71 277.573 99.5251 260.725 91.787 270.564Z" fill="#757575" stroke="#263238" stroke-miterlimit="10" stroke-linecap="round" stroke-linejoin="round"/>
<path d="M99.096 328.625C99.096 328.625 104.547 313.528 106.832 312.712C109.116 311.897 117.68 315.143 118.775 317.575C118.775 317.575 121.686 313.113 122.878 315.013C124.07 316.912 122.35 320.006 122.878 322.437C123.407 324.868 129.293 328.184 131.654 328.626C134.015 329.068 135.342 330.394 135.342 331.72C135.342 333.046 135.342 334.593 135.342 334.593H99.096C99.096 334.593 97.7695 332.131 99.096 328.625Z" fill="white" stroke="#263238" stroke-miterlimit="10" stroke-linecap="round" stroke-linejoin="round"/>
<path d="M122.878 320.067C122.878 320.067 118.074 322.437 116.32 321.774C114.566 321.111 117.219 325.752 117.881 326.194C118.544 326.636 122.878 324.647 122.878 324.647" stroke="#263238" stroke-miterlimit="10" stroke-linecap="round" stroke-linejoin="round"/>
<path d="M103.631 317.575C103.631 317.575 110.147 317.697 112.135 320.067" stroke="#263238" stroke-miterlimit="10" stroke-linecap="round" stroke-linejoin="round"/>
<path d="M99.096 328.625C99.096 328.625 109.484 331.056 110.368 331.056C111.252 331.056 114.567 329.84 114.567 329.84C114.567 329.84 117.412 331.277 119.305 332.161C121.198 333.045 133.575 332.161 133.575 332.161" stroke="#263238" stroke-miterlimit="10" stroke-linecap="round" stroke-linejoin="round"/>
<path d="M111.591 307.989C121.52 306.911 140.781 294.686 147.454 290.439C154.128 286.191 155.896 287.297 155.896 287.297" stroke="#263238" stroke-miterlimit="10" stroke-linecap="round" stroke-linejoin="round"/>
<path d="M82.2975 287.167L83.8838 275.141L87.7067 272.255C93.8954 257.227 121.952 229.168 129.595 229.257C141.087 229.391 143.114 241.447 144.532 254.647C145.95 267.847 128.048 265.858 128.048 265.858V269.173L117.868 274.444L124.033 274.25C124.033 274.25 106.297 291.488 82.2975 287.167Z" fill="#92E3A9" stroke="#263238" stroke-miterlimit="10" stroke-linecap="round" stroke-linejoin="round"/>
<path d="M132.027 205.975C134.429 198.44 145.445 196.422 149.387 197.66C151.866 198.439 155.317 201.17 156.854 204.473C157.862 206.637 155.758 210.477 157.257 212.716C159.403 215.924 159.221 222.694 158.447 226.927C158.032 229.193 148.619 230.536 140.924 225.267C132.662 219.609 129.698 213.28 132.027 205.975Z" fill="white" stroke="#263238" stroke-miterlimit="10" stroke-linecap="round" stroke-linejoin="round"/>
<path d="M143.143 195.449C143.143 195.449 152.834 193.867 152.898 196.359C153.33 212.891 143.418 216.362 143.418 216.362C143.418 216.362 139.37 213.14 138.46 215.35C137.55 217.562 139.891 223.675 142.752 223.805C142.752 223.805 140.543 226.684 142.634 230.711C142.634 230.711 126.23 233.448 124.87 225.846C124.87 225.846 125.787 222.242 126.229 217.822C127.296 207.171 124.802 200.001 143.143 195.449Z" fill="#263238"/>
<path d="M156.086 212.293C158.106 214.118 159.557 214.118 159.533 214.764C159.457 216.805 156.996 217.822 156.996 217.822" fill="white"/>
<path d="M156.086 212.293C158.106 214.118 159.557 214.118 159.533 214.764C159.457 216.805 156.996 217.822 156.996 217.822" stroke="#263238" stroke-miterlimit="10" stroke-linecap="round" stroke-linejoin="round"/>
<path d="M156.965 221.213C156.965 221.213 154.927 222.017 152.551 221.323" stroke="#263238" stroke-miterlimit="10" stroke-linecap="round" stroke-linejoin="round"/>
<path d="M151.598 202.148C151.598 202.148 158.037 200.278 156.854 210.737C156.854 210.737 159.543 207.097 159.533 202.993C159.517 195.901 150.038 197.322 150.038 197.322L151.274 202.343" fill="#263238"/>
<path d="M157.452 207.269C157.452 207.269 156.916 206.789 155.745 206.96" stroke="#263238" stroke-miterlimit="10" stroke-linecap="round" stroke-linejoin="round"/>
<path d="M153.11 207.155C153.11 207.155 149.647 207.351 148.151 209.692" stroke="#263238" stroke-miterlimit="10" stroke-linecap="round" stroke-linejoin="round"/>
<path d="M152.281 212.657C152.333 213.211 152.097 213.687 151.753 213.719C151.41 213.752 151.089 213.329 151.037 212.774C150.984 212.22 151.22 211.744 151.564 211.712C151.908 211.68 152.228 212.103 152.281 212.657Z" fill="#263238"/>
<path d="M112.135 310.503C112.135 310.503 119.844 311.317 121.519 314.702" stroke="#263238" stroke-miterlimit="10" stroke-linecap="round" stroke-linejoin="round"/>
<path d="M131.654 234.917C131.654 234.917 136.121 232.044 142.251 233.591C148.382 235.138 164.295 257.902 166.505 260.112C168.715 262.322 172.858 263.502 176.671 267.481C182.705 273.776 191.479 279.34 192.363 279.34C193.247 279.34 193.965 278.788 195.07 278.566C196.176 278.345 204.739 277.572 204.739 277.572C204.739 277.572 207.613 278.21 204.739 279.438C201.866 280.666 202.087 281.771 202.087 281.771C202.087 281.771 201.51 282.701 202.664 283.585C203.818 284.469 204.501 283.989 206.149 286.329C207.797 288.669 203.819 287.342 203.819 287.342C203.819 287.342 204.703 289.87 202.935 289.6C201.167 289.331 202.714 292.057 199.841 291.689C196.969 291.32 190.817 287.443 189.27 283.372C189.27 283.372 164.185 271.382 160.428 268.288C156.67 265.194 140.887 248.618 139.773 248.398" fill="white"/>
<path d="M131.654 234.917C131.654 234.917 136.121 232.044 142.251 233.591C148.382 235.138 164.295 257.902 166.505 260.112C168.715 262.322 172.858 263.502 176.671 267.481C182.705 273.776 191.479 279.34 192.363 279.34C193.247 279.34 193.965 278.788 195.07 278.566C196.176 278.345 204.739 277.572 204.739 277.572C204.739 277.572 207.613 278.21 204.739 279.438C201.866 280.666 202.087 281.771 202.087 281.771C202.087 281.771 201.51 282.701 202.664 283.585C203.818 284.469 204.501 283.989 206.149 286.329C207.797 288.669 203.819 287.342 203.819 287.342C203.819 287.342 204.703 289.87 202.935 289.6C201.167 289.331 202.714 292.057 199.841 291.689C196.969 291.32 190.817 287.443 189.27 283.372C189.27 283.372 164.185 271.382 160.428 268.288C156.67 265.194 140.887 248.618 139.773 248.398" stroke="#263238" stroke-miterlimit="10" stroke-linecap="round" stroke-linejoin="round"/>
<path d="M128.048 232.486C128.048 232.486 140.416 229.171 144.73 231.602C149.044 234.033 157.221 245.305 157.221 245.305C157.221 245.305 147.254 254.232 144.17 253.415C141.087 252.598 131.653 251.272 131.653 251.272" fill="#92E3A9"/>
<path d="M128.048 232.486C128.048 232.486 140.416 229.171 144.73 231.602C149.044 234.033 157.221 245.305 157.221 245.305C157.221 245.305 147.254 254.232 144.17 253.415C141.087 252.598 131.653 251.272 131.653 251.272" stroke="#263238" stroke-miterlimit="10" stroke-linecap="round" stroke-linejoin="round"/>
<path d="M138.77 252.363C138.77 252.363 134.289 254.828 132.635 254.828" stroke="#263238" stroke-miterlimit="10" stroke-linecap="round" stroke-linejoin="round"/>
<path d="M131.654 240C132.027 240.663 131.9 247.913 139.772 250.167" stroke="#263238" stroke-miterlimit="10" stroke-linecap="round" stroke-linejoin="round"/>
<path d="M89.5923 272.488C89.5923 272.488 106.389 275.362 112.135 270.279" stroke="#263238" stroke-miterlimit="10" stroke-linecap="round" stroke-linejoin="round"/>
<path d="M117.869 274.444C117.869 274.444 113.683 273.705 112.136 275.86C110.589 278.014 102.191 280.004 102.191 280.004" stroke="#263238" stroke-miterlimit="10" stroke-linecap="round" stroke-linejoin="round"/>
<path d="M84.1779 290.439C84.1779 290.439 81.7595 300.878 92.0853 305.553" stroke="#263238" stroke-miterlimit="10" stroke-linecap="round" stroke-linejoin="round"/>
<path d="M89.5923 291.164C89.5923 291.164 89.6476 296.303 91.3051 299.121L96.4437 300.779L102.19 297.579C102.19 297.579 100.974 290.999 100.863 289.673" stroke="#263238" stroke-miterlimit="10" stroke-linecap="round" stroke-linejoin="round"/>
</g>
<defs>
<filter id="filter0_d_133_20" x="-4" y="-37" width="427" height="427" filterUnits="userSpaceOnUse" color-interpolation-filters="sRGB">
<feFlood flood-opacity="0" result="BackgroundImageFix"/>
<feColorMatrix in="SourceAlpha" type="matrix" values="0 0 0 0 0 0 0 0 0 0 0 0 0 0 0 0 0 0 127 0" result="hardAlpha"/>
<feOffset dy="4"/>
<feGaussianBlur stdDeviation="2"/>
<feComposite in2="hardAlpha" operator="out"/>
<feColorMatrix type="matrix" values="0 0 0 0 0 0 0 0 0 0 0 0 0 0 0 0 0 0 0.25 0"/>
<feBlend mode="normal" in2="BackgroundImageFix" result="effect1_dropShadow_133_20"/>
<feBlend mode="normal" in="SourceGraphic" in2="effect1_dropShadow_133_20" result="shape"/>
</filter>
</defs>
</svg>
