<svg width="733" height="500" viewBox="0 0 733 500" fill="none" xmlns="http://www.w3.org/2000/svg">
<g clip-path="url(#clip0_280_167)">
<mask id="mask0_280_167" style="mask-type:luminance" maskUnits="userSpaceOnUse" x="362" y="160" width="175" height="37">
<path d="M393.3 191.1C393.3 191.1 406.9 175.5 426.8 175.5C426.8 175.5 427.5 163.4 441 160.8C454.5 158.2 457.2 170.3 457.2 170.3C457.2 170.3 467.2 165 480.7 170.3C494.2 175.6 491.4 191.1 491.4 191.1C491.4 191.1 530.2 189.8 536.9 196.9H362.4C362.4 196.9 366 188.2 393.3 191.1V191.1Z" fill="white"/>
</mask>
<g mask="url(#mask0_280_167)">
<path opacity="0.5" d="M393.3 191.1C393.3 191.1 406.9 175.5 426.8 175.5C426.8 175.5 427.5 163.4 441 160.8C454.5 158.2 457.2 170.3 457.2 170.3C457.2 170.3 467.2 165 480.7 170.3C494.2 175.6 491.4 191.1 491.4 191.1C491.4 191.1 530.2 189.8 536.9 196.9H362.4C362.4 196.9 366 188.2 393.3 191.1Z" stroke="#1A2E35" stroke-miterlimit="10" stroke-linecap="round" stroke-linejoin="round"/>
</g>
<path d="M393.3 191.1C393.3 191.1 406.9 175.5 426.8 175.5C426.8 175.5 427.5 163.4 441 160.8C454.5 158.2 457.2 170.3 457.2 170.3C457.2 170.3 467.2 165 480.7 170.3C494.2 175.6 491.4 191.1 491.4 191.1C491.4 191.1 530.2 189.8 536.9 196.9H362.4C362.4 196.9 366 188.2 393.3 191.1V191.1Z" stroke="#1A2E35" stroke-miterlimit="10" stroke-linecap="round" stroke-linejoin="round"/>
<mask id="mask1_280_167" style="mask-type:luminance" maskUnits="userSpaceOnUse" x="445" y="268" width="140" height="31">
<path d="M559.5 293.5C559.5 293.5 548.6 281 532.8 281C532.8 281 532.3 271.3 521.5 269.2C510.7 267.1 508.6 276.8 508.6 276.8C508.6 276.8 500.6 272.6 489.9 276.8C479.2 281 481.3 293.4 481.3 293.4C481.3 293.4 450.3 292.4 445 298.1H584.1C584.1 298.1 581.3 291.2 559.5 293.5Z" fill="white"/>
</mask>
<g mask="url(#mask1_280_167)">
<path opacity="0.5" d="M559.5 293.5C559.5 293.5 548.6 281 532.8 281C532.8 281 532.3 271.3 521.5 269.2C510.7 267.1 508.6 276.8 508.6 276.8C508.6 276.8 500.6 272.6 489.9 276.8C479.2 281 481.3 293.4 481.3 293.4C481.3 293.4 450.3 292.4 445 298.1H584.1C584.1 298.1 581.3 291.2 559.5 293.5Z" stroke="#1A2E35" stroke-miterlimit="10" stroke-linecap="round" stroke-linejoin="round"/>
</g>
<path d="M559.5 293.5C559.5 293.5 548.6 281 532.8 281C532.8 281 532.3 271.3 521.5 269.2C510.7 267.1 508.6 276.8 508.6 276.8C508.6 276.8 500.6 272.6 489.9 276.8C479.2 281 481.3 293.4 481.3 293.4C481.3 293.4 450.3 292.4 445 298.1H584.1C584.1 298.1 581.3 291.2 559.5 293.5Z" stroke="#1A2E35" stroke-miterlimit="10" stroke-linecap="round" stroke-linejoin="round"/>
<mask id="mask2_280_167" style="mask-type:luminance" maskUnits="userSpaceOnUse" x="175" y="205" width="84" height="18">
<path d="M190.3 220C190.3 220 196.8 212.6 206.2 212.6C206.2 212.6 206.5 206.9 212.9 205.6C219.3 204.4 220.6 210.1 220.6 210.1C220.6 210.1 225.3 207.6 231.7 210.1C238.1 212.6 236.8 220 236.8 220C236.8 220 255.2 219.4 258.3 222.8H175.6C175.7 222.7 177.4 218.6 190.3 220V220Z" fill="white"/>
</mask>
<g mask="url(#mask2_280_167)">
<path opacity="0.5" d="M190.3 220C190.3 220 196.8 212.6 206.2 212.6C206.2 212.6 206.5 206.9 212.9 205.6C219.3 204.4 220.6 210.1 220.6 210.1C220.6 210.1 225.3 207.6 231.7 210.1C238.1 212.6 236.8 220 236.8 220C236.8 220 255.2 219.4 258.3 222.8H175.6C175.7 222.7 177.4 218.6 190.3 220Z" stroke="#1A2E35" stroke-miterlimit="10" stroke-linecap="round" stroke-linejoin="round"/>
</g>
<path d="M190.3 220C190.3 220 196.8 212.6 206.2 212.6C206.2 212.6 206.5 206.9 212.9 205.6C219.3 204.4 220.6 210.1 220.6 210.1C220.6 210.1 225.3 207.6 231.7 210.1C238.1 212.6 236.8 220 236.8 220C236.8 220 255.2 219.4 258.3 222.8H175.6C175.7 222.7 177.4 218.6 190.3 220V220Z" stroke="#1A2E35" stroke-miterlimit="10" stroke-linecap="round" stroke-linejoin="round"/>
<path d="M148.9 500.6C148.9 500.6 157.6 483.6 177.4 486.8C177.4 486.8 180.2 479.3 188.9 480.5C188.9 480.5 183.8 466.3 197.2 455.6C210.7 444.9 228.9 454 228.9 454C228.9 454 227.8 446 235.2 443.1L350.3 446.9C350.3 446.9 362.9 450.4 365.7 462.3C365.7 462.3 376.8 456 390.6 462.3C404.4 468.6 404.4 484.5 404.4 484.5C404.4 484.5 420.1 482.9 421.4 504.4C421.4 504.4 431.3 491.9 445.9 504.4" fill="white"/>
<path d="M148.9 500.6C148.9 500.6 157.6 483.6 177.4 486.8C177.4 486.8 180.2 479.3 188.9 480.5C188.9 480.5 183.8 466.3 197.2 455.6C210.7 444.9 228.9 454 228.9 454C228.9 454 227.8 446 235.2 443.1L350.3 446.9C350.3 446.9 362.9 450.4 365.7 462.3C365.7 462.3 376.8 456 390.6 462.3C404.4 468.6 404.4 484.5 404.4 484.5C404.4 484.5 420.1 482.9 421.4 504.4C421.4 504.4 431.3 491.9 445.9 504.4" stroke="#1A2E35" stroke-miterlimit="10" stroke-linecap="round" stroke-linejoin="round"/>
<path d="M184.9 507.4C184.6 508 184.3 508.7 184.1 509.4M231.5 468C228.2 469.3 224.9 471.9 222.4 476.9C222.4 476.9 215.7 474 212.1 479.3C208.5 484.4 214.5 490 214.5 490C214.5 490 206.2 491.6 205.8 499.1C205.8 499.1 197.3 496.7 190.6 500.8M239 466.9C237.8 466.8 236.4 466.9 235 467.1M315.5 451.8L312.8 443H273.1L266.3 458.3C266.3 458.3 249 453.2 245.4 468.2C245.4 468.2 244.8 468 243.8 467.7M365.9 474.6C360.6 477.8 359.3 484 359.3 484C354.6 476.1 346.6 480.8 346.6 480.8C346.6 480.8 345.4 467 336.3 461.8C327.2 456.7 317.9 459.7 317.9 459.7L316.3 454.5M399.3 500.8C396.4 498.1 392.1 498.3 392.1 498.3C392.1 498.3 397.2 478.9 379.8 473.8C374.6 472.3 370.7 472.6 367.7 473.7M402 507.4C402 506.2 401.8 505.2 401.6 504.3" stroke="#1A2E35" stroke-miterlimit="10" stroke-linecap="round" stroke-linejoin="round"/>
<path d="M352.9 446.9H312.8L322.8 428.2H342.9L352.9 446.9ZM268.9 446.9H228.8L238.8 428.2H258.9L268.9 446.9Z" fill="#757575" stroke="#1A2E35" stroke-miterlimit="10" stroke-linecap="round" stroke-linejoin="round"/>
<path d="M317.9 446.9H263.8L273.8 428.2H307.9L317.9 446.9Z" fill="#999999" stroke="#1A2E35" stroke-miterlimit="10" stroke-linecap="round" stroke-linejoin="round"/>
<path d="M350.2 429.5H315.5V246.5C315.5 225.1 321.5 204.1 332.9 186C344.3 204.1 350.3 225.1 350.3 246.5V429.5H350.2Z" fill="#FFCB39"/>
<mask id="mask3_280_167" style="mask-type:luminance" maskUnits="userSpaceOnUse" x="315" y="186" width="36" height="244">
<path d="M350.2 429.5H315.5V246.5C315.5 225.1 321.5 204.1 332.9 186C344.3 204.1 350.3 225.1 350.3 246.5V429.5H350.2Z" fill="white"/>
</mask>
<g mask="url(#mask3_280_167)">
<path opacity="0.3" d="M350.1 241.6C350.2 243.2 350.2 244.8 350.2 246.5V429.6H315.5V246.5C315.5 244.9 315.5 243.2 315.6 241.6H350.1Z" fill="white"/>
</g>
<mask id="mask4_280_167" style="mask-type:luminance" maskUnits="userSpaceOnUse" x="315" y="186" width="36" height="244">
<path d="M350.2 429.5H315.5V246.5C315.5 225.1 321.5 204.1 332.9 186C344.3 204.1 350.3 225.1 350.3 246.5V429.5H350.2Z" fill="white"/>
</mask>
<g mask="url(#mask4_280_167)">
<path opacity="0.2" d="M326.8 247.8V429.5H315.5V246.5C315.5 233 317.9 219.6 322.5 207C325.4 220.4 326.8 234.1 326.8 247.8ZM350.3 246.5V429.6H345.6V248.4C345.6 226.9 341.3 205.7 332.9 185.9C338.6 195 342.9 204.7 345.8 214.9C348.8 225.2 350.3 235.8 350.3 246.5Z" fill="black"/>
</g>
<path d="M350.2 429.5H315.5V246.5C315.5 225.1 321.5 204.1 332.9 186C344.3 204.1 350.3 225.1 350.3 246.5V429.5H350.2Z" stroke="#1A2E35" stroke-miterlimit="10" stroke-linecap="round" stroke-linejoin="round"/>
<path d="M266.2 429.5H231.5V246.5C231.5 225.1 237.5 204.1 248.9 186C260.3 204.1 266.3 225.1 266.3 246.5V429.5H266.2Z" fill="#FFCB39"/>
<mask id="mask5_280_167" style="mask-type:luminance" maskUnits="userSpaceOnUse" x="231" y="186" width="36" height="244">
<path d="M266.2 429.5H231.5V246.5C231.5 225.1 237.5 204.1 248.9 186C260.3 204.1 266.3 225.1 266.3 246.5V429.5H266.2Z" fill="white"/>
</mask>
<g mask="url(#mask5_280_167)">
<path opacity="0.3" d="M266.1 241.2C266.2 243 266.2 244.7 266.2 246.5V429.6H231.5V246.5C231.5 244.7 231.6 243 231.6 241.2H266.1Z" fill="white"/>
</g>
<mask id="mask6_280_167" style="mask-type:luminance" maskUnits="userSpaceOnUse" x="231" y="186" width="36" height="244">
<path d="M266.2 429.5H231.5V246.5C231.5 225.1 237.5 204.1 248.9 186C260.3 204.1 266.3 225.1 266.3 246.5V429.5H266.2Z" fill="white"/>
</mask>
<g mask="url(#mask6_280_167)">
<path opacity="0.2" d="M261.8 215C264.7 225.2 266.2 235.8 266.2 246.5V429.6H255V247.8C255 239.7 255.5 231.7 256.5 223.7C257.2 218.1 258.1 212.6 259.3 207C260.2 209.6 261.1 212.3 261.8 215ZM248.9 186C240.5 205.8 236.2 227 236.2 248.5V429.6H231.5V246.5C231.5 225.1 237.5 204.1 248.9 186Z" fill="black"/>
</g>
<path d="M266.2 429.5H231.5V246.5C231.5 225.1 237.5 204.1 248.9 186C260.3 204.1 266.3 225.1 266.3 246.5V429.5H266.2Z" stroke="#1A2E35" stroke-miterlimit="10" stroke-linecap="round" stroke-linejoin="round"/>
<path d="M350.1 241.4H315.9M231.6 241.4H265.8M350.254 280.15H315.554V277.55H350.254V280.15ZM350.14 354.028H315.54V347.428H350.14V354.028ZM231.5 277.6H266.2V280.2H231.5V277.6ZM231.6 347.5H266.2V354.1H231.6V347.5Z" stroke="#1A2E35" stroke-miterlimit="10" stroke-linecap="round" stroke-linejoin="round"/>
<path d="M315.9 429.5H265.8V165.7C265.8 134.9 274.5 104.7 290.8 78.5C307.2 104.6 315.8 134.9 315.8 165.7V429.5H315.9Z" fill="#FFCB39"/>
<mask id="mask7_280_167" style="mask-type:luminance" maskUnits="userSpaceOnUse" x="265" y="78" width="51" height="352">
<path d="M315.9 429.5H265.8V165.7C265.8 134.9 274.5 104.7 290.8 78.5C307.2 104.6 315.8 134.9 315.8 165.7V429.5H315.9Z" fill="white"/>
</mask>
<g mask="url(#mask7_280_167)">
<path opacity="0.2" d="M315.4 153.4H266.3C268.3 126.9 276.7 101.2 290.9 78.6C299.1 91.7 305.3 105.8 309.5 120.4C312.6 131.1 314.6 142.2 315.4 153.4Z" fill="black" fill-opacity="0.7"/>
</g>
<mask id="mask8_280_167" style="mask-type:luminance" maskUnits="userSpaceOnUse" x="265" y="78" width="51" height="352">
<path d="M315.9 429.5H265.8V165.7C265.8 134.9 274.5 104.7 290.8 78.5C307.2 104.6 315.8 134.9 315.8 165.7V429.5H315.9Z" fill="white"/>
</mask>
<g mask="url(#mask8_280_167)">
<g opacity="0.2">
<path d="M300 429.5H281.8V173.9C281.8 144 285 114.7 290.9 89.4C296.8 114.7 300 144 300 173.9V429.5Z" fill="white"/>
</g>
</g>
<mask id="mask9_280_167" style="mask-type:luminance" maskUnits="userSpaceOnUse" x="265" y="78" width="51" height="352">
<path d="M315.9 429.5H265.8V165.7C265.8 134.9 274.5 104.7 290.8 78.5C307.2 104.6 315.8 134.9 315.8 165.7V429.5H315.9Z" fill="white"/>
</mask>
<g mask="url(#mask9_280_167)">
<path opacity="0.2" d="M315.4 387V429.5H266.3V387.2C269.4 384.1 271.1 381.4 271.1 381.4V323.1C271.1 302.9 279.1 291.8 290.9 291.8C302.7 291.8 310.7 302.9 310.7 323.1V381.4C310.7 381.4 312.3 384 315.4 387Z" fill="black"/>
</g>
<path d="M315.9 429.5H265.8V165.7C265.8 134.9 274.5 104.7 290.8 78.5C307.2 104.6 315.8 134.9 315.8 165.7V429.5H315.9Z" stroke="#1A2E35" stroke-miterlimit="10" stroke-linecap="round" stroke-linejoin="round"/>
<path d="M265.8 196.9H315.9V203.6H265.8V196.9ZM265.8 255.4H315.9V280.1H265.8V255.4ZM265.8 372.7H315.9V392.7H265.8V372.7Z" stroke="#1A2E35" stroke-miterlimit="10" stroke-linecap="round" stroke-linejoin="round"/>
<path d="M308.7 383.9V356.7H303.2V423.3H330.6V410.9C330.6 407.7 329.1 404.7 326.5 402.8L313.4 393.3C310.5 391 308.7 387.6 308.7 383.9ZM273.1 383.9V356.7H278.6V423.3H251.2V410.9C251.2 407.7 252.7 404.7 255.3 402.8L268.4 393.3C271.3 391 273.1 387.6 273.1 383.9Z" fill="#FFCB39" stroke="#1A2E35" stroke-miterlimit="10" stroke-linecap="round" stroke-linejoin="round"/>
<path d="M251.2 417.4H330.6" stroke="#1A2E35" stroke-miterlimit="10" stroke-linecap="round" stroke-linejoin="round"/>
<path d="M299.6 429.5H282.1L279.1 420.8H302.6L299.6 429.5Z" fill="#FFCB39" stroke="#1A2E35" stroke-miterlimit="10" stroke-linecap="round" stroke-linejoin="round"/>
<path d="M308.8 323.1V423.2H273.2V323.1C273.2 316.1 274.9 309.2 278 303C279.3 300.5 280.8 298.1 282.5 295.8C284.6 293 287.8 291.7 291 291.7C294.2 291.7 297.3 293.1 299.5 295.8C301.3 298.1 302.8 300.5 304 303C304.9 304.8 305.7 306.7 306.4 308.7C308 313.3 308.8 318.2 308.8 323.1V323.1Z" fill="white"/>
<mask id="mask10_280_167" style="mask-type:luminance" maskUnits="userSpaceOnUse" x="273" y="291" width="36" height="133">
<path d="M308.8 323.1V423.2H273.2V323.1C273.2 316.1 274.9 309.2 278 303C279.3 300.5 280.8 298.1 282.5 295.8C284.6 293 287.8 291.7 291 291.7C294.2 291.7 297.3 293.1 299.5 295.8C301.3 298.1 302.8 300.5 304 303C304.9 304.8 305.7 306.7 306.4 308.7C308 313.3 308.8 318.2 308.8 323.1V323.1Z" fill="white"/>
</mask>
<g mask="url(#mask10_280_167)">
<path opacity="0.3" d="M308.7 323.1V423.2H299.9V325.7C299.9 320.9 299.5 316.1 298.7 311.6C298.4 309.7 298 307.9 297.5 306.1C296.9 303.6 296.1 301.3 295.2 299.1C294.1 296.4 292.6 295 291 295C289.4 295 287.8 296.4 286.8 299.1C285.9 301.3 285.2 303.6 284.5 306.1C282.9 312.1 282.1 318.8 282.1 325.7V423.2H273.1V323.1C273.1 316.1 274.7 309.2 277.9 303C279.2 300.5 280.7 298.1 282.4 295.8C284.5 293 287.7 291.7 290.9 291.7C294.1 291.7 297.2 293.1 299.4 295.8C301.2 298.1 302.7 300.5 303.9 303C304.8 304.8 305.6 306.7 306.3 308.7C307.9 313.3 308.7 318.2 308.7 323.1Z" fill="#FFCB39"/>
</g>
<path d="M308.8 323.1V423.2H273.2V323.1C273.2 316.1 274.9 309.2 278 303C279.3 300.5 280.8 298.1 282.5 295.8C284.6 293 287.8 291.7 291 291.7C294.2 291.7 297.3 293.1 299.5 295.8C301.3 298.1 302.8 300.5 304 303C304.9 304.8 305.7 306.7 306.4 308.7C308 313.3 308.8 318.2 308.8 323.1V323.1Z" stroke="#1A2E35" stroke-miterlimit="10" stroke-linecap="round" stroke-linejoin="round"/>
<path d="M298.4 322C295.5 313.1 286.3 313.1 283.4 322C282.3 321.3 281.2 320.6 280.1 320C284.3 307.3 297.4 307.3 301.6 320C300.5 320.6 299.5 321.3 298.4 322Z" fill="white"/>
<path d="M298.4 322C295.5 313.1 286.3 313.1 283.4 322C282.3 321.3 281.2 320.6 280.1 320C284.3 307.3 297.4 307.3 301.6 320C300.5 320.6 299.5 321.3 298.4 322Z" fill="#BFBFBF" stroke="#1A2E35" stroke-miterlimit="10"/>
<path d="M303.9 303H277.9C279.2 300.5 280.7 298.1 282.4 295.8C284.5 293 287.7 291.7 290.9 291.7C294.1 291.7 297.2 293.1 299.4 295.8C301.1 298.1 302.6 300.5 303.9 303Z" fill="#FFCB39" stroke="#1A2E35" stroke-miterlimit="10" stroke-linecap="round" stroke-linejoin="round"/>
<path d="M435.4 408.2C435.8 424.2 427.9 422.9 427.9 422.9C427.4 421.6 426.3 419.8 424.9 417.6C420.8 411.2 414.4 402.3 416.8 397C417.9 394.6 419.9 391.2 422.1 387.9C426.3 381.4 431.2 374.8 431.2 374.8L410.1 371.3C410.1 371.3 395.1 377.5 383.2 378.2H382.3C371.5 378.4 373.2 369.9 373.2 367.2C373.2 366 376.1 363.9 379.6 361.8C384.5 358.8 390.4 355.8 390.4 355.8L387.2 349.2C385 349.6 383.1 349.7 381.6 349.5C373.4 348.6 374.5 340.5 375.8 337C376.2 336 378.1 334.5 380.7 332.7C389.2 327.1 405.3 319.4 405.3 319.4H429L452.4 383.1C452.4 383.2 435 392.3 435.4 408.2Z" fill="white"/>
<path opacity="0.4" d="M435.4 408.2C435.8 424.2 427.9 422.9 427.9 422.9C427.4 421.6 426.3 419.8 424.9 417.6C420.8 411.2 414.4 402.3 416.8 397C417.9 394.6 419.9 391.2 422.1 387.9C426.3 381.4 431.2 374.8 431.2 374.8L410.1 371.3C410.1 371.3 395.1 377.5 383.2 378.2H382.3C371.5 378.4 373.2 369.9 373.2 367.2C373.2 366 376.1 363.9 379.6 361.8C384.5 358.8 390.4 355.8 390.4 355.8L387.2 349.2C385 349.6 383.1 349.7 381.6 349.5C373.4 348.6 374.5 340.5 375.8 337C376.2 336 378.1 334.5 380.7 332.7C389.2 327.1 405.3 319.4 405.3 319.4H429L452.4 383.1C452.4 383.2 435 392.3 435.4 408.2Z" fill="#FFCB39"/>
<path opacity="0.4" d="M435.4 408.2C435.8 424.2 427.9 422.9 427.9 422.9C427.4 421.6 426.3 419.8 424.9 417.6C425.2 416.1 425.4 414.5 425.3 413C425.2 407.5 420.7 397.1 420.7 397.1L425.3 389.8C424.6 389.1 423.5 388.5 422.1 387.9C426.3 381.4 431.2 374.8 431.2 374.8L410.1 371.3C410.1 371.3 395.1 377.5 383.2 378.2H382.3C383 372.3 380.6 364.8 379.6 361.8C384.5 358.8 390.4 355.8 390.4 355.8L387.2 349.2C385 349.6 383.1 349.7 381.6 349.5C382.7 344.3 381.6 337.1 380.8 332.7C389.3 327.1 405.4 319.4 405.4 319.4H429.1L452.5 383.1C452.4 383.2 435 392.3 435.4 408.2Z" fill="#FFCB39"/>
<path d="M429.1 319.5H405.4C405.4 319.5 377.4 332.9 375.8 337.1C374.2 341.3 372.9 351.9 387.2 349.3L390.4 355.9C390.4 355.9 373.2 364.4 373.2 367.3C373.2 370.2 371.3 379 383.2 378.3C395.1 377.6 410.1 371.4 410.1 371.4L431.2 374.9C431.2 374.9 420 390.1 416.8 397.1C413.6 404.1 425.9 417.6 427.9 422.9C427.9 422.9 435.8 424.2 435.4 408.2C435 392.2 452.4 383.2 452.4 383.2" stroke="#1A2E35" stroke-miterlimit="10" stroke-linecap="round" stroke-linejoin="round"/>
<path d="M423.4 394.2C423.4 394.2 429.3 390.9 432.6 397" stroke="#1A2E35" stroke-miterlimit="10" stroke-linecap="round" stroke-linejoin="round"/>
<path d="M435 272.6H430.3V223.9C430.3 223.2 430.8 222.7 431.5 222.7H433.8C434.5 222.7 435 223.2 435 223.9V272.6Z" fill="#1A2E35"/>
<path d="M431.2 170.2H434.1V225H431.2V170.2Z" fill="#1A2E35"/>
<path d="M430.7 164.8H434.5V172.2H430.7V164.8Z" fill="#757575" stroke="#1A2E35" stroke-miterlimit="10" stroke-linecap="round" stroke-linejoin="round"/>
<path opacity="0.3" d="M431.7 259.8V260.8M433.6 224.1H431.7V257.4M432.4 205.5V207.4M432.4 173.9V201.7" stroke="white" stroke-miterlimit="10" stroke-linecap="round" stroke-linejoin="round"/>
<path d="M473.7 378.2H391.6C388.6 378.2 386.2 375.8 386.2 372.8V275.3C386.2 272.3 388.6 269.9 391.6 269.9H473.7C476.7 269.9 479.1 272.3 479.1 275.3V372.8C479.1 375.8 476.7 378.2 473.7 378.2V378.2Z" fill="#757575"/>
<mask id="mask11_280_167" style="mask-type:luminance" maskUnits="userSpaceOnUse" x="386" y="269" width="94" height="110">
<path d="M473.7 378.2H391.6C388.6 378.2 386.2 375.8 386.2 372.8V275.3C386.2 272.3 388.6 269.9 391.6 269.9H473.7C476.7 269.9 479.1 272.3 479.1 275.3V372.8C479.1 375.8 476.7 378.2 473.7 378.2V378.2Z" fill="white"/>
</mask>
<g mask="url(#mask11_280_167)">
<path opacity="0.2" d="M389.5 358.8V276.4C389.5 274.3 391.2 272.5 393.4 272.5H468.9C469.2 272.5 469.5 272.3 469.7 272C470 271.4 469.6 270.6 468.9 270.6H392C389.5 270.6 387.6 272.6 387.6 275V359C387.6 359.9 388.7 360.3 389.2 359.6L389.4 359.4C389.4 359.2 389.5 359 389.5 358.8Z" fill="white"/>
</g>
<mask id="mask12_280_167" style="mask-type:luminance" maskUnits="userSpaceOnUse" x="386" y="269" width="94" height="110">
<path d="M473.7 378.2H391.6C388.6 378.2 386.2 375.8 386.2 372.8V275.3C386.2 272.3 388.6 269.9 391.6 269.9H473.7C476.7 269.9 479.1 272.3 479.1 275.3V372.8C479.1 375.8 476.7 378.2 473.7 378.2V378.2Z" fill="white"/>
</mask>
<g mask="url(#mask12_280_167)">
<path opacity="0.4" d="M479.1 275.3V372.8C479.1 375.8 476.7 378.2 473.7 378.2H391.6C390.3 378.2 389.1 377.7 388.1 376.9C390.4 375.2 392.7 374.4 392.7 374.4H471.8C474 374.4 475.8 372.6 475.8 370.4V277.2C476.8 275.4 477.8 274.1 478.8 273.3C479 274 479.1 274.6 479.1 275.3Z" fill="black" fill-opacity="0.7"/>
</g>
<mask id="mask13_280_167" style="mask-type:luminance" maskUnits="userSpaceOnUse" x="386" y="269" width="94" height="110">
<path d="M473.7 378.2H391.6C388.6 378.2 386.2 375.8 386.2 372.8V275.3C386.2 272.3 388.6 269.9 391.6 269.9H473.7C476.7 269.9 479.1 272.3 479.1 275.3V372.8C479.1 375.8 476.7 378.2 473.7 378.2V378.2Z" fill="white"/>
</mask>
<g mask="url(#mask13_280_167)">
<path opacity="0.2" d="M479.1 350.6V372.8C479.1 375.8 476.7 378.2 473.7 378.2H424.5L423.9 374.5C424.3 372.9 423.9 366.1 423.9 366.1C420.7 357.7 423.9 345 423.9 345L443.8 332.7C443.8 332.7 457.2 340 459.7 342.7C462.3 345.4 464.3 362.3 464.3 362.3C466.9 361.7 471.6 357.8 475.8 353.8C476.9 352.8 478.1 351.6 479.1 350.6Z" fill="black" fill-opacity="0.7"/>
</g>
<path d="M473.7 378.2H391.6C388.6 378.2 386.2 375.8 386.2 372.8V275.3C386.2 272.3 388.6 269.9 391.6 269.9H473.7C476.7 269.9 479.1 272.3 479.1 275.3V372.8C479.1 375.8 476.7 378.2 473.7 378.2V378.2Z" stroke="#1A2E35" stroke-miterlimit="10" stroke-linecap="round" stroke-linejoin="round"/>
<path d="M475.8 357.6V360.6M420.8 273.6H472C474.1 273.6 475.7 275.3 475.7 277.3V353.7M389.5 290.7V277.3C389.5 275.2 391.2 273.6 393.2 273.6H409.6M389.5 299.8V297.2M405.9 374.5H393.2C391.1 374.5 389.5 372.8 389.5 370.8V304.8M475.8 370.8C475.8 372.9 474.1 374.5 472.1 374.5H409.7" stroke="#1A2E35" stroke-miterlimit="10" stroke-linecap="round" stroke-linejoin="round"/>
<path d="M432.6 351.5C442.983 351.5 451.4 343.083 451.4 332.7C451.4 322.317 442.983 313.9 432.6 313.9C422.217 313.9 413.8 322.317 413.8 332.7C413.8 343.083 422.217 351.5 432.6 351.5Z" fill="#FFCB39"/>
<mask id="mask14_280_167" style="mask-type:luminance" maskUnits="userSpaceOnUse" x="413" y="313" width="39" height="39">
<path d="M432.6 351.5C442.983 351.5 451.4 343.083 451.4 332.7C451.4 322.317 442.983 313.9 432.6 313.9C422.217 313.9 413.8 322.317 413.8 332.7C413.8 343.083 422.217 351.5 432.6 351.5Z" fill="white"/>
</mask>
<g mask="url(#mask14_280_167)">
<path opacity="0.2" d="M451.5 332.7C451.5 343.1 443.1 351.5 432.7 351.5C427.7 351.5 423.2 349.6 419.9 346.5C420.4 345.5 421.2 344.4 422.6 343.3C422.6 343.3 433.5 352.6 443.4 342.7C450.9 335.2 444.4 324.1 444.4 324.1C444.4 324.1 445.4 323 448.4 322.5C450.3 325.4 451.5 328.9 451.5 332.7ZM421.6 337C421.2 337.2 420.8 337.1 420.5 336.6C420.3 336.3 420.2 335.9 420.1 335.5C418.8 327.5 423 319.9 431.6 319.2C433.2 319.1 437.3 319.2 436.7 321.8C436.5 322.6 435.9 323.3 435.2 323.8C432.8 325.5 430.2 327 427.9 329C426.8 330 425.7 331.1 424.9 332.4C424.4 332.9 423 336.4 421.6 337Z" fill="black" fill-opacity="0.7"/>
</g>
<path d="M432.6 351.5C442.983 351.5 451.4 343.083 451.4 332.7C451.4 322.317 442.983 313.9 432.6 313.9C422.217 313.9 413.8 322.317 413.8 332.7C413.8 343.083 422.217 351.5 432.6 351.5Z" stroke="#1A2E35" stroke-miterlimit="10" stroke-linecap="round" stroke-linejoin="round"/>
<path d="M418 332.7C418 324.6 424.5 318.1 432.6 318.1M428.8 346.8C423.5 345.4 419.4 341.1 418.3 335.6M442 321.5C445.2 324.2 447.3 328.2 447.3 332.7C447.3 340.8 440.8 347.3 432.7 347.3M435.6 318.4C436.8 318.7 438 319.1 439.1 319.6" stroke="#1A2E35" stroke-miterlimit="10" stroke-linecap="round" stroke-linejoin="round"/>
<path d="M419.2 290.2C421.1 290.2 422.1 291.4 422.1 293.4V293.8H420.2V293.3C420.2 292.4 419.8 292 419.2 292C418.6 292 418.2 292.3 418.2 293.3C418.2 294.2 418.6 294.9 419.9 296.1C421.6 297.6 422.1 298.6 422.1 300.1C422.1 302.1 421.1 303.3 419.1 303.3C417.1 303.3 416.1 302.1 416.1 300.1V299.3H418V300.2C418 301.1 418.4 301.4 419 301.4C419.6 301.4 420 301.1 420 300.2C420 299.3 419.6 298.6 418.3 297.4C416.6 295.9 416.1 294.9 416.1 293.4C416.3 291.4 417.3 290.2 419.2 290.2ZM422.7 290.4H428.9V292.2H426.8V303.1H424.8V292.2H422.7V290.4ZM435.5 303.1H433.5L433.2 300.8H430.8L430.5 303.1H428.7L430.7 290.4H433.6L435.5 303.1ZM431 299H432.9L432 292.6L431 299ZM440.6 303.1C440.5 302.8 440.4 302.6 440.4 301.5V299.5C440.4 298.3 440 297.9 439.1 297.9H438.4V303.1H436.4V290.4H439.4C441.5 290.4 442.4 291.4 442.4 293.3V294.3C442.4 295.6 442 296.4 441.1 296.9C442.1 297.3 442.4 298.3 442.4 299.6V301.6C442.4 302.2 442.4 302.7 442.6 303.1H440.6ZM438.4 292.2V296.1H439.2C439.9 296.1 440.4 295.8 440.4 294.8V293.5C440.4 292.6 440.1 292.2 439.4 292.2H438.4ZM443.1 290.4H449.3V292.2H447.2V303.1H445.2V292.2H443.1V290.4Z" fill="white"/>
<path d="M490.4 299.7C490.4 299.7 482.5 302.1 479.7 309" stroke="#1A2E35" stroke-miterlimit="10" stroke-linecap="round" stroke-linejoin="round"/>
<path d="M526.2 517.7C525.3 502.4 524.7 486.8 524 474.2C522.4 448.1 521.2 430.6 518.9 412.8C516.5 395 516.9 368.1 515.7 358.7C514.5 349.3 511 347.3 508.2 336.2C505.4 325 502.9 302.8 498.3 299.7C493.7 296.6 479.7 290.7 479.7 290.7V353.6C471.4 366.4 461.5 369.5 461.5 369.5C455.2 351.2 456 343.9 449.6 337.2C443.3 330.5 438.7 321.7 428.8 325.4C424.1 327.1 421.5 328.9 423.9 345C426.3 361 431 366.1 431 366.1C431.8 371.6 430.6 387.5 428.6 395.7C426.6 403.9 434.1 425.5 437.7 439.4C441.3 453.2 460.2 481.3 460.2 481.3C460.2 481.3 461 496.8 459.4 513C459.3 514.5 459.1 516.1 458.9 517.7C458.9 517.7 467.6 531.2 477 531.2C512.2 531.1 526.2 517.7 526.2 517.7Z" fill="white"/>
<path opacity="0.4" d="M425.3 330.1C425.7 328.7 425.6 327.8 425.3 327.3C426.2 326.4 427.4 325.9 428.8 325.4C438.7 321.7 443.3 330.5 449.6 337.2C450.2 337.8 450.7 338.5 451.2 339.1C445.5 336.9 438 337 434.9 341.2C431.2 346.5 423.4 337 425.3 330.1ZM468.3 502.2L471.4 513.9C471.4 513.9 467 509.6 460.4 499.1C460.7 488.9 460.3 481.2 460.3 481.2C460.3 481.2 441.3 453.1 437.8 439.3C434.2 425.5 426.7 403.8 428.7 395.6C430.7 387.4 431.9 371.5 431.1 366C431.1 366 430.1 364.9 428.8 362.2C429.7 361.4 430.7 360.7 431.8 360.4C431.8 360.4 436.9 372.4 435.7 388.3C434.5 404.1 437.2 405.4 442.4 426C447.6 446.6 456.3 469.9 460.4 474C464.5 478.1 466.2 497.2 468.3 502.2ZM475.8 363.6C475.8 363.6 482 364.6 484.6 366C484.6 366 472.4 369.2 471.6 372.6C470.8 376 468.2 379.5 463.6 375.4C463.6 375.4 463.4 372.8 462.9 369.1C465.8 367.8 473.3 363.7 479.8 353.7V290.8C479.8 290.8 486.7 293.7 492.4 296.5C488.2 297.1 483.8 298.4 482.1 301.2C482.1 301.2 483.4 306.5 489.2 309.1C493.7 311.1 489.2 345.1 489.2 345.1C489.2 345.1 496.6 346.9 499 353.7C499 353.7 486.9 354.9 481.9 358.8C476.8 362.6 475.8 363.6 475.8 363.6ZM524 474.2C524.6 484.4 525.1 496.6 525.7 509C524.1 485.5 519.4 445 519.4 445C519.4 445 515.2 460 514.9 458.4C514 453.7 516.9 427.3 516.6 417.8C516.5 413.5 516.8 402.6 517.2 391.9C517.5 399.2 518 406.6 518.9 412.9C521.3 430.6 522.4 448.1 524 474.2Z" fill="#FFCB39"/>
<path d="M526.2 517.7C525.3 502.4 524.7 486.8 524 474.2C522.4 448.1 521.2 430.6 518.9 412.8C516.5 395 516.9 368.1 515.7 358.7C514.5 349.3 511 347.3 508.2 336.2C505.4 325 502.9 302.8 498.3 299.7C493.7 296.6 479.7 290.7 479.7 290.7V353.6C471.4 366.4 461.5 369.5 461.5 369.5C455.2 351.2 456 343.9 449.6 337.2C443.3 330.5 438.7 321.7 428.8 325.4C424.1 327.1 421.5 328.9 423.9 345C426.3 361 431 366.1 431 366.1C431.8 371.6 430.6 387.5 428.6 395.7C426.6 403.9 434.1 425.5 437.7 439.4C441.3 453.2 460.2 481.3 460.2 481.3C460.2 481.3 461 496.8 459.4 513C459.3 514.5 459.1 516.1 458.9 517.7" stroke="#1A2E35" stroke-miterlimit="10" stroke-linecap="round" stroke-linejoin="round"/>
<path d="M461.5 369.6C461.5 369.6 463.5 378.4 467.4 380.4C471.4 382.4 477 380.4 477 380.4M479.7 353.6C479.7 353.6 483.7 344.8 496.3 352.4M479.7 318.1C479.7 318.1 480.5 313.4 487 312.2M460.3 481.2C467.8 490.7 466.4 499.8 469.3 504.6C472.2 509.3 471.8 526.4 471.8 526.4M514.9 389.8V422.9C514.9 437.3 512.1 451.2 512.1 451.2M431.1 366.1C431.1 366.1 431.1 360.4 432.7 358.8M435.4 348.3C435.4 348.3 438.9 336.5 449.2 341.6M467.1 366.7C474.7 366.9 482.5 363.5 487 367.6" stroke="#1A2E35" stroke-miterlimit="10" stroke-linecap="round" stroke-linejoin="round"/>
</g>
<defs>
<clipPath id="clip0_280_167">
<rect width="733" height="500" fill="white"/>
</clipPath>
</defs>
</svg>
