<svg width="114" height="5" viewBox="0 0 114 5" fill="none" xmlns="http://www.w3.org/2000/svg">
<path d="M113.176 2.00153C111.495 1.42081 109.833 1.73581 108.051 1.63796C106.078 1.52938 104.104 1.42653 102.13 1.32867C98.5373 1.1551 94.9506 0.992955 91.3582 0.845812C83.9925 0.546411 76.6239 0.325684 69.2536 0.183669C54.5097 -0.0975167 39.7615 -0.0558401 25.0194 0.308669C20.8848 0.411527 16.7502 0.537241 12.6155 0.688669C10.6419 0.759384 8.66114 0.829384 6.68751 0.932955C4.63338 1.03581 2.54789 1.01938 0.567139 1.50224C-0.379061 1.73081 -0.0370615 3.3801 0.828626 3.50438C2.60988 3.7651 4.42176 3.58081 6.22083 3.52581C8.19445 3.46153 10.1752 3.3801 12.1488 3.3151C15.7413 3.1901 19.3344 3.08153 22.9332 2.98938C30.3042 2.8093 37.6768 2.70787 45.0499 2.6851C59.6142 2.64224 74.1848 2.91367 88.7362 3.49938C92.8708 3.66724 96.999 3.85724 101.127 4.0801C103.102 4.18867 105.075 4.30224 107.049 4.42153C108.213 4.49224 109.353 4.55224 110.504 4.75296C111.538 4.93153 112.198 4.92081 113.245 4.69867C114.403 4.44867 114.11 2.33296 113.17 2.00724L113.176 2.00153Z" fill="#EBFF00"/>
</svg>
