<?xml version="1.0" standalone="no"?>
<!DOCTYPE svg PUBLIC "-//W3C//DTD SVG 20010904//EN"
 "http://www.w3.org/TR/2001/REC-SVG-20010904/DTD/svg10.dtd">
<svg version="1.0" xmlns="http://www.w3.org/2000/svg"
 width="888.000000pt" height="236.000000pt" viewBox="0 0 888.000000 236.000000"
 preserveAspectRatio="xMidYMid meet">

<g transform="translate(0.000000,236.000000) scale(0.100000,-0.100000)"
fill="#ffffff" stroke="none">
<path d="M949 2105 c-28 -15 -59 -70 -59 -104 0 -12 -19 -38 -44 -62 -25 -22
-52 -60 -61 -84 -13 -32 -29 -51 -65 -74 -164 -106 -250 -341 -206 -560 10
-46 37 -127 60 -180 82 -181 106 -247 121 -325 18 -95 27 -111 64 -124 89 -31
134 85 116 294 -9 99 -11 95 -39 -56 -27 -146 -44 -187 -60 -145 -3 8 -13 65
-22 127 -9 62 -31 159 -50 216 -42 126 -44 179 -8 221 32 39 75 41 109 7 22
-23 55 -110 55 -148 0 -25 12 -23 42 10 35 37 45 59 53 115 15 96 124 216 235
259 82 31 204 36 263 10 46 -21 92 -72 117 -131 16 -40 30 -30 30 20 0 21 4
39 9 39 5 0 30 -12 57 -27 74 -41 146 -119 184 -198 56 -118 53 -272 -10 -395
-27 -53 -98 -129 -155 -165 -41 -27 -53 -42 -68 -83 -16 -47 -110 -162 -122
-150 -3 2 0 21 6 41 5 21 9 57 7 80 l-3 42 -107 1 c-133 2 -219 22 -335 79
l-88 43 55 -51 c97 -90 233 -146 358 -147 48 0 51 -7 25 -72 -22 -57 -40 -77
-90 -99 -34 -14 -43 -24 -43 -43 0 -35 22 -38 101 -11 141 47 246 133 302 248
15 31 32 57 37 57 17 0 138 121 168 168 77 120 99 298 53 431 -47 135 -145
242 -287 313 -66 32 -86 47 -91 67 -14 58 -63 149 -107 198 -43 47 -148 113
-181 113 -7 0 -18 13 -25 30 -14 34 -83 100 -105 100 -8 0 -24 18 -35 40 -35
69 -103 97 -161 65z"/>
<path d="M4242 1642 c-14 -25 -103 -72 -136 -72 -15 0 -13 -5 13 -29 31 -29
31 -30 31 -129 l0 -100 -52 20 c-42 16 -69 19 -128 16 -131 -8 -225 -70 -282
-186 -30 -61 -33 -74 -33 -162 0 -120 20 -183 78 -240 54 -54 88 -71 158 -77
75 -7 143 17 209 75 l50 44 0 -56 0 -56 88 0 c70 1 84 3 72 13 -46 37 -45 26
-50 506 -4 386 -7 452 -18 433z m-153 -357 c27 -13 51 -31 55 -40 3 -9 6 -108
6 -220 l0 -203 -35 -31 c-64 -56 -159 -63 -227 -18 -49 34 -95 100 -107 157
-15 69 -13 177 3 223 48 133 186 193 305 132z"/>
<path d="M4878 1619 c-25 -25 -50 -39 -78 -44 -43 -7 -52 -20 -20 -28 29 -8
40 -48 40 -149 0 -82 -2 -89 -17 -83 -63 27 -95 34 -150 35 -258 1 -423 -296
-296 -533 86 -159 280 -181 420 -48 18 17 34 31 37 31 4 0 6 -25 6 -55 l0 -55
186 0 186 0 -31 26 -31 26 0 450 c0 248 -2 453 -4 455 -3 3 -15 -5 -28 -17
-29 -28 -64 -46 -105 -55 -40 -8 -40 -11 -8 -37 l25 -19 0 -389 c0 -340 -2
-391 -16 -404 -21 -21 -30 -20 -48 6 -14 20 -16 81 -16 470 0 246 -3 448 -7
450 -5 2 -25 -13 -45 -33z m-147 -323 c19 -8 46 -24 62 -36 l27 -21 0 -205 0
-205 -27 -25 c-116 -107 -259 -71 -330 82 -23 50 -27 73 -27 149 -1 130 33
197 125 250 51 29 117 33 170 11z"/>
<path d="M7550 1650 c0 -16 -91 -70 -117 -70 -29 0 -29 -7 2 -32 l25 -19 0
-390 c0 -376 -1 -390 -20 -409 -25 -25 -42 -25 -62 -2 -13 14 -17 58 -20 252
-4 227 -5 237 -28 280 -34 62 -91 90 -183 90 -39 0 -88 -5 -110 -12 -43 -13
-117 -76 -117 -99 1 -9 5 -7 15 6 46 65 92 89 171 89 70 1 97 -15 120 -71 16
-38 18 -116 4 -143 -11 -21 -78 -45 -165 -59 -83 -13 -108 -24 -159 -71 -36
-33 -45 -50 -56 -98 -30 -142 52 -234 196 -219 64 7 97 24 150 76 l41 42 7
-33 c3 -18 16 -42 28 -55 21 -23 22 -23 312 -23 l291 0 -38 31 -37 30 0 133
c0 129 1 133 26 156 15 15 28 21 32 14 4 -6 43 -62 87 -125 159 -228 170 -235
370 -242 111 -3 116 -3 65 8 -145 31 -154 40 -398 381 l-53 74 53 51 c85 83
134 119 185 139 l48 19 -41 1 c-66 0 -100 -17 -141 -73 -41 -56 -209 -240
-224 -245 -5 -2 -9 122 -9 312 0 204 -4 316 -10 316 -5 0 -10 -5 -10 -10 0
-16 -91 -70 -116 -70 -29 0 -40 -17 -16 -24 39 -13 42 -43 42 -429 0 -413 -1
-417 -61 -417 -57 0 -59 17 -59 510 0 287 -3 440 -10 440 -5 0 -10 -5 -10 -10z
m-310 -686 c0 -151 -6 -173 -65 -213 -40 -27 -106 -31 -149 -10 -63 31 -85
134 -45 217 25 51 59 75 149 102 36 11 72 24 80 30 8 5 18 10 23 10 4 0 7 -61
7 -136z"/>
<path d="M2300 1612 l35 -30 3 -403 c2 -269 -1 -412 -8 -429 -6 -14 -23 -33
-38 -43 -26 -16 -17 -16 207 -17 180 0 247 4 295 16 105 27 179 82 210 156 23
53 21 159 -3 207 -27 52 -90 106 -150 128 -56 20 -62 29 -28 42 59 23 107 104
107 179 0 89 -39 146 -130 194 -43 22 -56 23 -290 26 l-245 3 35 -29z m384
-16 c77 -45 106 -97 106 -186 0 -70 -35 -129 -95 -160 -41 -21 -63 -25 -135
-25 l-85 0 -3 190 c-1 104 0 196 3 204 9 24 157 8 209 -23z m49 -415 c64 -28
113 -81 132 -143 53 -181 -49 -310 -265 -333 -57 -6 -68 -4 -91 14 l-26 20 -6
213 c-4 117 -4 224 0 237 6 24 7 24 108 18 67 -4 118 -13 148 -26z"/>
<path d="M6200 1529 c0 -71 4 -108 10 -104 6 3 10 11 10 18 0 6 15 33 32 59
27 39 46 54 108 82 45 21 96 36 126 38 l49 3 3 -422 c1 -263 -2 -431 -8 -447
-5 -15 -23 -35 -40 -44 -16 -9 -30 -20 -30 -24 0 -5 66 -8 147 -8 l146 0 -39
34 -39 34 -3 442 -3 443 51 -7 c121 -16 227 -83 268 -168 l21 -43 1 113 0 112
-405 0 -405 0 0 -111z"/>
<path d="M5289 1341 c-30 -10 -65 -28 -87 -46 -9 -8 -28 -23 -42 -34 -14 -11
-19 -20 -12 -21 6 0 12 4 12 9 0 13 114 61 147 61 17 0 45 -10 64 -23 55 -37
61 -70 57 -325 l-3 -224 -30 -24 -30 -24 120 0 c118 1 120 1 98 19 -38 32 -43
64 -43 293 0 205 -2 225 -21 265 -27 56 -77 83 -151 82 -29 0 -65 -4 -79 -8z"/>
<path d="M5807 1337 c-44 -14 -102 -58 -118 -90 -7 -14 2 -8 27 16 51 52 87
69 148 69 60 1 86 -13 112 -56 17 -27 19 -57 22 -236 3 -185 1 -208 -16 -240
-32 -60 -129 -89 -196 -58 -37 16 -70 89 -64 142 11 94 55 140 164 172 55 16
109 42 101 50 -2 2 -21 -5 -43 -16 -21 -11 -68 -24 -104 -29 -157 -22 -233
-94 -233 -221 0 -57 21 -104 63 -137 77 -62 251 -21 306 72 l18 30 14 -48 c17
-62 46 -81 112 -75 51 5 76 17 53 25 -7 3 -23 13 -35 23 -22 18 -23 24 -28
262 -5 240 -5 245 -30 281 -14 20 -41 44 -60 54 -44 21 -163 27 -213 10z"/>
<path d="M8310 1329 c-41 -25 -69 -55 -81 -87 -14 -37 -10 -130 6 -163 23 -44
86 -84 178 -115 108 -36 157 -81 157 -145 0 -54 -32 -103 -80 -123 -29 -12
-31 -15 -12 -15 31 -1 92 25 120 52 51 48 77 130 61 192 -23 86 -82 131 -229
176 -99 30 -140 68 -140 132 0 53 27 93 73 106 29 8 29 9 7 10 -14 1 -41 -9
-60 -20z"/>
<path d="M8488 1338 c27 -6 55 -22 77 -44 31 -30 35 -41 35 -84 0 -77 18 -59
22 21 2 60 0 72 -15 81 -31 16 -111 38 -137 37 -16 -1 -10 -4 18 -11z"/>
<path d="M3020 1335 c0 -4 10 -15 23 -25 21 -18 22 -24 27 -272 6 -293 10
-306 87 -340 86 -38 215 -8 296 69 l27 27 0 -52 0 -52 93 0 92 0 -30 24 -30
24 -5 299 -5 298 -85 3 -85 3 28 -29 27 -28 0 -240 c0 -237 0 -241 -23 -262
-49 -46 -153 -67 -210 -41 -49 22 -52 36 -57 324 l-5 270 -82 3 c-46 2 -83 0
-83 -3z"/>
<path d="M1223 1295 c-28 -14 -58 -34 -68 -45 -17 -19 -15 -18 41 2 39 14 84
22 131 22 83 1 113 -15 150 -80 19 -32 23 -35 23 -16 0 37 -25 86 -59 115 -45
38 -144 39 -218 2z"/>
<path d="M1556 1288 c-23 -33 -20 -109 9 -216 14 -51 25 -104 25 -116 0 -37
-26 -51 -89 -49 l-56 2 24 -20 c13 -10 32 -19 42 -19 22 0 23 -1 7 -35 -9 -21
-18 -25 -47 -25 -51 2 -122 -11 -116 -20 3 -5 36 -13 74 -20 89 -15 109 -6
113 51 3 38 6 42 43 55 78 26 81 52 25 215 -40 118 -49 172 -30 184 13 8 13
35 1 35 -6 0 -17 -10 -25 -22z"/>
<path d="M1240 1146 c0 -14 86 -46 124 -46 41 0 106 19 106 31 0 4 -30 7 -67
6 -38 -1 -89 2 -115 7 -27 4 -48 5 -48 2z"/>
<path d="M1372 738 c6 -16 69 -48 94 -48 25 0 49 24 39 39 -3 6 -18 8 -34 5
-15 -3 -44 -1 -65 4 -27 8 -36 8 -34 0z"/>
</g>
</svg>
