<?xml version="1.0" standalone="no"?>
<!DOCTYPE svg PUBLIC "-//W3C//DTD SVG 20010904//EN"
 "http://www.w3.org/TR/2001/REC-SVG-20010904/DTD/svg10.dtd">
<svg version="1.0" xmlns="http://www.w3.org/2000/svg"
 width="782.000000pt" height="246.000000pt" viewBox="0 0 782.000000 246.000000"
 preserveAspectRatio="xMidYMid meet">

<g transform="translate(0.000000,246.000000) scale(0.100000,-0.100000)"
fill="#ffffff" stroke="none">
<path d="M1303 1958 c-10 -18 -23 -45 -30 -60 -8 -19 -22 -29 -47 -34 -42 -7
-44 -14 -15 -61 14 -22 27 -32 36 -29 8 3 25 6 38 6 19 0 30 12 52 58 30 60
33 61 101 46 20 -4 22 -10 22 -64 0 -51 3 -62 22 -72 12 -7 58 -37 102 -67
l81 -53 49 26 50 26 27 -33 c16 -17 28 -37 29 -44 0 -6 -16 -30 -35 -53 -19
-23 -35 -44 -35 -46 0 -3 9 -25 20 -49 11 -25 26 -68 34 -97 l13 -52 59 -16
59 -17 0 -43 0 -44 -58 -12 c-32 -6 -59 -13 -60 -15 -1 -2 -14 -40 -29 -84
-15 -44 -29 -87 -33 -96 -4 -10 9 -34 35 -65 22 -27 40 -51 40 -54 0 -3 -13
-20 -29 -39 l-28 -34 -61 33 -61 32 -38 -29 c-21 -16 -64 -44 -95 -62 l-58
-32 0 -59 c0 -55 -1 -58 -27 -64 -16 -4 -36 -9 -45 -12 -12 -4 -24 9 -44 43
-34 60 -50 73 -90 73 -28 0 -34 -5 -48 -40 -9 -22 -16 -42 -16 -45 0 -2 15 -7
34 -10 27 -6 39 -17 67 -66 19 -32 38 -59 43 -59 12 0 199 52 206 58 3 2 7 33
10 68 l5 65 57 32 57 31 59 -28 c33 -16 64 -27 70 -25 11 4 142 166 142 175 0
3 -14 19 -31 36 -53 54 -60 69 -48 113 15 55 30 68 102 85 l62 16 3 111 3 111
-68 22 c-68 21 -69 22 -91 77 -26 62 -30 47 41 128 15 16 27 32 27 35 0 3 -10
16 -22 30 -13 14 -47 53 -76 87 l-52 61 -63 -24 -63 -25 -57 38 c-46 30 -57
43 -57 64 0 14 -3 46 -6 71 l-6 44 -77 17 c-150 32 -138 32 -158 -5z"/>
<path d="M803 1904 c-81 -30 -163 -139 -163 -216 0 -32 -3 -34 -61 -51 -76
-22 -142 -84 -159 -149 -17 -62 -7 -142 25 -190 l27 -40 -30 -32 c-45 -47 -62
-89 -62 -152 0 -107 85 -209 183 -221 54 -7 67 -18 67 -56 0 -47 48 -134 94
-171 43 -35 121 -66 166 -66 39 0 120 30 157 58 18 13 43 41 55 61 23 36 23
36 26 533 2 321 -1 511 -7 536 -34 124 -193 202 -318 156z m166 -103 c61 -43
66 -59 69 -236 l3 -164 -28 -8 c-109 -28 -183 18 -183 115 0 41 19 67 74 105
20 14 25 24 20 40 -17 59 -59 59 -123 2 -51 -47 -71 -46 -71 2 0 46 32 112 67
137 51 37 125 40 172 7z m-259 -264 c20 -10 26 -23 31 -64 8 -63 48 -123 104
-155 33 -19 53 -23 118 -22 l77 2 0 -164 0 -164 -66 0 c-68 0 -90 7 -137 46
-41 34 -75 30 -117 -12 -50 -50 -86 -67 -132 -61 -53 7 -87 31 -105 75 -28 67
-3 137 60 171 21 11 27 8 68 -32 52 -53 108 -72 188 -64 59 6 91 28 91 62 0
32 -24 49 -57 40 -97 -24 -140 -10 -173 55 -14 27 -29 41 -48 46 -51 10 -72
24 -92 56 -37 62 -20 145 39 181 31 20 116 22 151 4z m124 -632 c37 -17 72
-25 126 -28 l75 -4 3 -43 c5 -62 -22 -125 -64 -151 -28 -17 -46 -21 -93 -17
-96 7 -150 63 -164 170 -6 44 -5 48 26 72 17 14 34 26 36 26 2 0 27 -11 55
-25z"/>
<path d="M1243 1682 c-19 -3 -23 -10 -23 -43 0 -21 1 -39 3 -40 1 0 38 -4 83
-8 116 -11 185 -50 260 -146 48 -62 59 -101 59 -200 0 -78 -4 -98 -28 -147
-57 -116 -156 -188 -271 -196 -39 -2 -79 -9 -88 -14 -21 -10 -24 -58 -6 -76
35 -35 230 16 314 81 165 129 218 361 124 546 -38 77 -71 114 -141 161 -91 62
-205 95 -286 82z"/>
<path d="M6218 1661 c-27 -24 -33 -36 -32 -70 2 -54 26 -88 70 -100 69 -19
134 28 134 97 0 44 -14 68 -50 87 -45 23 -85 19 -122 -14z"/>
<path d="M4245 1616 c-205 -65 -321 -260 -287 -481 28 -183 160 -316 340 -346
252 -42 467 156 450 416 l-3 50 -174 3 c-96 1 -178 -1 -182 -5 -3 -5 -4 -39 0
-78 l6 -70 88 -3 c57 -2 87 -7 87 -14 0 -30 -56 -89 -107 -114 -158 -78 -341
47 -343 232 -1 115 67 215 170 249 92 30 169 11 261 -66 l47 -38 55 47 c31 26
56 53 56 61 2 33 -119 122 -207 152 -64 22 -195 25 -257 5z"/>
<path d="M2317 1614 c-4 -4 -7 -188 -7 -409 l0 -402 68 -7 c105 -10 102 -14
102 129 l0 123 123 4 c131 4 154 11 229 70 90 71 120 228 64 342 -29 59 -64
94 -130 129 -38 20 -57 22 -241 25 -110 2 -204 0 -208 -4z m391 -180 c52 -36
66 -107 32 -162 -27 -43 -54 -52 -166 -52 l-94 0 0 115 0 115 103 0 c77 0 108
-4 125 -16z"/>
<path d="M3032 1208 l3 -413 60 -3 c32 -2 69 -1 82 3 l23 5 0 233 c0 271 -13
267 126 40 104 -171 114 -176 165 -85 81 144 162 273 168 267 3 -4 4 -100 3
-215 -2 -115 -1 -218 3 -229 6 -19 14 -21 79 -21 47 0 77 4 83 13 5 7 9 181 9
412 l-1 400 -80 0 -80 0 -110 -187 c-61 -103 -115 -192 -121 -198 -9 -9 -38
31 -116 157 -57 92 -113 183 -123 201 -19 32 -20 32 -97 32 l-78 0 2 -412z"/>
<path d="M1238 1499 c-14 -7 -18 -23 -18 -62 0 -57 7 -74 30 -77 33 -5 49 1
55 21 6 16 12 19 32 14 65 -16 103 -73 103 -153 0 -80 -58 -147 -135 -158 -82
-11 -85 -13 -85 -43 0 -47 25 -64 81 -58 129 16 234 131 233 257 -1 101 -69
209 -154 243 -49 20 -122 29 -142 16z"/>
<path d="M5033 1402 c-131 -47 -207 -158 -206 -303 1 -166 97 -279 261 -309
100 -18 231 18 286 79 l20 22 -47 46 -46 47 -39 -22 c-82 -46 -179 -37 -239
23 -18 18 -33 38 -33 44 0 7 70 11 218 13 l217 3 -1 66 c-1 86 -26 151 -81
210 -79 85 -206 118 -310 81z m170 -150 c15 -10 34 -27 42 -38 31 -41 22 -44
-120 -44 -74 0 -135 2 -135 5 0 16 38 60 65 76 39 24 111 25 148 1z"/>
<path d="M5782 1405 c-18 -8 -46 -24 -62 -35 -36 -26 -38 -25 -42 8 -3 27 -4
27 -78 27 l-75 0 0 -305 0 -305 75 0 75 0 6 65 c4 36 7 125 8 197 1 131 1 133
29 164 23 26 38 33 80 37 47 4 54 2 82 -26 l30 -30 0 -190 c0 -105 3 -197 6
-206 5 -12 21 -16 69 -16 102 0 95 -16 95 211 0 235 -8 281 -58 339 -62 73
-160 99 -240 65z"/>
<path d="M7343 1410 c-109 -23 -163 -84 -163 -185 0 -109 54 -162 192 -191 88
-18 120 -37 116 -67 -8 -53 -120 -60 -206 -12 l-47 26 -37 -43 c-21 -24 -38
-48 -38 -55 0 -17 59 -60 111 -79 27 -10 77 -17 129 -18 74 -1 92 3 143 27 71
35 107 89 107 161 0 98 -54 154 -175 182 -114 26 -140 37 -143 62 -2 13 2 30
8 38 19 22 112 18 171 -8 l51 -21 23 29 c13 16 30 40 37 53 11 20 10 25 -10
42 -56 45 -191 75 -269 59z"/>
<path d="M6212 1103 l3 -308 60 -3 c32 -2 69 -1 82 3 l23 5 0 289 c0 159 -3
296 -6 305 -5 13 -22 16 -85 16 l-79 0 2 -307z"/>
<path d="M6507 1404 c-4 -4 -7 -93 -7 -198 0 -207 10 -270 50 -329 68 -98 222
-124 308 -52 37 31 42 31 42 0 0 -30 23 -37 101 -33 l54 3 3 308 2 307 -80 0
-80 0 0 -167 c0 -93 -5 -185 -10 -205 -23 -82 -125 -117 -187 -64 l-28 24 -5
204 -5 203 -75 3 c-42 1 -79 0 -83 -4z"/>
</g>
</svg>
