<?xml version="1.0" standalone="no"?>
<!DOCTYPE svg PUBLIC "-//W3C//DTD SVG 20010904//EN"
 "http://www.w3.org/TR/2001/REC-SVG-20010904/DTD/svg10.dtd">
<svg version="1.0" xmlns="http://www.w3.org/2000/svg"
 width="974.000000pt" height="274.000000pt" viewBox="0 0 974.000000 274.000000"
 preserveAspectRatio="xMidYMid meet">

<g transform="translate(0.000000,274.000000) scale(0.100000,-0.100000)"
fill="#ffffff" stroke="none">
<path d="M8135 2121 c-157 -25 -275 -88 -401 -215 -69 -70 -99 -109 -127 -166
-140 -285 -90 -609 128 -825 124 -123 231 -178 411 -208 64 -11 126 -32 215
-71 73 -32 152 -60 193 -67 95 -16 206 -6 294 27 l72 26 2 72 c1 76 0 108 -6
113 -2 2 -25 -5 -52 -15 -87 -34 -193 -54 -253 -46 -88 10 -90 16 -15 60 107
61 219 184 281 309 36 70 63 201 63 299 0 312 -195 582 -493 681 -85 28 -225
40 -312 26z m220 -193 c133 -28 289 -149 347 -268 54 -110 73 -258 47 -370
-45 -199 -229 -366 -442 -401 -156 -26 -317 31 -443 156 -48 49 -80 91 -101
136 -114 241 -36 529 184 675 128 85 249 107 408 72z"/>
<path d="M8060 1670 c-19 -19 -20 -33 -20 -260 l0 -240 25 -16 c31 -20 44 -16
163 56 53 31 143 83 198 114 136 75 141 98 36 157 -55 31 -155 90 -291 171
-74 44 -84 45 -111 18z"/>
<path d="M888 2002 c-38 -2 -68 -6 -68 -10 0 -4 39 -47 88 -95 l87 -87 95 0
c88 0 101 -3 165 -34 105 -51 178 -127 211 -218 80 -222 -17 -464 -223 -561
-60 -28 -80 -32 -173 -35 -63 -3 -108 -9 -112 -16 -9 -13 -10 -138 -2 -160 5
-13 23 -16 88 -16 112 0 187 15 271 55 179 86 309 251 350 443 41 199 -11 392
-145 536 -126 134 -257 192 -450 198 -63 1 -145 2 -182 0z"/>
<path d="M3150 1924 c-22 -47 -40 -88 -40 -90 0 -2 -21 -53 -46 -112 -25 -59
-71 -168 -101 -242 -30 -74 -104 -250 -164 -390 -60 -141 -112 -270 -115 -288
l-7 -33 98 3 97 3 89 210 c49 116 98 230 109 255 48 110 138 327 144 348 4 13
12 22 18 20 5 -2 60 -129 123 -283 151 -374 215 -527 227 -542 15 -19 187 -18
194 1 5 14 -27 98 -161 416 -48 113 -118 282 -156 375 -113 274 -171 409 -181
423 -6 6 -28 12 -50 12 l-39 0 -39 -86z"/>
<path d="M5666 1983 c-13 -27 -142 -328 -376 -883 -62 -146 -114 -280 -117
-298 l-6 -33 98 3 98 3 42 100 c24 55 75 179 115 275 40 96 80 193 90 215 9
22 36 86 60 143 23 57 46 100 50 95 7 -7 253 -594 326 -778 l20 -50 94 -3 c51
-1 97 1 102 6 8 8 -35 122 -117 312 -37 86 -215 517 -295 715 -40 99 -77 186
-83 193 -5 6 -27 12 -48 12 -32 0 -41 -5 -53 -27z"/>
<path d="M7249 2003 c-25 -6 -29 -33 -29 -195 0 -112 3 -148 13 -148 6 1 50
36 96 79 l84 78 -2 88 c-1 48 -4 92 -7 97 -5 8 -118 9 -155 1z"/>
<path d="M660 1597 c0 -224 3 -407 6 -407 3 0 46 34 95 76 l89 75 0 237 0 237
-95 95 -95 95 0 -408z"/>
<path d="M1792 1388 l3 -613 90 0 90 0 3 525 2 524 -90 88 c-50 48 -92 88 -95
88 -3 0 -4 -276 -3 -612z"/>
<path d="M1960 1995 c0 -16 45 -68 106 -122 l66 -58 92 0 c78 0 98 -4 141 -27
58 -30 75 -47 104 -105 25 -50 28 -140 7 -181 -21 -39 -75 -89 -118 -106 -24
-11 -69 -16 -127 -16 -49 0 -96 -3 -105 -6 -25 -10 -22 -123 3 -156 11 -13 70
-110 132 -214 61 -104 118 -199 125 -212 13 -20 22 -22 109 -22 84 0 95 2 95
18 0 18 -13 43 -138 257 -83 142 -93 165 -69 165 30 0 140 64 182 106 152 150
149 398 -8 553 -31 31 -82 67 -127 89 l-75 37 -197 3 c-109 2 -198 0 -198 -3z"/>
<path d="M6040 1985 c0 -27 69 -154 89 -165 11 -5 82 -10 160 -10 l141 0 0
-507 c0 -280 4 -514 9 -521 5 -9 31 -12 92 -10 l84 3 3 518 2 517 159 0 c138
0 160 2 173 18 21 23 78 138 78 157 0 13 -58 15 -495 15 -437 0 -495 -2 -495
-15z"/>
<path d="M3852 1383 l3 -608 85 0 85 0 7 40 c3 22 7 200 7 395 0 195 2 357 4
360 2 3 97 -76 210 -175 114 -99 213 -181 220 -183 7 -1 74 50 148 115 74 65
170 149 214 187 l80 70 5 -405 5 -404 78 -3 c50 -2 84 1 93 9 12 10 14 107 14
605 0 362 -4 595 -9 599 -6 3 -56 -36 -113 -86 -228 -202 -256 -227 -323 -284
-38 -33 -93 -81 -122 -107 -28 -26 -56 -48 -60 -48 -8 0 -156 126 -486 413
-74 64 -138 117 -141 117 -3 0 -5 -273 -4 -607z"/>
<path d="M7307 1577 l-78 -72 3 -365 3 -365 85 0 85 0 3 438 c2 346 0 437 -10
437 -7 0 -48 -33 -91 -73z"/>
<path d="M748 1122 l-88 -77 0 -138 0 -138 93 3 92 3 3 213 c1 116 -1 212 -5
211 -5 0 -47 -35 -95 -77z"/>
</g>
</svg>
