<?xml version="1.0" standalone="no"?>
<!DOCTYPE svg PUBLIC "-//W3C//DTD SVG 20010904//EN"
 "http://www.w3.org/TR/2001/REC-SVG-20010904/DTD/svg10.dtd">
<svg version="1.0" xmlns="http://www.w3.org/2000/svg"
 width="888.000000pt" height="236.000000pt" viewBox="0 0 888.000000 186.000000"
 preserveAspectRatio="xMidYMid meet">

<g transform="translate(0.000000,236.000000) scale(0.100000,-0.100000)"
fill="#ffffff" stroke="none">
<path d="M3785 1753 c-36 -9 -47 -22 -319 -384 -24 -32 -28 -43 -19 -61 9 -20
160 -219 262 -345 18 -23 47 -47 64 -52 18 -7 131 -11 282 -11 240 0 254 1
279 21 24 19 240 286 294 364 30 42 32 37 -117 230 -64 83 -127 165 -140 183
-42 60 -54 62 -323 61 -134 -1 -252 -4 -263 -6z m186 -70 c-11 -21 -213 -277
-244 -310 -18 -21 -30 -23 -109 -23 -48 0 -88 3 -88 6 0 4 131 178 235 312
l26 32 95 0 c87 0 94 -1 85 -17z m341 -10 c14 -16 45 -55 69 -88 24 -33 71
-94 104 -135 34 -41 64 -81 69 -87 5 -10 -13 -13 -83 -13 l-89 0 -129 156
c-70 85 -134 164 -142 175 -13 18 -10 19 81 19 90 0 95 -1 120 -27z m-192 -96
c36 -45 95 -119 132 -164 38 -45 68 -86 68 -92 0 -10 -252 -315 -269 -325 -10
-7 -281 306 -281 324 0 6 35 55 78 108 43 53 102 129 131 169 30 39 59 69 65
67 6 -3 40 -42 76 -87z m-389 -314 c49 -52 249 -291 249 -298 0 -3 -42 -5 -93
-5 -110 0 -93 -12 -237 178 -51 67 -97 125 -101 128 -5 3 -9 12 -9 20 0 11 17
14 78 14 77 0 78 0 113 -37z m829 32 c0 -17 -258 -328 -278 -336 -33 -13 -172
-12 -172 1 0 11 254 318 275 332 11 9 175 11 175 3z"/>
<path d="M5043 1675 c-34 -7 -82 -25 -106 -40 -55 -32 -128 -108 -156 -162
-49 -98 -47 -258 6 -355 35 -64 110 -133 181 -166 50 -24 69 -27 162 -27 94 0
111 3 160 27 63 31 140 93 140 113 0 29 -33 25 -72 -11 -66 -59 -137 -87 -228
-87 -68 -1 -86 3 -144 32 -112 55 -176 151 -184 276 -9 147 54 259 183 325 60
31 76 35 144 35 93 -1 166 -31 226 -93 43 -45 56 -50 74 -28 30 36 -111 137
-225 161 -81 17 -81 17 -161 0z"/>
<path d="M828 1674 c-4 -3 3 -33 15 -67 11 -34 64 -201 117 -372 l97 -310 86
-3 85 -3 10 33 c6 18 33 105 61 193 27 88 55 179 62 203 7 23 15 42 18 42 3 0
19 -42 34 -93 16 -50 48 -156 73 -234 l45 -143 82 0 83 0 113 358 c62 196 115
367 118 380 5 21 3 22 -75 22 -54 0 -83 -4 -88 -12 -5 -7 -38 -112 -74 -232
-36 -121 -71 -221 -78 -224 -7 -2 -12 3 -12 11 0 7 -8 40 -19 73 -10 32 -35
113 -55 179 -20 66 -44 139 -52 163 l-16 43 -76 -3 -77 -3 -23 -65 c-12 -36
-43 -135 -68 -220 -26 -85 -51 -164 -57 -174 -8 -16 -20 14 -63 155 -30 96
-64 204 -76 242 l-22 67 -81 0 c-45 0 -84 -3 -87 -6z"/>
<path d="M2025 1667 c-3 -6 -4 -176 -3 -377 l3 -365 280 0 280 0 3 73 3 72
-201 0 -201 0 3 82 3 83 160 0 160 0 0 70 0 70 -162 3 -163 2 0 75 0 75 118 0
c66 0 153 3 195 6 l77 7 0 68 0 69 -275 0 c-212 0 -277 -3 -280 -13z"/>
<path d="M2718 1674 c-5 -4 -8 -176 -8 -381 l0 -374 233 3 c225 3 234 4 281
28 71 36 108 86 114 154 7 83 -4 121 -45 161 -20 19 -42 35 -50 35 -19 0 -16
9 17 46 89 101 41 274 -87 315 -43 14 -443 25 -455 13z m387 -157 c27 -14 35
-27 35 -63 0 -20 -9 -39 -26 -55 -24 -22 -33 -24 -132 -24 l-107 0 -3 69 c-4
102 -9 99 110 91 57 -4 112 -12 123 -18z m42 -297 c48 -31 49 -94 3 -135 -20
-18 -36 -20 -149 -20 l-126 0 -3 74 c-2 41 0 81 3 89 7 20 239 13 272 -8z"/>
<path d="M6528 1663 c-8 -10 -70 -138 -137 -285 -66 -147 -139 -305 -161 -353
-41 -88 -43 -105 -11 -105 13 0 31 28 65 100 l46 100 223 0 222 0 45 -100 c37
-85 47 -100 67 -100 13 0 23 6 23 13 0 7 -23 65 -51 127 -28 63 -88 201 -134
305 -128 291 -134 305 -144 305 -5 0 -16 2 -23 5 -8 3 -21 -2 -30 -12z m116
-240 c41 -95 82 -185 90 -202 9 -16 16 -35 16 -41 0 -6 -66 -10 -195 -10 -117
0 -195 4 -195 10 0 31 191 433 202 422 4 -4 42 -85 82 -179z"/>
<path d="M5567 1663 c-4 -3 -7 -169 -7 -369 0 -322 2 -363 16 -368 9 -3 20 -4
25 0 5 3 9 61 9 130 l0 124 134 0 134 0 103 -130 c77 -98 108 -130 123 -128
11 2 21 8 23 14 2 6 -39 62 -91 125 -53 63 -96 117 -96 121 0 4 17 15 38 23
86 36 131 111 132 215 0 114 -58 200 -157 236 -40 14 -373 20 -386 7z m378
-58 c17 -6 44 -28 62 -48 85 -97 63 -244 -47 -306 -43 -24 -82 -27 -262 -23
l-88 2 0 195 0 194 88 4 c114 5 210 -2 247 -18z"/>
<path d="M7000 1294 l0 -375 23 3 c22 3 22 6 25 166 l2 162 174 0 c96 0 181 3
190 6 9 3 16 15 16 25 0 17 -12 19 -187 21 l-188 3 -3 158 -3 157 208 0 c115
0 214 4 222 9 8 5 11 16 8 25 -6 14 -36 16 -247 16 l-240 0 0 -376z"/>
<path d="M7545 1660 c-4 -6 -1 -17 5 -25 9 -11 44 -15 138 -17 l127 -3 3 -343
c2 -302 4 -343 18 -349 9 -3 20 0 25 8 5 8 9 166 9 352 l0 337 119 0 c133 0
151 4 151 31 0 18 -12 19 -294 19 -194 0 -297 -4 -301 -10z"/>
</g>
</svg>
