<?xml version="1.0" standalone="no"?>
<!DOCTYPE svg PUBLIC "-//W3C//DTD SVG 20010904//EN"
 "http://www.w3.org/TR/2001/REC-SVG-20010904/DTD/svg10.dtd">
<svg version="1.0" xmlns="http://www.w3.org/2000/svg"
 width="823.000000pt" height="131.000000pt" viewBox="0 0 823.000000 131.000000"
 preserveAspectRatio="xMidYMid meet">

<g transform="translate(0.000000,131.000000) scale(0.100000,-0.100000)"
fill="#ffffff" stroke="none">
<path d="M386 1041 c-103 -114 -116 -133 -116 -165 0 -32 -6 -40 -45 -68 l-45
-32 0 -140 c0 -78 4 -146 8 -151 4 -6 38 -30 75 -54 77 -50 87 -63 87 -121 0
-38 7 -49 92 -141 l92 -99 173 0 174 0 48 52 c147 158 141 149 141 205 l0 52
85 56 85 56 0 144 0 143 -35 22 c-53 33 -65 48 -65 85 0 28 -15 49 -88 132
-49 54 -99 110 -112 126 l-24 27 -207 0 -207 0 -116 -129z m517 58 c18 -22 17
-23 -25 -66 l-42 -43 -127 0 -127 0 -41 41 c-45 46 -46 48 -28 72 14 19 105
26 272 21 89 -3 102 -5 118 -25z m-392 -114 l44 -45 156 0 156 0 41 45 c22 25
47 45 54 44 7 0 39 -30 71 -66 51 -58 57 -70 57 -109 0 -41 3 -46 43 -70 23
-15 45 -32 49 -38 13 -19 9 -221 -4 -234 -23 -23 -27 -12 -30 71 -3 76 -5 82
-25 85 -23 3 -23 2 -23 -101 l0 -104 -40 -27 c-39 -26 -40 -28 -40 -84 0 -52
-3 -62 -30 -87 l-30 -29 -53 52 -53 52 -144 0 -145 1 -50 -57 -51 -56 -32 33
c-28 29 -32 39 -32 88 0 54 -2 57 -40 84 l-39 28 -3 102 c-3 94 -4 102 -23
102 -18 0 -20 -8 -23 -82 -2 -46 -6 -83 -10 -83 -25 0 -32 30 -32 136 l0 112
45 29 c45 28 48 34 57 109 3 23 107 143 124 144 6 0 31 -20 55 -45z m333 -708
c1 -1 18 -20 39 -43 l37 -40 -34 -37 -34 -37 -145 0 -145 0 -31 36 -32 36 38
43 c28 32 47 43 73 46 36 4 233 1 234 -4z"/>
<path d="M432 688 c-7 -7 -12 -24 -12 -38 0 -41 17 -50 100 -50 62 0 80 4 93
18 22 24 21 45 -1 65 -23 21 -161 24 -180 5z"/>
<path d="M806 684 c-21 -21 -20 -47 2 -67 26 -23 154 -24 176 -1 19 18 21 55
4 72 -19 19 -163 16 -182 -4z"/>
<path d="M1747 912 c-3 -4 -35 -104 -72 -222 -37 -118 -82 -261 -100 -318 -25
-77 -30 -104 -21 -108 7 -3 44 -4 81 -2 l68 3 22 65 22 65 110 3 c124 3 123 4
143 -71 16 -58 31 -66 118 -59 56 4 62 6 56 24 -3 10 -21 69 -39 131 -18 62
-38 126 -44 142 -5 17 -33 103 -61 193 l-51 162 -114 0 c-63 0 -116 -3 -118
-8z m123 -154 c0 -2 16 -50 35 -107 19 -57 32 -107 29 -112 -7 -11 -144 -12
-144 -1 0 5 6 28 14 53 8 24 22 72 33 106 10 35 21 63 26 63 4 0 7 -1 7 -2z"/>
<path d="M2292 593 l3 -328 70 0 70 0 3 328 2 327 -75 0 -75 0 2 -327z"/>
<path d="M2990 848 c-11 -40 -27 -89 -35 -109 -18 -48 -145 -459 -145 -471 0
-14 147 -9 158 5 5 6 16 32 23 57 20 70 19 70 141 70 l109 0 19 -42 c11 -24
20 -51 20 -61 0 -10 12 -22 26 -27 32 -12 131 -13 138 -1 3 5 -14 69 -38 142
-41 126 -103 323 -142 452 l-18 57 -117 0 -117 0 -22 -72z m181 -193 c42 -127
43 -125 -41 -125 -49 0 -70 4 -70 13 0 6 14 57 30 111 17 55 30 102 30 105 0
23 26 -32 51 -104z"/>
<path d="M3587 882 l-37 -38 0 -251 0 -251 47 -41 46 -41 206 2 206 3 3 193 2
192 -75 0 -75 0 0 -125 0 -126 -102 3 -103 3 -3 179 c-2 121 1 183 9 192 8 10
53 14 183 16 l171 3 3 63 3 62 -223 0 -224 0 -37 -38z"/>
<path d="M4220 590 l0 -330 213 2 212 3 3 59 c2 41 -1 62 -10 67 -7 5 -70 9
-140 9 l-128 0 0 65 0 65 115 0 115 0 0 65 0 65 -115 0 -115 0 0 65 0 64 143
3 142 3 0 60 0 60 -217 3 -218 2 0 -330z"/>
<path d="M4790 590 l0 -331 73 3 72 3 0 198 c0 108 3 196 7 195 5 -2 50 -91
101 -198 l93 -195 100 0 99 0 3 328 2 327 -75 0 -75 0 -2 -207 -3 -208 -52
105 c-28 58 -71 150 -96 205 l-45 100 -101 3 -101 3 0 -331z"/>
<path d="M5440 850 l0 -69 93 -3 92 -3 3 -258 2 -258 68 3 67 3 3 255 c2 188
6 256 15 262 6 5 40 6 73 2 97 -10 104 -5 104 72 l0 64 -260 0 -260 0 0 -70z"/>
<path d="M6310 590 l0 -331 173 1 c228 2 217 -1 217 70 0 44 -4 59 -16 64 -9
3 -62 6 -120 6 l-104 0 -2 258 -3 257 -72 3 -73 3 0 -331z"/>
<path d="M6977 913 c-14 -24 -206 -637 -201 -644 8 -14 140 -11 151 3 5 7 18
39 27 71 l18 57 113 0 c78 0 115 -4 122 -12 6 -7 16 -34 23 -60 7 -26 18 -52
25 -58 14 -12 150 -6 150 6 0 10 -21 78 -95 314 -26 85 -60 194 -74 243 l-27
87 -114 0 c-62 0 -116 -3 -118 -7z m146 -231 c14 -43 29 -95 32 -115 l7 -37
-71 0 c-45 0 -71 4 -71 11 0 22 64 219 71 219 4 0 18 -35 32 -78z"/>
<path d="M7528 913 c-2 -5 -3 -152 -3 -328 l0 -320 213 0 214 0 34 37 c34 37
34 39 34 132 0 87 -2 97 -26 125 l-25 31 25 33 c24 31 26 42 26 129 l0 96 -40
36 -40 36 -204 0 c-113 0 -206 -3 -208 -7z m337 -188 l0 -60 -95 0 -95 0 -3
49 c-5 77 -5 77 100 74 l93 -3 0 -60z m-1 -201 c20 -8 22 -82 3 -108 -10 -14
-26 -16 -102 -14 l-90 3 -3 49 c-5 75 -4 76 92 76 46 0 91 -3 100 -6z"/>
</g>
</svg>
