<svg version="1.2" xmlns="http://www.w3.org/2000/svg" viewBox="0 0 698 640" width="698" height="640">
	<title>WX20241107-105157_2x-svg</title>
	<style>
		.s0 { fill: #ffffff } 
	</style>
	<g>
		<path class="s0" d="m463.7 53.3c-0.3 0.8 0.1 1.4 0.9 1.4 0.8 0 1.4-0.6 1.4-1.4 0-0.7-0.4-1.3-0.9-1.3-0.5 0-1.1 0.6-1.4 1.3z"/>
		<path class="s0" d="m459.5 60c-2 3.9-3.8 8.6-3 7.8 1-1 5.5-10.8 5-10.8-0.3 0-1.1 1.3-2 3z"/>
		<path class="s0" d="m537.1 59.9c-1 0.6-1 1-0.1 1.3 0.9 0.3 0.9 1.8 0 6.8-1.4 7.6-0.8 15.2 2.2 27 2.8 11.1 2.9 19.3 0.1 24.5-2.1 4-6.6 8.8-11.3 11.8-1.3 1-2 1.7-1.4 1.7 0.5 0 2.1-0.7 3.4-1.7 13.2-8.7 17.2-21.7 11.5-36.9-4.5-12-5.1-22.6-1.9-33.7 0.6-1.9-0.3-2.2-2.5-0.8z"/>
		<path class="s0" d="m529 65.5c-10.7 9-17.2 22.6-16.9 35.4 0.1 2.5 0.6 1 1.9-5 2.5-12 7.1-21.1 14.1-28.2 3.2-3.1 5.6-5.7 5.4-5.7-0.2 0-2.2 1.6-4.5 3.5z"/>
		<path class="s0" d="m468.6 66c1.7 6.1 8.9 14.1 22.8 25.2 10.4 8.3 12 10.5 12 16.9 0 3.3 0.3 4.5 0.7 3.3 0.4-1.1 0.8-3.9 0.8-6.3 0.1-6.2-2.6-9.7-12.8-16.7-11-7.5-17.6-13.6-21.3-19.9-1.6-2.8-2.6-3.9-2.2-2.5z"/>
		<path class="s0" d="m454.3 72.7c-0.4 2.1-0.8 7.8-0.8 12.8 0 8.5 0.2 9.4 3.8 16.1 2.1 3.9 7.4 11.1 11.8 16 4.3 4.8 7.9 9.1 7.9 9.6 0 1.4-1.3 0.9-3.6-1.3-1.3-1.2-6.1-3.3-10.6-4.7l-8.3-2.5-136.5-0.9c-90.1-0.6-140.1-0.5-147.2 0.1-26.8 2.5-47 12-65.3 30.5-17.6 17.8-27.7 37.9-30.5 60.7-0.9 7.2-1.1 40.2-0.7 128 0.4 103.3 0.7 119.3 2.1 125.3 6.1 26.8 21.1 46.7 44.2 58.8 14.8 7.7 25.2 10.3 47.9 11.6 12 0.8 14.8 1.3 19.6 3.6 6.7 3.1 14.2 10.7 17.1 17.3 6 13.6 1.1 31.2-12.9 46.3-3 3.3-5.2 6-4.7 6 1.7 0 24-15.6 32.8-23 13.9-11.7 26-26.4 33.8-41l3.5-6.5 13.9-0.6c7.6-0.4 44.3-1 81.4-1.3 96.4-1 115.8-1.8 128.8-5.1 28.3-7.2 51.4-23.4 66.7-46.6 5.1-7.7 10.5-18.5 10.5-20.9 0-0.8-1.3 1.2-2.8 4.5-12.4 26-36.4 47-63.7 55.8-18.8 6.1-30.4 6.7-127 6.7-45.6 0-89.4 0.3-97.3 0.7l-14.3 0.6-2.1 4.1c-8.1 16.3-21.7 34.4-36.1 48.3-13 12.4-18.3 15.9-12.2 7.9 6.6-8.6 9.8-22.2 8.1-33.9-1.1-7.1-7.4-16-14.7-20.7-8.3-5.4-11-6-28.4-7-8.2-0.4-18.4-1.6-22.5-2.5-38.7-9.1-64.9-40.7-67.5-81.5-0.3-4.7-0.1-59.4 0.4-121.5 1-122.6 0.9-120.5 6.7-136.7 9.9-27.5 31.9-49 59.1-57.8 5-1.6 11.8-3.4 15-4 14.5-2.7 266.8-3.7 286.8-1.1 16.9 2.2 18.6 2.9 12 5.1-4.1 1.4-6.8 4.5-9.1 10.8-1 2.6-2.5 5.2-3.2 5.8-1.1 0.8 0 1.1 4.4 1.1 6.9 0 10 1.4 17.5 7.8 5.6 4.8 11 8 20.1 11.6 12.9 5.2 32.9 10 41.3 9.8 3.1 0 2.1-0.4-4.7-1.9-21.8-4.6-49.3-16.5-60.5-26.2-4.5-3.9-4.9-4-10-3.4-2.9 0.3-5.3 0.4-5.3 0.2 0-1.9 3.5-9.5 5.2-11.3 4.5-4.9 14.1-5.4 18.7-1.2 2.1 2 2.3 2 4.2 0.3 3.3-3 2.6-4.6-7.9-17.4-2.9-3.6-7.2-10.3-9.5-14.9-4.2-8.4-4.2-8.6-4.2-19.3 0-5.9-0.1-10.8-0.2-10.8-0.1 0-0.6 1.7-1 3.7z"/>
		<path class="s0" d="m551.3 134.4c-6.1 3-17.8 7.3-23.8 9-1.1 0.3 0 0.2 2.5-0.1 2.5-0.3 7.4-1.6 10.9-2.9 3.6-1.4 6.9-2.3 7.4-2.1 0.5 0.1-2.3 2.4-6.3 5-7.8 5.2-7.7 4.7-2.4 10.7 4.5 5.2 11.4 16.5 14.4 23.7 6 14.4 7.2 23.8 7.9 62.8 0.5 30.6 0.7 33.6 1.5 23.5 0.4-6.3 0.6-25.7 0.4-43-0.4-29.3-0.6-32-2.7-39-1.3-4.1-3.6-10-5.1-13-3.3-6.5-11.1-17.1-14.7-19.9-2.3-1.9-2.4-4.1-0.2-4.1 0.6 0 4.1-2 7.7-4.3 6.7-4.4 11-8.3 10-9.2-0.2-0.3-3.6 1.1-7.5 2.9z"/>
		<path fill-rule="evenodd" class="s0" d="m267.3 194.7c0.5 1.7 9.8 23.5 18.7 43.8 5.5 12.6 17.1 40.2 24.6 58.4 7 17 10.2 22.3 14.3 24.1 1.9 0.7 9.3 1 22.9 0.8 18.5-0.3 20.3-0.5 22.9-2.4 4.1-3 7.2-8.1 9-14.6 0.9-3.2 1.9-5.8 2.2-5.8 0.6 0-0.1 7.5-1.7 19.5l-0.7 5-42.5 0.2c-23.4 0-41-0.2-39.2-0.7 4.6-1.1 7.2-3.7 7.2-7.4 0-1.7-1.7-7.2-3.8-12.1-2.1-5-6.9-16.3-10.7-25.3l-6.8-16.2-24.5 0.2-24.4 0.3-9.6 20.2c-5.3 11.2-10 20.3-10.4 20.3-1 0-0.1-2.2 8.2-19.5 12.5-25.9 36.5-76.7 39.6-83.7 3.1-7.1 3.8-7.9 4.7-5.1zm-3.5 21.3l-3.5-7.5-4.9 10.5c-2.7 5.8-8.1 17.2-12 25.5-4 8.2-7 15.3-6.7 15.7 0.2 0.5 10.5 0.8 22.9 0.8 19.1 0 22.4-0.2 22.4-1.5 0-0.8-2.3-6.7-5.1-13.2-2.8-6.5-6.1-14.3-7.4-17.3-1.2-3-3.8-8.9-5.7-13z"/>
		<path class="s0" d="m124.5 198.2c-0.3 2.4-1.2 7.7-2 11.8-2.4 13.6-2.5 14.1-1.5 13.5 0.6-0.3 1-1.2 1-1.9 0-2.1 7.9-17 10.5-19.8 4.8-5.1 7.6-5.9 21.8-6.1l13.2-0.2 0.3 60.3 0.2 60.3-2.9 3c-2.5 2.4-3.8 2.9-8.3 3l-5.3 0.1 4 0.9c5.2 1 42.5 1.1 42.5 0.1 0-0.5-2.5-0.9-5.5-1-6.7-0.2-10.1-2.2-11.5-7.1-0.7-2.4-1-23.2-0.8-61.6l0.3-58 13 0.1c11.3 0 13.5 0.3 17.2 2.2 5.8 3 10.4 9.9 15.3 22.8 0.6 1.5 1.3 2.4 1.6 2.2 0.6-0.7-2.6-23.4-3.7-26.6l-0.9-2.2h-48.9-48.9z"/>
		<path class="s0" d="m302 195.2c2.7 0.5 5.4 1.9 6.8 3.4 2.2 2.6 2.2 2.6 2.2 36.7l-0.1 34.2 3.7 8.5c2 4.7 4.3 10.6 5.2 13.2 0.9 2.7 1.9 4.8 2.4 4.8 0.4 0 0.8-20.9 0.8-46.5 0-50.9 0-51.1 5.7-53.3 1.5-0.6 4.2-1.3 5.8-1.5 1.7-0.2-6-0.4-17-0.4-15-0.1-18.9 0.2-15.5 0.9z"/>
		<path class="s0" d="m385 195.1c2.5 0.5 5.5 2 7 3.4l2.5 2.5v57.9 57.9l-2.4 2.6c-1.4 1.4-3.4 2.6-4.5 2.6-1.2 0-2.8 0.5-3.6 1-1 0.6 5.1 1 18.3 1 12.5 0 19.7-0.4 19.7-1 0-0.6-2-1-4.5-1-3.5 0-5.2-0.6-7.7-2.9l-3.3-2.9-0.3-26.7c-0.3-26.4-0.3-26.6 2-29.5 1.3-1.6 2.8-2.9 3.3-2.9 0.6 0 2.1 1.5 3.5 3.3 7 9.4 23.8 28.5 34.5 39.2 19.2 19.5 28.9 24.4 47.9 24.4 13.1 0 22.1-2 32.3-7 10.4-5.1 18.1-11.4 23.6-19.3 4.1-5.8 7.2-12.5 6.3-13.4-0.2-0.3-1 1.3-1.6 3.4-3.9 11.7-18.4 24.5-34.5 30.4-8.7 3.2-22.7 3.2-31-0.1-7-2.7-17.7-9.9-25.7-17.3-6.7-6.2-22.3-23.4-36.6-40.5l-10.3-12.2 3.3-3.8c1.8-2.2 8-9.2 13.8-15.7 5.8-6.5 13.5-15.5 17.2-20 7.1-8.8 12.7-12.5 18.6-12.5 1.8 0 3.2-0.5 3.2-1 0-0.6-6-1-16.2-0.9-9 0-15.8 0.2-15.3 0.4 0.6 0.2 2.2 0.6 3.7 0.9 6.9 1.5 7.8 7.9 2.1 15.3-8.9 11.8-41.7 47.3-43.6 47.3-0.5 0-0.7-12.8-0.5-28.5l0.3-28.5 2.6-2.5c1.6-1.7 4.3-2.9 7.5-3.4 3.4-0.6-1.5-0.9-15.6-0.9-14.4 0-19.2 0.3-16 0.9z"/>
		<path class="s0" d="m241.2 303.6c0.4 2.1 2.2 2.3 2.6 0.1 0.2-1-0.3-1.7-1.3-1.7-1 0-1.5 0.6-1.3 1.6z"/>
		<path class="s0" d="m263 303.5c0.9 1 1.1 4.5 0.8 11.5-0.3 8.3-0.1 10 1 9.8 1.1-0.2 1.5-2.8 1.6-11.6 0.1-11.2 0.1-11.2-2.3-11.2-2 0-2.1 0.2-1.1 1.5z"/>
		<path class="s0" d="m250.9 308.2c-0.1 0.7 0 4.2 0.1 7.8 0.2 6.7 1.2 9 3.7 9 1.2 0 1.3-0.3 0.4-1.4-0.6-0.8-1.3-4.5-1.5-8.2-0.2-3.8-0.4-7.2-0.5-7.7-0.2-1.2-2.1-0.8-2.2 0.5z"/>
		<path class="s0" d="m211 310.8c0 0.4 0.4 1.2 0.9 1.7 0.5 0.6 1.8 3.5 2.9 6.5 1.1 3 2.6 5.5 3.3 5.5 1.6 0 1.6-0.1-1.3-8.3-1.6-4.4-2.8-6.2-4-6.2-1 0-1.8 0.4-1.8 0.8z"/>
		<path class="s0" d="m233 311c0 0.5 0.7 1 1.5 1 0.8 0 1.5-0.5 1.5-1 0-0.6-0.7-1-1.5-1-0.8 0-1.5 0.4-1.5 1z"/>
		<path class="s0" d="m222 312.4c0 0.8 0.6 2.1 1.4 2.8 0.7 0.8 1.7 2.8 2 4.5 0.9 4.1 3.4 6.3 4.7 4.2 1.1-1.8 1.1-2.9 0-2.9-0.4 0-1.8-2.3-2.9-5-2-4.7-5.2-6.9-5.2-3.6z"/>
		<path class="s0" d="m240.8 318c0.3 5.7 0.7 7 2 7 1.5 0 1.7-1 1.4-7-0.3-5.7-0.7-7-2-7-1.5 0-1.7 1-1.4 7z"/>
		<path class="s0" d="m273.8 318.1c0.3 5.9 0.6 7 2 6.7 1.8-0.4 1.8-0.8 0.7-9.1-1-7.7-3.1-5.9-2.7 2.4z"/>
		<path fill-rule="evenodd" class="s0" d="m332.5 346.1c8 1.1 18.1 4.7 26 9.4 6.7 3.9 16.6 14 20.8 21.2 6.4 11.1 8.9 19.5 9.5 32 0.5 13.3-1.2 22.5-6.3 33.2-8.2 17.1-22.4 29.2-42.2 35.9-19.8 6.8-44.6 5-61.2-4.5-6-3.5-17.7-15.5-21.9-22.6-12.6-21.1-12-49 1.6-70.7 10.8-17.4 32.6-31.2 53.4-33.9 9.2-1.2 11.8-1.2 20.3 0zm-71.1 45c-2.1 7.8-2.3 26-0.5 34.2 2.9 13.4 10 25.9 20.2 35.7 10.2 9.9 21 15.1 35.9 17.2 19.8 2.9 42.9-8 52.4-24.8 5.5-9.7 7.8-18 8.3-30.4 0.5-9.8 0.2-13-1.7-20.5-6.3-25.3-24.8-45.2-48-51.4-29.6-8-58.7 9.4-66.6 40z"/>
		<path class="s0" d="m183.4 348c-20.3 3-40.5 17.1-49.7 34.7-10.2 19.5-10.4 45.1-0.5 64.7 3.7 7.4 5.2 9.3 12.9 17.2 7.1 7.3 15 11.6 26.9 14.5 16 4 40.3 1.2 55.7-6.4l4.4-2.2 0.2-23.5c0.2-27.8 0.4-28.2 10.2-30.3 1.1-0.3-7.4-0.5-19-0.5-14.1 0-19.2 0.3-15.6 0.8 4.1 0.6 6.1 1.6 8.5 3.9l3.1 3.1v25.3 25.2l-6.5 1.8c-13.6 3.8-31.4 2-42.6-4.4-19.9-11.3-31.4-33.4-31.4-60.3 0-11.4 1.3-19 4.7-28.1 10.1-26.9 35-40.3 58.6-31.5 10.1 3.8 19.4 16.1 21.3 28.1 0.4 2.2 1 4.2 1.5 4.5 1.2 0.7 14.9-6.4 14.9-7.7 0-1.7-9.9-13.1-14.8-17-11.2-9-29-14-42.8-11.9z"/>
		<path fill-rule="evenodd" class="s0" d="m423.8 350.4c37.1 0.4 41 0.9 54.9 7.6 11.4 5.6 21.5 15.4 26.6 26 5.4 11 7.3 23.4 5.7 36-3.4 26.7-17.5 44.4-42.2 53.2-10.8 3.8-23.2 4.7-54.8 3.8-14-0.3-23.1-0.7-20.2-0.8 4.4-0.2 5.9-0.7 8.1-3l2.8-2.7 0.6-27.4c0.9-36.8 0.8-76.6-0.2-81.9-1.2-6.2-4.4-9.2-9.8-9.2-2.4 0-4.3-0.5-4.3-1 0-0.7 11.3-0.9 32.8-0.6zm9.7 1.6h-15.5v116.2l2.8 2.8c1.6 1.5 4.6 3.3 6.8 3.9 5.1 1.4 20.8 1.4 27.6 0 18.8-3.9 33.1-18.9 38.9-40.6 2.8-10.5 3.1-30.9 0.5-40.2-5.8-21.2-21.4-37-40.4-41-2.9-0.6-12.3-1.1-20.7-1.1z"/>
	</g>
</svg>