<?xml version="1.0" encoding="utf-8"?>

<svg className="fill-blue-500" version="1.1" xmlns="http://www.w3.org/2000/svg" xmlns:xlink="http://www.w3.org/1999/xlink" x="0px" y="0px" viewBox="0 0 256 256" enable-background="new 0 0 256 256" xml:space="preserve">

<g><g><path d="M187,10H69c-32.6,0-59,26.4-59,59v118c0,32.6,26.4,59,59,59h118c32.6,0,59-26.4,59-59V69C246,36.4,219.6,10,187,10z M112.8,147.3c-1.5,8.3-7.7,25.1-32.7,24.9c-33.2-0.2-40.5-23.7-40.5-51.7S46.8,68.7,80,69c18.9,0.2,27,9.7,30.5,17.9c2.7,6.2,2.4,8.2,2.4,8.2c0.2,1.9-1.2,3.5-3.4,3.5h-7.3c-2.1,0-3.9-1.8-4.4-3.7c0,0,0.6,0.9-0.9-2.3c-2-4.1-6.5-8.8-17-8.9c-14.6-0.1-25.7,8.9-25.7,36.8c0,28,7.2,36.8,25.7,36.9c12.1,0.1,17-7.8,17.7-10.7c0.1-0.3,0.1-0.3,0.1-0.5l0,0c0,0,0.5-1.7,0,0c0.3-2,2.2-3.6,4.3-3.6h7.3c2.1,0,3.6,1.5,3.4,3.6C112.9,146.3,113.3,144.6,112.8,147.3z M216.5,168.6c0,2-1.6,3.7-3.7,3.7h-7.3c-2,0-4.5-1.3-5.6-3.3l-42.4-74.1l0,73.7c0,2.1-1.6,3.8-3.7,3.8h-7.3c-2,0-3.7-1.8-3.7-3.7V72.7c0-2,1.6-3.7,3.7-3.7h7.3c2,0,4.5,1.3,5.6,3.3l42.3,74.1V72.7c0-2.1,1.6-3.7,3.7-3.7h7.3c2,0,3.7,1.8,3.7,3.7L216.5,168.6L216.5,168.6z"/></g></g>
</svg>