<svg class="fill-blue-500" version="1.1" xmlns="http://www.w3.org/2000/svg" xmlns:xlink="http://www.w3.org/1999/xlink" x="0px" y="0px" viewBox="0 0 256 256"  xml:space="preserve">
<g><g><g><path d="M28.9,10.8c-9,2.1-16,9.2-18.2,18.3c-0.6,2.6-0.7,16.1-0.7,98.7c0,62.7,0.1,96.5,0.5,98.2c1.8,9.3,9.2,17,18.6,19.2c4.6,1.1,193.1,1.1,197.7,0c9.2-2.2,16.2-9.2,18.4-18.4c1.1-4.6,1.1-193.1,0-197.7c-2.2-9.4-9.9-16.9-19.2-18.6c-1.7-0.3-35.5-0.5-98.5-0.4C47.6,10.1,31.3,10.2,28.9,10.8z M104.6,89.6v8l-3,0.3c-1.7,0.1-9,0.2-16.2,0.1L72.2,98L72,108.8l-0.1,10.9H87h15.1v8v8H87H71.9v11c0,8.4,0.1,11,0.6,11c0.3,0,8.1,0.1,17.4,0.1l16.8,0.1v8v8H79.5H52.2L52,128.4c0-25.1,0-45.9,0.1-46.2c0.1-0.4,5.9-0.6,26.3-0.6h26.1L104.6,89.6L104.6,89.6z M162,110.6c10.3,15.8,19.7,30.4,21,32.5l2.3,3.7l-0.1-32.6l-0.1-32.6l9.4,0.1l9.4,0.1v46.1V174l-10,0.1l-10,0.1l-20.6-31.5c-11.4-17.4-21.1-32.4-21.7-33.4l-1.1-1.8v33.2V174h-9.3h-9.3l-0.1-45.6c0-25.1,0-45.9,0.1-46.2c0.1-0.5,2.6-0.6,10.8-0.5l10.6,0.1L162,110.6z"/></g></g></g>
</svg>