<svg width="244" height="244" viewBox="0 0 244 244" fill="none" xmlns="http://www.w3.org/2000/svg">
<g clip-path="url(#clip0_3809_174)">
<path d="M22.9149 7.05365C26.2452 5.03025 29.7151 3.44332 33.3667 2.26472C35.393 1.61067 37.4597 1.11246 39.5556 0.700785C42.232 0.175015 44.918 -0.000569482 47.6358 1.38678e-06C97.462 0.00856442 147.288 0.00546537 197.114 0.00913524C198.579 0.00929835 200.027 0.187817 201.48 0.381749C204.547 0.790899 207.526 1.54053 210.436 2.54771C213.05 3.45245 215.578 4.55961 218.012 5.89903C220.736 7.39797 223.287 9.12827 225.703 11.0703C227.489 12.5061 229.152 14.0813 230.684 15.7734C232.884 18.2028 234.939 20.7534 236.647 23.5658C238.996 27.4346 240.886 31.5018 242.073 35.8747C242.517 37.5128 242.933 39.1604 243.293 40.8187C243.498 41.7632 243.551 42.7397 243.697 43.6982C244.154 46.6943 243.958 49.7103 243.959 52.7173C243.971 100.856 243.971 148.995 243.95 197.134C243.949 198.529 243.695 199.925 243.544 201.318C243.157 204.884 242.161 208.301 240.936 211.654C239.74 214.925 238.174 218.017 236.309 220.967C233.465 225.464 229.951 229.368 225.883 232.783C223.508 234.776 220.939 236.497 218.219 238.002C215.432 239.545 212.521 240.797 209.499 241.78C207.529 242.421 205.529 242.983 203.467 243.282C202.188 243.468 200.921 243.737 199.64 243.904C198.887 244.002 198.118 243.997 197.355 243.997C146.765 244.001 96.1749 244.002 45.5847 243.994C44.2048 243.994 42.8372 243.805 41.4659 243.623C38.4022 243.216 35.4287 242.459 32.5185 241.462C28.9437 240.237 25.5523 238.618 22.3578 236.589C20.4288 235.364 18.6196 233.994 16.8555 232.544C13.7291 229.974 10.982 227.059 8.5869 223.815C6.48476 220.969 4.71181 217.93 3.26118 214.693C1.84879 211.542 0.758297 208.294 0.0267188 204.93C-0.316065 203.354 -0.565845 201.752 -0.750213 200.149C-0.907647 198.781 -0.973715 197.396 -0.97396 196.018C-0.984685 146.819 -0.974369 97.6199 -0.999994 48.4209C-1.00196 44.6334 -0.517298 40.934 0.438845 37.2886C1.72582 32.3824 3.67134 27.7485 6.38701 23.4477C7.67603 21.4063 9.05945 19.4342 10.6804 17.6352C11.495 16.7312 12.2601 15.7799 13.1105 14.9113C15.9874 11.973 19.1549 9.38671 22.6687 7.23168C22.738 7.18928 22.8004 7.13594 22.9149 7.05365Z" fill="#D75A41"/>
<path d="M140.55 86.584C127.206 86.584 116.351 97.4992 116.351 110.918C116.351 124.336 127.206 135.25 140.55 135.25C153.893 135.25 164.75 124.335 164.75 110.918C164.75 97.5006 153.892 86.584 140.55 86.584ZM140.55 126.126C132.21 126.126 125.425 119.302 125.425 110.918C125.425 102.533 132.21 95.7095 140.55 95.7095C148.89 95.7095 155.674 102.532 155.674 110.918C155.674 119.304 148.891 126.126 140.55 126.126Z" fill="white"/>
<path d="M107.139 86.6782C106.313 86.5851 105.482 86.5358 104.651 86.5303C104.237 86.5303 103.841 86.5426 103.435 86.5494C103.029 86.5563 102.626 86.5946 102.222 86.6193C100.592 86.748 98.9779 87.0287 97.3996 87.456C94.2278 88.3173 91.1705 89.8154 88.5272 91.9434C85.8443 94.0933 83.6954 96.8389 82.2477 99.9665C81.5259 101.525 80.9935 103.165 80.6612 104.851C80.4964 105.684 80.3752 106.524 80.2989 107.371C80.2717 107.791 80.224 108.213 80.2186 108.632L80.2036 109.26L80.1968 109.575V109.836L80.2172 117.985L80.2376 126.134L80.2935 134.282H89.3688L89.426 126.134L89.4464 117.983L89.4668 109.834V109.585L89.4736 109.391L89.4845 109C89.4845 108.739 89.5227 108.487 89.5377 108.228C89.5867 107.721 89.6616 107.217 89.7624 106.719C89.9612 105.738 90.2717 104.784 90.6857 103.875C91.5205 102.051 92.7666 100.449 94.3259 99.1928C95.9002 97.9166 97.7863 96.9635 99.825 96.3966C100.856 96.1131 101.911 95.9255 102.976 95.8379C103.246 95.8228 103.514 95.7968 103.785 95.7872C104.056 95.7776 104.333 95.7694 104.596 95.7708C105.117 95.7708 105.631 95.805 106.151 95.8529C108.218 96.0625 110.221 96.7006 112.031 97.7262L116.561 89.8168C113.667 88.1256 110.46 87.0589 107.139 86.6782Z" fill="white"/>
<path d="M49.1999 86.4619C35.8552 86.4619 25 97.3772 25 110.794C25 124.211 35.8552 135.128 49.1999 135.128H57.1585V126.002H49.1999C40.86 126.002 34.0753 119.18 34.0753 110.794C34.0753 102.408 40.86 95.586 49.1999 95.586C57.5399 95.586 64.36 102.408 64.36 110.794V133.204C64.36 141.535 57.6134 148.32 49.3484 148.408C45.3936 148.375 41.6117 146.777 38.8227 143.958L32.4057 150.41C36.8535 154.906 42.8796 157.464 49.185 157.532V157.536C49.2394 157.536 49.2939 157.536 49.347 157.536H49.5172V157.532C62.6713 157.353 73.3222 146.57 73.3835 133.314L73.3917 110.197C73.0758 97.0567 62.3444 86.4619 49.1999 86.4619Z" fill="white"/>
<path d="M193.982 86.584C180.638 86.584 169.783 97.4992 169.783 110.918C169.783 124.336 180.638 135.25 193.982 135.25H202.262V126.126H193.982C185.642 126.126 178.857 119.302 178.857 110.918C178.857 102.533 185.642 95.7095 193.982 95.7095C201.879 95.7095 208.379 101.828 209.046 109.599H209.033V156.322H218.108V110.918C218.105 97.4992 207.325 86.584 193.982 86.584Z" fill="white"/>
<path d="M231.977 87.8203H230.683L228.918 90.5769L227.096 87.8203H225.79V92.7281H227.249V90.34L228.542 92.268H229.248L230.518 90.2797L230.542 92.7281H232L231.977 87.8203Z" fill="white"/>
<path d="M220.45 88.9925H222.038V92.7281H223.638V88.9925H225.237V87.8203H220.45V88.9925Z" fill="white"/>
</g>
<defs>
<clipPath id="clip0_3809_174">
<rect width="244" height="244" fill="white"/>
</clipPath>
</defs>
</svg>
