<svg width="64" height="64" viewBox="0 0 64 64" fill="none" xmlns="http://www.w3.org/2000/svg">
<rect width="64" height="64" rx="8" fill="white" fill-opacity="0.05"/>
<rect x="0.5" y="0.5" width="63" height="63" rx="7.5" stroke="white" stroke-opacity="0.1"/>
<g clip-path="url(#clip0_13_842)">
<path d="M32 48C40.8366 48 48 40.8366 48 32C48 23.1634 40.8366 16 32 16C23.1634 16 16 23.1634 16 32C16 40.8366 23.1634 48 32 48Z" fill="#13AA52"/>
<path d="M36.2769 30.045C35.2663 25.5847 32.8778 24.1181 32.6206 23.5578C32.3394 23.1625 32.0544 22.4594 32.0544 22.4594C32.0497 22.4475 32.0422 22.4266 32.0335 22.4062C32.0044 22.8016 31.9894 22.9541 31.6156 23.3528C31.0369 23.8053 28.0675 26.2969 27.826 31.3644C27.6006 36.0906 31.24 38.9069 31.7322 39.2659L31.7881 39.3056V39.3022C31.7913 39.3259 31.9444 40.4272 32.0519 41.5941H32.4375C32.528 40.7692 32.6636 39.95 32.8438 39.14L32.875 39.1197C33.0952 38.9618 33.3051 38.7901 33.5035 38.6056L33.526 38.5853C34.5722 37.6187 36.4531 35.3831 36.4347 31.8188C36.4308 31.2242 36.378 30.6309 36.2769 30.045ZM32.011 36.5975C32.011 36.5975 32.011 29.9688 32.2297 29.97C32.4003 29.97 32.6213 38.5203 32.6213 38.5203C32.3175 38.4838 32.011 37.1131 32.011 36.5975Z" fill="white"/>
</g>
<defs>
<clipPath id="clip0_13_842">
<rect width="32" height="32" fill="white" transform="translate(16 16)"/>
</clipPath>
</defs>
</svg>
