<svg width="92" height="92" viewBox="0 0 92 92" fill="none" xmlns="http://www.w3.org/2000/svg">
<rect width="92" height="92" rx="8" fill="white" fill-opacity="0.05"/>
<rect x="0.5" y="0.5" width="91" height="91" rx="7.5" stroke="white" stroke-opacity="0.1"/>
<path d="M20.2167 43.2443C20.2167 42.5943 20.75 42.3443 21.6333 42.3443C22.9 42.3443 24.5 42.7276 25.7667 43.4109V39.4943C24.3833 38.9443 23.0167 38.7276 21.6333 38.7276C18.25 38.7276 16 40.4943 16 43.4443C16 48.0443 22.3333 47.3109 22.3333 49.2943C22.3333 50.0609 21.6667 50.3109 20.7333 50.3109C19.35 50.3109 17.5833 49.7443 16.1833 48.9776V52.9443C17.7333 53.6109 19.3 53.8943 20.7333 53.8943C24.2 53.8943 26.5833 52.1776 26.5833 49.1943C26.5667 44.2276 20.2167 45.1109 20.2167 43.2443ZM31.4833 35.3943L27.4167 36.2609L27.4 49.6109C27.4 52.0776 29.25 53.8943 31.7167 53.8943C33.0833 53.8943 34.0833 53.6443 34.6333 53.3443V49.9609C34.1 50.1776 31.4667 50.9443 31.4667 48.4776V42.5609H34.6333V39.0109H31.4667L31.4833 35.3943ZM39.8167 40.2443L39.55 39.0109H35.95V53.5943H40.1167V43.7109C41.1 42.4276 42.7667 42.6609 43.2833 42.8443V39.0109C42.75 38.8109 40.8 38.4443 39.8167 40.2443ZM44.3 39.0109H48.4833V53.5943H44.3V39.0109ZM44.3 37.7443L48.4833 36.8443V33.4609L44.3 34.3443V37.7443ZM57.1833 38.7276C55.55 38.7276 54.5 39.4943 53.9167 40.0276L53.7 38.9943H50.0333V58.4276L54.2 57.5443L54.2167 52.8276C54.8167 53.2609 55.7 53.8776 57.1667 53.8776C60.15 53.8776 62.8667 51.4776 62.8667 46.1943C62.85 41.3609 60.1 38.7276 57.1833 38.7276ZM56.1833 50.2109C55.2 50.2109 54.6167 49.8609 54.2167 49.4276L54.2 43.2443C54.6333 42.7609 55.2333 42.4276 56.1833 42.4276C57.7 42.4276 58.75 44.1276 58.75 46.3109C58.75 48.5443 57.7167 50.2109 56.1833 50.2109ZM76 46.3609C76 42.0943 73.9333 38.7276 69.9833 38.7276C66.0167 38.7276 63.6167 42.0943 63.6167 46.3276C63.6167 51.3443 66.45 53.8776 70.5167 53.8776C72.5 53.8776 74 53.4276 75.1333 52.7943V49.4609C74 50.0276 72.7 50.3776 71.05 50.3776C69.4333 50.3776 68 49.8109 67.8167 47.8443H75.9667C75.9667 47.6276 76 46.7609 76 46.3609ZM67.7667 44.7776C67.7667 42.8943 68.9167 42.1109 69.9667 42.1109C70.9833 42.1109 72.0667 42.8943 72.0667 44.7776H67.7667Z" fill="#6772E5"/>
</svg>
