<svg width="144" height="28" viewBox="0 0 144 28" fill="none" xmlns="http://www.w3.org/2000/svg">
<path d="M12 0.5H132C138.351 0.5 143.5 5.64873 143.5 12V16C143.5 22.3513 138.351 27.5 132 27.5H2C1.17157 27.5 0.5 26.8284 0.5 26V12C0.5 5.64873 5.64873 0.5 12 0.5Z" fill="url(#paint0_linear_13_825)"/>
<path d="M12 0.5H132C138.351 0.5 143.5 5.64873 143.5 12V16C143.5 22.3513 138.351 27.5 132 27.5H2C1.17157 27.5 0.5 26.8284 0.5 26V12C0.5 5.64873 5.64873 0.5 12 0.5Z" stroke="url(#paint1_linear_13_825)"/>
<path d="M12.9588 18V9.27273H14.2756V16.8665H18.2301V18H12.9588ZM21.5348 18.1449C21.12 18.1449 20.745 18.0682 20.4098 17.9148C20.0746 17.7585 19.8089 17.5327 19.6129 17.2372C19.4197 16.9418 19.3232 16.5795 19.3232 16.1506C19.3232 15.7812 19.3942 15.4773 19.5362 15.2386C19.6783 15 19.87 14.8111 20.1115 14.6719C20.353 14.5327 20.6229 14.4276 20.9212 14.3565C21.2195 14.2855 21.5234 14.2315 21.8331 14.1946C22.2251 14.1491 22.5433 14.1122 22.7876 14.0838C23.032 14.0526 23.2095 14.0028 23.3203 13.9347C23.4311 13.8665 23.4865 13.7557 23.4865 13.6023V13.5724C23.4865 13.2003 23.3814 12.9119 23.1712 12.7074C22.9638 12.5028 22.6541 12.4006 22.2422 12.4006C21.8132 12.4006 21.4751 12.4957 21.228 12.6861C20.9837 12.8736 20.8146 13.0824 20.7209 13.3125L19.5234 13.0398C19.6655 12.642 19.8729 12.321 20.1456 12.0767C20.4212 11.8295 20.7379 11.6506 21.0959 11.5398C21.4538 11.4261 21.8303 11.3693 22.2251 11.3693C22.4865 11.3693 22.7635 11.4006 23.0561 11.4631C23.3516 11.5227 23.6271 11.6335 23.8828 11.7955C24.1413 11.9574 24.353 12.1889 24.5178 12.4901C24.6825 12.7884 24.7649 13.1761 24.7649 13.6534V18H23.5206V17.1051H23.4695C23.3871 17.2699 23.2635 17.4318 23.0987 17.5909C22.9339 17.75 22.7223 17.8821 22.4638 17.9872C22.2053 18.0923 21.8956 18.1449 21.5348 18.1449ZM21.8118 17.1222C22.1641 17.1222 22.4652 17.0526 22.7152 16.9134C22.968 16.7741 23.1598 16.5923 23.2905 16.3679C23.424 16.1406 23.4908 15.8977 23.4908 15.6392V14.7955C23.4453 14.8409 23.3572 14.8835 23.2266 14.9233C23.0987 14.9602 22.9524 14.9929 22.7876 15.0213C22.6229 15.0469 22.4624 15.071 22.3061 15.0938C22.1499 15.1136 22.0192 15.1307 21.9141 15.1449C21.6669 15.1761 21.4411 15.2287 21.2365 15.3026C21.0348 15.3764 20.8729 15.483 20.7507 15.6222C20.6314 15.7585 20.5717 15.9403 20.5717 16.1676C20.5717 16.483 20.6882 16.7216 20.9212 16.8835C21.1541 17.0426 21.451 17.1222 21.8118 17.1222ZM30.6083 15.2855V11.4545H31.8867V18H30.6339V16.8665H30.5657C30.4151 17.2159 30.1737 17.5071 29.8413 17.7401C29.5117 17.9702 29.1012 18.0852 28.6097 18.0852C28.1893 18.0852 27.8171 17.9929 27.4933 17.8082C27.1722 17.6207 26.9194 17.3438 26.7347 16.9773C26.5529 16.6108 26.462 16.1577 26.462 15.6179V11.4545H27.7362V15.4645C27.7362 15.9105 27.8597 16.2656 28.1069 16.5298C28.354 16.794 28.6751 16.9261 29.07 16.9261C29.3086 16.9261 29.5458 16.8665 29.7816 16.7472C30.0202 16.6278 30.2177 16.4474 30.3739 16.206C30.533 15.9645 30.6112 15.6577 30.6083 15.2855ZM34.8729 14.1136V18H33.5987V11.4545H34.8217V12.5199H34.9027C35.0533 12.1733 35.2891 11.8949 35.6101 11.6847C35.9339 11.4744 36.3416 11.3693 36.8331 11.3693C37.2791 11.3693 37.6697 11.4631 38.005 11.6506C38.3402 11.8352 38.6001 12.1108 38.7848 12.4773C38.9695 12.8437 39.0618 13.2969 39.0618 13.8366V18H37.7876V13.9901C37.7876 13.5156 37.6641 13.1449 37.4169 12.8778C37.1697 12.608 36.8303 12.473 36.3984 12.473C36.103 12.473 35.8402 12.5369 35.6101 12.6648C35.3828 12.7926 35.2024 12.9801 35.0689 13.2273C34.9382 13.4716 34.8729 13.767 34.8729 14.1136ZM43.5277 18.1321C42.8942 18.1321 42.3487 17.9886 41.8913 17.7017C41.4368 17.4119 41.0874 17.0128 40.843 16.5043C40.5987 15.9957 40.4766 15.4134 40.4766 14.7571C40.4766 14.0923 40.6016 13.5057 40.8516 12.9972C41.1016 12.4858 41.4538 12.0866 41.9084 11.7997C42.3629 11.5128 42.8984 11.3693 43.5149 11.3693C44.0121 11.3693 44.4553 11.4616 44.8445 11.6463C45.2337 11.8281 45.5476 12.0838 45.7862 12.4134C46.0277 12.7429 46.1712 13.1278 46.2166 13.5682H44.9766C44.9084 13.2614 44.7521 12.9972 44.5078 12.7756C44.2663 12.554 43.9425 12.4432 43.5362 12.4432C43.1811 12.4432 42.87 12.5369 42.603 12.7244C42.3388 12.9091 42.1328 13.1733 41.9851 13.517C41.8374 13.858 41.7635 14.2614 41.7635 14.7273C41.7635 15.2045 41.8359 15.6165 41.9808 15.9631C42.1257 16.3097 42.3303 16.5781 42.5945 16.7685C42.8615 16.9588 43.1754 17.054 43.5362 17.054C43.7777 17.054 43.9964 17.0099 44.1925 16.9219C44.3913 16.831 44.5575 16.7017 44.6911 16.5341C44.8274 16.3665 44.9226 16.1648 44.9766 15.929H46.2166C46.1712 16.3523 46.0334 16.7301 45.8033 17.0625C45.5732 17.3949 45.2649 17.6562 44.8786 17.8466C44.495 18.0369 44.0447 18.1321 43.5277 18.1321ZM48.8533 14.1136V18H47.5792V9.27273H48.8363V12.5199H48.9173C49.0707 12.1676 49.305 11.8878 49.6204 11.6804C49.9357 11.473 50.3477 11.3693 50.8562 11.3693C51.305 11.3693 51.6971 11.4616 52.0323 11.6463C52.3704 11.831 52.6317 12.1065 52.8164 12.473C53.0039 12.8366 53.0977 13.2912 53.0977 13.8366V18H51.8235V13.9901C51.8235 13.5099 51.6999 13.1378 51.4528 12.8736C51.2056 12.6065 50.8619 12.473 50.4215 12.473C50.1204 12.473 49.8505 12.5369 49.6119 12.6648C49.3761 12.7926 49.19 12.9801 49.0536 13.2273C48.9201 13.4716 48.8533 13.767 48.8533 14.1136ZM57.4027 9.27273H58.8984L61.1783 13.2401H61.272L63.5518 9.27273H65.0476L61.8814 14.5739V18H60.5689V14.5739L57.4027 9.27273ZM67.8675 18.1321C67.2539 18.1321 66.7184 17.9915 66.261 17.7102C65.8036 17.429 65.4485 17.0355 65.1957 16.5298C64.9428 16.0241 64.8164 15.4332 64.8164 14.7571C64.8164 14.0781 64.9428 13.4844 65.1957 12.9759C65.4485 12.4673 65.8036 12.0724 66.261 11.7912C66.7184 11.5099 67.2539 11.3693 67.8675 11.3693C68.4812 11.3693 69.0167 11.5099 69.4741 11.7912C69.9315 12.0724 70.2866 12.4673 70.5394 12.9759C70.7923 13.4844 70.9187 14.0781 70.9187 14.7571C70.9187 15.4332 70.7923 16.0241 70.5394 16.5298C70.2866 17.0355 69.9315 17.429 69.4741 17.7102C69.0167 17.9915 68.4812 18.1321 67.8675 18.1321ZM67.8718 17.0625C68.2695 17.0625 68.5991 16.9574 68.8604 16.7472C69.1218 16.5369 69.315 16.2571 69.44 15.9077C69.5678 15.5582 69.6317 15.1733 69.6317 14.7528C69.6317 14.3352 69.5678 13.9517 69.44 13.6023C69.315 13.25 69.1218 12.9673 68.8604 12.7543C68.5991 12.5412 68.2695 12.4347 67.8718 12.4347C67.4712 12.4347 67.1388 12.5412 66.8746 12.7543C66.6133 12.9673 66.4187 13.25 66.2908 13.6023C66.1658 13.9517 66.1033 14.3352 66.1033 14.7528C66.1033 15.1733 66.1658 15.5582 66.2908 15.9077C66.4187 16.2571 66.6133 16.5369 66.8746 16.7472C67.1388 16.9574 67.4712 17.0625 67.8718 17.0625ZM76.4872 15.2855V11.4545H77.7656V18H76.5128V16.8665H76.4446C76.294 17.2159 76.0526 17.5071 75.7202 17.7401C75.3906 17.9702 74.9801 18.0852 74.4886 18.0852C74.0682 18.0852 73.696 17.9929 73.3722 17.8082C73.0511 17.6207 72.7983 17.3438 72.6136 16.9773C72.4318 16.6108 72.3409 16.1577 72.3409 15.6179V11.4545H73.6151V15.4645C73.6151 15.9105 73.7386 16.2656 73.9858 16.5298C74.233 16.794 74.554 16.9261 74.9489 16.9261C75.1875 16.9261 75.4247 16.8665 75.6605 16.7472C75.8991 16.6278 76.0966 16.4474 76.2528 16.206C76.4119 15.9645 76.4901 15.6577 76.4872 15.2855ZM79.4776 18V11.4545H80.7092V12.4943H80.7773C80.8967 12.142 81.1069 11.8651 81.408 11.6634C81.712 11.4588 82.0558 11.3565 82.4393 11.3565C82.5188 11.3565 82.6126 11.3594 82.7205 11.3651C82.8313 11.3707 82.918 11.3778 82.9805 11.3864V12.6051C82.9293 12.5909 82.8384 12.5753 82.7077 12.5582C82.5771 12.5384 82.4464 12.5284 82.3157 12.5284C82.0146 12.5284 81.7461 12.5923 81.5103 12.7202C81.2773 12.8452 81.0927 13.0199 80.9563 13.2443C80.82 13.4659 80.7518 13.7187 80.7518 14.0028V18H79.4776ZM87.3612 9.27273H88.9592L91.7376 16.0568H91.8398L94.6183 9.27273H96.2163V18H94.9634V11.6847H94.8825L92.3086 17.9872H91.2688L88.695 11.6804H88.614V18H87.3612V9.27273ZM99.9332 18.1449C99.5185 18.1449 99.1435 18.0682 98.8082 17.9148C98.473 17.7585 98.2074 17.5327 98.0114 17.2372C97.8182 16.9418 97.7216 16.5795 97.7216 16.1506C97.7216 15.7812 97.7926 15.4773 97.9347 15.2386C98.0767 15 98.2685 14.8111 98.5099 14.6719C98.7514 14.5327 99.0213 14.4276 99.3196 14.3565C99.6179 14.2855 99.9219 14.2315 100.232 14.1946C100.624 14.1491 100.942 14.1122 101.186 14.0838C101.43 14.0526 101.608 14.0028 101.719 13.9347C101.83 13.8665 101.885 13.7557 101.885 13.6023V13.5724C101.885 13.2003 101.78 12.9119 101.57 12.7074C101.362 12.5028 101.053 12.4006 100.641 12.4006C100.212 12.4006 99.8736 12.4957 99.6264 12.6861C99.3821 12.8736 99.2131 13.0824 99.1193 13.3125L97.9219 13.0398C98.0639 12.642 98.2713 12.321 98.544 12.0767C98.8196 11.8295 99.1364 11.6506 99.4943 11.5398C99.8523 11.4261 100.229 11.3693 100.624 11.3693C100.885 11.3693 101.162 11.4006 101.455 11.4631C101.75 11.5227 102.026 11.6335 102.281 11.7955C102.54 11.9574 102.751 12.1889 102.916 12.4901C103.081 12.7884 103.163 13.1761 103.163 13.6534V18H101.919V17.1051H101.868C101.786 17.2699 101.662 17.4318 101.497 17.5909C101.332 17.75 101.121 17.8821 100.862 17.9872C100.604 18.0923 100.294 18.1449 99.9332 18.1449ZM100.21 17.1222C100.563 17.1222 100.864 17.0526 101.114 16.9134C101.366 16.7741 101.558 16.5923 101.689 16.3679C101.822 16.1406 101.889 15.8977 101.889 15.6392V14.7955C101.844 14.8409 101.756 14.8835 101.625 14.9233C101.497 14.9602 101.351 14.9929 101.186 15.0213C101.021 15.0469 100.861 15.071 100.705 15.0938C100.548 15.1136 100.418 15.1307 100.312 15.1449C100.065 15.1761 99.8395 15.2287 99.6349 15.3026C99.4332 15.3764 99.2713 15.483 99.1491 15.6222C99.0298 15.7585 98.9702 15.9403 98.9702 16.1676C98.9702 16.483 99.0866 16.7216 99.3196 16.8835C99.5526 17.0426 99.8494 17.1222 100.21 17.1222ZM107.605 20.5909C107.085 20.5909 106.637 20.5227 106.262 20.3864C105.89 20.25 105.586 20.0696 105.35 19.8452C105.115 19.6207 104.939 19.375 104.822 19.108L105.917 18.6562C105.994 18.7812 106.096 18.9134 106.224 19.0526C106.355 19.1946 106.531 19.3153 106.752 19.4148C106.977 19.5142 107.265 19.5639 107.618 19.5639C108.1 19.5639 108.5 19.446 108.815 19.2102C109.13 18.9773 109.288 18.6051 109.288 18.0938V16.8068H109.207C109.13 16.946 109.02 17.1009 108.875 17.2713C108.733 17.4418 108.537 17.5895 108.287 17.7145C108.037 17.8395 107.711 17.902 107.311 17.902C106.794 17.902 106.328 17.7812 105.913 17.5398C105.501 17.2955 105.174 16.9361 104.933 16.4616C104.694 15.9844 104.575 15.3977 104.575 14.7017C104.575 14.0057 104.693 13.4091 104.929 12.9119C105.167 12.4148 105.494 12.0341 105.909 11.7699C106.324 11.5028 106.794 11.3693 107.319 11.3693C107.725 11.3693 108.054 11.4375 108.304 11.5739C108.554 11.7074 108.748 11.8636 108.887 12.0426C109.029 12.2216 109.139 12.3793 109.216 12.5156H109.309V11.4545H110.558V18.1449C110.558 18.7074 110.427 19.169 110.166 19.5298C109.904 19.8906 109.551 20.1577 109.105 20.331C108.662 20.5043 108.162 20.5909 107.605 20.5909ZM107.592 16.8452C107.958 16.8452 108.268 16.7599 108.521 16.5895C108.777 16.4162 108.97 16.169 109.1 15.848C109.234 15.5241 109.301 15.1364 109.301 14.6847C109.301 14.2443 109.235 13.8565 109.105 13.5213C108.974 13.1861 108.782 12.9247 108.529 12.7372C108.277 12.5469 107.964 12.4517 107.592 12.4517C107.208 12.4517 106.889 12.5511 106.633 12.75C106.377 12.946 106.184 13.2131 106.054 13.5511C105.926 13.8892 105.862 14.267 105.862 14.6847C105.862 15.1136 105.927 15.4901 106.058 15.8139C106.189 16.1378 106.382 16.3906 106.637 16.5724C106.896 16.7543 107.214 16.8452 107.592 16.8452ZM112.267 18V11.4545H113.541V18H112.267ZM112.91 10.4446C112.689 10.4446 112.498 10.3707 112.339 10.223C112.183 10.0724 112.105 9.89347 112.105 9.68608C112.105 9.47585 112.183 9.29687 112.339 9.14915C112.498 8.99858 112.689 8.9233 112.91 8.9233C113.132 8.9233 113.321 8.99858 113.477 9.14915C113.636 9.29687 113.716 9.47585 113.716 9.68608C113.716 9.89347 113.636 10.0724 113.477 10.223C113.321 10.3707 113.132 10.4446 112.91 10.4446ZM118.012 18.1321C117.379 18.1321 116.833 17.9886 116.376 17.7017C115.921 17.4119 115.572 17.0128 115.327 16.5043C115.083 15.9957 114.961 15.4134 114.961 14.7571C114.961 14.0923 115.086 13.5057 115.336 12.9972C115.586 12.4858 115.938 12.0866 116.393 11.7997C116.847 11.5128 117.383 11.3693 117.999 11.3693C118.496 11.3693 118.94 11.4616 119.329 11.6463C119.718 11.8281 120.032 12.0838 120.271 12.4134C120.512 12.7429 120.656 13.1278 120.701 13.5682H119.461C119.393 13.2614 119.237 12.9972 118.992 12.7756C118.751 12.554 118.427 12.4432 118.021 12.4432C117.665 12.4432 117.354 12.5369 117.087 12.7244C116.823 12.9091 116.617 13.1733 116.469 13.517C116.322 13.858 116.248 14.2614 116.248 14.7273C116.248 15.2045 116.32 15.6165 116.465 15.9631C116.61 16.3097 116.815 16.5781 117.079 16.7685C117.346 16.9588 117.66 17.054 118.021 17.054C118.262 17.054 118.481 17.0099 118.677 16.9219C118.876 16.831 119.042 16.7017 119.175 16.5341C119.312 16.3665 119.407 16.1648 119.461 15.929H120.701C120.656 16.3523 120.518 16.7301 120.288 17.0625C120.058 17.3949 119.749 17.6562 119.363 17.8466C118.979 18.0369 118.529 18.1321 118.012 18.1321ZM122.903 18.081C122.67 18.081 122.47 17.9986 122.302 17.8338C122.135 17.6662 122.051 17.4645 122.051 17.2287C122.051 16.9957 122.135 16.7969 122.302 16.6321C122.47 16.4645 122.67 16.3807 122.903 16.3807C123.136 16.3807 123.336 16.4645 123.504 16.6321C123.672 16.7969 123.755 16.9957 123.755 17.2287C123.755 17.3849 123.716 17.5284 123.636 17.6591C123.559 17.7869 123.457 17.8892 123.329 17.9659C123.201 18.0426 123.059 18.081 122.903 18.081ZM126.301 18.081C126.069 18.081 125.868 17.9986 125.701 17.8338C125.533 17.6662 125.449 17.4645 125.449 17.2287C125.449 16.9957 125.533 16.7969 125.701 16.6321C125.868 16.4645 126.069 16.3807 126.301 16.3807C126.534 16.3807 126.735 16.4645 126.902 16.6321C127.07 16.7969 127.154 16.9957 127.154 17.2287C127.154 17.3849 127.114 17.5284 127.034 17.6591C126.958 17.7869 126.855 17.8892 126.728 17.9659C126.6 18.0426 126.458 18.081 126.301 18.081ZM129.7 18.081C129.467 18.081 129.267 17.9986 129.099 17.8338C128.931 17.6662 128.848 17.4645 128.848 17.2287C128.848 16.9957 128.931 16.7969 129.099 16.6321C129.267 16.4645 129.467 16.3807 129.7 16.3807C129.933 16.3807 130.133 16.4645 130.301 16.6321C130.468 16.7969 130.552 16.9957 130.552 17.2287C130.552 17.3849 130.512 17.5284 130.433 17.6591C130.356 17.7869 130.254 17.8892 130.126 17.9659C129.998 18.0426 129.856 18.081 129.7 18.081Z" fill="white"/>
<defs>
<linearGradient id="paint0_linear_13_825" x1="72" y1="0" x2="72" y2="28" gradientUnits="userSpaceOnUse">
<stop stop-color="#CB6060"/>
<stop offset="1" stop-color="#BE4F4F"/>
</linearGradient>
<linearGradient id="paint1_linear_13_825" x1="3.50329e-07" y1="3.33333" x2="92.0044" y2="96.6701" gradientUnits="userSpaceOnUse">
<stop stop-color="white" stop-opacity="0.4"/>
<stop offset="1" stop-color="white" stop-opacity="0.1"/>
</linearGradient>
</defs>
</svg>
