<svg width="62" height="63" viewBox="0 0 62 63" fill="none" xmlns="http://www.w3.org/2000/svg">
<rect width="62" height="63" rx="8" fill="white" fill-opacity="0.05"/>
<rect x="0.5" y="0.5" width="61" height="62" rx="7.5" stroke="white" stroke-opacity="0.1"/>
<path fill-rule="evenodd" clip-rule="evenodd" d="M31 23.7964C27.6662 23.7964 25.5837 25.5078 24.75 28.9321C26 27.2206 27.4588 26.5786 29.125 27.0062C30.0762 27.2503 30.7563 27.9594 31.5075 28.7435C32.7338 30.0209 34.1525 31.4999 37.25 31.4999C40.5838 31.4999 42.6663 29.7884 43.5 26.3642C42.25 28.0757 40.7925 28.7176 39.125 28.2901C38.1738 28.046 37.4938 27.3368 36.7413 26.5528C35.5163 25.2741 34.0988 23.7964 31 23.7964ZM24.75 31.4999C21.4162 31.4999 19.3337 33.2113 18.5 36.6356C19.75 34.9228 21.2088 34.2821 22.875 34.7097C23.8262 34.9538 24.5063 35.6629 25.2588 36.447C26.4838 37.7244 27.9025 39.2034 31.0013 39.2034C34.335 39.2034 36.4175 37.4919 37.2512 34.0677C36.0012 35.7792 34.5425 36.4211 32.8763 35.9936C31.925 35.7495 31.245 35.0403 30.4938 34.2563C29.2663 32.9788 27.8475 31.4999 24.75 31.4999Z" fill="#63BBF3"/>
</svg>
