<svg width="62" height="59" viewBox="0 0 62 59" fill="none" xmlns="http://www.w3.org/2000/svg">
<rect width="62" height="59" rx="8" fill="white" fill-opacity="0.05"/>
<rect x="0.5" y="0.5" width="61" height="58" rx="7.5" stroke="white" stroke-opacity="0.1"/>
<path d="M20.5498 43.0182V16.1167H32.6555C34.372 16.1167 35.922 16.4882 37.3056 17.2312C38.7147 17.9741 39.8164 18.999 40.6106 20.3057C41.4049 21.5866 41.802 23.0471 41.802 24.6867C41.802 26.3777 41.4049 27.9021 40.6106 29.26C39.8164 30.5922 38.7275 31.6427 37.344 32.4113C35.9605 33.1799 34.3976 33.5643 32.6555 33.5643H26.7755V43.0182H20.5498ZM35.4609 43.0182L28.6202 30.8741L35.3072 29.9134L42.9165 43.0182H35.4609ZM26.7755 28.5682H32.079C32.7451 28.5682 33.3216 28.4273 33.8084 28.1455C34.3208 27.838 34.7051 27.4153 34.9613 26.8773C35.2431 26.3393 35.384 25.7244 35.384 25.0327C35.384 24.3408 35.2303 23.7388 34.9229 23.2264C34.6154 22.6884 34.1671 22.2784 33.5778 21.9966C33.0142 21.7148 32.3224 21.5739 31.5025 21.5739H26.7755V28.5682Z" fill="white"/>
</svg>
