<svg width="48" height="48" viewBox="0 0 48 48" fill="none" xmlns="http://www.w3.org/2000/svg">
<path d="M45 9V39H3V9H45ZM48 6H0V42H48V6Z" fill="#F987AB"/>
<path d="M24 15H42V18H24V15Z" fill="#F987AB"/>
<path d="M24 21H42V24H24V21Z" fill="#F987AB"/>
<path d="M24 27H33V30H24V27Z" fill="#F987AB"/>
<path d="M16.2 21H15V20.7C16.8 20.1 18 18.3 18 16.5C18 14.1 15.9 12 13.5 12C11.1 12 9 14.1 9 16.5C9 18.6 10.2 20.1 12 20.7V21H10.8C8.1 21 6 23.1 6 25.8V33H21V25.8C21 23.1 18.9 21 16.2 21Z" fill="#F987AB"/>
</svg>
