<svg width="104" height="76" viewBox="0 0 104 76" fill="none" xmlns="http://www.w3.org/2000/svg">
<path d="M7.32386 6.71023C7.27841 6.25189 7.08333 5.89583 6.73864 5.64205C6.39394 5.38826 5.92614 5.26136 5.33523 5.26136C4.93371 5.26136 4.5947 5.31818 4.31818 5.43182C4.04167 5.54167 3.82955 5.69508 3.68182 5.89205C3.53788 6.08902 3.46591 6.3125 3.46591 6.5625C3.45833 6.77083 3.50189 6.95265 3.59659 7.10795C3.69508 7.26326 3.82955 7.39773 4 7.51136C4.17045 7.62121 4.36742 7.7178 4.59091 7.80114C4.81439 7.88068 5.05303 7.94886 5.30682 8.00568L6.35227 8.25568C6.85985 8.36932 7.32576 8.52083 7.75 8.71023C8.17424 8.89962 8.54167 9.13258 8.85227 9.40909C9.16288 9.68561 9.40341 10.0114 9.57386 10.3864C9.74811 10.7614 9.83712 11.1913 9.84091 11.6761C9.83712 12.3883 9.6553 13.0057 9.29545 13.5284C8.93939 14.0473 8.42424 14.4508 7.75 14.7386C7.07955 15.0227 6.27083 15.1648 5.32386 15.1648C4.38447 15.1648 3.56629 15.0208 2.86932 14.733C2.17614 14.4451 1.63447 14.0189 1.24432 13.4545C0.857955 12.8864 0.655303 12.1837 0.636364 11.3466H3.01705C3.04356 11.7367 3.1553 12.0625 3.35227 12.3239C3.55303 12.5814 3.82008 12.7765 4.15341 12.9091C4.49053 13.0379 4.87121 13.1023 5.29545 13.1023C5.71212 13.1023 6.07386 13.0417 6.38068 12.9205C6.69129 12.7992 6.93182 12.6307 7.10227 12.4148C7.27273 12.1989 7.35795 11.9508 7.35795 11.6705C7.35795 11.4091 7.2803 11.1894 7.125 11.0114C6.97348 10.8333 6.75 10.6818 6.45455 10.5568C6.16288 10.4318 5.80492 10.3182 5.38068 10.2159L4.11364 9.89773C3.13258 9.65909 2.35795 9.28598 1.78977 8.77841C1.22159 8.27083 0.939394 7.58712 0.943182 6.72727C0.939394 6.02273 1.12689 5.4072 1.50568 4.88068C1.88826 4.35417 2.41288 3.94318 3.07955 3.64773C3.74621 3.35227 4.50379 3.20455 5.35227 3.20455C6.21591 3.20455 6.9697 3.35227 7.61364 3.64773C8.26136 3.94318 8.76515 4.35417 9.125 4.88068C9.48485 5.4072 9.67045 6.01705 9.68182 6.71023H7.32386ZM13.9389 15.1648C13.3821 15.1648 12.8859 15.0682 12.4503 14.875C12.0147 14.678 11.67 14.3883 11.4162 14.0057C11.1662 13.6193 11.0412 13.1383 11.0412 12.5625C11.0412 12.0777 11.1302 11.6705 11.3082 11.3409C11.4863 11.0114 11.7287 10.7462 12.0355 10.5455C12.3423 10.3447 12.6908 10.1932 13.081 10.0909C13.4749 9.98864 13.8878 9.91667 14.3196 9.875C14.8272 9.82197 15.2363 9.77273 15.5469 9.72727C15.8575 9.67803 16.0829 9.60606 16.223 9.51136C16.3632 9.41667 16.4332 9.27652 16.4332 9.09091V9.05682C16.4332 8.69697 16.3196 8.41856 16.0923 8.22159C15.8688 8.02462 15.5507 7.92614 15.1378 7.92614C14.7022 7.92614 14.3556 8.02273 14.098 8.21591C13.8404 8.4053 13.67 8.64394 13.5866 8.93182L11.348 8.75C11.4616 8.2197 11.6851 7.76136 12.0185 7.375C12.3518 6.98485 12.7817 6.68561 13.3082 6.47727C13.8385 6.26515 14.4522 6.15909 15.1491 6.15909C15.634 6.15909 16.098 6.21591 16.5412 6.32955C16.9882 6.44318 17.384 6.61932 17.7287 6.85795C18.0772 7.09659 18.3518 7.40341 18.5526 7.77841C18.7533 8.14962 18.8537 8.5947 18.8537 9.11364V15H16.5582V13.7898H16.4901C16.3499 14.0625 16.1624 14.303 15.9276 14.5114C15.6927 14.7159 15.4105 14.8769 15.081 14.9943C14.7514 15.108 14.3707 15.1648 13.9389 15.1648ZM14.6321 13.4943C14.9882 13.4943 15.3026 13.4242 15.5753 13.2841C15.848 13.1402 16.062 12.947 16.2173 12.7045C16.3726 12.4621 16.4503 12.1875 16.4503 11.8807V10.9545C16.3745 11.0038 16.2704 11.0492 16.1378 11.0909C16.009 11.1288 15.8632 11.1648 15.7003 11.1989C15.5374 11.2292 15.3745 11.2576 15.2116 11.2841C15.0488 11.3068 14.901 11.3277 14.7685 11.3466C14.4844 11.3883 14.2363 11.4545 14.0241 11.5455C13.812 11.6364 13.6473 11.7595 13.5298 11.9148C13.4124 12.0663 13.3537 12.2557 13.3537 12.483C13.3537 12.8125 13.473 13.0644 13.7116 13.2386C13.9541 13.4091 14.2609 13.4943 14.6321 13.4943ZM28.5554 6.27273L25.5043 15H22.777L19.7259 6.27273H22.2827L24.0952 12.517H24.1861L25.9929 6.27273H28.5554ZM33.4901 15.1705C32.5923 15.1705 31.8196 14.9886 31.1719 14.625C30.5279 14.2576 30.0317 13.7386 29.6832 13.0682C29.3348 12.3939 29.1605 11.5966 29.1605 10.6761C29.1605 9.77841 29.3348 8.99053 29.6832 8.3125C30.0317 7.63447 30.5223 7.10606 31.1548 6.72727C31.7912 6.34848 32.5374 6.15909 33.3935 6.15909C33.9692 6.15909 34.5052 6.25189 35.0014 6.4375C35.5014 6.61932 35.937 6.89394 36.3082 7.26136C36.6832 7.62879 36.9749 8.09091 37.1832 8.64773C37.3916 9.20076 37.4957 9.84848 37.4957 10.5909V11.2557H30.1264V9.75568H35.2173C35.2173 9.4072 35.1416 9.09848 34.9901 8.82955C34.8385 8.56061 34.6283 8.35038 34.3594 8.19886C34.0942 8.04356 33.7855 7.96591 33.4332 7.96591C33.0658 7.96591 32.7401 8.05114 32.456 8.22159C32.1757 8.38826 31.956 8.61364 31.7969 8.89773C31.6378 9.17803 31.5563 9.49053 31.5526 9.83523V11.2614C31.5526 11.6932 31.6321 12.0663 31.7912 12.3807C31.9541 12.6951 32.1832 12.9375 32.4787 13.108C32.7741 13.2784 33.1245 13.3636 33.5298 13.3636C33.7988 13.3636 34.045 13.3258 34.2685 13.25C34.492 13.1742 34.6832 13.0606 34.8423 12.9091C35.0014 12.7576 35.1226 12.572 35.206 12.3523L37.4446 12.5C37.331 13.0379 37.098 13.5076 36.7457 13.9091C36.3973 14.3068 35.9465 14.6174 35.3935 14.8409C34.8442 15.0606 34.2098 15.1705 33.4901 15.1705ZM42.2912 15.142C41.6283 15.142 41.0279 14.9716 40.4901 14.6307C39.956 14.286 39.5317 13.7803 39.2173 13.1136C38.9067 12.4432 38.7514 11.6212 38.7514 10.6477C38.7514 9.64773 38.9124 8.81629 39.2344 8.15341C39.5563 7.48674 39.9844 6.98864 40.5185 6.65909C41.0563 6.32576 41.6454 6.15909 42.2855 6.15909C42.7741 6.15909 43.1813 6.24242 43.5071 6.40909C43.8366 6.57197 44.1018 6.77652 44.3026 7.02273C44.5071 7.26515 44.6624 7.50379 44.7685 7.73864H44.8423V3.36364H47.2571V15H44.8707V13.6023H44.7685C44.6548 13.8447 44.4938 14.0852 44.2855 14.3239C44.081 14.5587 43.8139 14.7538 43.4844 14.9091C43.1586 15.0644 42.7609 15.142 42.2912 15.142ZM43.0582 13.2159C43.4484 13.2159 43.7779 13.1098 44.0469 12.8977C44.3196 12.6818 44.5279 12.3807 44.6719 11.9943C44.8196 11.608 44.8935 11.1553 44.8935 10.6364C44.8935 10.1174 44.8215 9.66667 44.6776 9.28409C44.5336 8.90151 44.3253 8.60606 44.0526 8.39773C43.7798 8.18939 43.4484 8.08523 43.0582 8.08523C42.6605 8.08523 42.3253 8.19318 42.0526 8.40909C41.7798 8.625 41.5734 8.92424 41.4332 9.30682C41.2931 9.68939 41.223 10.1326 41.223 10.6364C41.223 11.1439 41.2931 11.5928 41.4332 11.983C41.5772 12.3693 41.7836 12.6723 42.0526 12.892C42.3253 13.108 42.6605 13.2159 43.0582 13.2159Z" fill="#898989"/>
<path d="M3.45455 72.1648C2.89773 72.1648 2.40152 72.0682 1.96591 71.875C1.5303 71.678 1.18561 71.3883 0.931818 71.0057C0.681818 70.6193 0.556818 70.1383 0.556818 69.5625C0.556818 69.0777 0.645833 68.6705 0.823864 68.3409C1.00189 68.0114 1.24432 67.7462 1.55114 67.5455C1.85795 67.3447 2.20644 67.1932 2.59659 67.0909C2.99053 66.9886 3.40341 66.9167 3.83523 66.875C4.3428 66.822 4.75189 66.7727 5.0625 66.7273C5.37311 66.678 5.59849 66.6061 5.73864 66.5114C5.87879 66.4167 5.94886 66.2765 5.94886 66.0909V66.0568C5.94886 65.697 5.83523 65.4186 5.60795 65.2216C5.38447 65.0246 5.06629 64.9261 4.65341 64.9261C4.2178 64.9261 3.87121 65.0227 3.61364 65.2159C3.35606 65.4053 3.18561 65.6439 3.10227 65.9318L0.863636 65.75C0.977273 65.2197 1.20076 64.7614 1.53409 64.375C1.86742 63.9848 2.29735 63.6856 2.82386 63.4773C3.35417 63.2652 3.9678 63.1591 4.66477 63.1591C5.14962 63.1591 5.61364 63.2159 6.05682 63.3295C6.50379 63.4432 6.89962 63.6193 7.24432 63.858C7.5928 64.0966 7.86742 64.4034 8.06818 64.7784C8.26894 65.1496 8.36932 65.5947 8.36932 66.1136V72H6.07386V70.7898H6.00568C5.86553 71.0625 5.67803 71.303 5.44318 71.5114C5.20833 71.7159 4.92614 71.8769 4.59659 71.9943C4.26705 72.108 3.88636 72.1648 3.45455 72.1648ZM4.14773 70.4943C4.50379 70.4943 4.81818 70.4242 5.09091 70.2841C5.36364 70.1402 5.57765 69.947 5.73295 69.7045C5.88826 69.4621 5.96591 69.1875 5.96591 68.8807V67.9545C5.89015 68.0038 5.78599 68.0492 5.65341 68.0909C5.52462 68.1288 5.37879 68.1648 5.21591 68.1989C5.05303 68.2292 4.89015 68.2576 4.72727 68.2841C4.56439 68.3068 4.41667 68.3277 4.28409 68.3466C4 68.3883 3.75189 68.4545 3.53977 68.5455C3.32765 68.6364 3.16288 68.7595 3.04545 68.9148C2.92803 69.0663 2.86932 69.2557 2.86932 69.483C2.86932 69.8125 2.98864 70.0644 3.22727 70.2386C3.4697 70.4091 3.77652 70.4943 4.14773 70.4943ZM12.6676 66.9545V72H10.2472V63.2727H12.554V64.8125H12.6562C12.8494 64.3049 13.1733 63.9034 13.6278 63.608C14.0824 63.3087 14.6335 63.1591 15.2812 63.1591C15.8873 63.1591 16.4157 63.2917 16.8665 63.5568C17.3172 63.822 17.6676 64.2008 17.9176 64.6932C18.1676 65.1818 18.2926 65.7652 18.2926 66.4432V72H15.8722V66.875C15.8759 66.3409 15.7396 65.9242 15.4631 65.625C15.1866 65.322 14.8059 65.1705 14.321 65.1705C13.9953 65.1705 13.7074 65.2405 13.4574 65.3807C13.2112 65.5208 13.018 65.7254 12.8778 65.9943C12.7415 66.2595 12.6714 66.5795 12.6676 66.9545ZM23.4162 72.142C22.7533 72.142 22.1529 71.9716 21.6151 71.6307C21.081 71.286 20.6567 70.7803 20.3423 70.1136C20.0317 69.4432 19.8764 68.6212 19.8764 67.6477C19.8764 66.6477 20.0374 65.8163 20.3594 65.1534C20.6813 64.4867 21.1094 63.9886 21.6435 63.6591C22.1813 63.3258 22.7704 63.1591 23.4105 63.1591C23.8991 63.1591 24.3063 63.2424 24.6321 63.4091C24.9616 63.572 25.2268 63.7765 25.4276 64.0227C25.6321 64.2652 25.7874 64.5038 25.8935 64.7386H25.9673V60.3636H28.3821V72H25.9957V70.6023H25.8935C25.7798 70.8447 25.6188 71.0852 25.4105 71.3239C25.206 71.5587 24.9389 71.7538 24.6094 71.9091C24.2836 72.0644 23.8859 72.142 23.4162 72.142ZM24.1832 70.2159C24.5734 70.2159 24.9029 70.1098 25.1719 69.8977C25.4446 69.6818 25.6529 69.3807 25.7969 68.9943C25.9446 68.608 26.0185 68.1553 26.0185 67.6364C26.0185 67.1174 25.9465 66.6667 25.8026 66.2841C25.6586 65.9015 25.4503 65.6061 25.1776 65.3977C24.9048 65.1894 24.5734 65.0852 24.1832 65.0852C23.7855 65.0852 23.4503 65.1932 23.1776 65.4091C22.9048 65.625 22.6984 65.9242 22.5582 66.3068C22.4181 66.6894 22.348 67.1326 22.348 67.6364C22.348 68.1439 22.4181 68.5928 22.5582 68.983C22.7022 69.3693 22.9086 69.6723 23.1776 69.892C23.4503 70.108 23.7855 70.2159 24.1832 70.2159ZM34.0753 72V63.2727H36.3821V64.8125H36.4844C36.6662 64.3011 36.9692 63.8977 37.3935 63.6023C37.8177 63.3068 38.3253 63.1591 38.9162 63.1591C39.5147 63.1591 40.0241 63.3087 40.4446 63.608C40.8651 63.9034 41.1454 64.3049 41.2855 64.8125H41.3764C41.5545 64.3125 41.8764 63.9129 42.3423 63.6136C42.812 63.3106 43.367 63.1591 44.0071 63.1591C44.8215 63.1591 45.4825 63.4186 45.9901 63.9375C46.5014 64.4527 46.7571 65.1837 46.7571 66.1307V72H44.3423V66.608C44.3423 66.1231 44.2135 65.7595 43.956 65.517C43.6984 65.2746 43.3764 65.1534 42.9901 65.1534C42.5507 65.1534 42.2079 65.2936 41.9616 65.5739C41.7154 65.8504 41.5923 66.2159 41.5923 66.6705V72H39.2457V66.5568C39.2457 66.1288 39.1226 65.7879 38.8764 65.5341C38.634 65.2803 38.3139 65.1534 37.9162 65.1534C37.6473 65.1534 37.4048 65.2216 37.1889 65.358C36.9768 65.4905 36.8082 65.678 36.6832 65.9205C36.5582 66.1591 36.4957 66.4394 36.4957 66.7614V72H34.0753ZM52.6122 72.1705C51.7296 72.1705 50.9664 71.983 50.3224 71.608C49.6823 71.2292 49.188 70.7027 48.8395 70.0284C48.491 69.3504 48.3168 68.5644 48.3168 67.6705C48.3168 66.7689 48.491 65.9811 48.8395 65.3068C49.188 64.6288 49.6823 64.1023 50.3224 63.7273C50.9664 63.3485 51.7296 63.1591 52.6122 63.1591C53.4948 63.1591 54.2562 63.3485 54.8963 63.7273C55.5402 64.1023 56.0365 64.6288 56.3849 65.3068C56.7334 65.9811 56.9077 66.7689 56.9077 67.6705C56.9077 68.5644 56.7334 69.3504 56.3849 70.0284C56.0365 70.7027 55.5402 71.2292 54.8963 71.608C54.2562 71.983 53.4948 72.1705 52.6122 72.1705ZM52.6236 70.2955C53.0251 70.2955 53.3603 70.1818 53.6293 69.9545C53.8982 69.7235 54.1009 69.4091 54.2372 69.0114C54.3774 68.6136 54.4474 68.161 54.4474 67.6534C54.4474 67.1458 54.3774 66.6932 54.2372 66.2955C54.1009 65.8977 53.8982 65.5833 53.6293 65.3523C53.3603 65.1212 53.0251 65.0057 52.6236 65.0057C52.2183 65.0057 51.8774 65.1212 51.6009 65.3523C51.3281 65.5833 51.1217 65.8977 50.9815 66.2955C50.8452 66.6932 50.777 67.1458 50.777 67.6534C50.777 68.161 50.8452 68.6136 50.9815 69.0114C51.1217 69.4091 51.3281 69.7235 51.6009 69.9545C51.8774 70.1818 52.2183 70.2955 52.6236 70.2955ZM58.4815 72V63.2727H60.8281V64.7955H60.919C61.0781 64.2538 61.3452 63.8447 61.7202 63.5682C62.0952 63.2879 62.527 63.1477 63.0156 63.1477C63.1368 63.1477 63.2675 63.1553 63.4077 63.1705C63.5478 63.1856 63.6709 63.2064 63.777 63.233V65.3807C63.6634 65.3466 63.5062 65.3163 63.3054 65.2898C63.1046 65.2633 62.9209 65.25 62.7543 65.25C62.3982 65.25 62.08 65.3277 61.7997 65.483C61.5232 65.6345 61.3035 65.8466 61.1406 66.1193C60.9815 66.392 60.902 66.7064 60.902 67.0625V72H58.4815ZM68.5994 72.1705C67.7017 72.1705 66.929 71.9886 66.2812 71.625C65.6373 71.2576 65.1411 70.7386 64.7926 70.0682C64.4441 69.3939 64.2699 68.5966 64.2699 67.6761C64.2699 66.7784 64.4441 65.9905 64.7926 65.3125C65.1411 64.6345 65.6316 64.1061 66.2642 63.7273C66.9006 63.3485 67.6468 63.1591 68.5028 63.1591C69.0786 63.1591 69.6146 63.2519 70.1108 63.4375C70.6108 63.6193 71.0464 63.8939 71.4176 64.2614C71.7926 64.6288 72.0843 65.0909 72.2926 65.6477C72.5009 66.2008 72.6051 66.8485 72.6051 67.5909V68.2557H65.2358V66.7557H70.3267C70.3267 66.4072 70.2509 66.0985 70.0994 65.8295C69.9479 65.5606 69.7377 65.3504 69.4688 65.1989C69.2036 65.0436 68.8949 64.9659 68.5426 64.9659C68.1752 64.9659 67.8494 65.0511 67.5653 65.2216C67.285 65.3883 67.0653 65.6136 66.9062 65.8977C66.7472 66.178 66.6657 66.4905 66.6619 66.8352V68.2614C66.6619 68.6932 66.7415 69.0663 66.9006 69.3807C67.0634 69.6951 67.2926 69.9375 67.5881 70.108C67.8835 70.2784 68.2339 70.3636 68.6392 70.3636C68.9081 70.3636 69.1544 70.3258 69.3778 70.25C69.6013 70.1742 69.7926 70.0606 69.9517 69.9091C70.1108 69.7576 70.232 69.572 70.3153 69.3523L72.554 69.5C72.4403 70.0379 72.2074 70.5076 71.8551 70.9091C71.5066 71.3068 71.0559 71.6174 70.5028 71.8409C69.9536 72.0606 69.3191 72.1705 68.5994 72.1705ZM75.5994 72.1477C75.2244 72.1477 74.9025 72.0152 74.6335 71.75C74.3684 71.4811 74.2358 71.1591 74.2358 70.7841C74.2358 70.4129 74.3684 70.0947 74.6335 69.8295C74.9025 69.5644 75.2244 69.4318 75.5994 69.4318C75.9631 69.4318 76.2813 69.5644 76.554 69.8295C76.8267 70.0947 76.9631 70.4129 76.9631 70.7841C76.9631 71.0341 76.8987 71.2633 76.7699 71.4716C76.6449 71.6761 76.4801 71.8409 76.2756 71.9659C76.071 72.0871 75.8456 72.1477 75.5994 72.1477ZM80.3651 72.1477C79.9901 72.1477 79.6681 72.0152 79.3991 71.75C79.134 71.4811 79.0014 71.1591 79.0014 70.7841C79.0014 70.4129 79.134 70.0947 79.3991 69.8295C79.6681 69.5644 79.9901 69.4318 80.3651 69.4318C80.7287 69.4318 81.0469 69.5644 81.3196 69.8295C81.5923 70.0947 81.7287 70.4129 81.7287 70.7841C81.7287 71.0341 81.6643 71.2633 81.5355 71.4716C81.4105 71.6761 81.2457 71.8409 81.0412 71.9659C80.8366 72.0871 80.6113 72.1477 80.3651 72.1477ZM85.1307 72.1477C84.7557 72.1477 84.4337 72.0152 84.1648 71.75C83.8996 71.4811 83.767 71.1591 83.767 70.7841C83.767 70.4129 83.8996 70.0947 84.1648 69.8295C84.4337 69.5644 84.7557 69.4318 85.1307 69.4318C85.4943 69.4318 85.8125 69.5644 86.0852 69.8295C86.358 70.0947 86.4943 70.4129 86.4943 70.7841C86.4943 71.0341 86.4299 71.2633 86.3011 71.4716C86.1761 71.6761 86.0114 71.8409 85.8068 71.9659C85.6023 72.0871 85.3769 72.1477 85.1307 72.1477Z" fill="#898989"/>
<path d="M2.01349 48.6307V43.5447L14.7656 23.4545H19.1506V30.4943H16.5554L8.51634 43.2166V43.4553H26.6378V48.6307H2.01349ZM16.6747 54V47.0795L16.794 44.8274V23.4545H22.8494V54H16.6747ZM43.8196 23.4545V54H37.3615V29.5845H37.1825L30.1875 33.9695V28.2422L37.7493 23.4545H43.8196ZM57.4927 40.7557V54H51.139V23.4545H57.3137V35.1328H57.5822C58.0993 33.7805 58.9345 32.7216 60.0879 31.956C61.2413 31.1804 62.688 30.7926 64.4281 30.7926C66.019 30.7926 67.4061 31.1406 68.5893 31.8366C69.7825 32.5227 70.7072 33.5121 71.3635 34.8047C72.0297 36.0874 72.3578 37.6236 72.3478 39.4134V54H65.9941V40.5469C66.0041 39.1349 65.6461 38.0362 64.9203 37.2507C64.2044 36.4652 63.2001 36.0724 61.9075 36.0724C61.0424 36.0724 60.2768 36.2564 59.6106 36.6243C58.9544 36.9922 58.4373 37.5291 58.0595 38.2351C57.6916 38.9311 57.5027 39.7713 57.4927 40.7557ZM86.4162 52.3445V31.2251H91.7557V52.3445H86.4162ZM78.5263 44.4545V39.1151H99.6456V44.4545H78.5263Z" fill="#EBFF00"/>
</svg>
