<svg width="46" height="46" viewBox="0 0 46 46" fill="none" xmlns="http://www.w3.org/2000/svg">
<g clip-path="url(#clip0_144_86)">
<path d="M40.25 0H5.75C2.57436 0 0 2.57436 0 5.75V40.25C0 43.4256 2.57436 46 5.75 46H40.25C43.4256 46 46 43.4256 46 40.25V5.75C46 2.57436 43.4256 0 40.25 0Z" fill="#635BFF"/>
<path d="M22.9471 35.0797C20.9185 35.0797 18.9704 34.7577 17.1028 34.1137C15.2674 33.4697 13.7379 32.5842 12.5143 31.4572L15.1708 27.1585C16.0724 27.9957 17.296 28.7363 18.8416 29.3803C20.3872 30.0243 21.8523 30.3463 23.2369 30.3463C24.5249 30.3463 25.4909 30.1209 26.1349 29.6701C26.8111 29.2193 27.1492 28.6075 27.1492 27.8347C27.1492 27.2551 26.795 26.7882 26.0866 26.434C25.4104 26.0476 24.5571 25.7739 23.5267 25.6129C22.5285 25.4519 21.4176 25.2104 20.194 24.8884C19.0026 24.5664 17.8917 24.18 16.8613 23.7292C15.8631 23.2784 15.0098 22.57 14.3014 21.604C13.6252 20.6058 13.2871 19.3822 13.2871 17.9332C13.2871 15.8724 14.1404 14.1336 15.847 12.7168C17.5536 11.3 19.8881 10.5916 22.8505 10.5916C26.4569 10.5916 29.5964 11.6542 32.269 13.7794L29.8057 17.9815C29.0651 17.2087 28.0669 16.5647 26.8111 16.0495C25.5875 15.5343 24.2834 15.2767 22.8988 15.2767C21.804 15.2767 20.9185 15.5021 20.2423 15.9529C19.5661 16.3715 19.228 16.9189 19.228 17.5951C19.228 18.1103 19.5661 18.545 20.2423 18.8992C20.9185 19.2212 21.7718 19.4627 22.8022 19.6237C23.8326 19.7847 24.9435 20.0423 26.1349 20.3965C27.3263 20.7185 28.4372 21.121 29.4676 21.604C30.498 22.0548 31.3513 22.7954 32.0275 23.8258C32.7037 24.8562 33.0418 26.112 33.0418 27.5932C33.0418 29.7828 32.1402 31.586 30.337 33.0028C28.566 34.3874 26.1027 35.0797 22.9471 35.0797Z" fill="white"/>
</g>
<defs>
<clipPath id="clip0_144_86">
<rect width="46" height="46" fill="white"/>
</clipPath>
</defs>
</svg>
