<svg width="50" height="46" viewBox="1 15 65 55" fill="none" xmlns="http://www.w3.org/2000/svg">
<path d="M23.25 55.9339V19.25H39.7577C42.0985 19.25 44.2121 19.7566 46.0987 20.7698C48.0204 21.7829 49.5226 23.1804 50.6056 24.9622C51.6887 26.709 52.2302 28.7005 52.2302 30.9364C52.2302 33.2422 51.6887 35.321 50.6056 37.1726C49.5226 38.9894 48.0378 40.4219 46.1511 41.4699C44.2646 42.518 42.1334 43.0421 39.7577 43.0421H31.7396V55.9339H23.25ZM43.5834 55.9339L34.2551 39.3737L43.3737 38.0636L53.75 55.9339H43.5834ZM31.7396 36.2294H38.9716C39.88 36.2294 40.6661 36.0372 41.3299 35.6529C42.0286 35.2336 42.5526 34.6573 42.902 33.9235C43.2864 33.1899 43.4785 32.3514 43.4785 31.4081C43.4785 30.4648 43.2689 29.6437 42.8496 28.945C42.4304 28.2114 41.819 27.6524 41.0155 27.268C40.2469 26.8837 39.3035 26.6916 38.1855 26.6916H31.7396V36.2294Z" fill="white"/>
</svg>
