<svg width="56" height="56" viewBox="0 0 56 56" fill="none" xmlns="http://www.w3.org/2000/svg">
<path d="M30.205 15.0937C33.0175 15.0937 35.2975 12.8137 35.2975 10.0012C35.2975 7.18868 33.0175 4.90869 30.205 4.90869C27.3925 4.90869 25.1125 7.18868 25.1125 10.0012C25.1125 12.8137 27.3925 15.0937 30.205 15.0937Z" stroke="#CE6CEF" stroke-width="3"/>
<path d="M46.9262 32.7425C49.7388 32.7425 52.0187 30.4625 52.0187 27.65C52.0187 24.8375 49.7388 22.5575 46.9262 22.5575C44.1137 22.5575 41.8337 24.8375 41.8337 27.65C41.8337 30.4625 44.1137 32.7425 46.9262 32.7425Z" stroke="#CE6CEF" stroke-width="3"/>
<path d="M30.205 49.3413C33.0175 49.3413 35.2975 47.0613 35.2975 44.2488C35.2975 41.4362 33.0175 39.1562 30.205 39.1562C27.3925 39.1562 25.1125 41.4362 25.1125 44.2488C25.1125 47.0613 27.3925 49.3413 30.205 49.3413Z" stroke="#CE6CEF" stroke-width="3"/>
<path d="M13.265 41.8687C16.0775 41.8687 18.3575 39.5887 18.3575 36.7762C18.3575 33.9637 16.0775 31.6837 13.265 31.6837C10.4525 31.6837 8.17249 33.9637 8.17249 36.7762C8.17249 39.5887 10.4525 41.8687 13.265 41.8687Z" stroke="#CE6CEF" stroke-width="3"/>
<path d="M13.265 21.9538C16.0775 21.9538 18.3575 19.6738 18.3575 16.8613C18.3575 14.0488 16.0775 11.7688 13.265 11.7688C10.4525 11.7688 8.17249 14.0488 8.17249 16.8613C8.17249 19.6738 10.4525 21.9538 13.265 21.9538Z" stroke="#CE6CEF" stroke-width="3"/>
<path d="M30.1962 29.7238C32.4675 29.7238 34.3087 27.8826 34.3087 25.6113C34.3087 23.34 32.4675 21.4988 30.1962 21.4988C27.925 21.4988 26.0837 23.34 26.0837 25.6113C26.0837 27.8826 27.925 29.7238 30.1962 29.7238Z" stroke="#CE6CEF" stroke-width="3"/>
<path d="M17.6487 14.2625L25.2875 11.3137" stroke="#CE6CEF" stroke-width="3"/>
<path d="M33.775 13.6412L43.295 24.08" stroke="#CE6CEF" stroke-width="3"/>
<path d="M43.8112 31.675L33.8362 40.6788" stroke="#CE6CEF" stroke-width="3"/>
<path d="M16.065 21.1138L27.0463 40.2588" stroke="#CE6CEF" stroke-width="3"/>
<path d="M17.7712 39.1475L25.1125 42.5512" stroke="#CE6CEF" stroke-width="3"/>
<path d="M15.1725 32.0513L27.4488 14.28" stroke="#CE6CEF" stroke-width="3"/>
<path d="M17.955 18.8562L26.5475 23.7125" stroke="#CE6CEF" stroke-width="3"/>
<path d="M34.3175 26.075L41.8338 26.6437" stroke="#CE6CEF" stroke-width="3"/>
<path d="M30.1963 29.7325L30.205 39.1475" stroke="#CE6CEF" stroke-width="3"/>
</svg>
