<svg width="39" height="39" viewBox="0 0 39 39" fill="none" xmlns="http://www.w3.org/2000/svg">
<path fill-rule="evenodd" clip-rule="evenodd" d="M10.2376 0.756249C12.7701 0.19344 15.8424 0 19.5 0C23.1576 0 26.2298 0.19344 28.7623 0.756249C31.317 1.32399 33.4402 2.2932 35.0735 3.92648C36.7068 5.55976 37.6759 7.68304 38.2438 10.2376C38.8066 12.7701 39 15.8424 39 19.5C39 23.1576 38.8066 26.2298 38.2438 28.7623C37.6759 31.317 36.7068 33.4402 35.0735 35.0735C33.4402 36.7068 31.317 37.6759 28.7623 38.2438C26.2298 38.8066 23.1576 39 19.5 39C15.8424 39 12.7701 38.8066 10.2376 38.2438C7.68304 37.6759 5.55976 36.7068 3.92648 35.0735C2.2932 33.4402 1.32399 31.317 0.756249 28.7623C0.19344 26.2298 0 23.1576 0 19.5C0 15.8424 0.19344 12.7701 0.756249 10.2376C1.32399 7.68304 2.2932 5.55976 3.92648 3.92648C5.55976 2.2932 7.68304 1.32399 10.2376 0.756249ZM9.75 19.5C9.75 18.423 10.6231 17.55 11.7 17.55H11.7195C12.7964 17.55 13.6695 18.423 13.6695 19.5C13.6695 20.577 12.7964 21.45 11.7195 21.45H11.7C10.6231 21.45 9.75 20.577 9.75 19.5ZM17.55 19.5C17.55 18.423 18.423 17.55 19.5 17.55H19.5195C20.5965 17.55 21.4695 18.423 21.4695 19.5C21.4695 20.577 20.5965 21.45 19.5195 21.45H19.5C18.423 21.45 17.55 20.577 17.55 19.5ZM27.3 17.55C26.223 17.55 25.35 18.423 25.35 19.5C25.35 20.577 26.223 21.45 27.3 21.45H27.3195C28.3965 21.45 29.2695 20.577 29.2695 19.5C29.2695 18.423 28.3965 17.55 27.3195 17.55H27.3Z" fill="#EFD26C"/>
</svg>
