<svg width="43" height="43" viewBox="0 0 43 43" fill="none" xmlns="http://www.w3.org/2000/svg">
<path d="M4.1083 33.5167C3.77242 33.1808 3.58373 32.7251 3.58373 32.25C3.58373 31.775 3.77242 31.3193 4.1083 30.9833L9.4833 25.6083C9.77619 25.3154 10.1615 25.1329 10.5738 25.0921C10.9861 25.0513 11.3997 25.1545 11.7444 25.3844L15.8975 28.1525L20.2333 23.8167C20.5712 23.4903 21.0238 23.3097 21.4936 23.3138C21.9633 23.3179 22.4127 23.5063 22.7449 23.8385C23.0771 24.1707 23.2655 24.6201 23.2696 25.0898C23.2737 25.5596 23.0931 26.0122 22.7667 26.3501L17.3917 31.7251C17.0988 32.0181 16.7135 32.2005 16.3012 32.2413C15.889 32.2822 15.4753 32.1789 15.1306 31.949L10.9776 29.1809L6.64172 33.5167C6.30573 33.8526 5.8501 34.0413 5.37501 34.0413C4.89992 34.0413 4.44429 33.8526 4.1083 33.5167ZM39.4167 5.37504V37.625C39.4167 38.1002 39.2279 38.5559 38.8919 38.8919C38.5559 39.2279 38.1002 39.4167 37.625 39.4167H5.37501C4.89983 39.4167 4.44411 39.2279 4.10811 38.8919C3.77211 38.5559 3.58334 38.1002 3.58334 37.625C3.58334 37.1499 3.77211 36.6941 4.10811 36.3581C4.44411 36.0221 4.89983 35.8334 5.37501 35.8334H35.8333V14.3334H7.16668V21.5C7.16668 21.9752 6.97791 22.4309 6.64191 22.7669C6.30591 23.1029 5.85019 23.2917 5.37501 23.2917C4.89983 23.2917 4.44411 23.1029 4.10811 22.7669C3.77211 22.4309 3.58334 21.9752 3.58334 21.5V5.37504C3.58334 4.89986 3.77211 4.44414 4.10811 4.10814C4.44411 3.77214 4.89983 3.58337 5.37501 3.58337H37.625C38.1002 3.58337 38.5559 3.77214 38.8919 4.10814C39.2279 4.44414 39.4167 4.89986 39.4167 5.37504ZM7.16668 10.75H35.8333V7.16671H7.16668V10.75ZM26.35 22.7667L28.1417 20.9751C28.4681 20.6372 28.6487 20.1846 28.6446 19.7148C28.6405 19.2451 28.4521 18.7957 28.1199 18.4635C27.7877 18.1313 27.3383 17.9429 26.8686 17.9388C26.3988 17.9347 25.9462 18.1153 25.6083 18.4417L23.8166 20.2333C23.6455 20.3986 23.509 20.5963 23.4151 20.8149C23.3212 21.0335 23.2718 21.2686 23.2697 21.5065C23.2677 21.7444 23.313 21.9803 23.4031 22.2005C23.4932 22.4207 23.6262 22.6207 23.7944 22.789C23.9626 22.9572 24.1627 23.0902 24.3829 23.1803C24.6031 23.2704 24.839 23.3157 25.0769 23.3137C25.3148 23.3116 25.5499 23.2622 25.7685 23.1683C25.9871 23.0744 26.1848 22.9379 26.35 22.7667Z" fill="#25D0AB"/>
</svg>
