<?xml version="1.0" encoding="utf-8"?>
<!-- Uploaded to: SVG Repo, www.svgrepo.com, Generator: SVG Repo Mixer Tools -->
<svg width="800px" height="800px" viewBox="0 0 1024 1024" class="icon"  version="1.1" xmlns="http://www.w3.org/2000/svg"><path d="M806.6 231S604 135.8 434.4 306.2C270 471.5 355.1 674.4 355.1 674.4s202.6 95.2 372.2-75.3C891.7 434 806.6 231 806.6 231" fill="#E74C3C" /><path d="M646.6 360.2l-20.8 20.9-15.2-15.2c-7.2-7.2-18.9-7.2-26.2 0-7.2 7.3-7.2 19 0 26.3l15.2 15.2-19 19.1-15.2-15.2c-7.2-7.3-18.9-7.3-26.2 0-7.2 7.2-7.2 19 0 26.3l15.2 15.2-19 19.1-15.2-15.2c-7.2-7.3-18.9-7.3-26.2 0-7.2 7.3-7.2 19 0 26.3l15.2 15.2-20.8 20.9c-7.2 7.2-7.2 19 0 26.3 3.6 3.6 8.3 5.4 13.1 5.4 4.7 0 9.5-1.8 13.1-5.4l20.8-20.9 15.2 15.2c3.6 3.6 8.3 5.4 13.1 5.4 4.7 0 9.5-1.8 13.1-5.4 7.2-7.3 7.2-19 0-26.3l-15.2-15.2 19-19.1 15.2 15.2c3.6 3.6 8.3 5.4 13.1 5.4 4.7 0 9.5-1.8 13.1-5.4 7.2-7.3 7.2-19 0-26.3l-15.2-15.2 19-19.1 15.2 15.2c3.6 3.6 8.3 5.4 13.1 5.4 4.7 0 9.5-1.8 13.1-5.4 7.2-7.3 7.2-19 0-26.3L652 407.4l20.8-20.9c7.2-7.3 7.2-19 0-26.3-7.3-7.2-19-7.2-26.2 0z" fill="#211F1E" /><path d="M844.5 381.1c5.6-88.9-21.5-156-22-157.2-2-4.7-5.6-8.2-10-10-8-3.6-77.3-32.8-166.8-26.5-0.5 0-1.1 0.1-1.6 0.1-68.6 5.1-148.8 31.2-222.5 105.6-71.3 72-97.5 151.3-104 219.4-1 2.9-1.2 5.8-0.8 8.7-1.5 20.8-1.1 40.5 0.3 58.5-1.3 0.8-2.5 1.6-3.6 2.7l-89 89.3c-7.2 7.3-7.2 19 0 26.3 3.6 3.6 8.4 5.4 13.1 5.4 4.7 0 9.5-1.8 13.1-5.4l72.5-72.8c3.9 20.5 8.6 36.4 11.8 45.9l-37.4 37.5c-7.2 7.3-7.2 19 0 26.3 3.6 3.6 8.4 5.4 13.1 5.4 4.7 0 9.5-1.8 13.1-5.4l38.1-38.3c12.3 4.5 32.1 10.7 57.3 15.5l-103.8 98.1c-7.4 7-7.8 18.8-0.8 26.3 3.6 3.9 8.6 5.8 13.5 5.8 4.6 0 9.1-1.7 12.7-5.1l126.2-119c7.5 0.5 15.1 0.8 23 0.8 7.5 0 15.2-0.3 23-0.8 0.9 0.1 1.8 0.4 2.7 0.4 1.8 0 3.7-0.4 5.5-1 67.6-5.9 146.1-32.4 218.3-105.2 70.1-70.7 96.7-148.6 103.6-215.9 0.1-0.1 0.2-0.2 0.2-0.3 2.7-4.9 2.8-10.3 1.2-15.1z m-36-27.6c-18-12.6-43.1-32.1-70.1-59.3-27.7-27.8-47.3-53.4-59.6-71.4 54.1 1.3 96 15.8 111.9 22.2 5.4 15.5 17.4 56.2 17.8 108.5zM370.3 660.4c-5.6-15.8-18-56.6-18.4-109.3 17.9 12.4 43.5 32.1 71.1 59.8 27.6 27.7 47.4 53.6 60 71.8-54.6-1.2-96.8-15.8-112.7-22.3z m343-74.3c-62.4 63-129.1 87.8-187.3 94.6-10.7-17.5-35.6-54.7-76.8-96-41-41.1-77.5-65.7-94.8-76.3 7.1-58.9 31.7-126.5 93.5-188.9 62.7-63.2 129.6-88 188-94.7 10.4 17.2 35 54.2 76.4 95.8 39.8 40 75.8 64.7 93.9 76-7 59.3-31.3 127.3-92.9 189.5zM274.4 851.6l-9.5 9.6c-7.2 7.3-7.2 19 0 26.3 3.6 3.6 8.3 5.4 13.1 5.4 4.7 0 9.5-1.8 13.1-5.4l9.5-9.6c7.2-7.3 7.2-19 0-26.3-7.2-7.3-18.9-7.3-26.2 0zM191.6 709.3l-9.7 9.7c-7.2 7.3-7.2 19 0 26.3 3.6 3.6 8.3 5.4 13.1 5.4 4.7 0 9.5-1.8 13.1-5.4l9.7-9.7c7.2-7.3 7.2-19 0-26.3-7.3-7.2-19-7.2-26.2 0z" fill="#211F1E" /><path d="M276.7 780.1l9.7-9.7c7.2-7.3 7.2-19 0-26.3-7.2-7.2-18.9-7.2-26.2 0l-9.7 9.7c-7.2 7.3-7.2 19 0 26.3 3.6 3.6 8.4 5.4 13.1 5.4 4.7 0 9.5-1.8 13.1-5.4z" fill="#211F1E" /></svg>