<svg xmlns="http://www.w3.org/2000/svg" width="51" height="53" viewBox="0 0 51 53" fill="none"><path d="M14.1917 11.3735C14.8371 11.3735 15.3607 11.8908 15.3607 12.5291C15.3607 13.1674 14.8371 13.6848 14.1917 13.6848C13.5454 13.6848 13.0227 13.1674 13.0227 12.5291C13.0227 11.8908 13.5454 11.3735 14.1917 11.3735Z" fill="#808080"></path><path d="M10.8642 11.3735C11.5097 11.3735 12.0333 11.8908 12.0333 12.5291C12.0333 13.1674 11.5097 13.6848 10.8642 13.6848C10.2188 13.6848 9.69522 13.1674 9.69522 12.5291C9.69522 11.8908 10.2188 11.3735 10.8642 11.3735Z" fill="#808080"></path><path d="M7.44699 11.3735C8.09239 11.3735 8.61602 11.8908 8.61602 12.5291C8.61602 13.1674 8.09239 13.6848 7.44699 13.6848C6.8007 13.6848 6.27798 13.1674 6.27798 12.5291C6.27798 11.8908 6.8007 11.3735 7.44699 11.3735Z" fill="#808080"></path><path d="M9.15563 3.63923C9.78503 3.63923 10.3247 4.17262 10.3247 4.7949C10.3247 5.41719 9.78503 5.95058 9.15563 5.95058C8.52623 5.95058 7.98663 5.41719 7.98663 4.7949C7.98663 4.08372 8.52623 3.63923 9.15563 3.63923ZM9.15563 6.92847C10.4144 6.92847 11.4039 5.95058 11.4039 4.70601C11.4039 3.46143 10.4144 2.48355 9.15563 2.48355C7.89683 2.48355 6.90741 3.46143 6.90741 4.70601C6.90741 5.95058 7.89683 6.92847 9.15563 6.92847Z" fill="#808080"></path><path d="M40.3607 1.41677C41.4399 1.41677 42.3387 2.30575 42.3387 3.37253C42.3387 4.43932 41.4399 5.3283 40.3607 5.3283C39.2815 5.3283 38.3818 4.43932 38.3818 3.37253C38.3818 2.30575 39.2815 1.41677 40.3607 1.41677ZM40.3607 6.39508C42.0693 6.39508 43.4179 5.0616 43.4179 3.37253C43.4179 1.68346 42.0693 0.349988 40.3607 0.349988C38.6521 0.349988 37.3026 1.68346 37.3026 3.37253C37.3026 5.0616 38.6521 6.39508 40.3607 6.39508Z" fill="#808080"></path><path d="M0.972533 8.08415C1.4188 8.08415 1.7815 8.44242 1.7815 8.88424C1.7815 9.32607 1.4188 9.68433 0.972533 9.68433C0.525374 9.68433 0.162659 9.32607 0.162659 8.88424C0.162659 8.44242 0.525374 8.08415 0.972533 8.08415Z" fill="#808080"></path><path d="M16.7093 2.57244C17.1565 2.57244 17.5192 2.9307 17.5192 3.37252C17.5192 3.81435 17.1565 4.17261 16.7093 4.17261C16.2622 4.17261 15.9004 3.81435 15.9004 3.37252C15.9004 2.9307 16.2622 2.57244 16.7093 2.57244Z" fill="#808080"></path><path d="M32.447 3.63927C32.8933 3.63927 33.2569 3.99753 33.2569 4.43936C33.2569 4.88118 32.8933 5.23944 32.447 5.23944C32.0007 5.23944 31.6371 4.88118 31.6371 4.43936C31.6371 3.99753 32.0007 3.63927 32.447 3.63927Z" fill="#808080"></path><path d="M22.3748 5.86168C22.822 5.86168 23.1847 6.21994 23.1847 6.66177C23.1847 7.10359 22.822 7.46185 22.3748 7.46185C21.9277 7.46185 21.5658 7.10359 21.5658 6.66177C21.5658 6.21994 21.9277 5.86168 22.3748 5.86168Z" fill="#808080"></path><path d="M49.3537 8.08415C49.8009 8.08415 50.1627 8.44242 50.1627 8.88424C50.1627 9.32607 49.8009 9.68433 49.3537 9.68433C48.9065 9.68433 48.5447 9.32607 48.5447 8.88424C48.5447 8.44242 48.9065 8.08415 49.3537 8.08415Z" fill="#808080"></path><path d="M43.778 51.3777H6.00775C4.65916 51.3777 3.49014 50.3109 3.49014 48.8886V16.4406H46.2058V48.9774C46.2058 50.3109 45.1266 51.3777 43.778 51.3777ZM6.00775 9.77325H20.3969V15.285H3.49014V12.1735C3.49014 10.84 4.65916 9.77325 6.00775 9.77325ZM46.2058 11.9957H21.4761V9.77325H43.778C45.0377 9.77325 46.116 10.7511 46.2058 11.9957ZM21.4761 13.0625H46.2058V15.285H21.4761V13.0625ZM43.778 8.61757H6.00775C4.02976 8.61757 2.41092 10.2177 2.41092 12.1735V48.9774C2.41092 50.9332 4.02976 52.5334 6.00775 52.5334H43.778C45.756 52.5334 47.3748 50.9332 47.3748 48.9774V12.1735C47.3748 10.2177 45.756 8.61757 43.778 8.61757Z" fill="#808080"></path><path d="M29.1196 46.9328C31.6372 45.5104 33.3458 42.7546 33.3458 39.732C33.3458 37.6874 32.6275 35.8205 31.3687 34.3981L41.8 21.8634V47.0217H29.1196V46.9328ZM7.98663 46.9328V21.8634L18.418 34.3981C17.1592 35.8205 16.44 37.6874 16.44 39.732C16.44 42.8435 18.1486 45.5104 20.6671 46.9328H7.98663ZM13.9215 20.8856L22.9144 31.6423C21.4761 31.9979 20.2173 32.6201 19.2278 33.598L8.61603 20.8856H13.9215ZM24.1733 31.4645L15.3607 20.8856H34.3361L25.6125 31.4645C25.0729 31.3756 24.7129 31.3756 24.1733 31.4645ZM24.8933 32.5313C28.94 32.5313 32.1777 35.7316 32.1777 39.732C32.1777 43.7324 28.94 46.9328 24.8933 46.9328C20.8467 46.9328 17.609 43.7324 17.609 39.732C17.609 35.7316 20.8467 32.5313 24.8933 32.5313ZM41.08 20.8856L30.5579 33.598C29.5694 32.709 28.3106 31.9979 26.8713 31.6423L35.8643 20.8856H41.08ZM42.3387 19.7299C42.2498 19.7299 7.44701 19.7299 7.35722 19.7299C7.08697 19.8188 6.90741 19.9966 6.90741 20.2633V47.4662C6.90741 47.7329 7.17676 47.9996 7.44701 47.9996H42.3387C42.609 47.9996 42.8793 47.7329 42.8793 47.4662C42.8793 47.1106 42.8793 20.3522 42.8793 20.2633C42.8793 19.9966 42.609 19.7299 42.3387 19.7299Z" fill="#808080"></path><path d="M24.8933 35.2871C27.4109 35.2871 29.3898 37.2429 29.3898 39.732C29.3898 42.2212 27.4109 44.177 24.8933 44.177C22.3748 44.177 20.3968 42.2212 20.3968 39.732C20.3968 37.2429 22.3748 35.2871 24.8933 35.2871ZM24.8933 45.3326C27.9505 45.3326 30.5579 42.8435 30.5579 39.732C30.5579 36.6206 28.0403 34.1314 24.8933 34.1314C21.7454 34.1314 19.2278 36.6206 19.2278 39.732C19.2278 42.8435 21.7454 45.3326 24.8933 45.3326Z" fill="#808080"></path><path d="M23.6336 39.0208L24.3537 38.3096V42.4878C24.3537 42.7545 24.6231 43.0212 24.8933 43.0212C25.1627 43.0212 25.4329 42.7545 25.4329 42.4878V36.8873C25.4329 36.6206 25.2525 36.4428 25.0729 36.3539C24.8933 36.265 24.6231 36.3539 24.4435 36.4428L22.7349 38.1318C22.5553 38.3096 22.5553 38.6652 22.7349 38.9319C23.0042 39.1986 23.3643 39.1986 23.6336 39.0208Z" fill="#808080"></path></svg>