<svg xmlns="http://www.w3.org/2000/svg" width="50" height="49" viewBox="0 0 50 49" fill="none"><path d="M42.5792 36.6696H7.49716V14.5319H42.6642V36.6696H42.5792ZM43.6861 37.1746V14.0268C43.6861 13.7743 43.431 13.5218 43.1751 13.5218H6.98622C6.73118 13.5218 6.47528 13.7743 6.47528 14.0268V37.1746C6.47528 37.4272 6.73118 37.6797 6.98622 37.6797H43.1751C43.431 37.6797 43.6861 37.5113 43.6861 37.1746Z" fill="#808080"></path><path d="M43.1751 47.1913H6.98619C3.92142 47.1913 1.45175 44.8345 1.19671 41.8884H19.7587V43.4877C19.7587 43.7402 20.0146 43.9927 20.2697 43.9927H29.8925C30.1467 43.9927 30.4025 43.7402 30.4025 43.4877V41.8884H48.9654C48.7095 44.8345 46.1557 47.1913 43.1751 47.1913ZM3.24045 38.6056V12.8484C3.24045 11.5016 4.34734 10.4915 5.62426 10.4915H44.4529C45.8148 10.4915 46.8367 11.5858 46.8367 12.8484V38.6056C46.8367 39.6157 46.1557 40.5416 45.133 40.8783H29.8066C29.5507 40.8783 29.2957 41.1308 29.2957 41.3833V42.9826H20.7815V41.3833C20.7815 41.1308 20.5256 40.8783 20.2697 40.8783H4.94329C3.92142 40.5416 3.24045 39.6157 3.24045 38.6056ZM49.5614 40.8783H47.0917C47.6035 40.2891 47.9435 39.4473 47.9435 38.6056V12.8484C47.9435 10.9965 46.4107 9.39724 44.4529 9.39724H5.62426C3.75139 9.39724 2.13357 10.9124 2.13357 12.8484V38.6056C2.13357 39.4473 2.47362 40.2891 2.98456 40.8783H0.514909C0.259862 40.8783 0.00396729 41.1308 0.00396729 41.3833C0.00396729 45.1712 3.06958 48.2014 6.90117 48.2014H43.0892C46.9217 48.2014 49.9873 45.1712 49.9873 41.3833C50.0723 41.1308 49.8173 40.8783 49.5614 40.8783Z" fill="#808080"></path><path d="M46.3257 3.50505C47.1776 3.50505 47.9436 4.17844 47.9436 5.10435C47.9436 6.03027 47.2618 6.70366 46.3257 6.70366C45.4739 6.70366 44.7079 6.03027 44.7079 5.10435C44.7079 4.17844 45.4739 3.50505 46.3257 3.50505ZM46.3257 7.71375C47.7735 7.71375 48.9654 6.53531 48.9654 5.10435C48.9654 3.6734 47.7735 2.49496 46.3257 2.49496C44.8779 2.49496 43.686 3.6734 43.686 5.10435C43.686 6.53531 44.8779 7.71375 46.3257 7.71375Z" fill="#808080"></path><path d="M12.2656 1.4007C13.7134 1.4007 14.9053 2.57914 14.9053 4.01009C14.9053 5.44105 13.7134 6.61948 12.2656 6.61948C10.8186 6.61948 9.62672 5.44105 9.62672 4.01009C9.62672 2.57914 10.8186 1.4007 12.2656 1.4007ZM12.2656 7.71375C14.3093 7.71375 16.0121 6.03027 16.0121 4.01009C16.0121 1.98992 14.3093 0.306439 12.2656 0.306439C10.2227 0.306439 8.51898 1.98992 8.51898 4.01009C8.51898 6.03027 10.2227 7.71375 12.2656 7.71375Z" fill="#808080"></path><path d="M41.3014 2.495C41.7248 2.495 42.0682 2.83422 42.0682 3.25257C42.0682 3.67091 41.7248 4.01013 41.3014 4.01013C40.8788 4.01013 40.5354 3.67091 40.5354 3.25257C40.5354 2.83422 40.8788 2.495 41.3014 2.495Z" fill="#808080"></path><path d="M32.7864 5.69361C33.2098 5.69361 33.5532 6.03283 33.5532 6.45117C33.5532 6.86952 33.2098 7.20874 32.7864 7.20874C32.3638 7.20874 32.0204 6.86952 32.0204 6.45117C32.0204 6.03283 32.3638 5.69361 32.7864 5.69361Z" fill="#808080"></path><path d="M21.0365 1.48487C21.4599 1.48487 21.8025 1.82409 21.8025 2.24243C21.8025 2.66078 21.4599 3 21.0365 3C20.6131 3 20.2697 2.66078 20.2697 2.24243C20.2697 1.82409 20.6131 1.48487 21.0365 1.48487Z" fill="#808080"></path><path d="M4.51737 5.10438C4.94077 5.10438 5.28337 5.4436 5.28337 5.86194C5.28337 6.28029 4.94077 6.61951 4.51737 6.61951C4.09398 6.61951 3.7514 6.28029 3.7514 5.86194C3.7514 5.4436 4.09398 5.10438 4.51737 5.10438Z" fill="#808080"></path><path d="M14.3943 17.7305H23.4203C25.464 17.7305 27.1669 19.414 27.1669 21.4342V25.1378C23.4203 25.1378 18.4818 25.1378 14.3943 25.1378C12.3506 25.1378 10.6477 23.4543 10.6477 21.4342C10.6477 19.414 12.3506 17.7305 14.3943 17.7305ZM39.4285 29.8516C39.4285 31.8717 37.7248 33.5552 35.6819 33.5552H22.9093V29.8516C22.9093 27.8314 24.6122 26.1479 26.6559 26.1479H27.7628H35.6819C37.7248 26.1479 39.4285 27.8314 39.4285 29.8516ZM14.3943 26.1479H23.5903C22.4834 26.9897 21.8025 28.3364 21.8025 29.8516V34.0603C21.8025 34.3128 22.0584 34.5653 22.3134 34.5653H35.6819C38.3216 34.5653 40.4504 32.461 40.4504 29.8516C40.4504 27.2422 38.3216 25.1378 35.6819 25.1378H28.1887V21.4342C28.1887 18.8248 26.06 16.7204 23.4203 16.7204H14.3943C11.7546 16.7204 9.62671 18.8248 9.62671 21.4342C9.62671 24.0436 11.7546 26.1479 14.3943 26.1479Z" fill="#808080"></path><path d="M14.3944 20.8448H19.1628C19.4187 20.8448 19.6738 20.5923 19.6738 20.3398C19.6738 20.0873 19.4187 19.8348 19.1628 19.8348H14.3944C14.1393 19.8348 13.8834 20.0873 13.8834 20.3398C13.8834 20.6765 14.1393 20.8448 14.3944 20.8448Z" fill="#808080"></path><path d="M14.3944 22.9492H23.4203C23.6754 22.9492 23.9313 22.6967 23.9313 22.4442C23.9313 22.1917 23.6754 21.9391 23.4203 21.9391H14.3944C14.1393 21.9391 13.8834 22.1917 13.8834 22.4442C13.8834 22.7809 14.1393 22.9492 14.3944 22.9492Z" fill="#808080"></path><path d="M30.9144 29.2623H35.682C35.937 29.2623 36.1929 29.0098 36.1929 28.7573C36.1929 28.5048 35.937 28.2522 35.682 28.2522H30.9144C30.6585 28.2522 30.4026 28.5048 30.4026 28.7573C30.4026 29.0098 30.5726 29.2623 30.9144 29.2623Z" fill="#808080"></path><path d="M35.6819 30.3566H26.6559C26.4009 30.3566 26.145 30.6091 26.145 30.8617C26.145 31.1142 26.4009 31.3667 26.6559 31.3667H35.6819C35.937 31.3667 36.1929 31.1142 36.1929 30.8617C36.1929 30.6091 35.937 30.3566 35.6819 30.3566Z" fill="#808080"></path></svg>