 <svg xmlns="http://www.w3.org/2000/svg" width="51" height="53" viewBox="0 0 51 53" fill="none"><path d="M25.695 39.359C26.3346 39.359 26.8526 39.8718 26.8526 40.5043C26.8526 41.1369 26.3346 41.6496 25.695 41.6496C25.0545 41.6496 24.5365 41.1369 24.5365 40.5043C24.5365 39.8718 25.0545 39.359 25.695 39.359Z" fill="#808080"></path><path d="M10.9006 2.62171C11.3437 2.62171 11.7031 2.97675 11.7031 3.4146C11.7031 3.85245 11.3437 4.20749 10.9006 4.20749C10.4574 4.20749 10.0989 3.85245 10.0989 3.4146C10.0989 2.97675 10.4574 2.62171 10.9006 2.62171Z" fill="#808080"></path><path d="M37.6369 2.00501C38.08 2.00501 38.4394 2.36005 38.4394 2.7979C38.4394 3.23575 38.08 3.59079 37.6369 3.59079C37.1937 3.59079 36.8351 3.23575 36.8351 2.7979C36.8351 2.36005 37.1937 2.00501 37.6369 2.00501Z" fill="#808080"></path><path d="M39.8648 45.5259C40.308 45.5259 40.6665 45.881 40.6665 46.3188C40.6665 46.7567 40.308 47.1117 39.8648 47.1117C39.4217 47.1117 39.0631 46.7567 39.0631 46.3188C39.0631 45.881 39.4217 45.5259 39.8648 45.5259Z" fill="#808080"></path><path d="M12.5938 45.5259C13.0369 45.5259 13.3964 45.881 13.3964 46.3188C13.3964 46.7567 13.0369 47.1117 12.5938 47.1117C12.1515 47.1117 11.7921 46.7567 11.7921 46.3188C11.7921 45.881 12.1515 45.5259 12.5938 45.5259Z" fill="#808080"></path><path d="M6.17754 49.9309C5.28598 49.9309 4.4843 49.2261 4.4843 48.257C4.4843 47.2879 5.197 46.5831 6.17754 46.5831C7.15808 46.5831 7.87082 47.2879 7.87082 48.257C7.87082 49.2261 7.15808 49.9309 6.17754 49.9309ZM6.17754 45.5259C4.66223 45.5259 3.41476 46.7593 3.41476 48.257C3.41476 49.7547 4.66223 50.9881 6.17754 50.9881C7.69196 50.9881 8.93945 49.7547 8.93945 48.257C9.02931 46.7593 7.69196 45.5259 6.17754 45.5259Z" fill="#808080"></path><path d="M49.6685 41.0329C49.6685 42.2663 48.5981 43.3235 47.3506 43.3235C45.4794 43.3235 5.28598 43.3235 4.0385 43.3235C2.79102 43.3235 1.72147 42.2663 1.72147 41.0329V11.4316C1.72147 10.1982 2.79102 9.14103 4.0385 9.14103H14.5549V11.3435H4.57324C4.3063 11.3435 4.0385 11.6078 4.0385 11.8721V37.2446C4.0385 37.5089 4.3063 37.7732 4.57324 37.7732H46.9048C47.1726 37.7732 47.4405 37.5089 47.4405 37.2446V11.8721C47.4405 11.6078 47.1726 11.3435 46.9048 11.3435H36.8351V9.14103H47.3506C48.5981 9.14103 49.6685 10.1982 49.6685 11.4316V41.0329ZM28.4578 47.7284H22.8432V44.3806H28.4578V47.7284ZM36.3003 49.9309C36.3003 50.5476 35.7656 51.0762 35.1418 51.0762H16.2473C15.6235 51.0762 15.0896 50.5476 15.0896 49.9309C15.0896 49.3142 15.6235 48.7856 16.2473 48.7856C18.2982 48.7856 33.4486 48.7856 35.2299 48.7856C35.7656 48.7856 36.3003 49.3142 36.3003 49.9309ZM15.7134 3.67889H32.2002L35.7656 7.20286V29.58H15.7134V3.67889ZM15.0896 30.6372H36.2995C36.5673 30.6372 36.8351 30.3729 36.8351 30.1086V12.4888H46.2811V36.716H5.10803V12.4888H14.5549V30.1086C14.5549 30.3729 14.8218 30.6372 15.0896 30.6372ZM47.3506 8.08385H36.8351V6.93856C36.8351 6.76236 36.7452 6.67426 36.6563 6.58616L32.735 2.7098C32.646 2.62171 32.468 2.53361 32.3791 2.53361H15.0896C14.8218 2.53361 14.5549 2.7979 14.5549 3.0622V7.99575H4.0385C2.16728 7.99575 0.651978 9.49343 0.651978 11.3435V41.0329C0.651978 42.883 2.16728 44.3806 4.0385 44.3806H21.7737V47.7284H16.1592C14.9117 47.7284 13.9311 48.6975 13.9311 49.9309C13.9311 51.1643 14.9117 52.1334 16.1592 52.1334H35.1418C36.3893 52.1334 37.3699 51.1643 37.3699 49.9309C37.3699 48.6975 36.3893 47.7284 35.1418 47.7284H29.5273V44.3806H47.2625C49.1337 44.3806 50.6482 42.883 50.6482 41.0329V11.4316C50.738 9.58153 49.2227 8.08385 47.3506 8.08385Z" fill="#808080"></path><path d="M19.1889 11.784C19.3669 11.9602 19.7237 11.9602 19.9906 11.784L22.7534 9.05295C22.9314 8.87675 22.9314 8.52436 22.7534 8.26006C22.5754 8.08386 22.2196 8.08386 21.9517 8.26006L19.5457 10.6387L18.7432 9.84584C18.5652 9.66964 18.2084 9.66964 17.9415 9.84584C17.7626 10.022 17.7626 10.3744 17.9415 10.6387L19.1889 11.784Z" fill="#808080"></path><path d="M24.6254 11.9602H31.8443C32.1112 11.9602 32.3791 11.6959 32.3791 11.4316C32.3791 11.1673 32.1112 10.903 31.8443 10.903H24.6254C24.3576 10.903 24.0907 11.1673 24.0907 11.4316C24.0008 11.6959 24.2686 11.9602 24.6254 11.9602Z" fill="#808080"></path><path d="M24.6255 9.75775H27.9222C28.19 9.75775 28.4578 9.49345 28.4578 9.22916C28.4578 8.96486 28.19 8.70056 27.9222 8.70056H24.5365C24.2687 8.70056 24.0009 8.96486 24.0009 9.22916C24.0009 9.49345 24.2687 9.75775 24.6255 9.75775Z" fill="#808080"></path><path d="M19.1889 16.7175C19.3669 16.8937 19.7237 16.8937 19.9906 16.7175L22.7534 13.9865C22.9314 13.8103 22.9314 13.4579 22.7534 13.1936C22.5754 13.0174 22.2196 13.0174 21.9517 13.1936L19.5457 15.5722L18.7432 14.7793C18.5652 14.6031 18.2084 14.6031 17.9415 14.7793C17.7626 14.9555 17.7626 15.3079 17.9415 15.5722L19.1889 16.7175Z" fill="#808080"></path><path d="M24.6254 16.8937H31.8443C32.1112 16.8937 32.3791 16.6294 32.3791 16.3651C32.3791 16.1008 32.1112 15.8365 31.8443 15.8365H24.6254C24.3576 15.8365 24.0907 16.1008 24.0907 16.3651C24.0008 16.6294 24.2686 16.8937 24.6254 16.8937Z" fill="#808080"></path><path d="M24.6255 14.6913H27.9222C28.19 14.6913 28.4578 14.427 28.4578 14.1627C28.4578 13.8984 28.19 13.6341 27.9222 13.6341H24.5365C24.2687 13.6341 24.0009 13.8984 24.0009 14.1627C24.0009 14.427 24.2687 14.6913 24.6255 14.6913Z" fill="#808080"></path><path d="M21.9517 18.1272L19.5457 20.5058L18.7432 19.7129C18.5652 19.5367 18.2084 19.5367 17.9415 19.7129C17.7626 19.8891 17.7626 20.2415 17.9415 20.5058L19.1 21.6511C19.2779 21.8273 19.6347 21.8273 19.9025 21.6511L22.6653 18.92C22.8433 18.7438 22.8433 18.3915 22.6653 18.1272C22.5754 17.951 22.2196 17.951 21.9517 18.1272Z" fill="#808080"></path><path d="M24.6254 21.8273H31.8443C32.1112 21.8273 32.3791 21.563 32.3791 21.2987C32.3791 21.0344 32.1112 20.7701 31.8443 20.7701H24.6254C24.3576 20.7701 24.0907 21.0344 24.0907 21.2987C24.0008 21.563 24.2686 21.8273 24.6254 21.8273Z" fill="#808080"></path><path d="M24.6255 19.6248H27.9222C28.19 19.6248 28.4578 19.3606 28.4578 19.0963C28.4578 18.832 28.19 18.5677 27.9222 18.5677H24.5365C24.2687 18.5677 24.0009 18.832 24.0009 19.0963C24.0009 19.3606 24.2687 19.6248 24.6255 19.6248Z" fill="#808080"></path><path d="M21.9517 23.1488L19.5457 25.5274L18.7432 24.7345C18.5652 24.5583 18.2084 24.5583 17.9415 24.7345C17.7626 24.9107 17.7626 25.2631 17.9415 25.5274L19.1 26.6727C19.2779 26.8489 19.6347 26.8489 19.9025 26.6727L22.6653 23.9417C22.8433 23.7655 22.8433 23.4131 22.6653 23.1488C22.5754 22.8845 22.2196 22.8845 21.9517 23.1488Z" fill="#808080"></path><path d="M24.6255 26.7608H31.8443C32.1113 26.7608 32.3791 26.4965 32.3791 26.2322C32.3791 25.9679 32.1113 25.7036 31.8443 25.7036H24.6255C24.3576 25.7036 24.0907 25.9679 24.0907 26.2322C24.0907 26.4965 24.2687 26.7608 24.6255 26.7608Z" fill="#808080"></path><path d="M24.6255 24.5583H27.9222C28.19 24.5583 28.4578 24.2941 28.4578 24.0298C28.4578 23.7655 28.19 23.5012 27.9222 23.5012H24.5365C24.2687 23.5012 24.0009 23.7655 24.0009 24.0298C24.0009 24.2941 24.2687 24.5583 24.6255 24.5583Z" fill="#808080"></path><path d="M44.054 2.00505C44.9447 2.00505 45.7472 2.70984 45.7472 3.67893C45.7472 4.64802 45.0337 5.35282 44.054 5.35282C43.0735 5.35282 42.3599 4.64802 42.3599 3.67893C42.3599 2.70984 43.1624 2.00505 44.054 2.00505ZM44.054 6.41C45.5693 6.41 46.8168 5.17662 46.8168 3.67893C46.8168 2.18125 45.5693 0.947864 44.054 0.947864C42.5387 0.947864 41.2903 2.09315 41.2903 3.67893C41.2903 5.26472 42.5387 6.41 44.054 6.41Z" fill="#808080"></path></svg>