<svg xmlns="http://www.w3.org/2000/svg" width="51" height="51" viewBox="0 0 51 51" fill="none"><path d="M42.0787 49.6022H30.547V46.9046H47.7114C46.3913 48.5579 44.2785 49.6022 42.0787 49.6022ZM2.99431 46.9046H20.6878V49.6022H8.62788C6.42719 49.6022 4.31438 48.5579 2.99431 46.9046ZM29.4906 49.6022H21.7442V46.9046H29.4906V49.6022ZM5.10712 39.247H45.5994L47.9759 45.7733C42.1657 45.7733 9.33186 45.7733 2.73064 45.7733L5.10712 39.247ZM9.15609 10.9659H41.6384C43.7512 10.9659 45.5107 12.7063 45.5107 14.7948V34.896H5.2829V14.7948C5.2829 12.7063 7.04328 10.9659 9.15609 10.9659ZM5.2829 36.0273H45.4237V38.2027H5.2829V36.0273ZM46.5671 38.6378V14.7948C46.5671 12.0972 44.3673 9.92173 41.6384 9.92173H9.15609C6.42719 9.92173 4.22648 12.0972 4.22648 14.7948V38.6378C1.3218 46.6435 1.49759 46.2084 1.49759 46.3825C1.49759 46.4695 1.49759 46.4695 1.49759 46.5565C1.49759 46.6435 1.49759 46.6435 1.49759 46.6435C2.99431 49.1671 5.63445 50.7334 8.62788 50.7334H42.0787C44.9833 50.7334 47.7114 49.1671 49.2081 46.6435C49.2081 46.6435 49.2081 46.6435 49.2081 46.5565C49.2081 46.5565 49.2081 46.4695 49.2081 46.3825C49.2969 46.2084 49.3839 46.6435 46.5671 38.6378Z" fill="#808080"></path><path d="M20.0717 14.2726H22.3603C22.9764 15.3169 26.9375 22.1043 27.4657 22.9745H15.0542L20.0717 14.2726ZM27.9939 15.926H29.8421L35.0363 22.9745H28.6978C27.906 21.5822 26.9375 19.9288 26.1456 18.5365L27.9939 15.926ZM11.885 24.0187C12.9414 24.0187 36.7088 24.0187 38.2925 24.0187C38.557 24.0187 38.8216 23.7577 38.8216 23.4966C38.8216 23.2355 38.557 22.9745 38.2925 22.9745H36.3563L30.547 15.0558C30.4582 14.8818 30.2825 14.7947 30.1067 14.7947H27.7302C27.5535 14.7947 27.3778 14.8818 27.2899 15.0558L25.5286 17.4923L23.1521 13.4025C23.0643 13.2284 22.8885 13.1414 22.7118 13.1414H19.8072C19.6314 13.1414 19.4556 13.2284 19.3668 13.4025L13.8212 22.8875H11.9729C11.7083 22.8875 11.4447 23.1485 11.4447 23.4096C11.3568 23.7577 11.5326 24.0187 11.885 24.0187Z" fill="#808080"></path><path d="M12.4132 26.8033H16.8146V31.1542H12.4132V26.8033ZM11.885 32.1984H17.4307C17.6943 32.1984 17.9589 31.9374 17.9589 31.6763V26.1942C17.9589 25.9331 17.6943 25.6721 17.4307 25.6721H11.885C11.6204 25.6721 11.3568 25.9331 11.3568 26.1942V31.6763C11.3568 31.9374 11.5325 32.1984 11.885 32.1984Z" fill="#808080"></path><path d="M23.944 26.1942H19.5435C19.2789 26.1942 19.0153 26.4552 19.0153 26.7163C19.0153 26.9773 19.2789 27.2384 19.5435 27.2384H23.944C24.2085 27.2384 24.4722 26.9773 24.4722 26.7163C24.4722 26.4552 24.2964 26.1942 23.944 26.1942Z" fill="#808080"></path><path d="M23.944 28.3696H19.5435C19.2789 28.3696 19.0153 28.6307 19.0153 28.8917C19.0153 29.1528 19.2789 29.4138 19.5435 29.4138H23.944C24.2085 29.4138 24.4722 29.1528 24.4722 28.8917C24.4722 28.6307 24.2964 28.3696 23.944 28.3696Z" fill="#808080"></path><path d="M23.944 30.5451H19.5435C19.2789 30.5451 19.0153 30.8061 19.0153 31.0672C19.0153 31.3283 19.2789 31.5893 19.5435 31.5893H23.944C24.2085 31.5893 24.4722 31.3283 24.4722 31.0672C24.4722 30.8061 24.2964 30.5451 23.944 30.5451Z" fill="#808080"></path><path d="M31.6904 31.1542H27.2899V26.8033H31.6904V31.1542ZM32.2195 25.6721H26.6738C26.4092 25.6721 26.1456 25.9331 26.1456 26.1942V31.6763C26.1456 31.9374 26.4092 32.1984 26.6738 32.1984H32.2195C32.4831 32.1984 32.7468 31.9374 32.7468 31.6763V26.1942C32.7468 25.9331 32.571 25.6721 32.2195 25.6721Z" fill="#808080"></path><path d="M34.4202 26.1942C34.1556 26.1942 33.892 26.4552 33.892 26.7163C33.892 26.9773 34.1556 27.2384 34.4202 27.2384H38.8216C39.0853 27.2384 39.3489 26.9773 39.3489 26.7163C39.3489 26.4552 39.0853 26.1942 38.8216 26.1942H34.4202Z" fill="#808080"></path><path d="M38.8216 28.3696H34.4202C34.1556 28.3696 33.892 28.6307 33.892 28.8917C33.892 29.1528 34.1556 29.4138 34.4202 29.4138H38.8216C39.0853 29.4138 39.3489 29.1528 39.3489 28.8917C39.3489 28.6307 39.1731 28.3696 38.8216 28.3696Z" fill="#808080"></path><path d="M38.8216 30.5451H34.4202C34.1556 30.5451 33.892 30.8061 33.892 31.0672C33.892 31.3283 34.1556 31.5893 34.4202 31.5893H38.8216C39.0853 31.5893 39.3489 31.3283 39.3489 31.0672C39.3489 30.8061 39.1731 30.5451 38.8216 30.5451Z" fill="#808080"></path><path d="M10.2125 40.9003H9.06822C8.80368 40.9003 8.54001 41.1614 8.54001 41.4224C8.54001 41.6835 8.80368 41.9445 9.06822 41.9445H10.2125C10.4762 41.9445 10.7407 41.6835 10.7407 41.4224C10.7407 41.1614 10.5649 40.9003 10.2125 40.9003Z" fill="#808080"></path><path d="M14.6139 40.9003H13.4696C13.2051 40.9003 12.9414 41.1614 12.9414 41.4224C12.9414 41.6835 13.2051 41.9445 13.4696 41.9445H14.6139C14.8776 41.9445 15.1421 41.6835 15.1421 41.4224C15.1421 41.1614 14.9664 40.9003 14.6139 40.9003Z" fill="#808080"></path><path d="M17.9589 42.0315H19.1032C19.3669 42.0315 19.6314 41.7705 19.6314 41.5094C19.6314 41.2484 19.3669 40.9873 19.1032 40.9873H17.9589C17.6944 40.9873 17.4307 41.2484 17.4307 41.5094C17.3428 41.7705 17.6065 42.0315 17.9589 42.0315Z" fill="#808080"></path><path d="M22.3603 42.0315H23.5046C23.7682 42.0315 24.0328 41.7705 24.0328 41.5094C24.0328 41.2484 23.7682 40.9873 23.5046 40.9873H22.3603C22.0957 40.9873 21.8321 41.2484 21.8321 41.5094C21.7442 41.7705 22.0078 42.0315 22.3603 42.0315Z" fill="#808080"></path><path d="M26.7617 42.0315H27.906C28.1696 42.0315 28.4342 41.7705 28.4342 41.5094C28.4342 41.2484 28.1696 40.9873 27.906 40.9873H26.7617C26.4971 40.9873 26.2335 41.2484 26.2335 41.5094C26.1456 41.7705 26.4092 42.0315 26.7617 42.0315Z" fill="#808080"></path><path d="M31.1631 42.0315H32.3065C32.571 42.0315 32.8356 41.7705 32.8356 41.5094C32.8356 41.2484 32.571 40.9873 32.3065 40.9873H31.1631C30.8985 40.9873 30.634 41.2484 30.634 41.5094C30.547 41.7705 30.8106 42.0315 31.1631 42.0315Z" fill="#808080"></path><path d="M35.5644 42.0315H36.7087C36.9733 42.0315 37.2361 41.7705 37.2361 41.5094C37.2361 41.2484 36.9733 40.9873 36.7087 40.9873H35.5644C35.2999 40.9873 35.0362 41.2484 35.0362 41.5094C34.9483 41.7705 35.212 42.0315 35.5644 42.0315Z" fill="#808080"></path><path d="M39.965 42.0315H41.1102C41.3738 42.0315 41.6384 41.7705 41.6384 41.5094C41.6384 41.2484 41.3738 40.9873 41.1102 40.9873H39.965C39.7013 40.9873 39.4377 41.2484 39.4377 41.5094C39.3489 41.7705 39.6135 42.0315 39.965 42.0315Z" fill="#808080"></path><path d="M10.2125 43.0758H9.06822C8.80368 43.0758 8.54001 43.3368 8.54001 43.5979C8.54001 43.859 8.80368 44.12 9.06822 44.12H10.2125C10.4762 44.12 10.7407 43.859 10.7407 43.5979C10.7407 43.3368 10.5649 43.0758 10.2125 43.0758Z" fill="#808080"></path><path d="M14.6139 43.0758H13.4696C13.2051 43.0758 12.9414 43.3368 12.9414 43.5979C12.9414 43.859 13.2051 44.12 13.4696 44.12H14.6139C14.8776 44.12 15.1421 43.859 15.1421 43.5979C15.1421 43.3368 14.9664 43.0758 14.6139 43.0758Z" fill="#808080"></path><path d="M28.3463 43.5978C28.3463 43.3368 28.0817 43.0757 27.8181 43.0757H17.9589C17.6943 43.0757 17.4307 43.3368 17.4307 43.5978C17.4307 43.8589 17.6943 44.12 17.9589 44.12H27.906C28.1696 44.207 28.3463 43.9459 28.3463 43.5978Z" fill="#808080"></path><path d="M31.1631 44.207H32.3065C32.571 44.207 32.8356 43.946 32.8356 43.6849C32.8356 43.4238 32.571 43.1628 32.3065 43.1628H31.1631C30.8985 43.1628 30.634 43.4238 30.634 43.6849C30.547 43.946 30.8106 44.207 31.1631 44.207Z" fill="#808080"></path><path d="M35.5644 44.207H36.7087C36.9733 44.207 37.2361 43.946 37.2361 43.6849C37.2361 43.4238 36.9733 43.1628 36.7087 43.1628H35.5644C35.2999 43.1628 35.0362 43.4238 35.0362 43.6849C34.9483 43.946 35.212 44.207 35.5644 44.207Z" fill="#808080"></path><path d="M39.965 44.207H41.1102C41.3738 44.207 41.6384 43.946 41.6384 43.6849C41.6384 43.4238 41.3738 43.1628 41.1102 43.1628H39.965C39.7013 43.1628 39.4377 43.4238 39.4377 43.6849C39.3489 43.946 39.6135 44.207 39.965 44.207Z" fill="#808080"></path><path d="M46.5671 1.74197C47.4477 1.74197 48.2404 2.43812 48.2404 3.39532C48.2404 4.35253 47.5356 5.04867 46.5671 5.04867C45.5994 5.04867 44.8946 4.35253 44.8946 3.39532C44.8946 2.43812 45.5994 1.74197 46.5671 1.74197ZM46.5671 6.0929C48.0638 6.0929 49.2969 4.87464 49.2969 3.39532C49.2969 1.91601 48.0638 0.697749 46.5671 0.697749C45.0704 0.697749 43.8382 1.91601 43.8382 3.39532C43.8382 4.87464 44.9833 6.0929 46.5671 6.0929Z" fill="#808080"></path><path d="M5.28289 1.742C6.77961 1.742 8.01178 2.96026 8.01178 4.43957C8.01178 5.91889 6.77961 7.13715 5.28289 7.13715C3.78617 7.13715 2.55398 5.91889 2.55398 4.43957C2.55398 2.96026 3.78617 1.742 5.28289 1.742ZM5.28289 8.26839C7.3957 8.26839 9.15609 6.52802 9.15609 4.43957C9.15609 2.35113 7.3957 0.61076 5.28289 0.61076C3.17008 0.61076 1.4097 2.35113 1.4097 4.43957C1.4097 6.52802 3.17008 8.26839 5.28289 8.26839Z" fill="#808080"></path><path d="M39.6134 4.52656C40.0511 4.52656 40.4053 4.87725 40.4053 5.30973C40.4053 5.74221 40.0511 6.0929 39.6134 6.0929C39.1757 6.0929 38.8215 5.74221 38.8215 5.30973C38.8215 4.87725 39.1757 4.52656 39.6134 4.52656Z" fill="#808080"></path><path d="M27.0253 2.35107C27.463 2.35107 27.8181 2.70176 27.8181 3.13424C27.8181 3.56672 27.463 3.9174 27.0253 3.9174C26.5885 3.9174 26.2335 3.56672 26.2335 3.13424C26.2335 2.70176 26.5885 2.35107 27.0253 2.35107Z" fill="#808080"></path><path d="M16.55 5.57077C16.9877 5.57077 17.3428 5.92145 17.3428 6.35393C17.3428 6.78642 16.9877 7.1371 16.55 7.1371C16.1123 7.1371 15.7581 6.78642 15.7581 6.35393C15.7581 5.92145 16.1123 5.57077 16.55 5.57077Z" fill="#808080"></path><path d="M49.5605 24.6278C49.9974 24.6278 50.3533 24.9785 50.3533 25.411C50.3533 25.8434 49.9974 26.1941 49.5605 26.1941C49.1237 26.1941 48.7678 25.8434 48.7678 25.411C48.7678 24.9785 49.1237 24.6278 49.5605 24.6278Z" fill="#808080"></path><path d="M1.14515 17.5793C1.58285 17.5793 1.9379 17.93 1.9379 18.3625C1.9379 18.795 1.58285 19.1457 1.14515 19.1457C0.708315 19.1457 0.353271 18.795 0.353271 18.3625C0.353271 17.93 0.708315 17.5793 1.14515 17.5793Z" fill="#808080"></path></svg>