<svg xmlns="http://www.w3.org/2000/svg" width="50" height="52" viewBox="0 0 50 52" fill="none"><path d="M25.0426 39.0272C25.6831 39.0272 26.202 39.5399 26.202 40.1725C26.202 40.805 25.6831 41.3177 25.0426 41.3177C24.4039 41.3177 23.885 40.805 23.885 40.1725C23.885 39.5399 24.4039 39.0272 25.0426 39.0272Z" fill="#808080"></path><path d="M48.1242 48.4536C48.5673 48.4536 48.9268 48.8086 48.9268 49.2465C48.9268 49.6843 48.5673 50.0394 48.1242 50.0394C47.6811 50.0394 47.3225 49.6843 47.3225 49.2465C47.3225 48.8086 47.6811 48.4536 48.1242 48.4536Z" fill="#808080"></path><path d="M38.1436 1.05719C38.5859 1.05719 38.9453 1.41222 38.9453 1.85007C38.9453 2.28791 38.5859 2.64294 38.1436 2.64294C37.7005 2.64294 37.3411 2.28791 37.3411 1.85007C37.3411 1.41222 37.7005 1.05719 38.1436 1.05719Z" fill="#808080"></path><path d="M13.101 1.05719C13.5441 1.05719 13.9036 1.41222 13.9036 1.85007C13.9036 2.28791 13.5441 2.64294 13.101 2.64294C12.6579 2.64294 12.2984 2.28791 12.2984 1.85007C12.2984 1.41222 12.6579 1.05719 13.101 1.05719Z" fill="#808080"></path><path d="M6.4179 4.93347C6.86015 4.93347 7.2196 5.2885 7.2196 5.72635C7.2196 6.16419 6.86015 6.51923 6.4179 6.51923C5.97477 6.51923 5.61444 6.16419 5.61444 5.72635C5.61444 5.2885 5.97477 4.93347 6.4179 4.93347Z" fill="#808080"></path><path d="M39.2131 45.106C39.6563 45.106 40.0148 45.461 40.0148 45.8988C40.0148 46.3367 39.6563 46.6917 39.2131 46.6917C38.77 46.6917 38.4105 46.3367 38.4105 45.8988C38.4105 45.461 38.77 45.106 39.2131 45.106Z" fill="#808080"></path><path d="M11.9425 45.106C12.3856 45.106 12.7442 45.461 12.7442 45.8988C12.7442 46.3367 12.3856 46.6917 11.9425 46.6917C11.4993 46.6917 11.1408 46.3367 11.1408 45.8988C11.1408 45.461 11.4993 45.106 11.9425 45.106Z" fill="#808080"></path><path d="M5.52634 49.5108C4.63479 49.5108 3.83313 48.806 3.83313 47.837C3.83313 46.8679 4.54581 46.1631 5.52634 46.1631C6.50598 46.1631 7.21959 46.8679 7.21959 47.837C7.21959 48.806 6.50598 49.5108 5.52634 49.5108ZM5.52634 45.1059C4.01106 45.1059 2.76361 46.3393 2.76361 47.837C2.76361 49.3346 4.01106 50.568 5.52634 50.568C7.04162 50.568 8.28911 49.3346 8.28911 47.837C8.37809 46.3393 7.04162 45.1059 5.52634 45.1059Z" fill="#808080"></path><path d="M49.0158 40.613C49.0158 41.8463 47.9462 42.9035 46.6988 42.9035C45.3623 42.9035 4.72469 42.9035 3.38737 42.9035C2.13991 42.9035 1.06952 41.8463 1.06952 40.613V11.0122C1.06952 9.77882 2.13991 8.72165 3.38737 8.72165H46.6988C47.9462 8.72165 49.0158 9.77882 49.0158 11.0122V40.613ZM27.8063 47.3084H22.1918V43.9607H27.8063V47.3084ZM35.6478 49.5108C35.6478 50.1275 35.1139 50.6561 34.4902 50.6561H15.5959C14.9722 50.6561 14.4383 50.1275 14.4383 49.5108C14.4383 48.8941 14.9722 48.3655 15.5959 48.3655C17.6468 48.3655 32.7961 48.3655 34.5783 48.3655C35.1139 48.3655 35.6478 48.8941 35.6478 49.5108ZM46.6988 7.66447H3.38737C1.5153 7.66447 0 9.16213 0 11.0122V40.613C0 42.463 1.5153 43.9607 3.38737 43.9607H21.1223V47.3084H15.5078C14.2595 47.3084 13.2798 48.2775 13.2798 49.5108C13.2798 50.7442 14.2595 51.7133 15.5078 51.7133H34.4902C35.7377 51.7133 36.7173 50.7442 36.7173 49.5108C36.7173 48.2775 35.7377 47.3084 34.4902 47.3084H28.8757V43.9607H46.6098C48.4819 43.9607 49.9963 42.463 49.9963 40.613V11.0122C50.0853 9.16213 48.57 7.66447 46.6988 7.66447Z" fill="#808080"></path><path d="M45.6293 36.2962H4.45685V12.0694H30.4791L16.4875 25.9007C16.3994 25.9888 16.3994 26.0769 16.3095 26.165C13.8137 34.4462 13.9035 34.0057 13.9035 34.0938C13.9035 34.3581 14.0815 34.6224 14.4383 34.6224H33.9546C34.2224 34.6224 34.4902 34.3581 34.4902 34.0938C34.4902 33.8295 34.2224 33.5652 33.9546 33.5652H18.2705L22.5477 32.3318C22.6375 32.3318 22.7256 32.2437 22.8155 32.1556C22.8155 32.1556 32.7071 22.3768 34.2224 20.8791L37.0741 18.06C38.0546 17.091 38.0546 15.4171 37.0741 14.448L34.7562 12.1575H45.7182V36.2962H45.6293ZM22.5477 30.7461C22.0129 31.2747 21.1222 31.2747 20.5866 30.7461C20.0527 30.2175 20.0527 29.3365 20.5866 28.8079C23.885 25.5483 28.6079 20.8791 31.0138 18.5005L32.9749 20.4387C32.1723 21.2315 22.0129 31.2747 22.5477 30.7461ZM28.2511 15.7695L30.2113 17.7076L19.7849 28.0151C19.2502 28.5436 18.3586 28.5436 17.8247 28.0151C17.2891 27.4865 17.2891 26.6055 17.8247 26.0769L28.2511 15.7695ZM16.7553 28.4555C17.2891 29.2484 18.1807 29.6008 19.0722 29.5127C18.9832 30.3937 19.3392 31.2747 20.1417 31.8032L15.3289 33.2128L16.7553 28.4555ZM33.7766 19.6458L29.0537 14.9766L31.5486 12.5099C32.0834 11.9813 33.0639 11.9813 33.5986 12.5099L36.2715 15.1528C36.8071 15.6814 36.8071 16.6505 36.2715 17.1791L33.7766 19.6458ZM46.2529 10.9241H3.92121C3.65427 10.9241 3.38733 11.1884 3.38733 11.4527V36.8248C3.38733 37.0891 3.65427 37.3534 3.92121 37.3534H46.2529C46.5208 37.3534 46.7886 37.0891 46.7886 36.8248V11.5408C46.7886 11.1884 46.5208 10.9241 46.2529 10.9241Z" fill="#808080"></path><path d="M45.8971 1.05717C46.9666 1.05717 47.8582 1.93814 47.8582 2.99531C47.8582 4.05248 46.9666 4.93346 45.8971 4.93346C44.8276 4.93346 43.936 4.05248 43.936 2.99531C43.936 1.93814 44.8276 1.05717 45.8971 1.05717ZM45.8971 5.99063C47.5903 5.99063 48.9268 4.66917 48.9268 2.99531C48.9268 1.32146 47.5903 -3.30806e-06 45.8971 -3.30806e-06C44.203 -3.30806e-06 42.8674 1.32146 42.8674 2.99531C42.8674 4.66917 44.203 5.99063 45.8971 5.99063Z" fill="#808080"></path></svg>