<svg xmlns="http://www.w3.org/2000/svg" width="51" height="53" viewBox="0 0 51 53" fill="none"><path d="M14.0855 11.3734C14.7318 11.3734 15.2554 11.8908 15.2554 12.5291C15.2554 13.1674 14.7318 13.6848 14.0855 13.6848C13.4401 13.6848 12.9165 13.1674 12.9165 12.5291C12.9165 11.8908 13.4401 11.3734 14.0855 11.3734Z" fill="#808080"></path><path d="M10.758 11.3734C11.4043 11.3734 11.9279 11.8908 11.9279 12.5291C11.9279 13.1674 11.4043 13.6848 10.758 13.6848C10.1126 13.6848 9.58989 13.1674 9.58989 12.5291C9.58989 11.8908 10.1126 11.3734 10.758 11.3734Z" fill="#808080"></path><path d="M7.34075 11.3734C7.98704 11.3734 8.51066 11.8908 8.51066 12.5291C8.51066 13.1674 7.98704 13.6848 7.34075 13.6848C6.69534 13.6848 6.17265 13.1674 6.17265 12.5291C6.17265 11.8908 6.69534 11.3734 7.34075 11.3734Z" fill="#808080"></path><path d="M9.04945 3.63929C9.67885 3.63929 10.2194 4.17268 10.2194 4.79497C10.2194 5.41725 9.67885 5.95065 9.04945 5.95065C8.42005 5.95065 7.88131 5.41725 7.88131 4.79497C7.88131 4.08378 8.42005 3.63929 9.04945 3.63929ZM9.04945 6.92853C10.3083 6.92853 11.2986 5.95065 11.2986 4.70607C11.2986 3.46149 10.3083 2.48361 9.04945 2.48361C7.79065 2.48361 6.80207 3.46149 6.80207 4.70607C6.80207 5.95065 7.79065 6.92853 9.04945 6.92853Z" fill="#808080"></path><path d="M40.2554 1.41677C41.3346 1.41677 42.2334 2.30575 42.2334 3.37253C42.2334 4.43932 41.3346 5.3283 40.2554 5.3283C39.1762 5.3283 38.2765 4.43932 38.2765 3.37253C38.2765 2.30575 39.1762 1.41677 40.2554 1.41677ZM40.2554 6.39508C41.964 6.39508 43.3126 5.0616 43.3126 3.37253C43.3126 1.68346 41.964 0.349988 40.2554 0.349988C38.5468 0.349988 37.1973 1.68346 37.1973 3.37253C37.1973 5.0616 38.5468 6.39508 40.2554 6.39508Z" fill="#808080"></path><path d="M0.866314 8.08415C1.31347 8.08415 1.6753 8.44242 1.6753 8.88424C1.6753 9.32607 1.31347 9.68433 0.866314 9.68433C0.419155 9.68433 0.057373 9.32607 0.057373 8.88424C0.057373 8.44242 0.419155 8.08415 0.866314 8.08415Z" fill="#808080"></path><path d="M16.604 2.57244C17.0502 2.57244 17.413 2.9307 17.413 3.37252C17.413 3.81435 17.0502 4.17261 16.604 4.17261C16.1568 4.17261 15.7941 3.81435 15.7941 3.37252C15.7941 2.9307 16.1568 2.57244 16.604 2.57244Z" fill="#808080"></path><path d="M32.3408 3.63927C32.788 3.63927 33.1507 3.99753 33.1507 4.43936C33.1507 4.88118 32.788 5.23944 32.3408 5.23944C31.8936 5.23944 31.5318 4.88118 31.5318 4.43936C31.5318 3.99753 31.8936 3.63927 32.3408 3.63927Z" fill="#808080"></path><path d="M22.2686 5.86168C22.7158 5.86168 23.0785 6.21994 23.0785 6.66177C23.0785 7.10359 22.7158 7.46185 22.2686 7.46185C21.8223 7.46185 21.4597 7.10359 21.4597 6.66177C21.4597 6.21994 21.8223 5.86168 22.2686 5.86168Z" fill="#808080"></path><path d="M49.2484 8.08415C49.6947 8.08415 50.0574 8.44242 50.0574 8.88424C50.0574 9.32607 49.6947 9.68433 49.2484 9.68433C48.8012 9.68433 48.4385 9.32607 48.4385 8.88424C48.4385 8.44242 48.8012 8.08415 49.2484 8.08415Z" fill="#808080"></path><path d="M43.6718 51.3776H5.90242C4.55383 51.3776 3.38392 50.3109 3.38392 48.8885V16.4406H46.1005V48.9774C46.1005 50.3109 45.0213 51.3776 43.6718 51.3776ZM5.90242 9.77319H20.2915V15.2849H3.38392V12.1734C3.38392 10.84 4.55383 9.77319 5.90242 9.77319ZM46.1005 11.9956H21.3707V9.77319H43.6718C44.9315 9.77319 46.0098 10.7511 46.1005 11.9956ZM21.3707 13.0624H46.1005V15.2849H21.3707V13.0624ZM43.6718 8.61751H5.90242C3.92443 8.61751 2.30468 10.2177 2.30468 12.1734V48.9774C2.30468 50.9332 3.92443 52.5333 5.90242 52.5333H43.6718C45.6507 52.5333 47.2695 50.9332 47.2695 48.9774V12.1734C47.2695 10.2177 45.6507 8.61751 43.6718 8.61751Z" fill="#808080"></path><path d="M41.604 46.9328H7.88131V20.8856H41.604V46.9328ZM42.2334 19.7299H7.3408C7.07144 19.7299 6.80207 19.9966 6.80207 20.2633V47.4662C6.80207 47.7329 7.07144 47.9996 7.3408 47.9996H42.2334C42.5028 47.9996 42.7731 47.7329 42.7731 47.4662V20.2633C42.7731 19.9966 42.5028 19.7299 42.2334 19.7299Z" fill="#808080"></path><path d="M10.758 23.6414H19.2122V29.242H10.758V23.6414ZM29.2835 29.1531H20.2915V23.5525H29.2835V29.1531ZM38.817 29.1531H30.3628V23.5525H38.817V29.1531ZM10.1286 30.3088C11.1181 30.3088 38.3672 30.3088 39.3558 30.3088C39.626 30.3088 39.8953 30.0421 39.8953 29.7754V23.108C39.8953 22.8413 39.626 22.5746 39.3558 22.5746C38.3672 22.5746 11.1181 22.5746 10.1286 22.5746C9.85926 22.5746 9.58989 22.8413 9.58989 23.108V29.7754C9.58989 30.0421 9.85926 30.3088 10.1286 30.3088Z" fill="#808080"></path><path d="M11.2985 33.0646H18.0424C18.3126 33.0646 18.582 32.7979 18.582 32.5312C18.582 32.2645 18.3126 31.9978 18.0424 31.9978H11.2985C11.0282 31.9978 10.758 32.2645 10.758 32.5312C10.758 32.7979 10.9385 33.0646 11.2985 33.0646Z" fill="#808080"></path><path d="M11.2274 41.2432H18.5109C18.7811 41.2432 19.0505 40.9765 19.0505 40.7098C19.0505 40.4431 18.7811 40.1764 18.5109 40.1764H11.2274C10.9572 40.1764 10.6869 40.4431 10.6869 40.7098C10.6869 40.9765 10.9572 41.2432 11.2274 41.2432Z" fill="#808080"></path><path d="M18.582 35.287C18.582 35.0203 18.3126 34.7537 18.0424 34.7537H11.2985C11.0282 34.7537 10.758 35.0203 10.758 35.287C10.758 35.5537 11.0282 35.8204 11.2985 35.8204H18.0424C18.3126 35.8204 18.582 35.5537 18.582 35.287Z" fill="#808080"></path><path d="M19.0496 38.0428C19.0496 37.7761 18.7793 37.5095 18.5109 37.5095H11.2257C10.9554 37.5095 10.6869 37.7761 10.6869 38.0428C10.6869 38.3095 10.9554 38.5762 11.2257 38.5762H18.5109C18.7793 38.5762 19.0496 38.3095 19.0496 38.0428Z" fill="#808080"></path><path d="M17.9722 42.8434H11.2265C10.9572 42.8434 10.6869 43.1101 10.6869 43.3768C10.6869 43.6435 10.9572 43.9102 11.2265 43.9102H17.9722C18.2406 43.9102 18.5109 43.6435 18.5109 43.3768C18.5109 43.1101 18.3313 42.8434 17.9722 42.8434Z" fill="#808080"></path></svg>