<svg xmlns="http://www.w3.org/2000/svg" width="51" height="51" viewBox="0 0 51 51" fill="none"><path d="M22.3784 9.0511C23.0103 9.0511 23.5225 9.55755 23.5225 10.1823C23.5225 10.8071 23.0103 11.3136 22.3784 11.3136C21.7461 11.3136 21.2339 10.8071 21.2339 10.1823C21.2339 9.55755 21.7461 9.0511 22.3784 9.0511Z" fill="#808080"></path><path d="M29.0683 9.0511C29.7001 9.0511 30.2126 9.55755 30.2126 10.1823C30.2126 10.8071 29.7001 11.3136 29.0683 11.3136C28.4365 11.3136 27.9243 10.8071 27.9243 10.1823C27.9243 9.55755 28.4365 9.0511 29.0683 9.0511Z" fill="#808080"></path><path d="M42.1847 49.6021H30.6529V46.9045H47.8183C46.4973 48.5579 44.3854 49.6021 42.1847 49.6021ZM3.10018 46.9045H20.794V49.6021H8.73398C6.53335 49.6021 4.42044 48.5579 3.10018 46.9045ZM29.5964 49.6021H21.8502V46.9045H29.5964V49.6021ZM5.21275 39.2468H45.7055L48.082 45.7733C46.1458 45.7733 5.03705 45.7733 2.83607 45.7733L5.21275 39.2468ZM9.26219 10.9655H18.593V14.0112C17.3608 14.0982 16.3924 15.1425 16.3924 16.3607C16.3924 17.666 17.4489 18.7103 18.7691 18.7103H20.0017L18.9452 19.7545H17.0964C16.8326 19.7545 16.5682 20.0156 16.5682 20.2766C16.5682 20.5377 16.8326 20.7987 17.0964 20.7987H18.6811V22.3651C18.6811 22.6261 18.9452 22.8872 19.2096 22.8872C19.4734 22.8872 19.7375 22.6261 19.7375 22.3651V20.5377L20.794 19.4934V21.0598C20.794 21.3209 21.0578 21.5819 21.3219 21.5819H30.2125C30.4771 21.5819 30.7408 21.3209 30.7408 21.0598V19.4064L31.7972 20.4507V22.2781C31.7972 22.5391 32.0617 22.8002 32.3254 22.8002C32.5899 22.8002 32.8536 22.5391 32.8536 22.2781V20.8858H34.4382C34.7019 20.8858 34.9664 20.6247 34.9664 20.3636C34.9664 20.1026 34.7019 19.8415 34.4382 19.8415H32.5899L31.5335 18.7973H32.7657C34.0858 18.7973 35.1422 17.7531 35.1422 16.4478C35.1422 15.2295 34.1737 14.1853 32.9415 14.0982V11.0526H41.6565C43.7693 11.0526 45.5297 12.793 45.5297 14.8814V34.9829H5.38887V14.7944C5.38887 12.7059 7.14962 10.9655 9.26219 10.9655ZM25.7232 4.09102C29.0682 4.09102 31.7972 6.78862 31.7972 10.0954V10.1824C31.7093 10.3564 31.7093 10.5304 31.7972 10.6175V14.4463C31.7972 14.7074 32.0617 14.9684 32.3254 14.9684H32.6778C33.3818 14.9684 33.9979 15.5776 33.9979 16.2737C33.9979 16.9699 33.3818 17.579 32.6778 17.579H30.1246C29.861 17.579 29.5964 17.8401 29.5964 18.1011V20.4507H27.3959V19.1454C27.3959 18.8843 27.1318 18.6233 26.868 18.6233C26.6036 18.6233 26.3397 18.8843 26.3397 19.1454V20.4507H25.1949V19.1454C25.1949 18.8843 24.9312 18.6233 24.6671 18.6233C24.403 18.6233 24.1388 18.8843 24.1388 19.1454V20.4507H21.9381V18.2752C21.9381 17.9271 21.6737 17.666 21.4099 17.666H18.8571C18.1531 17.666 17.5365 17.0569 17.5365 16.3607C17.5365 15.6646 18.1531 15.0555 18.8571 15.0555H19.2096C19.4734 15.0555 19.7375 14.7944 19.7375 14.5333V10.7045C19.8256 10.5304 19.8256 10.3564 19.7375 10.2694V10.1824C19.6492 6.78862 22.3784 4.09102 25.7232 4.09102ZM5.38887 36.0271H45.5297V38.2026H5.38887V36.0271ZM49.4029 46.2954C49.4029 46.2084 49.4029 46.2084 49.4029 46.2084L46.674 38.7247V14.7944C46.674 12.0968 44.4733 9.92131 41.7443 9.92131H32.9415C32.8536 8.18093 32.2375 6.61458 31.0932 5.48333L32.7657 3.82996H34.614C34.8776 3.82996 35.1422 3.5689 35.1422 3.30784C35.1422 3.04678 34.8776 2.78573 34.614 2.78573H33.0294V1.21938C33.0294 0.958319 32.7657 0.697261 32.502 0.697261C32.2375 0.697261 31.9738 0.958319 31.9738 1.21938V3.04678L30.3004 4.70015C27.6597 2.52467 23.787 2.52467 21.1458 4.70015L19.4734 3.04678V1.21938C19.4734 0.958319 19.2096 0.697261 18.9452 0.697261C18.6811 0.697261 18.417 0.958319 18.417 1.21938V2.78573H16.8326C16.5682 2.78573 16.3043 3.04678 16.3043 3.30784C16.3043 3.5689 16.5682 3.82996 16.8326 3.82996H18.6811L20.3538 5.48333C19.2974 6.7016 18.593 8.26795 18.505 9.92131H9.26219C6.53335 9.92131 4.33237 12.0968 4.33237 14.7944V38.6377C1.51582 46.5565 1.60388 46.2084 1.60388 46.2954C1.60388 46.2954 1.60388 46.2954 1.60388 46.3824C1.60388 46.3824 1.60388 46.3824 1.60388 46.4694C1.60388 46.4694 1.60388 46.4694 1.60388 46.5565V46.6435C3.10018 49.167 5.74104 50.7334 8.73398 50.7334H42.1847C45.0894 50.7334 47.8183 49.167 49.315 46.6435C49.315 46.6435 49.315 46.6435 49.315 46.5565C49.315 46.4694 49.315 46.4694 49.315 46.4694C49.4029 46.3824 49.4029 46.3824 49.4029 46.2954Z" fill="#808080"></path><path d="M10.3184 40.9002H9.17423C8.91012 40.9002 8.64594 41.1613 8.64594 41.4223C8.64594 41.6834 8.91012 41.9445 9.17423 41.9445H10.3184C10.5828 41.9445 10.8467 41.6834 10.8467 41.4223C10.8467 41.1613 10.6709 40.9002 10.3184 40.9002Z" fill="#808080"></path><path d="M14.72 40.9002H13.5755C13.3114 40.9002 13.0473 41.1613 13.0473 41.4223C13.0473 41.6834 13.3114 41.9445 13.5755 41.9445H14.72C14.9837 41.9445 15.2483 41.6834 15.2483 41.4223C15.2483 41.1613 15.0718 40.9002 14.72 40.9002Z" fill="#808080"></path><path d="M18.0649 42.0314H19.2097C19.4735 42.0314 19.7376 41.7704 19.7376 41.5093C19.7376 41.2483 19.4735 40.9872 19.2097 40.9872H18.0649C17.801 40.9872 17.5366 41.2483 17.5366 41.5093C17.4489 41.7704 17.7131 42.0314 18.0649 42.0314Z" fill="#808080"></path><path d="M22.4665 42.0314H23.6106C23.8747 42.0314 24.1389 41.7704 24.1389 41.5093C24.1389 41.2483 23.8747 40.9872 23.6106 40.9872H22.4665C22.202 40.9872 21.9382 41.2483 21.9382 41.5093C21.8502 41.7704 22.1143 42.0314 22.4665 42.0314Z" fill="#808080"></path><path d="M26.8681 42.0314H28.0122C28.276 42.0314 28.5401 41.7704 28.5401 41.5093C28.5401 41.2483 28.276 40.9872 28.0122 40.9872H26.8681C26.6036 40.9872 26.3398 41.2483 26.3398 41.5093C26.2515 41.7704 26.5156 42.0314 26.8681 42.0314Z" fill="#808080"></path><path d="M31.269 42.0314H32.4133C32.6778 42.0314 32.9415 41.7704 32.9415 41.5093C32.9415 41.2483 32.6778 40.9872 32.4133 40.9872H31.269C31.0053 40.9872 30.7407 41.2483 30.7407 41.5093C30.6529 41.7704 30.9174 42.0314 31.269 42.0314Z" fill="#808080"></path><path d="M35.6704 42.0314H36.8147C37.0793 42.0314 37.3429 41.7704 37.3429 41.5093C37.3429 41.2483 37.0793 40.9872 36.8147 40.9872H35.6704C35.4059 40.9872 35.1422 41.2483 35.1422 41.5093C35.0543 41.7704 35.318 42.0314 35.6704 42.0314Z" fill="#808080"></path><path d="M40.0719 42.0314H41.2162C41.4798 42.0314 41.7444 41.7704 41.7444 41.5093C41.7444 41.2483 41.4798 40.9872 41.2162 40.9872H40.0719C39.8082 40.9872 39.5436 41.2483 39.5436 41.5093C39.4558 41.7704 39.7194 42.0314 40.0719 42.0314Z" fill="#808080"></path><path d="M10.3184 43.0757H9.17423C8.91012 43.0757 8.64594 43.3368 8.64594 43.5978C8.64594 43.8589 8.91012 44.1199 9.17423 44.1199H10.3184C10.5828 44.1199 10.8467 43.8589 10.8467 43.5978C10.8467 43.3368 10.6709 43.0757 10.3184 43.0757Z" fill="#808080"></path><path d="M14.72 43.0757H13.5755C13.3114 43.0757 13.0473 43.3368 13.0473 43.5978C13.0473 43.8589 13.3114 44.1199 13.5755 44.1199H14.72C14.9837 44.1199 15.2483 43.8589 15.2483 43.5978C15.2483 43.3368 15.0718 43.0757 14.72 43.0757Z" fill="#808080"></path><path d="M28.4522 43.5978C28.4522 43.3367 28.188 43.0757 27.9242 43.0757H18.0649C17.801 43.0757 17.5366 43.3367 17.5366 43.5978C17.5366 43.8589 17.801 44.1199 18.0649 44.1199H28.0122C28.276 44.2069 28.4522 43.9459 28.4522 43.5978Z" fill="#808080"></path><path d="M31.269 44.207H32.4133C32.6778 44.207 32.9415 43.9459 32.9415 43.6849C32.9415 43.4238 32.6778 43.1627 32.4133 43.1627H31.269C31.0053 43.1627 30.7407 43.4238 30.7407 43.6849C30.6529 43.9459 30.9174 44.207 31.269 44.207Z" fill="#808080"></path><path d="M35.6704 44.207H36.8147C37.0793 44.207 37.3429 43.9459 37.3429 43.6849C37.3429 43.4238 37.0793 43.1627 36.8147 43.1627H35.6704C35.4059 43.1627 35.1422 43.4238 35.1422 43.6849C35.0543 43.9459 35.318 44.207 35.6704 44.207Z" fill="#808080"></path><path d="M40.0719 44.207H41.2162C41.4798 44.207 41.7444 43.9459 41.7444 43.6849C41.7444 43.4238 41.4798 43.1627 41.2162 43.1627H40.0719C39.8082 43.1627 39.5436 43.4238 39.5436 43.6849C39.4558 43.9459 39.7194 44.207 40.0719 44.207Z" fill="#808080"></path><path d="M46.6741 1.7415C47.5538 1.7415 48.3466 2.43765 48.3466 3.39487C48.3466 4.35208 47.6426 5.04824 46.6741 5.04824C45.7055 5.04824 45.0015 4.35208 45.0015 3.39487C45.0015 2.43765 45.7055 1.7415 46.6741 1.7415ZM46.6741 6.09247C48.1708 6.09247 49.403 4.8742 49.403 3.39487C49.403 1.91554 48.1708 0.697267 46.6741 0.697267C45.1773 0.697267 43.9451 1.91554 43.9451 3.39487C43.9451 4.8742 45.0894 6.09247 46.6741 6.09247Z" fill="#808080"></path><path d="M5.38887 1.74149C6.88516 1.74149 8.11771 2.95976 8.11771 4.43909C8.11771 5.91842 6.88516 7.13669 5.38887 7.13669C3.89222 7.13669 2.65994 5.91842 2.65994 4.43909C2.65994 2.95976 3.89222 1.74149 5.38887 1.74149ZM5.38887 8.26794C7.50178 8.26794 9.26218 6.52756 9.26218 4.43909C9.26218 2.35063 7.50178 0.61024 5.38887 0.61024C3.27621 0.61024 1.51581 2.35063 1.51581 4.43909C1.51581 6.52756 3.27621 8.26794 5.38887 8.26794Z" fill="#808080"></path><path d="M39.7194 4.52612C40.1571 4.52612 40.5122 4.87681 40.5122 5.30929C40.5122 5.74178 40.1571 6.09247 39.7194 6.09247C39.2817 6.09247 38.9276 5.74178 38.9276 5.30929C38.9276 4.87681 39.2817 4.52612 39.7194 4.52612Z" fill="#808080"></path><path d="M16.6565 5.57031C17.094 5.57031 17.4489 5.921 17.4489 6.35348C17.4489 6.78597 17.094 7.13666 16.6565 7.13666C16.2191 7.13666 15.8642 6.78597 15.8642 6.35348C15.8642 5.921 16.2191 5.57031 16.6565 5.57031Z" fill="#808080"></path><path d="M49.6675 24.6276C50.1043 24.6276 50.4593 24.9782 50.4593 25.4107C50.4593 25.8432 50.1043 26.1939 49.6675 26.1939C49.2297 26.1939 48.8747 25.8432 48.8747 25.4107C48.8747 24.9782 49.2297 24.6276 49.6675 24.6276Z" fill="#808080"></path><path d="M1.25175 17.579C1.6892 17.579 2.04406 17.9297 2.04406 18.3622C2.04406 18.7946 1.6892 19.1453 1.25175 19.1453C0.813956 19.1453 0.459351 18.7946 0.459351 18.3622C0.459351 17.9297 0.813956 17.579 1.25175 17.579Z" fill="#808080"></path><path d="M17.449 27.3252H24.0509C24.3153 27.3252 24.5791 27.0641 24.5791 26.8031C24.5791 26.542 24.3153 26.281 24.0509 26.281H17.449C17.1845 26.281 16.9207 26.542 16.9207 26.8031C16.9207 27.0641 17.1845 27.3252 17.449 27.3252Z" fill="#808080"></path><path d="M27.3959 27.3252H33.9979C34.2616 27.3252 34.5261 27.0641 34.5261 26.8031C34.5261 26.542 34.2616 26.281 33.9979 26.281H27.3959C27.1318 26.281 26.868 26.542 26.868 26.8031C26.868 27.0641 27.0437 27.3252 27.3959 27.3252Z" fill="#808080"></path><path d="M17.449 30.0228H24.0509C24.3153 30.0228 24.5791 29.7617 24.5791 29.5006C24.5791 29.2396 24.3153 28.9785 24.0509 28.9785H17.449C17.1845 28.9785 16.9207 29.2396 16.9207 29.5006C16.9207 29.7617 17.1845 30.0228 17.449 30.0228Z" fill="#808080"></path><path d="M27.3959 30.0228H33.9979C34.2616 30.0228 34.5261 29.7617 34.5261 29.5006C34.5261 29.2396 34.2616 28.9785 33.9979 28.9785H27.3959C27.1318 28.9785 26.868 29.2396 26.868 29.5006C26.868 29.7617 27.0437 30.0228 27.3959 30.0228Z" fill="#808080"></path><path d="M17.449 32.7203H24.0509C24.3153 32.7203 24.5791 32.4593 24.5791 32.1982C24.5791 31.9372 24.3153 31.6761 24.0509 31.6761H17.449C17.1845 31.6761 16.9207 31.9372 16.9207 32.1982C16.9207 32.4593 17.1845 32.7203 17.449 32.7203Z" fill="#808080"></path><path d="M27.3959 32.7203H33.9979C34.2616 32.7203 34.5261 32.4593 34.5261 32.1982C34.5261 31.9372 34.2616 31.6761 33.9979 31.6761H27.3959C27.1318 31.6761 26.868 31.9372 26.868 32.1982C26.868 32.4593 27.0437 32.7203 27.3959 32.7203Z" fill="#808080"></path></svg>