<svg xmlns="http://www.w3.org/2000/svg" width="50" height="53" viewBox="0 0 50 53" fill="none"><path d="M9.85718 28.8029H11.0268V29.9585H9.85718V28.8029Z" fill="#808080"></path><path d="M12.4651 29.9585C12.8252 30.1363 13.2749 30.1363 13.6347 30.0474C14.0844 29.9585 14.5337 29.6918 14.7136 29.2473L13.9941 28.8917C13.9941 28.9806 13.9042 29.0695 13.8142 29.1584C13.5444 29.4251 13.095 29.514 12.7353 29.3362C12.2856 29.0695 12.1057 28.4472 12.1956 28.0027C12.2856 27.736 12.4651 27.5582 12.6454 27.3804C12.8252 27.2916 13.095 27.2916 13.2749 27.2916C13.4544 27.2916 13.5444 27.3804 13.7246 27.5582C13.8142 27.6471 13.8142 27.736 13.9042 27.8249L14.5337 27.3804C14.4438 27.1138 14.2643 26.936 13.9941 26.8471C13.7246 26.6693 13.4544 26.6693 13.095 26.6693C12.8252 26.6693 12.5558 26.7582 12.3756 26.8471C11.9258 27.0249 11.6564 27.3804 11.4765 27.8249C11.2963 28.2694 11.2963 28.7139 11.4765 29.1584C11.6564 29.1584 12.0158 29.7807 12.4651 29.9585Z" fill="#808080"></path><path d="M16.2426 27.5583C16.3325 27.4694 16.4221 27.3805 16.5121 27.2916C16.7822 27.2027 17.0517 27.2027 17.3215 27.2916C17.9511 27.6472 18.041 28.5361 17.5913 28.9806C17.5014 29.0695 17.4114 29.1584 17.3215 29.2473C17.0517 29.3362 16.7822 29.3362 16.5121 29.2473C16.1527 29.0695 15.9725 28.625 15.9725 28.2695C16.0623 28.1806 16.1527 27.825 16.2426 27.5583ZM16.2426 29.9585C16.6923 30.1363 17.2319 30.1363 17.6809 29.9585C18.8505 29.4251 19.12 28.0028 18.3108 27.1138C18.131 26.936 17.9511 26.8471 17.7716 26.6693C17.3215 26.4915 16.7822 26.4915 16.3325 26.6693C15.4331 27.0249 14.9835 28.0917 15.3432 28.9806C15.4331 29.1584 15.7929 29.7807 16.2426 29.9585Z" fill="#808080"></path><path d="M20.469 28.0028L21.1882 29.514H21.638L22.4479 28.0028V30.0474H23.2569V26.4915H22.3581L21.4585 28.3584L20.469 26.4915H19.5694V30.0474H20.469V28.0028Z" fill="#808080"></path><path d="M9.85718 35.4702H11.0268V36.6259H9.85718V35.4702Z" fill="#808080"></path><path d="M13.9941 35.7369C13.9042 35.8258 13.8142 35.9147 13.7246 36.0036C13.4544 36.0925 13.185 36.0925 12.9152 36.0036C12.5558 35.8258 12.3756 35.3813 12.3756 35.0257C12.3756 34.6701 12.5558 34.2256 12.9152 34.0478C13.185 33.9589 13.4544 33.9589 13.7246 34.0478C14.0844 34.2256 14.2643 34.5812 14.2643 35.0257C14.2643 35.1146 14.1743 35.4702 13.9941 35.7369ZM13.9941 33.3367C13.5444 33.1589 13.0048 33.1589 12.5558 33.3367C11.6564 33.7811 11.2063 34.759 11.5664 35.648C11.746 36.0925 12.0162 36.4481 12.4651 36.6259C12.9152 36.8037 13.4544 36.8037 13.9042 36.6259C14.8035 36.1814 15.1637 35.2035 14.8935 34.3145C14.8035 34.1367 14.7136 33.87 14.5337 33.6922C14.4438 33.6033 14.2643 33.4256 13.9941 33.3367Z" fill="#808080"></path><path d="M17.7716 34.759C17.6809 34.8479 17.5913 34.9368 17.5014 34.9368H16.7823V33.9589H17.5014C17.5913 33.9589 17.6809 33.9589 17.7716 34.0478C17.8612 34.1367 17.8612 34.2256 17.8612 34.4034C17.8612 34.5812 17.7716 34.6701 17.7716 34.759ZM18.6703 34.4034C18.6703 33.7811 18.131 33.2477 17.5014 33.2477H15.8829V36.8036H16.6923V35.648H17.2319L17.9511 36.8036H18.8505L18.041 35.4702C18.4908 35.2035 18.6703 34.8479 18.6703 34.4034Z" fill="#808080"></path><path d="M21.1882 36.8036C21.5483 36.8036 21.8176 36.7148 22.1777 36.4481V36.8036H22.8968V34.9368H21.5483V35.5591H22.2674C21.9981 35.8258 21.7278 36.0036 21.3687 36.0036C21.0984 36.0036 20.8291 35.9147 20.6486 35.7369C20.1988 35.2035 20.2895 34.3145 20.9189 33.9589C21.1882 33.87 21.5483 33.87 21.8176 34.0478C21.9981 34.1367 22.0879 34.2256 22.1777 34.4034L22.807 33.9589C22.7173 33.6922 22.5377 33.5144 22.2674 33.4255C21.9981 33.3366 21.7278 33.2477 21.3687 33.2477C20.3793 33.2477 19.5694 34.0478 19.5694 35.0257C19.5694 35.2924 19.6592 35.5591 19.749 35.7369C19.8396 36.3592 20.469 36.8036 21.1882 36.8036Z" fill="#808080"></path><path d="M9.98462 42.4042H11.1538V43.471H9.98462V42.4042Z" fill="#808080"></path><path d="M12.7724 41.4263L14.3913 43.471H15.0205V39.9151H14.2111V41.9597L12.5925 39.9151H11.873V43.471H12.7724V41.4263Z" fill="#808080"></path><path d="M16.9094 41.9597H18.3476V41.3374H16.9094V40.6262H18.6178V39.9151H16.0999V43.471H18.6178V42.7598H16.9094V41.9597Z" fill="#808080"></path><path d="M19.1575 40.6262H20.3259V43.471H21.1358V40.6262H22.215V39.9151H19.1575V40.6262Z" fill="#808080"></path><path d="M14.0288 11.0233C14.6744 11.0233 15.1977 11.5407 15.1977 12.179C15.1977 12.8173 14.6744 13.3347 14.0288 13.3347C13.383 13.3347 12.8596 12.8173 12.8596 12.179C12.8596 11.5407 13.383 11.0233 14.0288 11.0233Z" fill="#808080"></path><path d="M10.7014 11.0233C11.3469 11.0233 11.8706 11.5407 11.8706 12.179C11.8706 12.8173 11.3469 13.3347 10.7014 13.3347C10.0559 13.3347 9.53217 12.8173 9.53217 12.179C9.53217 11.5407 10.0559 11.0233 10.7014 11.0233Z" fill="#808080"></path><path d="M7.28399 11.0233C7.92956 11.0233 8.45317 11.5407 8.45317 12.179C8.45317 12.8173 7.92956 13.3347 7.28399 13.3347C6.63815 13.3347 6.11481 12.8173 6.11481 12.179C6.11481 11.5407 6.63815 11.0233 7.28399 11.0233Z" fill="#808080"></path><path d="M8.99289 3.28918C9.62211 3.28918 10.1617 3.82257 10.1617 4.44485C10.1617 5.06714 9.62211 5.60052 8.99289 5.60052C8.36331 5.60052 7.82361 5.06714 7.82361 4.44485C7.82361 3.73367 8.36331 3.28918 8.99289 3.28918ZM8.99289 6.5784C10.2517 6.5784 11.2407 5.60052 11.2407 4.35596C11.2407 3.11139 10.2517 2.13351 8.99289 2.13351C7.73409 2.13351 6.74475 3.11139 6.74475 4.35596C6.74475 5.60052 7.73409 6.5784 8.99289 6.5784Z" fill="#808080"></path><path d="M40.1973 1.06677C41.2765 1.06677 42.1761 1.95575 42.1761 3.02252C42.1761 4.08929 41.2765 4.97827 40.1973 4.97827C39.1189 4.97827 38.2193 4.08929 38.2193 3.02252C38.2193 1.95575 39.1189 1.06677 40.1973 1.06677ZM40.1973 6.04504C41.9068 6.04504 43.2553 4.71158 43.2553 3.02252C43.2553 1.33346 41.9068 -4.05312e-06 40.1973 -4.05312e-06C38.4895 -4.05312e-06 37.1401 1.33346 37.1401 3.02252C37.1401 4.71158 38.4895 6.04504 40.1973 6.04504Z" fill="#808080"></path><path d="M0.80906 7.7341C1.2563 7.7341 1.61892 8.09236 1.61892 8.53418C1.61892 8.976 1.2563 9.33426 0.80906 9.33426C0.362171 9.33426 0 8.976 0 8.53418C0 8.09236 0.362171 7.7341 0.80906 7.7341Z" fill="#808080"></path><path d="M16.5465 2.22244C16.9937 2.22244 17.3559 2.5807 17.3559 3.02252C17.3559 3.46434 16.9937 3.8226 16.5465 3.8226C16.0998 3.8226 15.7373 3.46434 15.7373 3.02252C15.7373 2.5807 16.0998 2.22244 16.5465 2.22244Z" fill="#808080"></path><path d="M32.2845 3.28918C32.7316 3.28918 33.0934 3.64744 33.0934 4.08926C33.0934 4.53109 32.7316 4.88934 32.2845 4.88934C31.8373 4.88934 31.4746 4.53109 31.4746 4.08926C31.4746 3.64744 31.8373 3.28918 32.2845 3.28918Z" fill="#808080"></path><path d="M22.2119 5.51166C22.6588 5.51166 23.0213 5.86991 23.0213 6.31174C23.0213 6.75356 22.6588 7.11182 22.2119 7.11182C21.7654 7.11182 21.4028 6.75356 21.4028 6.31174C21.4028 5.86991 21.7654 5.51166 22.2119 5.51166Z" fill="#808080"></path><path d="M49.1901 7.7341C49.6373 7.7341 50 8.09236 50 8.53418C50 8.976 49.6373 9.33426 49.1901 9.33426C48.7439 9.33426 48.3812 8.976 48.3812 8.53418C48.3812 8.09236 48.7439 7.7341 49.1901 7.7341Z" fill="#808080"></path><path d="M43.6154 51.0273H5.84536C4.49625 51.0273 3.32697 49.9605 3.32697 48.5382V16.0905H46.0431V48.6271C46.0431 49.9605 44.9639 51.0273 43.6154 51.0273ZM5.84536 9.42316H20.2339V14.9348H3.32697V11.8234C3.32697 10.4899 4.49625 9.42316 5.84536 9.42316ZM46.0431 11.6456H21.3129V9.42316H43.6154C44.8741 9.42316 45.9534 10.401 46.0431 11.6456ZM21.3129 12.7124H46.0431V14.9348H21.3129V12.7124ZM43.6154 8.26748H5.84536C3.86667 8.26748 2.24811 9.86764 2.24811 11.8234V48.6271C2.24811 50.5828 3.86667 52.183 5.84536 52.183H43.6154C45.5933 52.183 47.2122 50.5828 47.2122 48.6271V11.8234C47.2122 9.86764 45.5933 8.26748 43.6154 8.26748Z" fill="#808080"></path><path d="M25.8234 46.5824H7.82361V20.5354H25.8234L25.8234 46.5824ZM26.1745 19.3797H7.284C7.0142 19.3797 6.74475 19.6464 6.74475 19.9131V47.1158C6.74475 47.3825 7.0142 47.6492 7.284 47.6492H26.1745C26.4448 47.6492 26.7141 47.3825 26.7141 47.1158V19.9131C26.7141 19.6464 26.4448 19.3797 26.1745 19.3797Z" fill="#808080"></path></svg>