<svg xmlns="http://www.w3.org/2000/svg" width="51" height="51" viewBox="0 0 51 51" fill="none"><path d="M42.0266 49.5558H30.4947V46.8582H47.6594C46.3401 48.5116 44.2264 49.5558 42.0266 49.5558ZM2.94151 46.8582H20.6353V49.5558H8.57516C6.37443 49.5558 4.2616 48.5116 2.94151 46.8582ZM29.4382 49.5558H21.6917V46.8582H29.4382V49.5558ZM5.05434 39.2004H45.5474L47.9239 45.7269C42.1136 45.7269 9.28002 45.7269 2.67781 45.7269L5.05434 39.2004ZM9.1034 10.9189H41.5862C43.6991 10.9189 45.4595 12.6593 45.4595 14.7478V34.8494H5.23101V14.7478C5.23101 12.6593 6.99056 10.9189 9.1034 10.9189ZM5.23101 35.9807H45.3716V38.1562H5.23101V35.9807ZM46.5159 38.5913V14.7478C46.5159 12.0502 44.3152 9.87465 41.5862 9.87465H9.1034C6.37445 9.87465 4.17368 12.0502 4.17368 14.7478V38.5913C1.35684 46.5101 1.44475 46.162 1.44475 46.249C1.44475 46.249 1.44475 46.249 1.44475 46.3361C1.44475 46.3361 1.44475 46.3361 1.44475 46.4231C1.44475 46.5101 1.44475 46.5101 1.44475 46.5101C2.94149 49.0337 5.58254 50.6 8.57516 50.6H42.0266C44.9313 50.6 47.6594 49.0337 49.1561 46.5101C49.1561 46.5101 49.1561 46.5101 49.1561 46.4231C49.1561 46.4231 49.1561 46.3361 49.1561 46.249C49.2449 46.162 49.3327 46.5971 46.5159 38.5913Z" fill="#808080"></path><path d="M10.1598 40.8538H9.01549C8.75182 40.8538 8.48729 41.1149 8.48729 41.376C8.48729 41.637 8.75182 41.8981 9.01549 41.8981H10.1598C10.4235 41.8981 10.688 41.637 10.688 41.376C10.688 41.1149 10.5122 40.8538 10.1598 40.8538Z" fill="#808080"></path><path d="M14.5613 40.8538H13.417C13.1524 40.8538 12.8888 41.1149 12.8888 41.376C12.8888 41.637 13.1524 41.8981 13.417 41.8981H14.5613C14.8258 41.8981 15.0895 41.637 15.0895 41.376C15.0895 41.1149 14.9137 40.8538 14.5613 40.8538Z" fill="#808080"></path><path d="M17.9063 41.985H19.0507C19.3152 41.985 19.5789 41.724 19.5789 41.4629C19.5789 41.2019 19.3152 40.9408 19.0507 40.9408H17.9063C17.6418 40.9408 17.379 41.2019 17.379 41.4629C17.2902 41.724 17.5548 41.985 17.9063 41.985Z" fill="#808080"></path><path d="M22.3078 41.985H23.4521C23.7166 41.985 23.9812 41.724 23.9812 41.4629C23.9812 41.2019 23.7166 40.9408 23.4521 40.9408H22.3078C22.0441 40.9408 21.7796 41.2019 21.7796 41.4629C21.6917 41.724 21.9554 41.985 22.3078 41.985Z" fill="#808080"></path><path d="M26.7093 41.985H27.8536C28.1173 41.985 28.3818 41.724 28.3818 41.4629C28.3818 41.2019 28.1173 40.9408 27.8536 40.9408H26.7093C26.4456 40.9408 26.1811 41.2019 26.1811 41.4629C26.0932 41.724 26.3569 41.985 26.7093 41.985Z" fill="#808080"></path><path d="M31.1107 41.985H32.255C32.5187 41.985 32.7832 41.724 32.7832 41.4629C32.7832 41.2019 32.5187 40.9408 32.255 40.9408H31.1107C30.8462 40.9408 30.5825 41.2019 30.5825 41.4629C30.4946 41.724 30.7592 41.985 31.1107 41.985Z" fill="#808080"></path><path d="M35.5113 41.985H36.6565C36.9211 41.985 37.1847 41.724 37.1847 41.4629C37.1847 41.2019 36.9211 40.9408 36.6565 40.9408H35.5113C35.2485 40.9408 34.984 41.2019 34.984 41.4629C34.8952 41.724 35.1598 41.985 35.5113 41.985Z" fill="#808080"></path><path d="M39.9137 41.985H41.058C41.3217 41.985 41.5862 41.724 41.5862 41.4629C41.5862 41.2019 41.3217 40.9408 41.058 40.9408H39.9137C39.6492 40.9408 39.3855 41.2019 39.3855 41.4629C39.2976 41.724 39.5613 41.985 39.9137 41.985Z" fill="#808080"></path><path d="M10.1598 43.0293H9.01549C8.75182 43.0293 8.48729 43.2904 8.48729 43.5514C8.48729 43.8125 8.75182 44.0735 9.01549 44.0735H10.1598C10.4235 44.0735 10.688 43.8125 10.688 43.5514C10.688 43.2904 10.5122 43.0293 10.1598 43.0293Z" fill="#808080"></path><path d="M14.5613 43.0293H13.417C13.1524 43.0293 12.8888 43.2904 12.8888 43.5514C12.8888 43.8125 13.1524 44.0735 13.417 44.0735H14.5613C14.8258 44.0735 15.0895 43.8125 15.0895 43.5514C15.0895 43.2904 14.9137 43.0293 14.5613 43.0293Z" fill="#808080"></path><path d="M28.2939 43.5514C28.2939 43.2903 28.0303 43.0293 27.7657 43.0293H17.9063C17.6418 43.0293 17.379 43.2903 17.379 43.5514C17.379 43.8125 17.6418 44.0735 17.9063 44.0735H27.8536C28.1173 44.1605 28.2939 43.8995 28.2939 43.5514Z" fill="#808080"></path><path d="M31.1107 44.1606H32.255C32.5187 44.1606 32.7832 43.8995 32.7832 43.6385C32.7832 43.3774 32.5187 43.1163 32.255 43.1163H31.1107C30.8462 43.1163 30.5825 43.3774 30.5825 43.6385C30.4946 43.8995 30.7592 44.1606 31.1107 44.1606Z" fill="#808080"></path><path d="M35.5113 44.1606H36.6565C36.9211 44.1606 37.1847 43.8995 37.1847 43.6385C37.1847 43.3774 36.9211 43.1163 36.6565 43.1163H35.5113C35.2485 43.1163 34.984 43.3774 34.984 43.6385C34.8952 43.8995 35.1598 44.1606 35.5113 44.1606Z" fill="#808080"></path><path d="M39.9137 44.1606H41.058C41.3217 44.1606 41.5862 43.8995 41.5862 43.6385C41.5862 43.3774 41.3217 43.1163 41.058 43.1163H39.9137C39.6492 43.1163 39.3855 43.3774 39.3855 43.6385C39.2976 43.8995 39.5613 44.1606 39.9137 44.1606Z" fill="#808080"></path><path d="M46.5159 1.69477C47.3966 1.69477 48.1885 2.39093 48.1885 3.34815C48.1885 4.30538 47.4836 5.00154 46.5159 5.00154C45.5474 5.00154 44.8434 4.30538 44.8434 3.34815C44.8434 2.39093 45.5474 1.69477 46.5159 1.69477ZM46.5159 6.04578C48.0127 6.04578 49.2449 4.8275 49.2449 3.34815C49.2449 1.86881 48.0127 0.650533 46.5159 0.650533C45.0192 0.650533 43.787 1.86881 43.787 3.34815C43.787 4.8275 44.9313 6.04578 46.5159 6.04578Z" fill="#808080"></path><path d="M5.23102 1.69475C6.7269 1.69475 7.95907 2.91303 7.95907 4.39237C7.95907 5.87171 6.7269 7.08999 5.23102 7.08999C3.73428 7.08999 2.50119 5.87171 2.50119 4.39237C2.50119 2.91303 3.73428 1.69475 5.23102 1.69475ZM5.23102 8.22125C7.343 8.22125 9.10341 6.48085 9.10341 4.39237C9.10341 2.30389 7.343 0.563488 5.23102 0.563488C3.11731 0.563488 1.35689 2.30389 1.35689 4.39237C1.35689 6.48085 3.11731 8.22125 5.23102 8.22125Z" fill="#808080"></path><path d="M39.5613 4.47942C39.999 4.47942 40.354 4.83011 40.354 5.2626C40.354 5.69509 39.999 6.04578 39.5613 6.04578C39.1244 6.04578 38.7694 5.69509 38.7694 5.2626C38.7694 4.83011 39.1244 4.47942 39.5613 4.47942Z" fill="#808080"></path><path d="M26.9738 2.30388C27.4106 2.30388 27.7657 2.65457 27.7657 3.08706C27.7657 3.51955 27.4106 3.87024 26.9738 3.87024C26.5361 3.87024 26.1811 3.51955 26.1811 3.08706C26.1811 2.65457 26.5361 2.30388 26.9738 2.30388Z" fill="#808080"></path><path d="M16.4983 5.5236C16.936 5.5236 17.2902 5.8743 17.2902 6.30679C17.2902 6.73927 16.936 7.08997 16.4983 7.08997C16.0606 7.08997 15.7056 6.73927 15.7056 6.30679C15.7056 5.8743 16.0606 5.5236 16.4983 5.5236Z" fill="#808080"></path><path d="M49.5085 24.581C49.9462 24.581 50.3013 24.9317 50.3013 25.3642C50.3013 25.7967 49.9462 26.1474 49.5085 26.1474C49.0717 26.1474 48.7158 25.7967 48.7158 25.3642C48.7158 24.9317 49.0717 24.581 49.5085 24.581Z" fill="#808080"></path><path d="M1.09316 17.5324C1.53087 17.5324 1.88505 17.8831 1.88505 18.3156C1.88505 18.7481 1.53087 19.0988 1.09316 19.0988C0.65545 19.0988 0.30127 18.7481 0.30127 18.3156C0.30127 17.8831 0.65545 17.5324 1.09316 17.5324Z" fill="#808080"></path><path d="M18.2057 15.6179H11.0761C10.8116 15.6179 10.5471 15.879 10.5471 16.1401C10.5471 16.4011 10.8116 16.6622 11.0761 16.6622H18.2057C18.4702 16.6622 18.7348 16.4011 18.7348 16.1401C18.7348 15.879 18.4702 15.6179 18.2057 15.6179Z" fill="#808080"></path><path d="M28.6811 15.6179H21.5516C21.2871 15.6179 21.0225 15.879 21.0225 16.1401C21.0225 16.4011 21.2871 16.6622 21.5516 16.6622H28.6811C28.9457 16.6622 29.2102 16.4011 29.2102 16.1401C29.2102 15.879 28.9457 15.6179 28.6811 15.6179Z" fill="#808080"></path><path d="M39.1566 15.6179H32.0262C31.7625 15.6179 31.4989 15.879 31.4989 16.1401C31.4989 16.4011 31.7625 16.6622 32.0262 16.6622H39.1566C39.4212 16.6622 39.6857 16.4011 39.6857 16.1401C39.6857 15.879 39.4212 15.6179 39.1566 15.6179Z" fill="#808080"></path><path d="M18.2057 18.3156H11.0761C10.8116 18.3156 10.5471 18.5766 10.5471 18.8377C10.5471 19.0987 10.8116 19.3598 11.0761 19.3598H18.2057C18.4702 19.3598 18.7348 19.0987 18.7348 18.8377C18.7348 18.5766 18.4702 18.3156 18.2057 18.3156Z" fill="#808080"></path><path d="M28.6811 18.3156H21.5516C21.2871 18.3156 21.0225 18.5766 21.0225 18.8377C21.0225 19.0987 21.2871 19.3598 21.5516 19.3598H28.6811C28.9457 19.3598 29.2102 19.0987 29.2102 18.8377C29.2102 18.5766 28.9457 18.3156 28.6811 18.3156Z" fill="#808080"></path><path d="M39.1566 18.3156H32.0262C31.7625 18.3156 31.4989 18.5766 31.4989 18.8377C31.4989 19.0987 31.7625 19.3598 32.0262 19.3598H39.1566C39.4212 19.3598 39.6857 19.0987 39.6857 18.8377C39.6857 18.5766 39.4212 18.3156 39.1566 18.3156Z" fill="#808080"></path><path d="M18.2057 21.1002H11.0761C10.8116 21.1002 10.5471 21.3613 10.5471 21.6223C10.5471 21.8834 10.8116 22.1445 11.0761 22.1445H18.2057C18.4702 22.1445 18.7348 21.8834 18.7348 21.6223C18.7348 21.2743 18.4702 21.1002 18.2057 21.1002Z" fill="#808080"></path><path d="M28.6811 21.1002H21.5516C21.2871 21.1002 21.0225 21.3613 21.0225 21.6223C21.0225 21.8834 21.2871 22.1445 21.5516 22.1445H28.6811C28.9457 22.1445 29.2102 21.8834 29.2102 21.6223C29.2102 21.2743 28.9457 21.1002 28.6811 21.1002Z" fill="#808080"></path><path d="M39.1566 21.1002H32.0262C31.7625 21.1002 31.4989 21.3613 31.4989 21.6223C31.4989 21.8834 31.7625 22.1445 32.0262 22.1445H39.1566C39.4212 22.1445 39.6857 21.8834 39.6857 21.6223C39.6857 21.2743 39.4212 21.1002 39.1566 21.1002Z" fill="#808080"></path><path d="M18.2057 24.1024H11.0761C10.8116 24.1024 10.5471 24.3634 10.5471 24.6245C10.5471 24.8855 10.8116 25.1466 11.0761 25.1466H18.2057C18.4702 25.1466 18.7348 24.8855 18.7348 24.6245C18.7348 24.3634 18.4702 24.1024 18.2057 24.1024Z" fill="#808080"></path><path d="M28.6811 24.1024H21.5516C21.2871 24.1024 21.0225 24.3634 21.0225 24.6245C21.0225 24.8855 21.2871 25.1466 21.5516 25.1466H28.6811C28.9457 25.1466 29.2102 24.8855 29.2102 24.6245C29.2102 24.3634 28.9457 24.1024 28.6811 24.1024Z" fill="#808080"></path><path d="M39.1566 24.1024H32.0262C31.7625 24.1024 31.4989 24.3634 31.4989 24.6245C31.4989 24.8855 31.7625 25.1466 32.0262 25.1466H39.1566C39.4212 25.1466 39.6857 24.8855 39.6857 24.6245C39.6857 24.3634 39.4212 24.1024 39.1566 24.1024Z" fill="#808080"></path><path d="M18.2057 26.8H11.0761C10.8116 26.8 10.5471 27.0611 10.5471 27.3221C10.5471 27.5832 10.8116 27.8442 11.0761 27.8442H18.2057C18.4702 27.8442 18.7348 27.5832 18.7348 27.3221C18.7348 27.0611 18.4702 26.8 18.2057 26.8Z" fill="#808080"></path><path d="M28.6811 26.8H21.5516C21.2871 26.8 21.0225 27.0611 21.0225 27.3221C21.0225 27.5832 21.2871 27.8442 21.5516 27.8442H28.6811C28.9457 27.8442 29.2102 27.5832 29.2102 27.3221C29.2102 27.0611 28.9457 26.8 28.6811 26.8Z" fill="#808080"></path><path d="M39.1566 26.8H32.0262C31.7625 26.8 31.4989 27.0611 31.4989 27.3221C31.4989 27.5832 31.7625 27.8442 32.0262 27.8442H39.1566C39.4212 27.8442 39.6857 27.5832 39.6857 27.3221C39.6857 27.0611 39.4212 26.8 39.1566 26.8Z" fill="#808080"></path><path d="M18.2057 29.5847H11.0761C10.8116 29.5847 10.5471 29.8457 10.5471 30.1068C10.5471 30.3678 10.8116 30.6289 11.0761 30.6289H18.2057C18.4702 30.6289 18.7348 30.3678 18.7348 30.1068C18.7348 29.7587 18.4702 29.5847 18.2057 29.5847Z" fill="#808080"></path><path d="M28.6811 29.5847H21.5516C21.2871 29.5847 21.0225 29.8457 21.0225 30.1068C21.0225 30.3678 21.2871 30.6289 21.5516 30.6289H28.6811C28.9457 30.6289 29.2102 30.3678 29.2102 30.1068C29.2102 29.7587 28.9457 29.5847 28.6811 29.5847Z" fill="#808080"></path><path d="M39.1566 29.5847H32.0262C31.7625 29.5847 31.4989 29.8457 31.4989 30.1068C31.4989 30.3678 31.7625 30.6289 32.0262 30.6289H39.1566C39.4212 30.6289 39.6857 30.3678 39.6857 30.1068C39.6857 29.7587 39.4212 29.5847 39.1566 29.5847Z" fill="#808080"></path></svg>