<svg xmlns="http://www.w3.org/2000/svg" width="51" height="52" viewBox="0 0 51 52" fill="none"><path d="M23.8924 14.8109C23.8924 14.7239 23.9812 14.6369 23.9812 14.6369C24.0682 14.6369 24.0682 14.6369 24.157 14.6369L26.0932 15.6811C26.1811 15.7682 26.1811 15.7682 26.1811 15.8552C26.1811 15.8552 26.1811 15.9422 26.0932 16.0292L24.157 17.0735C24.0682 17.1605 23.9812 17.0735 23.9812 17.0735C23.9812 17.0735 23.8924 16.9864 23.8924 16.8994V14.8109ZM24.6843 18.1177L26.6214 17.0735C27.0617 16.8124 27.2375 16.4643 27.2375 15.9422C27.2375 15.5071 26.9738 15.072 26.6214 14.8109L24.6843 13.7667C23.8037 13.2446 22.7481 13.8537 22.7481 14.898V17.0735C22.7481 17.9437 23.8924 18.5528 24.6843 18.1177Z" fill="#808080"></path><path d="M25.0367 10.982C27.7657 10.982 29.9656 13.1575 29.9656 15.8551C29.9656 18.5527 27.7657 20.7283 25.0367 20.7283C22.3078 20.7283 20.1071 18.5527 20.1071 15.8551C20.1071 13.1575 22.3078 10.982 25.0367 10.982ZM18.9628 15.8551C18.9628 19.1619 21.6917 21.8595 25.0367 21.8595C28.3818 21.8595 31.1108 19.1619 31.1108 15.8551C31.1108 12.5484 28.3818 9.85074 25.0367 9.85074C21.6917 9.85074 18.9628 12.5484 18.9628 15.8551Z" fill="#808080"></path><path d="M11.8332 5.32574H15.1774V6.97912H11.8332V5.32574ZM11.3041 8.02336H15.7056C15.9692 8.02336 16.2338 7.7623 16.2338 7.50124V4.80362C16.2338 4.54256 15.9692 4.2815 15.7056 4.2815H11.3041C11.0396 4.2815 10.7768 4.54256 10.7768 4.80362V7.50124C10.688 7.7623 10.9526 8.02336 11.3041 8.02336Z" fill="#808080"></path><path d="M19.4909 5.32574H22.836V6.97912H19.4909V5.32574ZM18.9628 8.02336H23.3642C23.6279 8.02336 23.8924 7.7623 23.8924 7.50124V4.80362C23.8924 4.54256 23.6279 4.2815 23.3642 4.2815H18.9628C18.6982 4.2815 18.4346 4.54256 18.4346 4.80362V7.50124C18.4346 7.7623 18.6982 8.02336 18.9628 8.02336Z" fill="#808080"></path><path d="M27.2375 5.32574H30.5826V6.97912H27.2375V5.32574ZM26.7093 8.02336H31.1108C31.3753 8.02336 31.639 7.7623 31.639 7.50124V4.80362C31.639 4.54256 31.3753 4.2815 31.1108 4.2815H26.7093C26.4456 4.2815 26.1811 4.54256 26.1811 4.80362V7.50124C26.0932 7.7623 26.3569 8.02336 26.7093 8.02336Z" fill="#808080"></path><path d="M34.8953 5.32574H38.2412V6.97912H34.8953V5.32574ZM34.368 8.02336H38.7694C39.0331 8.02336 39.2976 7.7623 39.2976 7.50124V4.80362C39.2976 4.54256 39.0331 4.2815 38.7694 4.2815H34.368C34.1034 4.2815 33.8397 4.54256 33.8397 4.80362V7.50124C33.8397 7.7623 34.1034 8.02336 34.368 8.02336Z" fill="#808080"></path><path d="M25.0368 39.0025C25.6685 39.0025 26.1811 39.509 26.1811 40.1338C26.1811 40.7586 25.6685 41.265 25.0368 41.265C24.405 41.265 23.8925 40.7586 23.8925 40.1338C23.8925 39.509 24.405 39.0025 25.0368 39.0025Z" fill="#808080"></path><path d="M47.8369 48.3136C48.2737 48.3136 48.6288 48.6643 48.6288 49.0968C48.6288 49.5293 48.2737 49.88 47.8369 49.88C47.3992 49.88 47.0433 49.5293 47.0433 49.0968C47.0433 48.6643 47.3992 48.3136 47.8369 48.3136Z" fill="#808080"></path><path d="M39.0331 45.0069C39.4708 45.0069 39.8258 45.3576 39.8258 45.7901C39.8258 46.2226 39.4708 46.5732 39.0331 46.5732C38.5954 46.5732 38.2412 46.2226 38.2412 45.7901C38.2412 45.3576 38.5954 45.0069 39.0331 45.0069Z" fill="#808080"></path><path d="M3.29392 3.67239C3.73163 3.67239 4.08581 4.02308 4.08581 4.45557C4.08581 4.88806 3.73163 5.23875 3.29392 5.23875C2.8562 5.23875 2.50117 4.88806 2.50117 4.45557C2.50117 4.02308 2.8562 3.67239 3.29392 3.67239Z" fill="#808080"></path><path d="M12.096 45.0069C12.5337 45.0069 12.8888 45.3576 12.8888 45.7901C12.8888 46.2226 12.5337 46.5732 12.096 46.5732C11.6583 46.5732 11.3042 46.2226 11.3042 45.7901C11.3042 45.3576 11.6583 45.0069 12.096 45.0069Z" fill="#808080"></path><path d="M5.75837 49.3579C4.87773 49.3579 4.08582 48.6617 4.08582 47.7045C4.08582 46.7473 4.79071 46.0511 5.75837 46.0511C6.7269 46.0511 7.43087 46.7473 7.43087 47.7045C7.43087 48.6617 6.63901 49.3579 5.75837 49.3579ZM5.75837 45.0069C4.26162 45.0069 3.02939 46.2252 3.02939 47.7045C3.02939 49.1839 4.26162 50.4021 5.75837 50.4021C7.25511 50.4021 8.48731 49.1839 8.48731 47.7045C8.48731 46.2252 7.25511 45.0069 5.75837 45.0069Z" fill="#808080"></path><path d="M48.7158 40.5689C48.7158 41.7872 47.6593 42.8314 46.4271 42.8314C44.5788 42.8314 4.87767 42.8314 3.64547 42.8314C2.41326 42.8314 1.35686 41.7872 1.35686 40.5689V11.3302C1.35686 10.1119 2.41326 9.06765 3.64547 9.06765H7.43084V11.2432H4.08579C3.82125 11.2432 3.5576 11.5042 3.5576 11.7653V36.8271C3.5576 37.0881 3.82125 37.3492 4.08579 37.3492H45.8998C46.1635 37.3492 46.4271 37.0881 46.4271 36.8271V11.8523C46.4271 11.5912 46.1635 11.3302 45.8998 11.3302H42.5539V9.15467H46.3401C47.5723 9.15467 48.6288 10.1989 48.6288 11.4172V40.5689H48.7158ZM27.7657 47.1824H22.2199V43.8757H27.7657V47.1824ZM35.5113 49.3579C35.5113 49.9671 34.984 50.4892 34.3679 50.4892H15.7056C15.0895 50.4892 14.5613 49.9671 14.5613 49.3579C14.5613 48.7488 15.0895 48.2267 15.7056 48.2267C17.9951 48.2267 32.2551 48.2267 34.4558 48.2267C34.984 48.2267 35.5113 48.7488 35.5113 49.3579ZM41.4975 3.15028V9.15467H31.1107C30.8462 9.15467 30.5826 9.41573 30.5826 9.67679C30.5826 9.93785 30.8462 10.1989 31.1107 10.1989H41.5862V21.5985H31.1107C30.8462 21.5985 30.5826 21.8596 30.5826 22.1207C30.5826 22.3817 30.8462 22.6428 31.1107 22.6428H41.5862V28.6472H8.48727V22.6428H18.9627C19.2273 22.6428 19.4909 22.3817 19.4909 22.1207C19.4909 21.8596 19.2273 21.5985 18.9627 21.5985H8.48727V10.1989H18.9627C19.2273 10.1989 19.4909 9.93785 19.4909 9.67679C19.4909 9.41573 19.2273 9.15467 18.9627 9.15467H8.48727C8.48727 7.15321 8.48727 4.89069 8.48727 3.15028H41.4975ZM7.43084 29.2563C7.43084 29.5174 7.69536 29.7784 7.95903 29.7784H42.1136C42.3781 29.7784 42.6426 29.5174 42.6426 29.2563V12.3744H45.3716V36.3049H4.7019V12.3744H7.43084V29.2563ZM46.4271 8.02341H42.6426V2.54114C42.6426 2.28008 42.3781 2.01902 42.1136 2.01902H7.95903C7.69536 2.01902 7.43084 2.28008 7.43084 2.54114V8.02341H3.64547C1.79716 8.02341 0.30127 9.50275 0.30127 11.3302V40.5689C0.30127 42.3963 1.79716 43.8757 3.64547 43.8757H21.1635V47.1824H15.6177C14.3855 47.1824 13.417 48.1397 13.417 49.3579C13.417 50.5762 14.3855 51.5334 15.6177 51.5334H34.3679C35.6001 51.5334 36.5678 50.5762 36.5678 49.3579C36.5678 48.1397 35.6001 47.1824 34.3679 47.1824H28.8221V43.8757H46.3401C48.1884 43.8757 49.6852 42.3963 49.6852 40.5689V11.3302C49.773 9.50275 48.2763 8.02341 46.4271 8.02341Z" fill="#808080"></path><path d="M15.0895 26.4716H11.7444V24.8182H15.0895V26.4716ZM15.7056 23.774H11.3041C11.0396 23.774 10.7768 24.0351 10.7768 24.2961V26.9937C10.7768 27.2548 11.0396 27.5159 11.3041 27.5159H15.7056C15.9692 27.5159 16.2338 27.2548 16.2338 26.9937V24.2961C16.2338 24.0351 15.9692 23.774 15.7056 23.774Z" fill="#808080"></path><path d="M22.836 26.4716H19.4909V24.8182H22.836V26.4716ZM23.3642 23.774H18.9628C18.6982 23.774 18.4346 24.0351 18.4346 24.2961V26.9937C18.4346 27.2548 18.6982 27.5159 18.9628 27.5159H23.3642C23.6279 27.5159 23.8924 27.2548 23.8924 26.9937V24.2961C23.8924 24.0351 23.7167 23.774 23.3642 23.774Z" fill="#808080"></path><path d="M27.2375 24.9053H30.5825V26.5586H27.2375V24.9053ZM26.0932 24.2961V26.9937C26.0932 27.2548 26.3569 27.5159 26.6214 27.5159H31.022C31.2865 27.5159 31.5511 27.2548 31.5511 26.9937V24.2961C31.5511 24.0351 31.2865 23.774 31.022 23.774H26.6214C26.3569 23.774 26.0932 24.0351 26.0932 24.2961Z" fill="#808080"></path><path d="M34.8953 24.9053H38.2412V26.5586H34.8953V24.9053ZM34.368 27.6029H38.7694C39.0331 27.6029 39.2976 27.3418 39.2976 27.0808V24.3831C39.2976 24.1221 39.0331 23.861 38.7694 23.861H34.368C34.1034 23.861 33.8397 24.1221 33.8397 24.3831V27.0808C33.8397 27.3418 34.1034 27.6029 34.368 27.6029Z" fill="#808080"></path><path d="M47.5723 1.4969C48.453 1.4969 49.2449 2.19306 49.2449 3.15028C49.2449 4.1075 48.54 4.80366 47.5723 4.80366C46.6038 4.80366 45.8998 4.1075 45.8998 3.15028C45.8998 2.19306 46.6917 1.4969 47.5723 1.4969ZM47.5723 5.8479C49.0691 5.8479 50.3013 4.62962 50.3013 3.15028C50.3013 1.67094 49.0691 0.452656 47.5723 0.452656C46.0756 0.452656 44.8434 1.67094 44.8434 3.15028C44.8434 4.62962 46.0756 5.8479 47.5723 5.8479Z" fill="#808080"></path></svg>