<svg width="202" height="201" viewBox="0 0 202 201" fill="none" xmlns="http://www.w3.org/2000/svg">
<path d="M103.51 196.42C60.8587 199.458 27.4955 182.587 22.1023 170.146C16.709 157.706 35.553 156.873 20.6798 141.827C-3.57863 117.29 -7.70274 75.46 14.7717 44.6837C28.3982 26.0245 62.0717 -2.74239 110.16 0.21061C158.249 3.16361 176.061 34.2815 183.931 51.532C191.802 68.7825 176.79 98.0666 192.237 105.856C208.911 114.266 213.482 188.588 103.51 196.42Z" fill="#D7F0A8"/>
<path d="M22.1024 154.204C22.6073 162.755 6.3739 147.743 6.3739 137.823C6.3739 127.903 21.7084 147.524 22.1024 154.204Z" fill="#D7F0A8"/>
<path d="M10.7186 160.925C6.54209 156.836 14.9499 157.495 17.2875 159.734C19.6263 161.975 15.0608 165.176 10.7186 160.925Z" fill="#D7F0A8"/>
<path d="M192.215 101.01C185.87 99.5782 190.109 75.5788 195.464 75.0446C200.819 74.5117 202.467 103.321 192.215 101.01Z" fill="#D7F0A8"/>
<path d="M123.329 159.212H79.642C57.799 161.221 47.677 185.865 47.677 185.865C64.811 201.095 101.485 200.778 101.485 200.778C101.485 200.778 138.159 201.095 155.293 185.865C155.293 185.865 145.173 161.222 123.329 159.212Z" fill="#F6764D"/>
<path d="M117.659 170.382C116.108 167.471 116.511 163.105 117.261 159.565H85.711C86.461 163.105 86.865 167.472 85.314 170.382C82.537 175.592 71.94 182.767 71.825 197.173C86.898 200.901 101.486 200.779 101.486 200.779C101.486 200.779 116.074 200.901 131.147 197.173C131.033 182.768 120.435 175.592 117.659 170.382Z" fill="#FFDDA3"/>
<path opacity="0.4" d="M79.6429 159.212C72.9959 159.823 67.4399 162.536 62.9189 166.007C63.4319 166.23 63.9299 166.453 64.4599 166.675C86.5739 175.946 120.827 174.722 138.511 166.675C139.027 166.44 139.512 166.209 140.011 165.976C135.497 162.52 129.956 159.822 123.328 159.212H79.6429Z" fill="#F6764D"/>
<path d="M156.017 185.614C153.103 178.618 148.248 171.991 142.552 167.033C135.452 160.851 127.45 158.411 118.266 158.411C108.05 158.411 97.834 158.411 87.618 158.411C78.804 158.411 71.196 159.116 63.637 164.487C56.406 169.625 50.371 177.41 46.954 185.615C46.583 186.505 48.034 186.893 48.4 186.014C51.105 179.518 56.012 172.853 61.479 168.095C68.821 161.704 76.793 159.912 86.099 159.912C95.307 159.912 104.516 159.912 113.725 159.912C122.254 159.912 129.564 159.923 137.156 164.825C144.719 169.708 151.201 177.925 154.57 186.014C154.937 186.891 156.389 186.506 156.017 185.614Z" fill="#782520"/>
<path d="M77.8001 176.592C74.8411 178.675 72.5221 181.998 71.7341 185.551C71.6311 186.015 72.2861 186.191 72.4421 185.746C73.6671 182.267 75.3771 179.472 78.0361 176.898C78.1921 176.748 77.9851 176.461 77.8001 176.592Z" fill="#782520"/>
<path d="M72.002 179.461C70.277 181.619 68.271 184.96 68.408 187.838C68.421 188.108 68.828 188.273 68.961 187.988C69.524 186.778 69.709 185.421 70.167 184.166C70.731 182.62 71.496 181.128 72.309 179.698C72.414 179.513 72.145 179.283 72.002 179.461Z" fill="#782520"/>
<path d="M72.695 174.889C70.634 176.097 69.121 178.891 68.362 181.076C68.234 181.444 68.783 181.652 68.976 181.335C70.152 179.405 71.202 176.9 73.066 175.524C73.437 175.249 73.113 174.644 72.695 174.889Z" fill="#782520"/>
<path d="M123.502 173.944C125.794 176.357 127.391 179.184 129.358 181.829C129.586 182.135 130.223 181.967 130.044 181.54C128.746 178.446 126.118 175.952 123.547 173.9C123.515 173.875 123.474 173.914 123.502 173.944Z" fill="#782520"/>
<path d="M128.418 175.638C129.428 176.947 130.441 178.251 131.31 179.661C132.182 181.076 132.79 182.653 133.733 184.017C133.96 184.346 134.457 184.145 134.376 183.746C133.739 180.615 131.077 177.44 128.688 175.43C128.551 175.315 128.29 175.473 128.418 175.638Z" fill="#782520"/>
<path d="M129.582 172.584C131.353 174.909 133.034 177.234 134.528 179.749C134.806 180.218 135.509 179.803 135.257 179.323C133.89 176.729 132.022 174.308 129.729 172.47C129.654 172.41 129.512 172.491 129.582 172.584Z" fill="#782520"/>
<path d="M54.513 178.259C52.543 179.758 50.806 182.229 50.542 184.744C50.511 185.036 50.97 185.151 51.095 184.894C51.639 183.78 52.012 182.598 52.63 181.516C53.241 180.446 53.976 179.447 54.727 178.473C54.821 178.351 54.635 178.166 54.513 178.259Z" fill="#782520"/>
<path d="M57.235 177.026C55.379 178.711 53.874 181.364 53.457 183.839C53.405 184.147 53.831 184.388 54 184.068C54.593 182.937 55.053 181.744 55.658 180.619C56.265 179.491 56.996 178.44 57.628 177.329C57.77 177.078 57.443 176.837 57.235 177.026Z" fill="#782520"/>
<path d="M146.051 176.806C146.796 177.953 147.458 179.16 148.048 180.393C148.633 181.617 148.944 183.004 149.657 184.157C149.834 184.443 150.325 184.34 150.312 183.98C150.216 181.273 148.105 178.494 146.37 176.559C146.217 176.389 145.925 176.612 146.051 176.806Z" fill="#782520"/>
<path d="M146.469 180.866C147.163 183.129 147.42 185.676 148.311 187.852C148.465 188.228 149.062 188.215 149.063 187.75C149.066 185.363 147.871 182.826 146.898 180.686C146.787 180.443 146.392 180.615 146.469 180.866Z" fill="#782520"/>
<path d="M164.203 138.63C166.203 137.616 168.297 137.267 166.376 134.645C164.455 132.024 165.425 111.614 156.94 95.122C143.154 68.325 124.665 60.448 110.661 58.401C110.776 58.389 116.023 57.811 114.235 56.279C112.428 54.73 105.844 57.053 105.844 57.053C105.844 57.053 111.653 51.373 108.813 51.373C106.031 51.373 101.629 55.425 101.45 55.675C101.271 55.424 96.9031 51.373 94.1211 51.373C91.2811 51.373 97.0901 57.053 97.0901 57.053C97.0901 57.053 90.5071 54.729 88.6991 56.279C86.8921 57.828 92.2841 58.402 92.2841 58.402L92.3131 58.4C78.3091 60.445 59.8171 68.321 46.0291 95.121C37.5451 111.612 38.5141 132.022 36.5931 134.644C34.6721 137.265 36.7671 137.615 38.7661 138.629C41.2641 139.895 33.9371 139.603 37.6801 143.937C40.0781 146.714 48.1421 153.834 64.4581 160.674C86.5721 169.945 120.825 168.721 138.509 160.674C154.611 153.347 162.889 146.713 165.287 143.937C169.033 139.604 161.706 139.897 164.203 138.63Z" fill="#F6764D"/>
<path d="M165.289 143.939C169.032 139.604 161.706 139.897 164.203 138.631C166.203 137.617 168.297 137.268 166.376 134.646C165.153 132.976 165.098 124.088 163.03 113.594C162.92 113.251 162.828 112.907 162.756 112.561C161.436 121.1 157.437 138.798 146.562 143.908C132.057 150.724 123.626 138.826 118.754 133.416C113.882 128.006 109.292 125.661 101.451 126.921C93.6101 125.661 89.0201 128.006 84.1481 133.416C79.2761 138.827 70.8451 150.724 56.3401 143.908C45.4651 138.798 41.4671 121.099 40.1461 112.561C37.8711 123.5 37.8571 132.922 36.5931 134.646C34.6721 137.267 36.7671 137.617 38.7661 138.631C41.2641 139.897 33.9371 139.605 37.6801 143.939C40.0781 146.716 48.1421 153.836 64.4581 160.676C86.5721 169.947 120.825 168.723 138.509 160.676C154.614 153.349 162.891 146.715 165.289 143.939Z" fill="#FFDDA3"/>
<path opacity="0.4" d="M164.203 138.63C166.203 137.616 168.297 137.267 166.376 134.645C164.455 132.024 165.425 111.617 156.942 95.127C161.436 110.462 161.051 129.709 162.563 131.772C164.372 134.241 162.399 134.57 160.516 135.525C158.164 136.717 165.064 136.442 161.539 140.524C159.281 143.139 151.485 149.386 136.321 156.287C119.666 163.866 87.4081 165.018 66.5821 156.287C51.2171 149.845 43.6221 143.139 41.3631 140.524C37.8381 136.442 44.7381 136.717 42.3861 135.525C40.5031 134.57 38.5301 134.241 40.3391 131.772C41.8401 129.724 41.4721 110.734 45.8671 95.454C37.5631 111.887 38.5031 132.042 36.5941 134.646C34.6731 137.267 36.7681 137.617 38.7671 138.631C41.2651 139.897 33.9381 139.605 37.6811 143.939C40.0791 146.716 48.1431 153.836 64.4591 160.676C86.5731 169.947 120.826 168.723 138.51 160.676C154.612 153.349 162.89 146.715 165.288 143.939C169.033 139.604 161.706 139.897 164.203 138.63Z" fill="#F6764D"/>
<path d="M164.582 139.278C168.003 137.669 167.972 137.232 166.906 134.035C165.771 130.631 165.726 126.813 165.287 123.264C163.831 111.491 161.042 100.338 155.006 90.032C145.254 73.383 130.275 60.664 110.862 57.679C110.796 58.17 110.729 58.661 110.663 59.152C112.222 58.964 116.202 58.523 115.061 56.139C113.769 53.439 107.483 55.703 105.647 56.331C105.89 56.749 106.134 57.167 106.377 57.585C107.496 56.476 111.343 53.167 110.154 51.282C108.077 47.992 102.018 54.935 101.454 54.933C101.519 54.933 97.5301 51.632 96.4401 51.203C95.4691 50.821 93.6571 50.105 92.8451 51.206C91.4831 53.054 95.4451 56.476 96.5631 57.585C96.8061 57.167 97.0491 56.749 97.2931 56.331C95.6641 55.773 88.5851 53.304 87.7021 56.382C87.0931 58.508 90.8591 59.253 92.3161 59.151C92.2491 58.66 92.1831 58.169 92.1171 57.678C73.3351 60.564 58.5931 72.571 48.8501 88.552C42.6531 98.717 39.4861 109.653 37.9241 121.389C37.4191 125.182 37.5971 129.722 36.3221 133.352C35.5471 135.558 34.2331 136.671 36.5111 138.377C39.0041 140.244 38.3661 137.869 37.1411 139.638C36.6721 140.316 36.0501 140.475 35.8801 141.401C35.5131 143.394 37.8071 145.239 39.0841 146.429C46.1871 153.044 55.3771 157.734 64.2611 161.399C84.2441 169.642 109.11 170.143 129.854 164.514C141.016 161.485 152.086 155.543 161.239 148.531C163.011 147.173 166.41 144.981 166.956 142.622C167.177 141.667 167.112 141.061 166.533 140.26C165.871 139.344 164.775 139.153 164.582 139.278C165.389 138.754 164.638 137.455 163.825 137.983C162.779 138.663 163.02 138.891 163.257 139.865C163.49 140.823 165.601 140.834 165.319 142.64C165.16 143.658 163.058 145.118 162.268 145.797C154.835 152.19 145.316 157.187 136.281 160.82C117.702 168.289 94.3991 168.184 75.1951 163.395C64.7461 160.79 54.5851 155.966 45.7551 149.808C43.5291 148.256 40.4161 146.393 38.8411 144.096C38.0361 142.921 37.5461 143.102 38.0181 141.642C38.4941 140.171 38.7631 141.073 39.2721 140.185C39.5141 139.763 40.0761 139.775 40.0511 139.127C39.9551 136.612 36.7211 138.706 37.4071 134.748C37.7811 132.586 38.3441 130.49 38.6061 128.269C39.8681 117.573 41.3021 106.815 45.9561 96.967C55.0021 77.827 71.1451 62.41 92.5171 59.126C93.3481 58.998 93.1581 57.594 92.3181 57.653C90.2301 57.799 89.8361 56.447 92.8631 56.711C94.2161 56.829 95.6121 57.34 96.8961 57.779C97.6211 58.027 98.1381 57.033 97.6261 56.525C96.9771 55.882 94.4351 53.676 94.5131 52.871C94.6851 51.112 100.244 55.505 100.925 56.208C101.204 56.496 101.706 56.495 101.986 56.208C102.549 55.63 108.267 51.044 108.432 52.871C108.514 53.774 105.959 55.891 105.319 56.525C104.807 57.032 105.323 58.027 106.049 57.779C107.198 57.386 108.379 57.044 109.572 56.816C111.673 56.415 113.787 57.276 110.666 57.654C109.915 57.745 109.549 58.986 110.467 59.127C128.564 61.91 142.839 73.247 152.386 88.594C158.486 98.399 161.788 108.912 163.401 120.286C163.913 123.9 164.193 127.545 164.731 131.154C164.895 132.254 165.22 133.307 165.421 134.386C165.811 136.484 165.968 136.978 163.829 137.984C162.952 138.393 163.713 139.687 164.582 139.278Z" fill="#782520"/>
<path d="M97.0901 58.953C94.2761 59.135 91.5821 60.16 89.1991 61.651C88.7061 61.959 89.1351 62.661 89.6491 62.42C92.1301 61.255 94.3851 59.742 97.1261 59.214C97.2721 59.186 97.2401 58.943 97.0901 58.953Z" fill="#782520"/>
<path d="M96.4851 61.716C94.3041 63.782 92.6841 66.357 91.8721 69.261C91.7061 69.857 92.5961 70.091 92.7911 69.514C93.7151 66.78 94.9891 64.28 96.7721 62.003C96.9301 61.803 96.6811 61.531 96.4851 61.716Z" fill="#782520"/>
<path d="M100.985 58.773C99.4501 60.312 97.6551 63.311 97.9931 65.574C98.0411 65.897 98.5371 65.931 98.6781 65.664C99.1741 64.721 99.2451 63.577 99.6211 62.57C100.077 61.348 100.73 60.2 101.353 59.057C101.478 58.827 101.177 58.581 100.985 58.773Z" fill="#782520"/>
<path d="M102.792 62.384C102.161 64.439 102.329 67.632 103.886 69.267C104.189 69.586 104.653 69.248 104.578 68.864C104.377 67.837 103.846 66.904 103.585 65.885C103.294 64.752 103.225 63.591 103.13 62.43C103.115 62.241 102.852 62.191 102.792 62.384Z" fill="#782520"/>
<path d="M105.227 59.213C105.166 61.074 105.715 63.424 107.017 64.817C107.31 65.13 107.887 64.807 107.748 64.391C107.473 63.567 107.001 62.848 106.636 62.063C106.199 61.122 105.841 60.141 105.441 59.183C105.396 59.075 105.231 59.081 105.227 59.213Z" fill="#782520"/>
<path d="M109.17 60.835C110.258 61.621 111.34 62.462 112.254 63.45C113.169 64.44 113.85 65.585 114.651 66.66C114.917 67.017 115.572 66.829 115.422 66.335C114.6 63.623 111.936 61.37 109.297 60.535C109.108 60.475 109.028 60.732 109.17 60.835Z" fill="#782520"/>
<path d="M72.4331 107.885C60.7371 107.589 58.5161 121.654 62.5141 128.02C64.5131 131.203 67.0121 133.415 72.4331 133.415C77.6801 133.415 80.3541 131.203 82.3521 128.02C86.3501 121.654 84.1291 107.589 72.4331 107.885Z" fill="white"/>
<path d="M84.3711 116.456C81.9601 108.376 72.4311 103.894 65.0971 109.299C59.4311 113.475 58.4861 122.547 61.8661 128.399C62.3491 129.235 63.6451 128.48 63.1611 127.642C60.4431 122.937 60.8231 115.873 64.5771 111.789C70.5371 105.307 80.6161 109.121 82.9241 116.854C83.2001 117.777 84.6481 117.384 84.3711 116.456Z" fill="#782520"/>
<path d="M75.477 130.213C79.5634 130.213 82.876 126.118 82.876 121.067C82.876 116.016 79.5634 111.921 75.477 111.921C71.3906 111.921 68.078 116.016 68.078 121.067C68.078 126.118 71.3906 130.213 75.477 130.213Z" fill="#782520"/>
<path d="M130.539 107.885C142.235 107.589 144.456 121.654 140.458 128.02C138.459 131.203 135.96 133.415 130.539 133.415C125.292 133.415 122.618 131.203 120.62 128.02C116.622 121.654 118.843 107.589 130.539 107.885Z" fill="white"/>
<path d="M120.048 116.854C122.361 109.104 132.441 105.315 138.395 111.789C142.148 115.87 142.528 122.939 139.812 127.642C139.328 128.479 140.624 129.236 141.107 128.399C144.487 122.547 143.541 113.474 137.876 109.299C130.547 103.897 121.012 108.378 118.602 116.456C118.325 117.383 119.772 117.779 120.048 116.854Z" fill="#782520"/>
<path d="M127.495 130.213C131.581 130.213 134.894 126.118 134.894 121.067C134.894 116.016 131.581 111.921 127.495 111.921C123.409 111.921 120.096 116.016 120.096 121.067C120.096 126.118 123.409 130.213 127.495 130.213Z" fill="#782520"/>
<path d="M60.8751 141.801C49.6001 139.216 53.2061 131.506 60.8751 133.34C71.4911 135.879 70.1001 143.917 60.8751 141.801Z" fill="#FFB6C3"/>
<path d="M142.097 141.801C153.372 139.216 149.766 131.506 142.097 133.34C131.481 135.879 132.871 143.917 142.097 141.801Z" fill="#FFB6C3"/>
<path d="M67.2901 106.475C69.2701 105.627 71.9781 105.029 75.1141 106.156C77.3581 106.962 78.6011 105.165 76.9571 103.878C75.0641 102.396 70.3151 101.536 66.9951 103.166C63.6751 104.796 63.9031 105.909 64.1681 106.542C64.4341 107.175 65.4291 107.272 67.2901 106.475Z" fill="#782520"/>
<path d="M135.682 106.475C133.702 105.627 130.994 105.029 127.858 106.156C125.614 106.962 124.371 105.165 126.015 103.878C127.909 102.396 132.658 101.536 135.977 103.166C139.297 104.796 139.069 105.909 138.804 106.542C138.538 107.175 137.543 107.272 135.682 106.475Z" fill="#782520"/>
<path d="M108.896 124.703C107.427 123.055 95.5461 123.055 94.0761 124.703C92.6071 126.351 95.3591 130.182 101.486 133.098C107.613 130.182 110.365 126.351 108.896 124.703Z" fill="#782520"/>
<g opacity="0.3">
<path d="M95.865 125.721C99.825 125.264 103.628 125.397 107.584 125.737C107.864 125.761 107.931 125.291 107.651 125.242C103.755 124.563 99.705 124.804 95.848 125.595C95.778 125.608 95.793 125.729 95.865 125.721Z" fill="white"/>
</g>
<path d="M100.736 132.226C100.736 135.239 100.736 138.252 100.736 141.265C100.736 142.23 102.236 142.232 102.236 141.265C102.236 138.252 102.236 135.239 102.236 132.226C102.236 131.261 100.736 131.259 100.736 132.226Z" fill="#782520"/>
<path d="M88.6111 137.92C90.2551 137.915 89.8361 138.602 90.3531 139.962C90.8051 141.151 91.5311 142.231 92.6071 142.94C95.5821 144.901 99.5671 143.79 102.016 141.519C102.725 140.861 101.663 139.802 100.955 140.458C97.7651 143.416 92.7431 143.063 91.4981 138.606C91.0331 136.942 90.5531 136.414 88.6111 136.42C87.6461 136.423 87.6451 137.923 88.6111 137.92Z" fill="#782520"/>
<path d="M114.36 136.42C112.409 136.414 111.939 136.934 111.473 138.606C110.233 143.049 105.199 143.411 102.016 140.458C101.309 139.802 100.246 140.86 100.955 141.519C103.404 143.79 107.389 144.901 110.364 142.94C111.373 142.275 112.088 141.272 112.54 140.165C112.73 139.7 112.78 138.773 113.06 138.38C113.416 137.88 113.619 137.918 114.359 137.921C115.326 137.923 115.327 136.423 114.36 136.42Z" fill="#782520"/>
<path d="M44.1001 110.879C44.1001 110.879 35.3621 104.238 28.3721 82.394C21.3821 60.549 26.1001 36.608 28.3721 34.86C30.6441 33.112 64.7211 36.433 80.9741 70.685L44.1001 110.879Z" fill="#F6764D"/>
<path d="M53.6241 53.471C52.9251 51.024 53.7111 51.112 55.6341 52.16C57.5561 53.209 60.9641 53.209 58.4301 49.451C56.6031 46.741 60.9991 47.984 62.6111 47.316C46.9461 34.896 29.9531 33.643 28.3721 34.86C26.2911 36.461 22.1631 56.686 26.8581 76.863C27.6471 76.542 28.3051 75.892 28.1101 74.582C27.6731 71.646 28.7241 71.278 29.3781 72.685C30.0321 74.092 32.9151 74.005 32.7411 71.209C32.5661 68.413 36.1491 49.364 43.8381 53.034C51.5271 56.704 54.3231 55.918 53.6241 53.471Z" fill="#782520"/>
<path d="M45.847 95.123C51.875 83.407 58.801 75.307 65.859 69.731C49.924 48.176 32.852 41.182 31.517 41.85C30.119 42.549 27.497 56.18 31.517 72.686C34.313 84.165 40.233 94.764 43.581 100.158C44.252 98.455 45.001 96.769 45.847 95.123Z" fill="#FFDDA3"/>
<path d="M66.507 69.352C59.624 60.204 51.535 51.785 41.807 45.638C39.864 44.41 33.367 39.586 30.821 41.456C29.367 42.524 29.255 46.297 29.059 47.822C28.307 53.674 28.556 59.677 29.382 65.506C31.161 78.063 36.335 89.795 42.933 100.535C43.438 101.356 44.735 100.604 44.228 99.778C39.022 91.305 34.613 82.178 32.24 72.485C30.766 66.466 30.036 60.238 30.136 54.04C30.181 51.251 29.762 45.948 31.445 43.533C32.448 42.094 33.331 42.878 35.122 43.672C37.664 44.799 40.071 46.263 42.381 47.801C51.298 53.737 58.797 61.584 65.211 70.108C65.785 70.871 67.088 70.125 66.507 69.352Z" fill="#782520"/>
<path opacity="0.4" d="M45.8471 95.123C51.0071 85.093 56.8261 77.714 62.8231 72.299C59.5001 74.382 56.1091 77.043 53.4901 80.312C45.8711 89.823 42.0031 93.868 34.5461 76.862C29.8971 66.259 27.2191 52.032 25.8601 42.819C24.2691 52.011 23.6611 67.673 28.3711 82.393C32.8001 96.234 37.9281 103.966 41.0931 107.778C42.2231 103.539 43.7441 99.211 45.8471 95.123Z" fill="#F6764D"/>
<path d="M53.49 87.986C53.49 87.986 46.022 85.365 46.022 84.141C46.022 82.918 50.17 83.791 49.756 82.918C49.342 82.044 38.857 62.646 39.731 61.248C40.605 59.85 51.958 80.122 52.835 78.374C53.712 76.627 54.411 73.936 55.983 74.582C57.556 75.228 58.43 81.345 58.43 81.345L53.49 87.986Z" fill="#F6764D"/>
<path d="M42.945 108.747C34.429 98.349 28.799 84.974 26.604 71.786C25.321 64.077 25.109 56.133 25.871 48.356C26.128 45.734 26.277 37.471 28.753 35.569C30.141 34.503 33.998 35.615 35.494 35.908C39.734 36.739 43.881 38.13 47.831 39.867C59.762 45.114 69.713 53.73 76.845 64.613C77.372 65.417 78.671 64.667 78.14 63.856C68.185 48.665 51.286 36.035 32.798 33.971C27.994 33.435 26.979 34.578 25.81 39.314C23.066 50.427 23.348 62.743 25.464 73.916C27.892 86.733 33.584 99.673 41.883 109.807C42.496 110.555 43.552 109.488 42.945 108.747Z" fill="#782520"/>
<g opacity="0.5">
<path d="M67.8631 57.981C60.4371 48.579 49.4011 39.445 37.1971 37.395C36.8681 37.34 36.5891 37.819 36.9491 37.984C42.4111 40.495 47.9231 42.391 53.0341 45.655C58.4361 49.105 63.4911 53.296 67.7801 58.064C67.8321 58.121 67.9091 58.039 67.8631 57.981Z" fill="white"/>
</g>
<path d="M158.872 110.879C158.872 110.879 167.61 104.238 174.6 82.394C181.59 60.549 176.872 36.608 174.6 34.86C172.328 33.112 138.251 36.433 121.998 70.685L158.872 110.879Z" fill="#F6764D"/>
<path d="M149.348 53.471C150.047 51.024 149.261 51.112 147.338 52.16C145.416 53.209 142.008 53.209 144.542 49.451C146.369 46.741 141.972 47.984 140.361 47.316C156.026 34.895 173.019 33.642 174.601 34.859C176.682 36.46 180.81 56.685 176.115 76.862C175.326 76.541 174.668 75.891 174.863 74.581C175.3 71.645 174.248 71.277 173.595 72.684C172.941 74.091 170.058 74.004 170.232 71.208C170.407 68.412 166.824 49.363 159.135 53.033C151.445 56.704 148.649 55.918 149.348 53.471Z" fill="#782520"/>
<path d="M157.124 95.123C151.096 83.407 144.17 75.307 137.112 69.731C153.048 48.176 170.119 41.182 171.454 41.85C172.852 42.549 175.474 56.18 171.454 72.686C168.658 84.165 162.739 94.764 159.391 100.158C158.72 98.455 157.971 96.769 157.124 95.123Z" fill="#FFDDA3"/>
<path opacity="0.4" d="M157.124 95.123C151.964 85.093 146.145 77.714 140.149 72.299C143.472 74.382 146.863 77.043 149.482 80.312C157.101 89.823 160.97 93.868 168.426 76.862C173.075 66.259 175.753 52.032 177.112 42.819C178.703 52.011 179.311 67.673 174.601 82.393C170.172 96.234 165.044 103.966 161.879 107.778C160.748 103.539 159.227 99.211 157.124 95.123Z" fill="#F6764D"/>
<path d="M137.76 70.109C144.068 61.725 151.419 54.013 160.137 48.104C162.582 46.447 165.143 44.873 167.849 43.673C169.703 42.851 170.465 42.137 171.526 43.534C173.257 45.814 172.792 51.341 172.835 54.041C172.929 59.918 172.267 65.815 170.948 71.54C168.633 81.586 164.119 91.028 158.743 99.779C158.236 100.604 159.533 101.358 160.038 100.536C166.637 89.795 171.808 78.065 173.589 65.507C174.39 59.856 174.643 54.05 173.976 48.371C173.776 46.669 173.743 42.626 172.15 41.457C169.612 39.593 163.082 44.426 161.164 45.639C151.436 51.788 143.348 60.204 136.464 69.353C135.884 70.124 137.186 70.872 137.76 70.109Z" fill="#782520"/>
<path d="M149.482 87.986C149.482 87.986 156.95 85.365 156.95 84.141C156.95 82.918 152.802 83.791 153.216 82.918C153.63 82.044 164.115 62.646 163.241 61.248C162.367 59.85 151.014 80.122 150.137 78.374C149.26 76.627 148.561 73.936 146.989 74.582C145.416 75.228 144.542 81.345 144.542 81.345L149.482 87.986Z" fill="#F6764D"/>
<path d="M161.087 109.807C176.085 91.494 181.844 65.876 177.854 42.732C177.135 38.558 176.941 33.697 171.998 33.816C165.472 33.972 158.725 36.508 152.9 39.245C141.371 44.663 131.797 53.225 124.83 63.856C124.299 64.666 125.598 65.418 126.125 64.613C133.158 53.882 142.927 45.353 154.649 40.083C158.746 38.241 163.063 36.772 167.477 35.907C169.031 35.603 172.786 34.503 174.218 35.568C176.671 37.392 176.855 45.858 177.1 48.355C177.835 55.848 177.656 63.482 176.502 70.922C174.408 84.417 168.726 98.123 160.026 108.746C159.42 109.488 160.475 110.555 161.087 109.807Z" fill="#782520"/>
<g opacity="0.5">
<path d="M165.845 37.65C154.258 40.813 141.537 47.409 134.873 57.861C134.669 58.18 135.116 58.49 135.379 58.252C140.005 54.049 144.023 49.592 149.283 46.075C154.41 42.647 160.043 39.767 165.877 37.764C165.946 37.739 165.918 37.63 165.845 37.65Z" fill="white"/>
</g>
</svg>
